G04 EAGLE Gerber RS-274X export*
G75*
%MOMM*%
%FSLAX34Y34*%
%LPD*%
%INTop Copper*%
%IPPOS*%
%AMOC8*
5,1,8,0,0,1.08239X$1,22.5*%
G01*
%ADD10C,2.959681*%
%ADD11R,5.000000X5.000000*%
%ADD12C,0.304800*%
%ADD13C,0.609600*%
%ADD14C,0.152400*%


D10*
X164454Y1581649D03*
X167877Y202659D03*
X1753381Y198961D03*
D11*
X780268Y570214D03*
X232850Y439932D03*
X231779Y562259D03*
X232923Y1200891D03*
X232348Y1323236D03*
X233336Y1084355D03*
X233831Y969259D03*
X230419Y672392D03*
X779911Y670447D03*
X1306263Y571907D03*
X1305777Y672054D03*
X778489Y1096242D03*
X779031Y1193813D03*
X1304864Y1091971D03*
X1305061Y1193930D03*
X229162Y782592D03*
D12*
X778899Y571583D02*
X780268Y570214D01*
X778899Y571583D02*
X534591Y571583D01*
X431847Y674327D02*
X232355Y674327D01*
X230419Y672392D01*
X431847Y674327D02*
X534591Y571583D01*
X779710Y670647D02*
X779911Y670447D01*
X779710Y670647D02*
X493702Y670647D01*
X381757Y782592D01*
D13*
X234212Y778208D02*
X230832Y778208D01*
D12*
X233547Y778208D02*
X229162Y782592D01*
X233547Y778208D02*
X234212Y778208D01*
X229162Y782592D02*
X381757Y782592D01*
D14*
X777124Y1094877D02*
X778489Y1096242D01*
D12*
X777124Y1094877D02*
X504679Y1094877D01*
X379062Y969259D01*
X233831Y969259D01*
X778748Y1193529D02*
X779031Y1193813D01*
X778748Y1193529D02*
X543218Y1193529D01*
X433450Y1083761D01*
D14*
X233930Y1083761D02*
X233336Y1084355D01*
D12*
X233930Y1083761D02*
X433450Y1083761D01*
X390074Y439932D02*
X232850Y439932D01*
X1306263Y317796D02*
X1306263Y571907D01*
X1306263Y317796D02*
X1265718Y277251D01*
X552756Y277251D01*
X390074Y439932D01*
X325774Y562259D02*
X572793Y315240D01*
X325774Y562259D02*
X231779Y562259D01*
X572793Y315240D02*
X1183325Y315240D01*
X1254904Y386819D01*
X1254904Y649503D01*
X1277361Y671959D01*
X1305818Y671959D01*
X1305818Y672014D02*
X1305777Y672054D01*
X1305818Y672014D02*
X1305818Y671959D01*
X588088Y1441997D02*
X346981Y1200891D01*
X232923Y1200891D01*
X588088Y1441997D02*
X1192993Y1441997D01*
X1252140Y1382850D02*
X1252140Y1105050D01*
X1274213Y1082977D01*
X1301223Y1082977D01*
X1301223Y1093149D01*
X1252140Y1382850D02*
X1192993Y1441997D01*
X1302401Y1091971D02*
X1304864Y1091971D01*
X1302401Y1091971D02*
X1301223Y1093149D01*
X564515Y1478135D02*
X409615Y1323236D01*
X232348Y1323236D01*
X564515Y1478135D02*
X1261012Y1478135D01*
X1305061Y1434086D01*
X1305061Y1193930D01*
M02*
