G04 EAGLE Gerber RS-274X export*
G75*
%MOMM*%
%FSLAX34Y34*%
%LPD*%
%INSilkscreen Top*%
%IPPOS*%
%AMOC8*
5,1,8,0,0,1.08239X$1,22.5*%
G01*
%ADD10R,9.968625X10.101388*%
%ADD11C,0.101600*%
%ADD12C,0.076200*%
%ADD13C,0.130000*%


D10*
X362086Y433319D03*
X491519Y301925D03*
X361501Y302137D03*
X491635Y433221D03*
D11*
X207346Y689270D02*
X207346Y702478D01*
X205878Y689270D02*
X208813Y689270D01*
X208813Y702478D02*
X205878Y702478D01*
X214899Y694406D02*
X218568Y692939D01*
X214898Y694406D02*
X214819Y694440D01*
X214741Y694478D01*
X214664Y694519D01*
X214590Y694563D01*
X214518Y694611D01*
X214448Y694662D01*
X214381Y694716D01*
X214316Y694773D01*
X214253Y694834D01*
X214194Y694896D01*
X214137Y694962D01*
X214084Y695030D01*
X214033Y695100D01*
X213986Y695173D01*
X213942Y695248D01*
X213902Y695324D01*
X213865Y695403D01*
X213832Y695482D01*
X213802Y695564D01*
X213776Y695646D01*
X213754Y695730D01*
X213736Y695815D01*
X213722Y695900D01*
X213711Y695986D01*
X213705Y696072D01*
X213702Y696159D01*
X213703Y696246D01*
X213709Y696332D01*
X213718Y696418D01*
X213731Y696504D01*
X213748Y696589D01*
X213769Y696673D01*
X213793Y696756D01*
X213822Y696837D01*
X213854Y696918D01*
X213889Y696997D01*
X213929Y697074D01*
X213971Y697149D01*
X214018Y697222D01*
X214067Y697294D01*
X214119Y697362D01*
X214175Y697429D01*
X214234Y697492D01*
X214295Y697553D01*
X214359Y697612D01*
X214426Y697667D01*
X214495Y697719D01*
X214567Y697768D01*
X214640Y697813D01*
X214716Y697855D01*
X214793Y697894D01*
X214872Y697929D01*
X214953Y697961D01*
X215035Y697989D01*
X215118Y698013D01*
X215202Y698033D01*
X215287Y698049D01*
X215373Y698062D01*
X215459Y698070D01*
X215546Y698075D01*
X215632Y698076D01*
X215633Y698075D02*
X215833Y698070D01*
X216033Y698060D01*
X216233Y698045D01*
X216433Y698025D01*
X216632Y698001D01*
X216830Y697971D01*
X217027Y697937D01*
X217224Y697899D01*
X217419Y697855D01*
X217614Y697807D01*
X217807Y697754D01*
X217999Y697697D01*
X218190Y697635D01*
X218379Y697568D01*
X218566Y697497D01*
X218751Y697421D01*
X218935Y697341D01*
X218568Y692939D02*
X218647Y692905D01*
X218725Y692867D01*
X218802Y692826D01*
X218876Y692782D01*
X218948Y692734D01*
X219018Y692683D01*
X219085Y692629D01*
X219150Y692572D01*
X219213Y692511D01*
X219272Y692449D01*
X219329Y692383D01*
X219382Y692315D01*
X219433Y692245D01*
X219480Y692172D01*
X219524Y692097D01*
X219564Y692021D01*
X219601Y691942D01*
X219634Y691863D01*
X219664Y691781D01*
X219690Y691699D01*
X219712Y691615D01*
X219730Y691530D01*
X219744Y691445D01*
X219755Y691359D01*
X219761Y691273D01*
X219764Y691186D01*
X219763Y691099D01*
X219757Y691013D01*
X219748Y690927D01*
X219735Y690841D01*
X219718Y690756D01*
X219697Y690672D01*
X219673Y690589D01*
X219644Y690508D01*
X219612Y690427D01*
X219577Y690348D01*
X219537Y690271D01*
X219495Y690196D01*
X219448Y690123D01*
X219399Y690051D01*
X219347Y689983D01*
X219291Y689916D01*
X219232Y689853D01*
X219171Y689792D01*
X219107Y689733D01*
X219040Y689678D01*
X218971Y689626D01*
X218899Y689577D01*
X218826Y689532D01*
X218750Y689490D01*
X218673Y689451D01*
X218594Y689416D01*
X218513Y689384D01*
X218431Y689356D01*
X218348Y689332D01*
X218264Y689312D01*
X218179Y689296D01*
X218093Y689283D01*
X218007Y689275D01*
X217920Y689270D01*
X217834Y689269D01*
X217834Y689270D02*
X217540Y689278D01*
X217246Y689293D01*
X216952Y689314D01*
X216659Y689343D01*
X216367Y689378D01*
X216076Y689421D01*
X215786Y689470D01*
X215497Y689526D01*
X215209Y689589D01*
X214923Y689658D01*
X214639Y689735D01*
X214357Y689818D01*
X214077Y689908D01*
X213798Y690004D01*
X224893Y692205D02*
X224893Y695140D01*
X224895Y695247D01*
X224901Y695354D01*
X224911Y695461D01*
X224924Y695567D01*
X224942Y695673D01*
X224963Y695778D01*
X224988Y695882D01*
X225017Y695986D01*
X225050Y696088D01*
X225087Y696188D01*
X225127Y696288D01*
X225171Y696386D01*
X225218Y696482D01*
X225269Y696576D01*
X225323Y696669D01*
X225380Y696759D01*
X225441Y696848D01*
X225505Y696934D01*
X225572Y697017D01*
X225642Y697099D01*
X225715Y697177D01*
X225791Y697253D01*
X225869Y697326D01*
X225951Y697396D01*
X226034Y697463D01*
X226120Y697527D01*
X226209Y697588D01*
X226299Y697645D01*
X226392Y697699D01*
X226486Y697750D01*
X226582Y697797D01*
X226680Y697841D01*
X226780Y697881D01*
X226880Y697918D01*
X226982Y697951D01*
X227086Y697980D01*
X227190Y698005D01*
X227295Y698026D01*
X227401Y698044D01*
X227507Y698057D01*
X227614Y698067D01*
X227721Y698073D01*
X227828Y698075D01*
X227935Y698073D01*
X228042Y698067D01*
X228149Y698057D01*
X228255Y698044D01*
X228361Y698026D01*
X228466Y698005D01*
X228570Y697980D01*
X228674Y697951D01*
X228776Y697918D01*
X228876Y697881D01*
X228976Y697841D01*
X229074Y697797D01*
X229170Y697750D01*
X229264Y697699D01*
X229357Y697645D01*
X229447Y697588D01*
X229536Y697527D01*
X229622Y697463D01*
X229705Y697396D01*
X229787Y697326D01*
X229865Y697253D01*
X229941Y697177D01*
X230014Y697099D01*
X230084Y697017D01*
X230151Y696934D01*
X230215Y696848D01*
X230276Y696759D01*
X230333Y696669D01*
X230387Y696576D01*
X230438Y696482D01*
X230485Y696386D01*
X230529Y696288D01*
X230569Y696188D01*
X230606Y696088D01*
X230639Y695986D01*
X230668Y695882D01*
X230693Y695778D01*
X230714Y695673D01*
X230732Y695567D01*
X230745Y695461D01*
X230755Y695354D01*
X230761Y695247D01*
X230763Y695140D01*
X230763Y692205D01*
X230761Y692098D01*
X230755Y691991D01*
X230745Y691884D01*
X230732Y691778D01*
X230714Y691672D01*
X230693Y691567D01*
X230668Y691463D01*
X230639Y691359D01*
X230606Y691257D01*
X230569Y691157D01*
X230529Y691057D01*
X230485Y690959D01*
X230438Y690863D01*
X230387Y690769D01*
X230333Y690676D01*
X230276Y690586D01*
X230215Y690497D01*
X230151Y690411D01*
X230084Y690328D01*
X230014Y690246D01*
X229941Y690168D01*
X229865Y690092D01*
X229787Y690019D01*
X229705Y689949D01*
X229622Y689882D01*
X229536Y689818D01*
X229447Y689757D01*
X229357Y689700D01*
X229264Y689646D01*
X229170Y689595D01*
X229074Y689548D01*
X228976Y689504D01*
X228876Y689464D01*
X228776Y689427D01*
X228674Y689394D01*
X228570Y689365D01*
X228466Y689340D01*
X228361Y689319D01*
X228255Y689301D01*
X228149Y689288D01*
X228042Y689278D01*
X227935Y689272D01*
X227828Y689270D01*
X227721Y689272D01*
X227614Y689278D01*
X227507Y689288D01*
X227401Y689301D01*
X227295Y689319D01*
X227190Y689340D01*
X227086Y689365D01*
X226982Y689394D01*
X226880Y689427D01*
X226780Y689464D01*
X226680Y689504D01*
X226582Y689548D01*
X226486Y689595D01*
X226392Y689646D01*
X226299Y689700D01*
X226209Y689757D01*
X226120Y689818D01*
X226034Y689882D01*
X225951Y689949D01*
X225869Y690019D01*
X225791Y690092D01*
X225715Y690168D01*
X225642Y690246D01*
X225572Y690328D01*
X225505Y690411D01*
X225441Y690497D01*
X225380Y690586D01*
X225323Y690676D01*
X225269Y690769D01*
X225218Y690863D01*
X225171Y690959D01*
X225127Y691057D01*
X225087Y691157D01*
X225050Y691257D01*
X225017Y691359D01*
X224988Y691463D01*
X224963Y691567D01*
X224942Y691672D01*
X224924Y691778D01*
X224911Y691884D01*
X224901Y691991D01*
X224895Y692098D01*
X224893Y692205D01*
X236169Y691471D02*
X236169Y702478D01*
X236169Y691471D02*
X236171Y691380D01*
X236177Y691289D01*
X236186Y691199D01*
X236199Y691109D01*
X236216Y691019D01*
X236236Y690931D01*
X236261Y690843D01*
X236288Y690756D01*
X236320Y690671D01*
X236354Y690587D01*
X236393Y690504D01*
X236434Y690423D01*
X236479Y690344D01*
X236527Y690267D01*
X236579Y690192D01*
X236633Y690119D01*
X236690Y690048D01*
X236751Y689980D01*
X236814Y689915D01*
X236879Y689852D01*
X236947Y689791D01*
X237018Y689734D01*
X237091Y689680D01*
X237166Y689628D01*
X237243Y689580D01*
X237322Y689535D01*
X237403Y689494D01*
X237486Y689455D01*
X237570Y689421D01*
X237655Y689389D01*
X237742Y689362D01*
X237830Y689337D01*
X237918Y689317D01*
X238008Y689300D01*
X238098Y689287D01*
X238188Y689278D01*
X238279Y689272D01*
X238370Y689270D01*
X245321Y694406D02*
X248623Y694406D01*
X245321Y694406D02*
X245221Y694404D01*
X245122Y694398D01*
X245023Y694389D01*
X244924Y694375D01*
X244826Y694358D01*
X244729Y694337D01*
X244632Y694312D01*
X244537Y694283D01*
X244443Y694251D01*
X244350Y694215D01*
X244258Y694176D01*
X244168Y694133D01*
X244080Y694086D01*
X243994Y694037D01*
X243910Y693984D01*
X243828Y693927D01*
X243748Y693868D01*
X243670Y693805D01*
X243595Y693740D01*
X243523Y693671D01*
X243453Y693600D01*
X243386Y693527D01*
X243322Y693450D01*
X243261Y693372D01*
X243203Y693290D01*
X243149Y693207D01*
X243097Y693122D01*
X243049Y693035D01*
X243004Y692946D01*
X242963Y692855D01*
X242925Y692763D01*
X242891Y692669D01*
X242861Y692575D01*
X242834Y692479D01*
X242811Y692382D01*
X242792Y692284D01*
X242777Y692186D01*
X242765Y692087D01*
X242757Y691987D01*
X242753Y691888D01*
X242753Y691788D01*
X242757Y691689D01*
X242765Y691589D01*
X242777Y691490D01*
X242792Y691392D01*
X242811Y691294D01*
X242834Y691197D01*
X242861Y691101D01*
X242891Y691007D01*
X242925Y690913D01*
X242963Y690821D01*
X243004Y690730D01*
X243049Y690641D01*
X243097Y690554D01*
X243149Y690469D01*
X243203Y690386D01*
X243261Y690304D01*
X243322Y690226D01*
X243386Y690149D01*
X243453Y690076D01*
X243523Y690005D01*
X243595Y689936D01*
X243670Y689871D01*
X243748Y689808D01*
X243828Y689749D01*
X243910Y689692D01*
X243994Y689639D01*
X244080Y689590D01*
X244168Y689543D01*
X244258Y689500D01*
X244350Y689461D01*
X244443Y689425D01*
X244537Y689393D01*
X244632Y689364D01*
X244729Y689339D01*
X244826Y689318D01*
X244924Y689301D01*
X245023Y689287D01*
X245122Y689278D01*
X245221Y689272D01*
X245321Y689270D01*
X248623Y689270D01*
X248623Y695874D01*
X248621Y695965D01*
X248615Y696056D01*
X248606Y696146D01*
X248593Y696236D01*
X248576Y696326D01*
X248556Y696414D01*
X248531Y696502D01*
X248504Y696589D01*
X248472Y696674D01*
X248438Y696758D01*
X248399Y696841D01*
X248358Y696922D01*
X248313Y697001D01*
X248265Y697078D01*
X248213Y697153D01*
X248159Y697226D01*
X248102Y697297D01*
X248041Y697365D01*
X247978Y697430D01*
X247913Y697493D01*
X247845Y697554D01*
X247774Y697611D01*
X247701Y697665D01*
X247626Y697717D01*
X247549Y697765D01*
X247470Y697810D01*
X247389Y697851D01*
X247306Y697890D01*
X247222Y697924D01*
X247137Y697956D01*
X247050Y697983D01*
X246962Y698008D01*
X246874Y698028D01*
X246784Y698045D01*
X246694Y698058D01*
X246604Y698067D01*
X246513Y698073D01*
X246422Y698075D01*
X243486Y698075D01*
X253266Y698075D02*
X257668Y698075D01*
X254733Y702478D02*
X254733Y691471D01*
X254735Y691380D01*
X254741Y691289D01*
X254750Y691199D01*
X254763Y691109D01*
X254780Y691019D01*
X254800Y690931D01*
X254825Y690843D01*
X254852Y690756D01*
X254884Y690671D01*
X254918Y690587D01*
X254957Y690504D01*
X254998Y690423D01*
X255043Y690344D01*
X255091Y690267D01*
X255143Y690192D01*
X255197Y690119D01*
X255254Y690048D01*
X255315Y689980D01*
X255378Y689915D01*
X255443Y689852D01*
X255512Y689791D01*
X255582Y689734D01*
X255655Y689680D01*
X255730Y689628D01*
X255807Y689580D01*
X255886Y689535D01*
X255967Y689494D01*
X256050Y689455D01*
X256134Y689421D01*
X256219Y689389D01*
X256306Y689361D01*
X256394Y689337D01*
X256482Y689317D01*
X256572Y689300D01*
X256662Y689287D01*
X256752Y689278D01*
X256843Y689272D01*
X256934Y689270D01*
X257668Y689270D01*
X264646Y689270D02*
X268314Y689270D01*
X264646Y689270D02*
X264555Y689272D01*
X264464Y689278D01*
X264374Y689287D01*
X264284Y689300D01*
X264194Y689317D01*
X264106Y689337D01*
X264018Y689362D01*
X263931Y689389D01*
X263846Y689421D01*
X263762Y689455D01*
X263679Y689494D01*
X263598Y689535D01*
X263519Y689580D01*
X263442Y689628D01*
X263367Y689680D01*
X263294Y689734D01*
X263223Y689791D01*
X263155Y689852D01*
X263090Y689915D01*
X263027Y689980D01*
X262966Y690048D01*
X262909Y690119D01*
X262855Y690192D01*
X262803Y690267D01*
X262755Y690344D01*
X262710Y690423D01*
X262669Y690504D01*
X262630Y690587D01*
X262596Y690671D01*
X262564Y690756D01*
X262537Y690843D01*
X262512Y690931D01*
X262492Y691019D01*
X262475Y691109D01*
X262462Y691199D01*
X262453Y691289D01*
X262447Y691380D01*
X262445Y691471D01*
X262444Y691471D02*
X262444Y695140D01*
X262446Y695247D01*
X262452Y695354D01*
X262462Y695461D01*
X262475Y695567D01*
X262493Y695673D01*
X262514Y695778D01*
X262539Y695882D01*
X262568Y695986D01*
X262601Y696088D01*
X262638Y696188D01*
X262678Y696288D01*
X262722Y696386D01*
X262769Y696482D01*
X262820Y696576D01*
X262874Y696669D01*
X262931Y696759D01*
X262992Y696848D01*
X263056Y696934D01*
X263123Y697017D01*
X263193Y697099D01*
X263266Y697177D01*
X263342Y697253D01*
X263420Y697326D01*
X263502Y697396D01*
X263585Y697463D01*
X263671Y697527D01*
X263760Y697588D01*
X263850Y697645D01*
X263943Y697699D01*
X264037Y697750D01*
X264133Y697797D01*
X264231Y697841D01*
X264331Y697881D01*
X264431Y697918D01*
X264533Y697951D01*
X264637Y697980D01*
X264741Y698005D01*
X264846Y698026D01*
X264952Y698044D01*
X265058Y698057D01*
X265165Y698067D01*
X265272Y698073D01*
X265379Y698075D01*
X265486Y698073D01*
X265593Y698067D01*
X265700Y698057D01*
X265806Y698044D01*
X265912Y698026D01*
X266017Y698005D01*
X266121Y697980D01*
X266225Y697951D01*
X266327Y697918D01*
X266427Y697881D01*
X266527Y697841D01*
X266625Y697797D01*
X266721Y697750D01*
X266815Y697699D01*
X266908Y697645D01*
X266998Y697588D01*
X267087Y697527D01*
X267173Y697463D01*
X267256Y697396D01*
X267338Y697326D01*
X267416Y697253D01*
X267492Y697177D01*
X267565Y697099D01*
X267635Y697017D01*
X267702Y696934D01*
X267766Y696848D01*
X267827Y696759D01*
X267884Y696669D01*
X267938Y696576D01*
X267989Y696482D01*
X268036Y696386D01*
X268080Y696288D01*
X268120Y696188D01*
X268157Y696088D01*
X268190Y695986D01*
X268219Y695882D01*
X268244Y695778D01*
X268265Y695673D01*
X268283Y695567D01*
X268296Y695461D01*
X268306Y695354D01*
X268312Y695247D01*
X268314Y695140D01*
X268314Y693673D01*
X262444Y693673D01*
X279347Y689270D02*
X279347Y702478D01*
X279347Y689270D02*
X275678Y689270D01*
X275587Y689272D01*
X275496Y689278D01*
X275406Y689287D01*
X275316Y689300D01*
X275226Y689317D01*
X275138Y689337D01*
X275050Y689362D01*
X274963Y689389D01*
X274878Y689421D01*
X274794Y689455D01*
X274711Y689494D01*
X274630Y689535D01*
X274551Y689580D01*
X274474Y689628D01*
X274399Y689680D01*
X274326Y689734D01*
X274255Y689791D01*
X274187Y689852D01*
X274122Y689915D01*
X274059Y689980D01*
X273998Y690048D01*
X273941Y690119D01*
X273887Y690192D01*
X273835Y690267D01*
X273787Y690344D01*
X273742Y690423D01*
X273701Y690504D01*
X273662Y690587D01*
X273628Y690671D01*
X273596Y690756D01*
X273569Y690843D01*
X273544Y690931D01*
X273524Y691019D01*
X273507Y691109D01*
X273494Y691199D01*
X273485Y691289D01*
X273479Y691380D01*
X273477Y691471D01*
X273477Y695874D01*
X273479Y695965D01*
X273485Y696056D01*
X273494Y696146D01*
X273507Y696236D01*
X273524Y696326D01*
X273544Y696414D01*
X273569Y696502D01*
X273596Y696589D01*
X273628Y696674D01*
X273662Y696758D01*
X273701Y696841D01*
X273742Y696922D01*
X273787Y697001D01*
X273835Y697078D01*
X273887Y697153D01*
X273941Y697226D01*
X273998Y697297D01*
X274059Y697365D01*
X274122Y697430D01*
X274187Y697493D01*
X274255Y697554D01*
X274326Y697611D01*
X274399Y697665D01*
X274474Y697717D01*
X274551Y697765D01*
X274630Y697810D01*
X274711Y697851D01*
X274794Y697890D01*
X274878Y697924D01*
X274963Y697956D01*
X275050Y697983D01*
X275138Y698008D01*
X275226Y698028D01*
X275316Y698045D01*
X275406Y698058D01*
X275496Y698067D01*
X275587Y698073D01*
X275678Y698075D01*
X279347Y698075D01*
X292614Y702478D02*
X292614Y689270D01*
X292614Y702478D02*
X296283Y702478D01*
X296403Y702476D01*
X296523Y702470D01*
X296643Y702460D01*
X296762Y702447D01*
X296881Y702429D01*
X296999Y702408D01*
X297116Y702382D01*
X297233Y702353D01*
X297348Y702320D01*
X297462Y702283D01*
X297575Y702243D01*
X297687Y702199D01*
X297797Y702151D01*
X297906Y702100D01*
X298013Y702045D01*
X298117Y701986D01*
X298220Y701925D01*
X298321Y701860D01*
X298420Y701791D01*
X298517Y701720D01*
X298611Y701645D01*
X298702Y701568D01*
X298791Y701487D01*
X298877Y701403D01*
X298961Y701317D01*
X299042Y701228D01*
X299119Y701137D01*
X299194Y701043D01*
X299265Y700946D01*
X299334Y700847D01*
X299399Y700746D01*
X299460Y700644D01*
X299519Y700539D01*
X299574Y700432D01*
X299625Y700323D01*
X299673Y700213D01*
X299717Y700101D01*
X299757Y699988D01*
X299794Y699874D01*
X299827Y699759D01*
X299856Y699642D01*
X299882Y699525D01*
X299903Y699407D01*
X299921Y699288D01*
X299934Y699169D01*
X299944Y699049D01*
X299950Y698929D01*
X299952Y698809D01*
X299950Y698689D01*
X299944Y698569D01*
X299934Y698449D01*
X299921Y698330D01*
X299903Y698211D01*
X299882Y698093D01*
X299856Y697976D01*
X299827Y697859D01*
X299794Y697744D01*
X299757Y697630D01*
X299717Y697517D01*
X299673Y697405D01*
X299625Y697295D01*
X299574Y697186D01*
X299519Y697079D01*
X299460Y696975D01*
X299399Y696872D01*
X299334Y696771D01*
X299265Y696672D01*
X299194Y696575D01*
X299119Y696481D01*
X299042Y696390D01*
X298961Y696301D01*
X298877Y696215D01*
X298791Y696131D01*
X298702Y696050D01*
X298611Y695973D01*
X298517Y695898D01*
X298420Y695827D01*
X298321Y695758D01*
X298220Y695693D01*
X298118Y695632D01*
X298013Y695573D01*
X297906Y695518D01*
X297797Y695467D01*
X297687Y695419D01*
X297575Y695375D01*
X297462Y695335D01*
X297348Y695298D01*
X297233Y695265D01*
X297116Y695236D01*
X296999Y695210D01*
X296881Y695189D01*
X296762Y695171D01*
X296643Y695158D01*
X296523Y695148D01*
X296403Y695142D01*
X296283Y695140D01*
X292614Y695140D01*
X304075Y702478D02*
X308478Y689270D01*
X312881Y702478D01*
X327338Y689270D02*
X330273Y689270D01*
X327338Y689270D02*
X327231Y689272D01*
X327124Y689278D01*
X327017Y689288D01*
X326911Y689301D01*
X326805Y689319D01*
X326700Y689340D01*
X326596Y689365D01*
X326492Y689394D01*
X326390Y689427D01*
X326290Y689464D01*
X326190Y689504D01*
X326092Y689548D01*
X325996Y689595D01*
X325902Y689646D01*
X325809Y689700D01*
X325719Y689757D01*
X325630Y689818D01*
X325544Y689882D01*
X325461Y689949D01*
X325379Y690019D01*
X325301Y690092D01*
X325225Y690168D01*
X325152Y690246D01*
X325082Y690328D01*
X325015Y690411D01*
X324951Y690497D01*
X324890Y690586D01*
X324833Y690676D01*
X324779Y690769D01*
X324728Y690863D01*
X324681Y690959D01*
X324637Y691057D01*
X324597Y691157D01*
X324560Y691257D01*
X324527Y691359D01*
X324498Y691463D01*
X324473Y691567D01*
X324452Y691672D01*
X324434Y691778D01*
X324421Y691884D01*
X324411Y691991D01*
X324405Y692098D01*
X324403Y692205D01*
X324403Y699543D01*
X324405Y699650D01*
X324411Y699757D01*
X324421Y699864D01*
X324434Y699970D01*
X324452Y700076D01*
X324473Y700181D01*
X324498Y700285D01*
X324527Y700389D01*
X324560Y700491D01*
X324597Y700591D01*
X324637Y700691D01*
X324681Y700789D01*
X324728Y700885D01*
X324779Y700979D01*
X324833Y701072D01*
X324890Y701162D01*
X324951Y701251D01*
X325015Y701337D01*
X325082Y701420D01*
X325152Y701502D01*
X325225Y701580D01*
X325301Y701656D01*
X325379Y701729D01*
X325461Y701799D01*
X325544Y701866D01*
X325630Y701930D01*
X325719Y701991D01*
X325809Y702048D01*
X325902Y702102D01*
X325996Y702153D01*
X326092Y702200D01*
X326190Y702244D01*
X326290Y702284D01*
X326390Y702321D01*
X326492Y702354D01*
X326596Y702383D01*
X326700Y702408D01*
X326805Y702429D01*
X326911Y702447D01*
X327017Y702460D01*
X327124Y702470D01*
X327231Y702476D01*
X327338Y702478D01*
X330273Y702478D01*
X337188Y689270D02*
X340857Y689270D01*
X337188Y689270D02*
X337097Y689272D01*
X337006Y689278D01*
X336916Y689287D01*
X336826Y689300D01*
X336736Y689317D01*
X336648Y689337D01*
X336560Y689362D01*
X336473Y689389D01*
X336388Y689421D01*
X336304Y689455D01*
X336221Y689494D01*
X336140Y689535D01*
X336061Y689580D01*
X335984Y689628D01*
X335909Y689680D01*
X335836Y689734D01*
X335765Y689791D01*
X335697Y689852D01*
X335632Y689915D01*
X335569Y689980D01*
X335508Y690048D01*
X335451Y690119D01*
X335397Y690192D01*
X335345Y690267D01*
X335297Y690344D01*
X335252Y690423D01*
X335211Y690504D01*
X335172Y690587D01*
X335138Y690671D01*
X335106Y690756D01*
X335079Y690843D01*
X335054Y690931D01*
X335034Y691019D01*
X335017Y691109D01*
X335004Y691199D01*
X334995Y691289D01*
X334989Y691380D01*
X334987Y691471D01*
X334987Y695140D01*
X334989Y695247D01*
X334995Y695354D01*
X335005Y695461D01*
X335018Y695567D01*
X335036Y695673D01*
X335057Y695778D01*
X335082Y695882D01*
X335111Y695986D01*
X335144Y696088D01*
X335181Y696188D01*
X335221Y696288D01*
X335265Y696386D01*
X335312Y696482D01*
X335363Y696576D01*
X335417Y696669D01*
X335474Y696759D01*
X335535Y696848D01*
X335599Y696934D01*
X335666Y697017D01*
X335736Y697099D01*
X335809Y697177D01*
X335885Y697253D01*
X335963Y697326D01*
X336045Y697396D01*
X336128Y697463D01*
X336214Y697527D01*
X336303Y697588D01*
X336393Y697645D01*
X336486Y697699D01*
X336580Y697750D01*
X336676Y697797D01*
X336774Y697841D01*
X336874Y697881D01*
X336974Y697918D01*
X337076Y697951D01*
X337180Y697980D01*
X337284Y698005D01*
X337389Y698026D01*
X337495Y698044D01*
X337601Y698057D01*
X337708Y698067D01*
X337815Y698073D01*
X337922Y698075D01*
X338029Y698073D01*
X338136Y698067D01*
X338243Y698057D01*
X338349Y698044D01*
X338455Y698026D01*
X338560Y698005D01*
X338664Y697980D01*
X338768Y697951D01*
X338870Y697918D01*
X338970Y697881D01*
X339070Y697841D01*
X339168Y697797D01*
X339264Y697750D01*
X339358Y697699D01*
X339451Y697645D01*
X339541Y697588D01*
X339630Y697527D01*
X339716Y697463D01*
X339799Y697396D01*
X339881Y697326D01*
X339959Y697253D01*
X340035Y697177D01*
X340108Y697099D01*
X340178Y697017D01*
X340245Y696934D01*
X340309Y696848D01*
X340370Y696759D01*
X340427Y696669D01*
X340481Y696576D01*
X340532Y696482D01*
X340579Y696386D01*
X340623Y696288D01*
X340663Y696188D01*
X340700Y696088D01*
X340733Y695986D01*
X340762Y695882D01*
X340787Y695778D01*
X340808Y695673D01*
X340826Y695567D01*
X340839Y695461D01*
X340849Y695354D01*
X340855Y695247D01*
X340857Y695140D01*
X340857Y693673D01*
X334987Y693673D01*
X346263Y691471D02*
X346263Y702478D01*
X346263Y691471D02*
X346265Y691380D01*
X346271Y691289D01*
X346280Y691199D01*
X346293Y691109D01*
X346310Y691019D01*
X346330Y690931D01*
X346355Y690843D01*
X346382Y690756D01*
X346414Y690671D01*
X346448Y690587D01*
X346487Y690504D01*
X346528Y690423D01*
X346573Y690344D01*
X346621Y690267D01*
X346673Y690192D01*
X346727Y690119D01*
X346784Y690048D01*
X346845Y689980D01*
X346908Y689915D01*
X346973Y689852D01*
X347041Y689791D01*
X347112Y689734D01*
X347185Y689680D01*
X347260Y689628D01*
X347337Y689580D01*
X347416Y689535D01*
X347497Y689494D01*
X347580Y689455D01*
X347664Y689421D01*
X347749Y689389D01*
X347836Y689362D01*
X347924Y689337D01*
X348012Y689317D01*
X348102Y689300D01*
X348192Y689287D01*
X348282Y689278D01*
X348373Y689272D01*
X348464Y689270D01*
X353090Y691471D02*
X353090Y702478D01*
X353091Y691471D02*
X353093Y691380D01*
X353099Y691289D01*
X353108Y691199D01*
X353121Y691109D01*
X353138Y691019D01*
X353158Y690931D01*
X353183Y690843D01*
X353210Y690756D01*
X353242Y690671D01*
X353276Y690587D01*
X353315Y690504D01*
X353356Y690423D01*
X353401Y690344D01*
X353449Y690267D01*
X353501Y690192D01*
X353555Y690119D01*
X353612Y690048D01*
X353673Y689980D01*
X353736Y689915D01*
X353801Y689852D01*
X353869Y689791D01*
X353940Y689734D01*
X354013Y689680D01*
X354088Y689628D01*
X354165Y689580D01*
X354244Y689535D01*
X354325Y689494D01*
X354408Y689455D01*
X354492Y689421D01*
X354577Y689389D01*
X354664Y689362D01*
X354752Y689337D01*
X354840Y689317D01*
X354930Y689300D01*
X355020Y689287D01*
X355110Y689278D01*
X355201Y689272D01*
X355292Y689270D01*
X367134Y689270D02*
X373004Y689270D01*
X367134Y689270D02*
X367134Y702478D01*
X373004Y702478D01*
X371537Y696608D02*
X367134Y696608D01*
X377232Y689270D02*
X383102Y698075D01*
X377232Y698075D02*
X383102Y689270D01*
X386829Y698075D02*
X391231Y698075D01*
X388296Y702478D02*
X388296Y691471D01*
X388297Y691471D02*
X388299Y691380D01*
X388305Y691289D01*
X388314Y691199D01*
X388327Y691109D01*
X388344Y691019D01*
X388364Y690931D01*
X388389Y690843D01*
X388416Y690756D01*
X388448Y690671D01*
X388482Y690587D01*
X388521Y690504D01*
X388562Y690423D01*
X388607Y690344D01*
X388655Y690267D01*
X388707Y690192D01*
X388761Y690119D01*
X388818Y690048D01*
X388879Y689980D01*
X388942Y689915D01*
X389007Y689852D01*
X389076Y689791D01*
X389146Y689734D01*
X389219Y689680D01*
X389294Y689628D01*
X389371Y689580D01*
X389450Y689535D01*
X389531Y689494D01*
X389614Y689455D01*
X389698Y689421D01*
X389783Y689389D01*
X389870Y689361D01*
X389958Y689337D01*
X390046Y689317D01*
X390136Y689300D01*
X390226Y689287D01*
X390316Y689278D01*
X390407Y689272D01*
X390498Y689270D01*
X391231Y689270D01*
X398209Y689270D02*
X401878Y689270D01*
X398209Y689270D02*
X398118Y689272D01*
X398027Y689278D01*
X397937Y689287D01*
X397847Y689300D01*
X397757Y689317D01*
X397669Y689337D01*
X397581Y689362D01*
X397494Y689389D01*
X397409Y689421D01*
X397325Y689455D01*
X397242Y689494D01*
X397161Y689535D01*
X397082Y689580D01*
X397005Y689628D01*
X396930Y689680D01*
X396857Y689734D01*
X396786Y689791D01*
X396718Y689852D01*
X396653Y689915D01*
X396590Y689980D01*
X396529Y690048D01*
X396472Y690119D01*
X396418Y690192D01*
X396366Y690267D01*
X396318Y690344D01*
X396273Y690423D01*
X396232Y690504D01*
X396193Y690587D01*
X396159Y690671D01*
X396127Y690756D01*
X396100Y690843D01*
X396075Y690931D01*
X396055Y691019D01*
X396038Y691109D01*
X396025Y691199D01*
X396016Y691289D01*
X396010Y691380D01*
X396008Y691471D01*
X396007Y691471D02*
X396007Y695140D01*
X396008Y695140D02*
X396010Y695247D01*
X396016Y695354D01*
X396026Y695461D01*
X396039Y695567D01*
X396057Y695673D01*
X396078Y695778D01*
X396103Y695882D01*
X396132Y695986D01*
X396165Y696088D01*
X396202Y696188D01*
X396242Y696288D01*
X396286Y696386D01*
X396333Y696482D01*
X396384Y696576D01*
X396438Y696669D01*
X396495Y696759D01*
X396556Y696848D01*
X396620Y696934D01*
X396687Y697017D01*
X396757Y697099D01*
X396830Y697177D01*
X396906Y697253D01*
X396984Y697326D01*
X397066Y697396D01*
X397149Y697463D01*
X397235Y697527D01*
X397324Y697588D01*
X397414Y697645D01*
X397507Y697699D01*
X397601Y697750D01*
X397697Y697797D01*
X397795Y697841D01*
X397895Y697881D01*
X397995Y697918D01*
X398097Y697951D01*
X398201Y697980D01*
X398305Y698005D01*
X398410Y698026D01*
X398516Y698044D01*
X398622Y698057D01*
X398729Y698067D01*
X398836Y698073D01*
X398943Y698075D01*
X399050Y698073D01*
X399157Y698067D01*
X399264Y698057D01*
X399370Y698044D01*
X399476Y698026D01*
X399581Y698005D01*
X399685Y697980D01*
X399789Y697951D01*
X399891Y697918D01*
X399991Y697881D01*
X400091Y697841D01*
X400189Y697797D01*
X400285Y697750D01*
X400379Y697699D01*
X400472Y697645D01*
X400562Y697588D01*
X400651Y697527D01*
X400737Y697463D01*
X400820Y697396D01*
X400902Y697326D01*
X400980Y697253D01*
X401056Y697177D01*
X401129Y697099D01*
X401199Y697017D01*
X401266Y696934D01*
X401330Y696848D01*
X401391Y696759D01*
X401448Y696669D01*
X401502Y696576D01*
X401553Y696482D01*
X401600Y696386D01*
X401644Y696288D01*
X401684Y696188D01*
X401721Y696088D01*
X401754Y695986D01*
X401783Y695882D01*
X401808Y695778D01*
X401829Y695673D01*
X401847Y695567D01*
X401860Y695461D01*
X401870Y695354D01*
X401876Y695247D01*
X401878Y695140D01*
X401878Y693673D01*
X396007Y693673D01*
X407529Y689270D02*
X407529Y698075D01*
X411198Y698075D01*
X411291Y698073D01*
X411385Y698067D01*
X411478Y698057D01*
X411570Y698043D01*
X411662Y698026D01*
X411753Y698004D01*
X411842Y697979D01*
X411931Y697949D01*
X412019Y697916D01*
X412105Y697880D01*
X412189Y697839D01*
X412271Y697796D01*
X412352Y697748D01*
X412430Y697698D01*
X412507Y697644D01*
X412581Y697586D01*
X412652Y697526D01*
X412721Y697463D01*
X412787Y697397D01*
X412850Y697328D01*
X412910Y697257D01*
X412968Y697183D01*
X413022Y697107D01*
X413072Y697028D01*
X413119Y696947D01*
X413163Y696865D01*
X413204Y696781D01*
X413240Y696695D01*
X413273Y696607D01*
X413303Y696519D01*
X413328Y696429D01*
X413350Y696338D01*
X413367Y696246D01*
X413381Y696154D01*
X413391Y696061D01*
X413397Y695967D01*
X413399Y695874D01*
X413399Y689270D01*
X420151Y694406D02*
X423820Y692939D01*
X420151Y694406D02*
X420072Y694440D01*
X419994Y694478D01*
X419917Y694519D01*
X419843Y694563D01*
X419771Y694611D01*
X419701Y694662D01*
X419634Y694716D01*
X419569Y694773D01*
X419506Y694834D01*
X419447Y694896D01*
X419390Y694962D01*
X419337Y695030D01*
X419286Y695100D01*
X419239Y695173D01*
X419195Y695248D01*
X419155Y695324D01*
X419118Y695403D01*
X419085Y695482D01*
X419055Y695564D01*
X419029Y695646D01*
X419007Y695730D01*
X418989Y695815D01*
X418975Y695900D01*
X418964Y695986D01*
X418958Y696072D01*
X418955Y696159D01*
X418956Y696246D01*
X418962Y696332D01*
X418971Y696418D01*
X418984Y696504D01*
X419001Y696589D01*
X419022Y696673D01*
X419046Y696756D01*
X419075Y696837D01*
X419107Y696918D01*
X419142Y696997D01*
X419182Y697074D01*
X419224Y697149D01*
X419271Y697222D01*
X419320Y697294D01*
X419372Y697362D01*
X419428Y697429D01*
X419487Y697492D01*
X419548Y697553D01*
X419612Y697612D01*
X419679Y697667D01*
X419748Y697719D01*
X419820Y697768D01*
X419893Y697813D01*
X419969Y697855D01*
X420046Y697894D01*
X420125Y697929D01*
X420206Y697961D01*
X420288Y697989D01*
X420371Y698013D01*
X420455Y698033D01*
X420540Y698049D01*
X420626Y698062D01*
X420712Y698070D01*
X420799Y698075D01*
X420885Y698076D01*
X420885Y698075D02*
X421085Y698070D01*
X421285Y698060D01*
X421485Y698045D01*
X421685Y698025D01*
X421884Y698001D01*
X422082Y697971D01*
X422279Y697937D01*
X422476Y697899D01*
X422671Y697855D01*
X422866Y697807D01*
X423059Y697754D01*
X423251Y697697D01*
X423442Y697635D01*
X423631Y697568D01*
X423818Y697497D01*
X424003Y697421D01*
X424187Y697341D01*
X423820Y692939D02*
X423899Y692905D01*
X423977Y692867D01*
X424054Y692826D01*
X424128Y692782D01*
X424200Y692734D01*
X424270Y692683D01*
X424337Y692629D01*
X424402Y692572D01*
X424465Y692511D01*
X424524Y692449D01*
X424581Y692383D01*
X424634Y692315D01*
X424685Y692245D01*
X424732Y692172D01*
X424776Y692097D01*
X424816Y692021D01*
X424853Y691942D01*
X424886Y691863D01*
X424916Y691781D01*
X424942Y691699D01*
X424964Y691615D01*
X424982Y691530D01*
X424996Y691445D01*
X425007Y691359D01*
X425013Y691273D01*
X425016Y691186D01*
X425015Y691099D01*
X425009Y691013D01*
X425000Y690927D01*
X424987Y690841D01*
X424970Y690756D01*
X424949Y690672D01*
X424925Y690589D01*
X424896Y690508D01*
X424864Y690427D01*
X424829Y690348D01*
X424789Y690271D01*
X424747Y690196D01*
X424700Y690123D01*
X424651Y690051D01*
X424599Y689983D01*
X424543Y689916D01*
X424484Y689853D01*
X424423Y689792D01*
X424359Y689733D01*
X424292Y689678D01*
X424223Y689626D01*
X424151Y689577D01*
X424078Y689532D01*
X424002Y689490D01*
X423925Y689451D01*
X423846Y689416D01*
X423765Y689384D01*
X423683Y689356D01*
X423600Y689332D01*
X423516Y689312D01*
X423431Y689296D01*
X423345Y689283D01*
X423259Y689275D01*
X423172Y689270D01*
X423086Y689269D01*
X423086Y689270D02*
X422792Y689278D01*
X422498Y689293D01*
X422204Y689314D01*
X421911Y689343D01*
X421619Y689378D01*
X421328Y689421D01*
X421038Y689470D01*
X420749Y689526D01*
X420461Y689589D01*
X420175Y689658D01*
X419891Y689735D01*
X419609Y689818D01*
X419329Y689908D01*
X419050Y690004D01*
X430093Y689270D02*
X430093Y698075D01*
X429726Y701744D02*
X429726Y702478D01*
X430460Y702478D01*
X430460Y701744D01*
X429726Y701744D01*
X435266Y695140D02*
X435266Y692205D01*
X435266Y695140D02*
X435268Y695247D01*
X435274Y695354D01*
X435284Y695461D01*
X435297Y695567D01*
X435315Y695673D01*
X435336Y695778D01*
X435361Y695882D01*
X435390Y695986D01*
X435423Y696088D01*
X435460Y696188D01*
X435500Y696288D01*
X435544Y696386D01*
X435591Y696482D01*
X435642Y696576D01*
X435696Y696669D01*
X435753Y696759D01*
X435814Y696848D01*
X435878Y696934D01*
X435945Y697017D01*
X436015Y697099D01*
X436088Y697177D01*
X436164Y697253D01*
X436242Y697326D01*
X436324Y697396D01*
X436407Y697463D01*
X436493Y697527D01*
X436582Y697588D01*
X436672Y697645D01*
X436765Y697699D01*
X436859Y697750D01*
X436955Y697797D01*
X437053Y697841D01*
X437153Y697881D01*
X437253Y697918D01*
X437355Y697951D01*
X437459Y697980D01*
X437563Y698005D01*
X437668Y698026D01*
X437774Y698044D01*
X437880Y698057D01*
X437987Y698067D01*
X438094Y698073D01*
X438201Y698075D01*
X438308Y698073D01*
X438415Y698067D01*
X438522Y698057D01*
X438628Y698044D01*
X438734Y698026D01*
X438839Y698005D01*
X438943Y697980D01*
X439047Y697951D01*
X439149Y697918D01*
X439249Y697881D01*
X439349Y697841D01*
X439447Y697797D01*
X439543Y697750D01*
X439637Y697699D01*
X439730Y697645D01*
X439820Y697588D01*
X439909Y697527D01*
X439995Y697463D01*
X440078Y697396D01*
X440160Y697326D01*
X440238Y697253D01*
X440314Y697177D01*
X440387Y697099D01*
X440457Y697017D01*
X440524Y696934D01*
X440588Y696848D01*
X440649Y696759D01*
X440706Y696669D01*
X440760Y696576D01*
X440811Y696482D01*
X440858Y696386D01*
X440902Y696288D01*
X440942Y696188D01*
X440979Y696088D01*
X441012Y695986D01*
X441041Y695882D01*
X441066Y695778D01*
X441087Y695673D01*
X441105Y695567D01*
X441118Y695461D01*
X441128Y695354D01*
X441134Y695247D01*
X441136Y695140D01*
X441136Y692205D01*
X441134Y692098D01*
X441128Y691991D01*
X441118Y691884D01*
X441105Y691778D01*
X441087Y691672D01*
X441066Y691567D01*
X441041Y691463D01*
X441012Y691359D01*
X440979Y691257D01*
X440942Y691157D01*
X440902Y691057D01*
X440858Y690959D01*
X440811Y690863D01*
X440760Y690769D01*
X440706Y690676D01*
X440649Y690586D01*
X440588Y690497D01*
X440524Y690411D01*
X440457Y690328D01*
X440387Y690246D01*
X440314Y690168D01*
X440238Y690092D01*
X440160Y690019D01*
X440078Y689949D01*
X439995Y689882D01*
X439909Y689818D01*
X439820Y689757D01*
X439730Y689700D01*
X439637Y689646D01*
X439543Y689595D01*
X439447Y689548D01*
X439349Y689504D01*
X439249Y689464D01*
X439149Y689427D01*
X439047Y689394D01*
X438943Y689365D01*
X438839Y689340D01*
X438734Y689319D01*
X438628Y689301D01*
X438522Y689288D01*
X438415Y689278D01*
X438308Y689272D01*
X438201Y689270D01*
X438094Y689272D01*
X437987Y689278D01*
X437880Y689288D01*
X437774Y689301D01*
X437668Y689319D01*
X437563Y689340D01*
X437459Y689365D01*
X437355Y689394D01*
X437253Y689427D01*
X437153Y689464D01*
X437053Y689504D01*
X436955Y689548D01*
X436859Y689595D01*
X436765Y689646D01*
X436672Y689700D01*
X436582Y689757D01*
X436493Y689818D01*
X436407Y689882D01*
X436324Y689949D01*
X436242Y690019D01*
X436164Y690092D01*
X436088Y690168D01*
X436015Y690246D01*
X435945Y690328D01*
X435878Y690411D01*
X435814Y690497D01*
X435753Y690586D01*
X435696Y690676D01*
X435642Y690769D01*
X435591Y690863D01*
X435544Y690959D01*
X435500Y691057D01*
X435460Y691157D01*
X435423Y691257D01*
X435390Y691359D01*
X435361Y691463D01*
X435336Y691567D01*
X435315Y691672D01*
X435297Y691778D01*
X435284Y691884D01*
X435274Y691991D01*
X435268Y692098D01*
X435266Y692205D01*
X446787Y689270D02*
X446787Y698075D01*
X450456Y698075D01*
X450549Y698073D01*
X450643Y698067D01*
X450736Y698057D01*
X450828Y698043D01*
X450920Y698026D01*
X451011Y698004D01*
X451100Y697979D01*
X451189Y697949D01*
X451277Y697916D01*
X451363Y697880D01*
X451447Y697839D01*
X451529Y697796D01*
X451610Y697748D01*
X451688Y697698D01*
X451765Y697644D01*
X451839Y697586D01*
X451910Y697526D01*
X451979Y697463D01*
X452045Y697397D01*
X452108Y697328D01*
X452168Y697257D01*
X452226Y697183D01*
X452280Y697107D01*
X452330Y697028D01*
X452377Y696947D01*
X452421Y696865D01*
X452462Y696781D01*
X452498Y696695D01*
X452531Y696607D01*
X452561Y696519D01*
X452586Y696429D01*
X452608Y696338D01*
X452625Y696246D01*
X452639Y696154D01*
X452649Y696061D01*
X452655Y695967D01*
X452657Y695874D01*
X452657Y689270D01*
X465862Y696608D02*
X469531Y696608D01*
X469651Y696606D01*
X469771Y696600D01*
X469891Y696590D01*
X470010Y696577D01*
X470129Y696559D01*
X470247Y696538D01*
X470364Y696512D01*
X470481Y696483D01*
X470596Y696450D01*
X470710Y696413D01*
X470823Y696373D01*
X470935Y696329D01*
X471045Y696281D01*
X471154Y696230D01*
X471261Y696175D01*
X471365Y696116D01*
X471468Y696055D01*
X471569Y695990D01*
X471668Y695921D01*
X471765Y695850D01*
X471859Y695775D01*
X471950Y695698D01*
X472039Y695617D01*
X472125Y695533D01*
X472209Y695447D01*
X472290Y695358D01*
X472367Y695267D01*
X472442Y695173D01*
X472513Y695076D01*
X472582Y694977D01*
X472647Y694876D01*
X472708Y694774D01*
X472767Y694669D01*
X472822Y694562D01*
X472873Y694453D01*
X472921Y694343D01*
X472965Y694231D01*
X473005Y694118D01*
X473042Y694004D01*
X473075Y693889D01*
X473104Y693772D01*
X473130Y693655D01*
X473151Y693537D01*
X473169Y693418D01*
X473182Y693299D01*
X473192Y693179D01*
X473198Y693059D01*
X473200Y692939D01*
X473198Y692819D01*
X473192Y692699D01*
X473182Y692579D01*
X473169Y692460D01*
X473151Y692341D01*
X473130Y692223D01*
X473104Y692106D01*
X473075Y691989D01*
X473042Y691874D01*
X473005Y691760D01*
X472965Y691647D01*
X472921Y691535D01*
X472873Y691425D01*
X472822Y691316D01*
X472767Y691209D01*
X472708Y691105D01*
X472647Y691002D01*
X472582Y690901D01*
X472513Y690802D01*
X472442Y690705D01*
X472367Y690611D01*
X472290Y690520D01*
X472209Y690431D01*
X472125Y690345D01*
X472039Y690261D01*
X471950Y690180D01*
X471859Y690103D01*
X471765Y690028D01*
X471668Y689957D01*
X471569Y689888D01*
X471468Y689823D01*
X471366Y689762D01*
X471261Y689703D01*
X471154Y689648D01*
X471045Y689597D01*
X470935Y689549D01*
X470823Y689505D01*
X470710Y689465D01*
X470596Y689428D01*
X470481Y689395D01*
X470364Y689366D01*
X470247Y689340D01*
X470129Y689319D01*
X470010Y689301D01*
X469891Y689288D01*
X469771Y689278D01*
X469651Y689272D01*
X469531Y689270D01*
X465862Y689270D01*
X465862Y702478D01*
X469531Y702478D01*
X469638Y702476D01*
X469745Y702470D01*
X469852Y702460D01*
X469958Y702447D01*
X470064Y702429D01*
X470169Y702408D01*
X470273Y702383D01*
X470377Y702354D01*
X470479Y702321D01*
X470579Y702284D01*
X470679Y702244D01*
X470777Y702200D01*
X470873Y702153D01*
X470967Y702102D01*
X471060Y702048D01*
X471150Y701991D01*
X471239Y701930D01*
X471325Y701866D01*
X471408Y701799D01*
X471490Y701729D01*
X471568Y701656D01*
X471644Y701580D01*
X471717Y701502D01*
X471787Y701420D01*
X471854Y701337D01*
X471918Y701251D01*
X471979Y701162D01*
X472036Y701072D01*
X472090Y700979D01*
X472141Y700885D01*
X472188Y700789D01*
X472232Y700691D01*
X472272Y700591D01*
X472309Y700491D01*
X472342Y700389D01*
X472371Y700285D01*
X472396Y700181D01*
X472417Y700076D01*
X472435Y699970D01*
X472448Y699864D01*
X472458Y699757D01*
X472464Y699650D01*
X472466Y699543D01*
X472464Y699436D01*
X472458Y699329D01*
X472448Y699222D01*
X472435Y699116D01*
X472417Y699010D01*
X472396Y698905D01*
X472371Y698801D01*
X472342Y698697D01*
X472309Y698595D01*
X472272Y698495D01*
X472232Y698395D01*
X472188Y698297D01*
X472141Y698201D01*
X472090Y698107D01*
X472036Y698014D01*
X471979Y697924D01*
X471918Y697835D01*
X471854Y697749D01*
X471787Y697666D01*
X471717Y697584D01*
X471644Y697506D01*
X471568Y697430D01*
X471490Y697357D01*
X471408Y697287D01*
X471325Y697220D01*
X471239Y697156D01*
X471150Y697095D01*
X471060Y697038D01*
X470967Y696984D01*
X470873Y696933D01*
X470777Y696886D01*
X470679Y696842D01*
X470579Y696802D01*
X470479Y696765D01*
X470377Y696732D01*
X470273Y696703D01*
X470169Y696678D01*
X470064Y696657D01*
X469958Y696639D01*
X469852Y696626D01*
X469745Y696616D01*
X469638Y696610D01*
X469531Y696608D01*
X477938Y695140D02*
X477938Y692205D01*
X477938Y695140D02*
X477940Y695247D01*
X477946Y695354D01*
X477956Y695461D01*
X477969Y695567D01*
X477987Y695673D01*
X478008Y695778D01*
X478033Y695882D01*
X478062Y695986D01*
X478095Y696088D01*
X478132Y696188D01*
X478172Y696288D01*
X478216Y696386D01*
X478263Y696482D01*
X478314Y696576D01*
X478368Y696669D01*
X478425Y696759D01*
X478486Y696848D01*
X478550Y696934D01*
X478617Y697017D01*
X478687Y697099D01*
X478760Y697177D01*
X478836Y697253D01*
X478914Y697326D01*
X478996Y697396D01*
X479079Y697463D01*
X479165Y697527D01*
X479254Y697588D01*
X479344Y697645D01*
X479437Y697699D01*
X479531Y697750D01*
X479627Y697797D01*
X479725Y697841D01*
X479825Y697881D01*
X479925Y697918D01*
X480027Y697951D01*
X480131Y697980D01*
X480235Y698005D01*
X480340Y698026D01*
X480446Y698044D01*
X480552Y698057D01*
X480659Y698067D01*
X480766Y698073D01*
X480873Y698075D01*
X480980Y698073D01*
X481087Y698067D01*
X481194Y698057D01*
X481300Y698044D01*
X481406Y698026D01*
X481511Y698005D01*
X481615Y697980D01*
X481719Y697951D01*
X481821Y697918D01*
X481921Y697881D01*
X482021Y697841D01*
X482119Y697797D01*
X482215Y697750D01*
X482309Y697699D01*
X482402Y697645D01*
X482492Y697588D01*
X482581Y697527D01*
X482667Y697463D01*
X482750Y697396D01*
X482832Y697326D01*
X482910Y697253D01*
X482986Y697177D01*
X483059Y697099D01*
X483129Y697017D01*
X483196Y696934D01*
X483260Y696848D01*
X483321Y696759D01*
X483378Y696669D01*
X483432Y696576D01*
X483483Y696482D01*
X483530Y696386D01*
X483574Y696288D01*
X483614Y696188D01*
X483651Y696088D01*
X483684Y695986D01*
X483713Y695882D01*
X483738Y695778D01*
X483759Y695673D01*
X483777Y695567D01*
X483790Y695461D01*
X483800Y695354D01*
X483806Y695247D01*
X483808Y695140D01*
X483808Y692205D01*
X483806Y692098D01*
X483800Y691991D01*
X483790Y691884D01*
X483777Y691778D01*
X483759Y691672D01*
X483738Y691567D01*
X483713Y691463D01*
X483684Y691359D01*
X483651Y691257D01*
X483614Y691157D01*
X483574Y691057D01*
X483530Y690959D01*
X483483Y690863D01*
X483432Y690769D01*
X483378Y690676D01*
X483321Y690586D01*
X483260Y690497D01*
X483196Y690411D01*
X483129Y690328D01*
X483059Y690246D01*
X482986Y690168D01*
X482910Y690092D01*
X482832Y690019D01*
X482750Y689949D01*
X482667Y689882D01*
X482581Y689818D01*
X482492Y689757D01*
X482402Y689700D01*
X482309Y689646D01*
X482215Y689595D01*
X482119Y689548D01*
X482021Y689504D01*
X481921Y689464D01*
X481821Y689427D01*
X481719Y689394D01*
X481615Y689365D01*
X481511Y689340D01*
X481406Y689319D01*
X481300Y689301D01*
X481194Y689288D01*
X481087Y689278D01*
X480980Y689272D01*
X480873Y689270D01*
X480766Y689272D01*
X480659Y689278D01*
X480552Y689288D01*
X480446Y689301D01*
X480340Y689319D01*
X480235Y689340D01*
X480131Y689365D01*
X480027Y689394D01*
X479925Y689427D01*
X479825Y689464D01*
X479725Y689504D01*
X479627Y689548D01*
X479531Y689595D01*
X479437Y689646D01*
X479344Y689700D01*
X479254Y689757D01*
X479165Y689818D01*
X479079Y689882D01*
X478996Y689949D01*
X478914Y690019D01*
X478836Y690092D01*
X478760Y690168D01*
X478687Y690246D01*
X478617Y690328D01*
X478550Y690411D01*
X478486Y690497D01*
X478425Y690586D01*
X478368Y690676D01*
X478314Y690769D01*
X478263Y690863D01*
X478216Y690959D01*
X478172Y691057D01*
X478132Y691157D01*
X478095Y691257D01*
X478062Y691359D01*
X478033Y691463D01*
X478008Y691567D01*
X477987Y691672D01*
X477969Y691778D01*
X477956Y691884D01*
X477946Y691991D01*
X477940Y692098D01*
X477938Y692205D01*
X491538Y694406D02*
X494840Y694406D01*
X491538Y694406D02*
X491438Y694404D01*
X491339Y694398D01*
X491240Y694389D01*
X491141Y694375D01*
X491043Y694358D01*
X490946Y694337D01*
X490849Y694312D01*
X490754Y694283D01*
X490660Y694251D01*
X490567Y694215D01*
X490475Y694176D01*
X490385Y694133D01*
X490297Y694086D01*
X490211Y694037D01*
X490127Y693984D01*
X490045Y693927D01*
X489965Y693868D01*
X489887Y693805D01*
X489812Y693740D01*
X489740Y693671D01*
X489670Y693600D01*
X489603Y693527D01*
X489539Y693450D01*
X489478Y693372D01*
X489420Y693290D01*
X489366Y693207D01*
X489314Y693122D01*
X489266Y693035D01*
X489221Y692946D01*
X489180Y692855D01*
X489142Y692763D01*
X489108Y692669D01*
X489078Y692575D01*
X489051Y692479D01*
X489028Y692382D01*
X489009Y692284D01*
X488994Y692186D01*
X488982Y692087D01*
X488974Y691987D01*
X488970Y691888D01*
X488970Y691788D01*
X488974Y691689D01*
X488982Y691589D01*
X488994Y691490D01*
X489009Y691392D01*
X489028Y691294D01*
X489051Y691197D01*
X489078Y691101D01*
X489108Y691007D01*
X489142Y690913D01*
X489180Y690821D01*
X489221Y690730D01*
X489266Y690641D01*
X489314Y690554D01*
X489366Y690469D01*
X489420Y690386D01*
X489478Y690304D01*
X489539Y690226D01*
X489603Y690149D01*
X489670Y690076D01*
X489740Y690005D01*
X489812Y689936D01*
X489887Y689871D01*
X489965Y689808D01*
X490045Y689749D01*
X490127Y689692D01*
X490211Y689639D01*
X490297Y689590D01*
X490385Y689543D01*
X490475Y689500D01*
X490567Y689461D01*
X490660Y689425D01*
X490754Y689393D01*
X490849Y689364D01*
X490946Y689339D01*
X491043Y689318D01*
X491141Y689301D01*
X491240Y689287D01*
X491339Y689278D01*
X491438Y689272D01*
X491538Y689270D01*
X494840Y689270D01*
X494840Y695874D01*
X494838Y695965D01*
X494832Y696056D01*
X494823Y696146D01*
X494810Y696236D01*
X494793Y696326D01*
X494773Y696414D01*
X494748Y696502D01*
X494721Y696589D01*
X494689Y696674D01*
X494655Y696758D01*
X494616Y696841D01*
X494575Y696922D01*
X494530Y697001D01*
X494482Y697078D01*
X494430Y697153D01*
X494376Y697226D01*
X494319Y697297D01*
X494258Y697365D01*
X494195Y697430D01*
X494130Y697493D01*
X494062Y697554D01*
X493991Y697611D01*
X493918Y697665D01*
X493843Y697717D01*
X493766Y697765D01*
X493687Y697810D01*
X493606Y697851D01*
X493523Y697890D01*
X493439Y697924D01*
X493354Y697956D01*
X493267Y697983D01*
X493179Y698008D01*
X493091Y698028D01*
X493001Y698045D01*
X492911Y698058D01*
X492821Y698067D01*
X492730Y698073D01*
X492639Y698075D01*
X489704Y698075D01*
X501051Y698075D02*
X501051Y689270D01*
X501051Y698075D02*
X505454Y698075D01*
X505454Y696608D01*
X515323Y702478D02*
X515323Y689270D01*
X511654Y689270D01*
X511563Y689272D01*
X511472Y689278D01*
X511382Y689287D01*
X511292Y689300D01*
X511202Y689317D01*
X511114Y689337D01*
X511026Y689362D01*
X510939Y689389D01*
X510854Y689421D01*
X510770Y689455D01*
X510687Y689494D01*
X510606Y689535D01*
X510527Y689580D01*
X510450Y689628D01*
X510375Y689680D01*
X510302Y689734D01*
X510231Y689791D01*
X510163Y689852D01*
X510098Y689915D01*
X510035Y689980D01*
X509974Y690048D01*
X509917Y690119D01*
X509863Y690192D01*
X509811Y690267D01*
X509763Y690344D01*
X509718Y690423D01*
X509677Y690504D01*
X509638Y690587D01*
X509604Y690671D01*
X509572Y690756D01*
X509545Y690843D01*
X509520Y690931D01*
X509500Y691019D01*
X509483Y691109D01*
X509470Y691199D01*
X509461Y691289D01*
X509455Y691380D01*
X509453Y691471D01*
X509452Y691471D02*
X509452Y695874D01*
X509453Y695874D02*
X509455Y695965D01*
X509461Y696056D01*
X509470Y696146D01*
X509483Y696236D01*
X509500Y696326D01*
X509520Y696414D01*
X509545Y696502D01*
X509572Y696589D01*
X509604Y696674D01*
X509638Y696758D01*
X509677Y696841D01*
X509718Y696922D01*
X509763Y697001D01*
X509811Y697078D01*
X509863Y697153D01*
X509917Y697226D01*
X509974Y697297D01*
X510035Y697365D01*
X510098Y697430D01*
X510163Y697493D01*
X510231Y697554D01*
X510302Y697611D01*
X510375Y697665D01*
X510450Y697717D01*
X510527Y697765D01*
X510606Y697810D01*
X510687Y697851D01*
X510770Y697890D01*
X510854Y697924D01*
X510939Y697956D01*
X511026Y697983D01*
X511114Y698008D01*
X511202Y698028D01*
X511292Y698045D01*
X511382Y698058D01*
X511472Y698067D01*
X511563Y698073D01*
X511654Y698075D01*
X515323Y698075D01*
X175843Y680415D02*
X175843Y668731D01*
X175843Y680415D02*
X181035Y680415D01*
X181035Y675222D02*
X175843Y675222D01*
X185232Y673924D02*
X185232Y671327D01*
X185233Y673924D02*
X185235Y674025D01*
X185241Y674125D01*
X185251Y674225D01*
X185264Y674325D01*
X185282Y674424D01*
X185303Y674523D01*
X185328Y674620D01*
X185357Y674717D01*
X185390Y674812D01*
X185426Y674906D01*
X185466Y674998D01*
X185509Y675089D01*
X185556Y675178D01*
X185606Y675265D01*
X185660Y675351D01*
X185717Y675434D01*
X185777Y675514D01*
X185840Y675593D01*
X185907Y675669D01*
X185976Y675742D01*
X186048Y675812D01*
X186122Y675880D01*
X186199Y675945D01*
X186279Y676006D01*
X186361Y676065D01*
X186445Y676120D01*
X186531Y676172D01*
X186619Y676221D01*
X186709Y676266D01*
X186801Y676308D01*
X186894Y676346D01*
X186989Y676380D01*
X187084Y676411D01*
X187181Y676438D01*
X187279Y676461D01*
X187378Y676481D01*
X187478Y676496D01*
X187578Y676508D01*
X187678Y676516D01*
X187779Y676520D01*
X187879Y676520D01*
X187980Y676516D01*
X188080Y676508D01*
X188180Y676496D01*
X188280Y676481D01*
X188379Y676461D01*
X188477Y676438D01*
X188574Y676411D01*
X188669Y676380D01*
X188764Y676346D01*
X188857Y676308D01*
X188949Y676266D01*
X189039Y676221D01*
X189127Y676172D01*
X189213Y676120D01*
X189297Y676065D01*
X189379Y676006D01*
X189459Y675945D01*
X189536Y675880D01*
X189610Y675812D01*
X189682Y675742D01*
X189751Y675669D01*
X189818Y675593D01*
X189881Y675514D01*
X189941Y675434D01*
X189998Y675351D01*
X190052Y675265D01*
X190102Y675178D01*
X190149Y675089D01*
X190192Y674998D01*
X190232Y674906D01*
X190268Y674812D01*
X190301Y674717D01*
X190330Y674620D01*
X190355Y674523D01*
X190376Y674424D01*
X190394Y674325D01*
X190407Y674225D01*
X190417Y674125D01*
X190423Y674025D01*
X190425Y673924D01*
X190425Y671327D01*
X190423Y671226D01*
X190417Y671126D01*
X190407Y671026D01*
X190394Y670926D01*
X190376Y670827D01*
X190355Y670728D01*
X190330Y670631D01*
X190301Y670534D01*
X190268Y670439D01*
X190232Y670345D01*
X190192Y670253D01*
X190149Y670162D01*
X190102Y670073D01*
X190052Y669986D01*
X189998Y669900D01*
X189941Y669817D01*
X189881Y669737D01*
X189818Y669658D01*
X189751Y669582D01*
X189682Y669509D01*
X189610Y669439D01*
X189536Y669371D01*
X189459Y669306D01*
X189379Y669245D01*
X189297Y669186D01*
X189213Y669131D01*
X189127Y669079D01*
X189039Y669030D01*
X188949Y668985D01*
X188857Y668943D01*
X188764Y668905D01*
X188669Y668871D01*
X188574Y668840D01*
X188477Y668813D01*
X188379Y668790D01*
X188280Y668770D01*
X188180Y668755D01*
X188080Y668743D01*
X187980Y668735D01*
X187879Y668731D01*
X187779Y668731D01*
X187678Y668735D01*
X187578Y668743D01*
X187478Y668755D01*
X187378Y668770D01*
X187279Y668790D01*
X187181Y668813D01*
X187084Y668840D01*
X186989Y668871D01*
X186894Y668905D01*
X186801Y668943D01*
X186709Y668985D01*
X186619Y669030D01*
X186531Y669079D01*
X186445Y669131D01*
X186361Y669186D01*
X186279Y669245D01*
X186199Y669306D01*
X186122Y669371D01*
X186048Y669439D01*
X185976Y669509D01*
X185907Y669582D01*
X185840Y669658D01*
X185777Y669737D01*
X185717Y669817D01*
X185660Y669900D01*
X185606Y669986D01*
X185556Y670073D01*
X185509Y670162D01*
X185466Y670253D01*
X185426Y670345D01*
X185390Y670439D01*
X185357Y670534D01*
X185328Y670631D01*
X185303Y670728D01*
X185282Y670827D01*
X185264Y670926D01*
X185251Y671026D01*
X185241Y671126D01*
X185235Y671226D01*
X185233Y671327D01*
X195585Y668731D02*
X195585Y676520D01*
X199480Y676520D01*
X199480Y675222D01*
X203746Y676520D02*
X203746Y668731D01*
X203746Y676520D02*
X209588Y676520D01*
X209675Y676518D01*
X209763Y676512D01*
X209849Y676502D01*
X209936Y676489D01*
X210021Y676471D01*
X210106Y676450D01*
X210190Y676425D01*
X210272Y676396D01*
X210353Y676363D01*
X210433Y676327D01*
X210511Y676288D01*
X210587Y676244D01*
X210661Y676198D01*
X210732Y676148D01*
X210802Y676095D01*
X210869Y676039D01*
X210933Y675980D01*
X210995Y675918D01*
X211054Y675854D01*
X211110Y675787D01*
X211163Y675717D01*
X211213Y675646D01*
X211259Y675572D01*
X211303Y675496D01*
X211342Y675418D01*
X211378Y675338D01*
X211411Y675257D01*
X211440Y675175D01*
X211465Y675091D01*
X211486Y675006D01*
X211504Y674921D01*
X211517Y674834D01*
X211527Y674748D01*
X211533Y674660D01*
X211535Y674573D01*
X211535Y668731D01*
X207641Y668731D02*
X207641Y676520D01*
X223468Y680415D02*
X223468Y668731D01*
X223468Y680415D02*
X228660Y680415D01*
X228660Y675222D02*
X223468Y675222D01*
X235070Y673275D02*
X237991Y673275D01*
X235070Y673275D02*
X234976Y673273D01*
X234882Y673267D01*
X234789Y673258D01*
X234696Y673244D01*
X234604Y673227D01*
X234512Y673205D01*
X234422Y673181D01*
X234332Y673152D01*
X234244Y673120D01*
X234157Y673084D01*
X234072Y673044D01*
X233989Y673001D01*
X233907Y672955D01*
X233827Y672905D01*
X233750Y672852D01*
X233675Y672796D01*
X233602Y672737D01*
X233531Y672675D01*
X233463Y672610D01*
X233398Y672542D01*
X233336Y672471D01*
X233277Y672398D01*
X233221Y672323D01*
X233168Y672246D01*
X233118Y672166D01*
X233072Y672084D01*
X233029Y672001D01*
X232989Y671916D01*
X232953Y671829D01*
X232921Y671741D01*
X232892Y671651D01*
X232868Y671561D01*
X232846Y671469D01*
X232829Y671377D01*
X232815Y671284D01*
X232806Y671191D01*
X232800Y671097D01*
X232798Y671003D01*
X232800Y670909D01*
X232806Y670815D01*
X232815Y670722D01*
X232829Y670629D01*
X232846Y670537D01*
X232868Y670445D01*
X232892Y670355D01*
X232921Y670265D01*
X232953Y670177D01*
X232989Y670090D01*
X233029Y670005D01*
X233072Y669922D01*
X233118Y669840D01*
X233168Y669760D01*
X233221Y669683D01*
X233277Y669608D01*
X233336Y669535D01*
X233398Y669464D01*
X233463Y669396D01*
X233531Y669331D01*
X233602Y669269D01*
X233675Y669210D01*
X233750Y669154D01*
X233827Y669101D01*
X233907Y669051D01*
X233989Y669005D01*
X234072Y668962D01*
X234157Y668922D01*
X234244Y668886D01*
X234332Y668854D01*
X234422Y668825D01*
X234512Y668801D01*
X234604Y668779D01*
X234696Y668762D01*
X234789Y668748D01*
X234882Y668739D01*
X234976Y668733D01*
X235070Y668731D01*
X237991Y668731D01*
X237991Y674573D01*
X237989Y674660D01*
X237983Y674748D01*
X237973Y674834D01*
X237960Y674921D01*
X237942Y675006D01*
X237921Y675091D01*
X237896Y675175D01*
X237867Y675257D01*
X237834Y675338D01*
X237798Y675418D01*
X237759Y675496D01*
X237715Y675572D01*
X237669Y675646D01*
X237619Y675717D01*
X237566Y675787D01*
X237510Y675854D01*
X237451Y675918D01*
X237389Y675980D01*
X237325Y676039D01*
X237258Y676095D01*
X237188Y676148D01*
X237117Y676198D01*
X237043Y676244D01*
X236967Y676288D01*
X236889Y676327D01*
X236809Y676363D01*
X236728Y676396D01*
X236646Y676425D01*
X236562Y676450D01*
X236477Y676471D01*
X236392Y676489D01*
X236305Y676502D01*
X236219Y676512D01*
X236131Y676518D01*
X236044Y676520D01*
X233447Y676520D01*
X245105Y668731D02*
X247701Y668731D01*
X245105Y668731D02*
X245018Y668733D01*
X244930Y668739D01*
X244844Y668749D01*
X244757Y668762D01*
X244672Y668780D01*
X244587Y668801D01*
X244503Y668826D01*
X244421Y668855D01*
X244340Y668888D01*
X244260Y668924D01*
X244182Y668963D01*
X244106Y669007D01*
X244032Y669053D01*
X243961Y669103D01*
X243891Y669156D01*
X243824Y669212D01*
X243760Y669271D01*
X243698Y669333D01*
X243639Y669397D01*
X243583Y669464D01*
X243530Y669534D01*
X243480Y669605D01*
X243434Y669679D01*
X243390Y669755D01*
X243351Y669833D01*
X243315Y669913D01*
X243282Y669994D01*
X243253Y670076D01*
X243228Y670160D01*
X243207Y670245D01*
X243189Y670330D01*
X243176Y670417D01*
X243166Y670503D01*
X243160Y670591D01*
X243158Y670678D01*
X243157Y670678D02*
X243157Y674573D01*
X243158Y674573D02*
X243160Y674660D01*
X243166Y674748D01*
X243176Y674834D01*
X243189Y674921D01*
X243207Y675006D01*
X243228Y675091D01*
X243253Y675175D01*
X243282Y675257D01*
X243315Y675338D01*
X243351Y675418D01*
X243390Y675496D01*
X243434Y675572D01*
X243480Y675646D01*
X243530Y675717D01*
X243583Y675787D01*
X243639Y675854D01*
X243698Y675918D01*
X243760Y675980D01*
X243824Y676039D01*
X243891Y676095D01*
X243961Y676148D01*
X244032Y676198D01*
X244106Y676244D01*
X244182Y676288D01*
X244260Y676327D01*
X244340Y676363D01*
X244421Y676396D01*
X244503Y676425D01*
X244587Y676450D01*
X244672Y676471D01*
X244757Y676489D01*
X244844Y676502D01*
X244930Y676512D01*
X245018Y676518D01*
X245105Y676520D01*
X247701Y676520D01*
X250940Y676520D02*
X254834Y676520D01*
X252238Y680415D02*
X252238Y670678D01*
X252240Y670591D01*
X252246Y670503D01*
X252256Y670417D01*
X252269Y670330D01*
X252287Y670245D01*
X252308Y670160D01*
X252333Y670076D01*
X252362Y669994D01*
X252395Y669913D01*
X252431Y669833D01*
X252470Y669755D01*
X252514Y669679D01*
X252560Y669605D01*
X252610Y669534D01*
X252663Y669464D01*
X252719Y669397D01*
X252778Y669333D01*
X252840Y669271D01*
X252904Y669212D01*
X252971Y669156D01*
X253041Y669103D01*
X253112Y669053D01*
X253186Y669007D01*
X253262Y668963D01*
X253340Y668924D01*
X253420Y668888D01*
X253501Y668855D01*
X253583Y668826D01*
X253667Y668801D01*
X253752Y668780D01*
X253837Y668762D01*
X253924Y668749D01*
X254010Y668739D01*
X254098Y668733D01*
X254185Y668731D01*
X254834Y668731D01*
X259146Y671327D02*
X259146Y673924D01*
X259148Y674025D01*
X259154Y674125D01*
X259164Y674225D01*
X259177Y674325D01*
X259195Y674424D01*
X259216Y674523D01*
X259241Y674620D01*
X259270Y674717D01*
X259303Y674812D01*
X259339Y674906D01*
X259379Y674998D01*
X259422Y675089D01*
X259469Y675178D01*
X259519Y675265D01*
X259573Y675351D01*
X259630Y675434D01*
X259690Y675514D01*
X259753Y675593D01*
X259820Y675669D01*
X259889Y675742D01*
X259961Y675812D01*
X260035Y675880D01*
X260112Y675945D01*
X260192Y676006D01*
X260274Y676065D01*
X260358Y676120D01*
X260444Y676172D01*
X260532Y676221D01*
X260622Y676266D01*
X260714Y676308D01*
X260807Y676346D01*
X260902Y676380D01*
X260997Y676411D01*
X261094Y676438D01*
X261192Y676461D01*
X261291Y676481D01*
X261391Y676496D01*
X261491Y676508D01*
X261591Y676516D01*
X261692Y676520D01*
X261792Y676520D01*
X261893Y676516D01*
X261993Y676508D01*
X262093Y676496D01*
X262193Y676481D01*
X262292Y676461D01*
X262390Y676438D01*
X262487Y676411D01*
X262582Y676380D01*
X262677Y676346D01*
X262770Y676308D01*
X262862Y676266D01*
X262952Y676221D01*
X263040Y676172D01*
X263126Y676120D01*
X263210Y676065D01*
X263292Y676006D01*
X263372Y675945D01*
X263449Y675880D01*
X263523Y675812D01*
X263595Y675742D01*
X263664Y675669D01*
X263731Y675593D01*
X263794Y675514D01*
X263854Y675434D01*
X263911Y675351D01*
X263965Y675265D01*
X264015Y675178D01*
X264062Y675089D01*
X264105Y674998D01*
X264145Y674906D01*
X264181Y674812D01*
X264214Y674717D01*
X264243Y674620D01*
X264268Y674523D01*
X264289Y674424D01*
X264307Y674325D01*
X264320Y674225D01*
X264330Y674125D01*
X264336Y674025D01*
X264338Y673924D01*
X264339Y673924D02*
X264339Y671327D01*
X264338Y671327D02*
X264336Y671226D01*
X264330Y671126D01*
X264320Y671026D01*
X264307Y670926D01*
X264289Y670827D01*
X264268Y670728D01*
X264243Y670631D01*
X264214Y670534D01*
X264181Y670439D01*
X264145Y670345D01*
X264105Y670253D01*
X264062Y670162D01*
X264015Y670073D01*
X263965Y669986D01*
X263911Y669900D01*
X263854Y669817D01*
X263794Y669737D01*
X263731Y669658D01*
X263664Y669582D01*
X263595Y669509D01*
X263523Y669439D01*
X263449Y669371D01*
X263372Y669306D01*
X263292Y669245D01*
X263210Y669186D01*
X263126Y669131D01*
X263040Y669079D01*
X262952Y669030D01*
X262862Y668985D01*
X262770Y668943D01*
X262677Y668905D01*
X262582Y668871D01*
X262487Y668840D01*
X262390Y668813D01*
X262292Y668790D01*
X262193Y668770D01*
X262093Y668755D01*
X261993Y668743D01*
X261893Y668735D01*
X261792Y668731D01*
X261692Y668731D01*
X261591Y668735D01*
X261491Y668743D01*
X261391Y668755D01*
X261291Y668770D01*
X261192Y668790D01*
X261094Y668813D01*
X260997Y668840D01*
X260902Y668871D01*
X260807Y668905D01*
X260714Y668943D01*
X260622Y668985D01*
X260532Y669030D01*
X260444Y669079D01*
X260358Y669131D01*
X260274Y669186D01*
X260192Y669245D01*
X260112Y669306D01*
X260035Y669371D01*
X259961Y669439D01*
X259889Y669509D01*
X259820Y669582D01*
X259753Y669658D01*
X259690Y669737D01*
X259630Y669817D01*
X259573Y669900D01*
X259519Y669986D01*
X259469Y670073D01*
X259422Y670162D01*
X259379Y670253D01*
X259339Y670345D01*
X259303Y670439D01*
X259270Y670534D01*
X259241Y670631D01*
X259216Y670728D01*
X259195Y670827D01*
X259177Y670926D01*
X259164Y671026D01*
X259154Y671126D01*
X259148Y671226D01*
X259146Y671327D01*
X269499Y668731D02*
X269499Y676520D01*
X273394Y676520D01*
X273394Y675222D01*
X283262Y677818D02*
X286507Y680415D01*
X286507Y668731D01*
X283262Y668731D02*
X289753Y668731D01*
X294565Y669705D02*
X294565Y670354D01*
X295214Y670354D01*
X295214Y669705D01*
X294565Y669705D01*
X294565Y674897D02*
X294565Y675547D01*
X295214Y675547D01*
X295214Y674897D01*
X294565Y674897D01*
X306122Y677818D02*
X309367Y680415D01*
X309367Y668731D01*
X306122Y668731D02*
X312613Y668731D01*
X325495Y668731D02*
X328092Y668731D01*
X325495Y668731D02*
X325408Y668733D01*
X325320Y668739D01*
X325234Y668749D01*
X325147Y668762D01*
X325062Y668780D01*
X324977Y668801D01*
X324893Y668826D01*
X324811Y668855D01*
X324730Y668888D01*
X324650Y668924D01*
X324572Y668963D01*
X324496Y669007D01*
X324422Y669053D01*
X324351Y669103D01*
X324281Y669156D01*
X324214Y669212D01*
X324150Y669271D01*
X324088Y669333D01*
X324029Y669397D01*
X323973Y669464D01*
X323920Y669534D01*
X323870Y669605D01*
X323824Y669679D01*
X323780Y669755D01*
X323741Y669833D01*
X323705Y669913D01*
X323672Y669994D01*
X323643Y670076D01*
X323618Y670160D01*
X323597Y670245D01*
X323579Y670330D01*
X323566Y670417D01*
X323556Y670503D01*
X323550Y670591D01*
X323548Y670678D01*
X323548Y674573D01*
X323550Y674660D01*
X323556Y674748D01*
X323566Y674834D01*
X323579Y674921D01*
X323597Y675006D01*
X323618Y675091D01*
X323643Y675175D01*
X323672Y675257D01*
X323705Y675338D01*
X323741Y675418D01*
X323780Y675496D01*
X323824Y675572D01*
X323870Y675646D01*
X323920Y675717D01*
X323973Y675787D01*
X324029Y675854D01*
X324088Y675918D01*
X324150Y675980D01*
X324214Y676039D01*
X324281Y676095D01*
X324351Y676148D01*
X324422Y676198D01*
X324496Y676244D01*
X324572Y676288D01*
X324650Y676327D01*
X324730Y676363D01*
X324811Y676396D01*
X324893Y676425D01*
X324977Y676450D01*
X325062Y676471D01*
X325147Y676489D01*
X325234Y676502D01*
X325320Y676512D01*
X325408Y676518D01*
X325495Y676520D01*
X328092Y676520D01*
X332905Y676520D02*
X332905Y668731D01*
X332905Y676520D02*
X338747Y676520D01*
X338834Y676518D01*
X338922Y676512D01*
X339008Y676502D01*
X339095Y676489D01*
X339180Y676471D01*
X339265Y676450D01*
X339349Y676425D01*
X339431Y676396D01*
X339512Y676363D01*
X339592Y676327D01*
X339670Y676288D01*
X339746Y676244D01*
X339820Y676198D01*
X339891Y676148D01*
X339961Y676095D01*
X340028Y676039D01*
X340092Y675980D01*
X340154Y675918D01*
X340213Y675854D01*
X340269Y675787D01*
X340322Y675717D01*
X340372Y675646D01*
X340418Y675572D01*
X340462Y675496D01*
X340501Y675418D01*
X340537Y675338D01*
X340570Y675257D01*
X340599Y675175D01*
X340624Y675091D01*
X340645Y675006D01*
X340663Y674921D01*
X340676Y674834D01*
X340686Y674748D01*
X340692Y674660D01*
X340694Y674573D01*
X340694Y668731D01*
X336799Y668731D02*
X336799Y676520D01*
X351729Y668731D02*
X356922Y676520D01*
X351729Y676520D02*
X356922Y668731D01*
X367463Y677818D02*
X370708Y680415D01*
X370708Y668731D01*
X367463Y668731D02*
X373954Y668731D01*
X386836Y668731D02*
X389433Y668731D01*
X386836Y668731D02*
X386749Y668733D01*
X386661Y668739D01*
X386575Y668749D01*
X386488Y668762D01*
X386403Y668780D01*
X386318Y668801D01*
X386234Y668826D01*
X386152Y668855D01*
X386071Y668888D01*
X385991Y668924D01*
X385913Y668963D01*
X385837Y669007D01*
X385763Y669053D01*
X385692Y669103D01*
X385622Y669156D01*
X385555Y669212D01*
X385491Y669271D01*
X385429Y669333D01*
X385370Y669397D01*
X385314Y669464D01*
X385261Y669534D01*
X385211Y669605D01*
X385165Y669679D01*
X385121Y669755D01*
X385082Y669833D01*
X385046Y669913D01*
X385013Y669994D01*
X384984Y670076D01*
X384959Y670160D01*
X384938Y670245D01*
X384920Y670330D01*
X384907Y670417D01*
X384897Y670503D01*
X384891Y670591D01*
X384889Y670678D01*
X384889Y674573D01*
X384891Y674660D01*
X384897Y674748D01*
X384907Y674834D01*
X384920Y674921D01*
X384938Y675006D01*
X384959Y675091D01*
X384984Y675175D01*
X385013Y675257D01*
X385046Y675338D01*
X385082Y675418D01*
X385121Y675496D01*
X385165Y675572D01*
X385211Y675646D01*
X385261Y675717D01*
X385314Y675787D01*
X385370Y675854D01*
X385429Y675918D01*
X385491Y675980D01*
X385555Y676039D01*
X385622Y676095D01*
X385692Y676148D01*
X385763Y676198D01*
X385837Y676244D01*
X385913Y676288D01*
X385991Y676327D01*
X386071Y676363D01*
X386152Y676396D01*
X386234Y676425D01*
X386318Y676450D01*
X386403Y676471D01*
X386488Y676489D01*
X386575Y676502D01*
X386661Y676512D01*
X386749Y676518D01*
X386836Y676520D01*
X389433Y676520D01*
X394246Y676520D02*
X394246Y668731D01*
X394246Y676520D02*
X400088Y676520D01*
X400175Y676518D01*
X400263Y676512D01*
X400349Y676502D01*
X400436Y676489D01*
X400521Y676471D01*
X400606Y676450D01*
X400690Y676425D01*
X400772Y676396D01*
X400853Y676363D01*
X400933Y676327D01*
X401011Y676288D01*
X401087Y676244D01*
X401161Y676198D01*
X401232Y676148D01*
X401302Y676095D01*
X401369Y676039D01*
X401433Y675980D01*
X401495Y675918D01*
X401554Y675854D01*
X401610Y675787D01*
X401663Y675717D01*
X401713Y675646D01*
X401759Y675572D01*
X401803Y675496D01*
X401842Y675418D01*
X401878Y675338D01*
X401911Y675257D01*
X401940Y675175D01*
X401965Y675091D01*
X401986Y675006D01*
X402004Y674921D01*
X402017Y674834D01*
X402027Y674748D01*
X402033Y674660D01*
X402035Y674573D01*
X402035Y668731D01*
X398140Y668731D02*
X398140Y676520D01*
X413635Y674573D02*
X413638Y674840D01*
X413648Y675108D01*
X413664Y675374D01*
X413686Y675641D01*
X413715Y675907D01*
X413751Y676172D01*
X413792Y676436D01*
X413840Y676699D01*
X413894Y676961D01*
X413955Y677221D01*
X414022Y677480D01*
X414095Y677737D01*
X414174Y677993D01*
X414259Y678246D01*
X414351Y678497D01*
X414448Y678746D01*
X414551Y678993D01*
X414661Y679237D01*
X414776Y679478D01*
X414897Y679717D01*
X415023Y679952D01*
X415155Y680185D01*
X415293Y680414D01*
X415436Y680639D01*
X415585Y680862D01*
X415739Y681080D01*
X415898Y681295D01*
X416062Y681506D01*
X416231Y681713D01*
X413636Y674573D02*
X413639Y674306D01*
X413649Y674038D01*
X413665Y673772D01*
X413687Y673505D01*
X413716Y673239D01*
X413752Y672974D01*
X413793Y672710D01*
X413841Y672447D01*
X413895Y672185D01*
X413956Y671925D01*
X414023Y671666D01*
X414096Y671409D01*
X414175Y671154D01*
X414260Y670900D01*
X414352Y670649D01*
X414449Y670400D01*
X414552Y670153D01*
X414662Y669909D01*
X414777Y669668D01*
X414898Y669429D01*
X415024Y669194D01*
X415156Y668961D01*
X415294Y668732D01*
X415437Y668507D01*
X415586Y668284D01*
X415740Y668066D01*
X415899Y667851D01*
X416063Y667640D01*
X416232Y667433D01*
X420803Y677818D02*
X424048Y680415D01*
X424048Y668731D01*
X420803Y668731D02*
X427294Y668731D01*
X432233Y674573D02*
X432236Y674803D01*
X432244Y675033D01*
X432258Y675262D01*
X432277Y675491D01*
X432302Y675720D01*
X432332Y675947D01*
X432367Y676175D01*
X432408Y676401D01*
X432454Y676626D01*
X432506Y676850D01*
X432563Y677072D01*
X432625Y677294D01*
X432693Y677513D01*
X432766Y677731D01*
X432844Y677948D01*
X432927Y678162D01*
X433015Y678374D01*
X433108Y678584D01*
X433207Y678792D01*
X433206Y678792D02*
X433239Y678882D01*
X433275Y678971D01*
X433315Y679059D01*
X433359Y679144D01*
X433406Y679228D01*
X433456Y679310D01*
X433510Y679390D01*
X433566Y679467D01*
X433626Y679543D01*
X433689Y679616D01*
X433754Y679686D01*
X433823Y679754D01*
X433894Y679818D01*
X433967Y679880D01*
X434043Y679939D01*
X434121Y679995D01*
X434202Y680048D01*
X434284Y680097D01*
X434368Y680143D01*
X434455Y680186D01*
X434542Y680225D01*
X434632Y680261D01*
X434722Y680293D01*
X434814Y680321D01*
X434907Y680346D01*
X435001Y680367D01*
X435095Y680384D01*
X435190Y680398D01*
X435286Y680407D01*
X435382Y680413D01*
X435478Y680415D01*
X435574Y680413D01*
X435670Y680407D01*
X435766Y680398D01*
X435861Y680384D01*
X435955Y680367D01*
X436049Y680346D01*
X436142Y680321D01*
X436234Y680293D01*
X436324Y680261D01*
X436414Y680225D01*
X436501Y680186D01*
X436588Y680143D01*
X436672Y680097D01*
X436754Y680048D01*
X436835Y679995D01*
X436913Y679939D01*
X436989Y679880D01*
X437062Y679818D01*
X437133Y679754D01*
X437202Y679686D01*
X437267Y679616D01*
X437330Y679543D01*
X437390Y679467D01*
X437446Y679390D01*
X437500Y679310D01*
X437550Y679228D01*
X437597Y679144D01*
X437641Y679059D01*
X437681Y678971D01*
X437717Y678882D01*
X437750Y678792D01*
X437849Y678585D01*
X437942Y678375D01*
X438030Y678162D01*
X438113Y677948D01*
X438191Y677732D01*
X438264Y677514D01*
X438332Y677294D01*
X438394Y677073D01*
X438451Y676850D01*
X438503Y676626D01*
X438549Y676401D01*
X438590Y676175D01*
X438625Y675948D01*
X438655Y675720D01*
X438680Y675491D01*
X438699Y675262D01*
X438713Y675033D01*
X438721Y674803D01*
X438724Y674573D01*
X432232Y674573D02*
X432235Y674343D01*
X432243Y674113D01*
X432257Y673884D01*
X432276Y673655D01*
X432301Y673426D01*
X432331Y673198D01*
X432366Y672971D01*
X432407Y672745D01*
X432453Y672520D01*
X432505Y672296D01*
X432562Y672073D01*
X432624Y671852D01*
X432692Y671632D01*
X432765Y671414D01*
X432843Y671198D01*
X432926Y670984D01*
X433014Y670772D01*
X433107Y670561D01*
X433206Y670354D01*
X433239Y670264D01*
X433275Y670175D01*
X433316Y670087D01*
X433359Y670002D01*
X433406Y669918D01*
X433456Y669836D01*
X433510Y669756D01*
X433566Y669679D01*
X433626Y669603D01*
X433689Y669530D01*
X433754Y669460D01*
X433823Y669392D01*
X433894Y669328D01*
X433967Y669266D01*
X434043Y669207D01*
X434121Y669151D01*
X434202Y669098D01*
X434284Y669049D01*
X434368Y669003D01*
X434455Y668960D01*
X434542Y668921D01*
X434632Y668885D01*
X434722Y668853D01*
X434814Y668825D01*
X434907Y668800D01*
X435001Y668779D01*
X435095Y668762D01*
X435190Y668748D01*
X435286Y668739D01*
X435382Y668733D01*
X435478Y668731D01*
X437750Y670354D02*
X437849Y670561D01*
X437942Y670772D01*
X438030Y670984D01*
X438113Y671198D01*
X438191Y671414D01*
X438264Y671632D01*
X438332Y671852D01*
X438394Y672073D01*
X438451Y672296D01*
X438503Y672520D01*
X438549Y672745D01*
X438590Y672971D01*
X438625Y673198D01*
X438655Y673426D01*
X438680Y673655D01*
X438699Y673884D01*
X438713Y674113D01*
X438721Y674343D01*
X438724Y674573D01*
X437750Y670354D02*
X437717Y670264D01*
X437681Y670175D01*
X437641Y670087D01*
X437597Y670002D01*
X437550Y669918D01*
X437500Y669836D01*
X437446Y669756D01*
X437390Y669679D01*
X437330Y669603D01*
X437267Y669530D01*
X437202Y669460D01*
X437133Y669392D01*
X437062Y669328D01*
X436989Y669266D01*
X436913Y669207D01*
X436835Y669151D01*
X436754Y669098D01*
X436672Y669049D01*
X436588Y669003D01*
X436501Y668960D01*
X436414Y668921D01*
X436324Y668885D01*
X436234Y668853D01*
X436142Y668825D01*
X436049Y668800D01*
X435955Y668779D01*
X435861Y668762D01*
X435766Y668748D01*
X435670Y668739D01*
X435574Y668733D01*
X435478Y668731D01*
X432882Y671327D02*
X438075Y677818D01*
X450252Y676520D02*
X450252Y668731D01*
X450252Y676520D02*
X456094Y676520D01*
X456181Y676518D01*
X456269Y676512D01*
X456355Y676502D01*
X456442Y676489D01*
X456527Y676471D01*
X456612Y676450D01*
X456696Y676425D01*
X456778Y676396D01*
X456859Y676363D01*
X456939Y676327D01*
X457017Y676288D01*
X457093Y676244D01*
X457167Y676198D01*
X457238Y676148D01*
X457308Y676095D01*
X457375Y676039D01*
X457439Y675980D01*
X457501Y675918D01*
X457560Y675854D01*
X457616Y675787D01*
X457669Y675717D01*
X457719Y675646D01*
X457765Y675572D01*
X457809Y675496D01*
X457848Y675418D01*
X457884Y675338D01*
X457917Y675257D01*
X457946Y675175D01*
X457971Y675091D01*
X457992Y675006D01*
X458010Y674921D01*
X458023Y674834D01*
X458033Y674748D01*
X458039Y674660D01*
X458041Y674573D01*
X458042Y674573D02*
X458042Y668731D01*
X454147Y668731D02*
X454147Y676520D01*
X463968Y676520D02*
X463968Y668731D01*
X463968Y676520D02*
X469810Y676520D01*
X469897Y676518D01*
X469985Y676512D01*
X470071Y676502D01*
X470158Y676489D01*
X470243Y676471D01*
X470328Y676450D01*
X470412Y676425D01*
X470494Y676396D01*
X470575Y676363D01*
X470655Y676327D01*
X470733Y676288D01*
X470809Y676244D01*
X470883Y676198D01*
X470954Y676148D01*
X471024Y676095D01*
X471091Y676039D01*
X471155Y675980D01*
X471217Y675918D01*
X471276Y675854D01*
X471332Y675787D01*
X471385Y675717D01*
X471435Y675646D01*
X471481Y675572D01*
X471525Y675496D01*
X471564Y675418D01*
X471600Y675338D01*
X471633Y675257D01*
X471662Y675175D01*
X471687Y675091D01*
X471708Y675006D01*
X471726Y674921D01*
X471739Y674834D01*
X471749Y674748D01*
X471755Y674660D01*
X471757Y674573D01*
X471758Y674573D02*
X471758Y668731D01*
X467863Y668731D02*
X467863Y676520D01*
X482793Y668731D02*
X487986Y676520D01*
X482793Y676520D02*
X487986Y668731D01*
X498527Y677818D02*
X501772Y680415D01*
X501772Y668731D01*
X498527Y668731D02*
X505018Y668731D01*
X509957Y674573D02*
X509960Y674803D01*
X509968Y675033D01*
X509982Y675262D01*
X510001Y675491D01*
X510026Y675720D01*
X510056Y675947D01*
X510091Y676175D01*
X510132Y676401D01*
X510178Y676626D01*
X510230Y676850D01*
X510287Y677072D01*
X510349Y677294D01*
X510417Y677513D01*
X510490Y677731D01*
X510568Y677948D01*
X510651Y678162D01*
X510739Y678374D01*
X510832Y678584D01*
X510931Y678792D01*
X510930Y678792D02*
X510963Y678882D01*
X510999Y678971D01*
X511039Y679059D01*
X511083Y679144D01*
X511130Y679228D01*
X511180Y679310D01*
X511234Y679390D01*
X511290Y679467D01*
X511350Y679543D01*
X511413Y679616D01*
X511478Y679686D01*
X511547Y679754D01*
X511618Y679818D01*
X511691Y679880D01*
X511767Y679939D01*
X511845Y679995D01*
X511926Y680048D01*
X512008Y680097D01*
X512092Y680143D01*
X512179Y680186D01*
X512266Y680225D01*
X512356Y680261D01*
X512446Y680293D01*
X512538Y680321D01*
X512631Y680346D01*
X512725Y680367D01*
X512819Y680384D01*
X512914Y680398D01*
X513010Y680407D01*
X513106Y680413D01*
X513202Y680415D01*
X513298Y680413D01*
X513394Y680407D01*
X513490Y680398D01*
X513585Y680384D01*
X513679Y680367D01*
X513773Y680346D01*
X513866Y680321D01*
X513958Y680293D01*
X514048Y680261D01*
X514138Y680225D01*
X514225Y680186D01*
X514312Y680143D01*
X514396Y680097D01*
X514478Y680048D01*
X514559Y679995D01*
X514637Y679939D01*
X514713Y679880D01*
X514786Y679818D01*
X514857Y679754D01*
X514926Y679686D01*
X514991Y679616D01*
X515054Y679543D01*
X515114Y679467D01*
X515170Y679390D01*
X515224Y679310D01*
X515274Y679228D01*
X515321Y679144D01*
X515365Y679059D01*
X515405Y678971D01*
X515441Y678882D01*
X515474Y678792D01*
X515573Y678585D01*
X515666Y678375D01*
X515754Y678162D01*
X515837Y677948D01*
X515915Y677732D01*
X515988Y677514D01*
X516056Y677294D01*
X516118Y677073D01*
X516175Y676850D01*
X516227Y676626D01*
X516273Y676401D01*
X516314Y676175D01*
X516349Y675948D01*
X516379Y675720D01*
X516404Y675491D01*
X516423Y675262D01*
X516437Y675033D01*
X516445Y674803D01*
X516448Y674573D01*
X509956Y674573D02*
X509959Y674343D01*
X509967Y674113D01*
X509981Y673884D01*
X510000Y673655D01*
X510025Y673426D01*
X510055Y673198D01*
X510090Y672971D01*
X510131Y672745D01*
X510177Y672520D01*
X510229Y672296D01*
X510286Y672073D01*
X510348Y671852D01*
X510416Y671632D01*
X510489Y671414D01*
X510567Y671198D01*
X510650Y670984D01*
X510738Y670772D01*
X510831Y670561D01*
X510930Y670354D01*
X510963Y670264D01*
X510999Y670175D01*
X511040Y670087D01*
X511083Y670002D01*
X511130Y669918D01*
X511180Y669836D01*
X511234Y669756D01*
X511290Y669679D01*
X511350Y669603D01*
X511413Y669530D01*
X511478Y669460D01*
X511547Y669392D01*
X511618Y669328D01*
X511691Y669266D01*
X511767Y669207D01*
X511845Y669151D01*
X511926Y669098D01*
X512008Y669049D01*
X512092Y669003D01*
X512179Y668960D01*
X512266Y668921D01*
X512356Y668885D01*
X512446Y668853D01*
X512538Y668825D01*
X512631Y668800D01*
X512725Y668779D01*
X512819Y668762D01*
X512914Y668748D01*
X513010Y668739D01*
X513106Y668733D01*
X513202Y668731D01*
X515474Y670354D02*
X515573Y670561D01*
X515666Y670772D01*
X515754Y670984D01*
X515837Y671198D01*
X515915Y671414D01*
X515988Y671632D01*
X516056Y671852D01*
X516118Y672073D01*
X516175Y672296D01*
X516227Y672520D01*
X516273Y672745D01*
X516314Y672971D01*
X516349Y673198D01*
X516379Y673426D01*
X516404Y673655D01*
X516423Y673884D01*
X516437Y674113D01*
X516445Y674343D01*
X516448Y674573D01*
X515474Y670354D02*
X515441Y670264D01*
X515405Y670175D01*
X515365Y670087D01*
X515321Y670002D01*
X515274Y669918D01*
X515224Y669836D01*
X515170Y669756D01*
X515114Y669679D01*
X515054Y669603D01*
X514991Y669530D01*
X514926Y669460D01*
X514857Y669392D01*
X514786Y669328D01*
X514713Y669266D01*
X514637Y669207D01*
X514559Y669151D01*
X514478Y669098D01*
X514396Y669049D01*
X514312Y669003D01*
X514225Y668960D01*
X514138Y668921D01*
X514048Y668885D01*
X513958Y668853D01*
X513866Y668825D01*
X513773Y668800D01*
X513679Y668779D01*
X513585Y668762D01*
X513490Y668748D01*
X513394Y668739D01*
X513298Y668733D01*
X513202Y668731D01*
X510606Y671327D02*
X515799Y677818D01*
X527976Y676520D02*
X527976Y668731D01*
X527976Y676520D02*
X533818Y676520D01*
X533905Y676518D01*
X533993Y676512D01*
X534079Y676502D01*
X534166Y676489D01*
X534251Y676471D01*
X534336Y676450D01*
X534420Y676425D01*
X534502Y676396D01*
X534583Y676363D01*
X534663Y676327D01*
X534741Y676288D01*
X534817Y676244D01*
X534891Y676198D01*
X534962Y676148D01*
X535032Y676095D01*
X535099Y676039D01*
X535163Y675980D01*
X535225Y675918D01*
X535284Y675854D01*
X535340Y675787D01*
X535393Y675717D01*
X535443Y675646D01*
X535489Y675572D01*
X535533Y675496D01*
X535572Y675418D01*
X535608Y675338D01*
X535641Y675257D01*
X535670Y675175D01*
X535695Y675091D01*
X535716Y675006D01*
X535734Y674921D01*
X535747Y674834D01*
X535757Y674748D01*
X535763Y674660D01*
X535765Y674573D01*
X535766Y674573D02*
X535766Y668731D01*
X531871Y668731D02*
X531871Y676520D01*
X541692Y676520D02*
X541692Y668731D01*
X541692Y676520D02*
X547534Y676520D01*
X547621Y676518D01*
X547709Y676512D01*
X547795Y676502D01*
X547882Y676489D01*
X547967Y676471D01*
X548052Y676450D01*
X548136Y676425D01*
X548218Y676396D01*
X548299Y676363D01*
X548379Y676327D01*
X548457Y676288D01*
X548533Y676244D01*
X548607Y676198D01*
X548678Y676148D01*
X548748Y676095D01*
X548815Y676039D01*
X548879Y675980D01*
X548941Y675918D01*
X549000Y675854D01*
X549056Y675787D01*
X549109Y675717D01*
X549159Y675646D01*
X549205Y675572D01*
X549249Y675496D01*
X549288Y675418D01*
X549324Y675338D01*
X549357Y675257D01*
X549386Y675175D01*
X549411Y675091D01*
X549432Y675006D01*
X549450Y674921D01*
X549463Y674834D01*
X549473Y674748D01*
X549479Y674660D01*
X549481Y674573D01*
X549482Y674573D02*
X549482Y668731D01*
X545587Y668731D02*
X545587Y676520D01*
X557143Y674573D02*
X557140Y674306D01*
X557130Y674038D01*
X557114Y673772D01*
X557092Y673505D01*
X557063Y673239D01*
X557027Y672974D01*
X556986Y672710D01*
X556938Y672447D01*
X556884Y672185D01*
X556823Y671925D01*
X556756Y671666D01*
X556683Y671409D01*
X556604Y671154D01*
X556519Y670900D01*
X556427Y670649D01*
X556330Y670400D01*
X556227Y670153D01*
X556117Y669909D01*
X556002Y669668D01*
X555881Y669429D01*
X555755Y669194D01*
X555623Y668961D01*
X555485Y668732D01*
X555342Y668507D01*
X555193Y668284D01*
X555039Y668066D01*
X554880Y667851D01*
X554716Y667640D01*
X554547Y667433D01*
X557143Y674573D02*
X557140Y674840D01*
X557130Y675108D01*
X557114Y675374D01*
X557092Y675641D01*
X557063Y675907D01*
X557027Y676172D01*
X556986Y676436D01*
X556938Y676699D01*
X556884Y676961D01*
X556823Y677221D01*
X556756Y677480D01*
X556683Y677737D01*
X556604Y677993D01*
X556519Y678246D01*
X556427Y678497D01*
X556330Y678746D01*
X556227Y678993D01*
X556117Y679237D01*
X556002Y679478D01*
X555881Y679717D01*
X555755Y679952D01*
X555623Y680185D01*
X555485Y680414D01*
X555342Y680639D01*
X555193Y680862D01*
X555039Y681080D01*
X554880Y681295D01*
X554716Y681506D01*
X554547Y681713D01*
D12*
X355515Y340181D02*
X355379Y340015D01*
X355247Y339845D01*
X355119Y339672D01*
X354995Y339496D01*
X354876Y339318D01*
X354761Y339136D01*
X354650Y338952D01*
X354544Y338765D01*
X354442Y338575D01*
X354345Y338383D01*
X354252Y338189D01*
X354164Y337993D01*
X354081Y337795D01*
X354003Y337594D01*
X353929Y337392D01*
X353861Y337188D01*
X353797Y336983D01*
X353738Y336776D01*
X353684Y336568D01*
X353636Y336358D01*
X353592Y336148D01*
X353553Y335936D01*
X353520Y335724D01*
X353492Y335511D01*
X353468Y335297D01*
X353450Y335083D01*
X353437Y334868D01*
X353430Y334653D01*
X353427Y334438D01*
X353430Y334223D01*
X353437Y334008D01*
X353450Y333793D01*
X353468Y333579D01*
X353492Y333365D01*
X353520Y333152D01*
X353553Y332940D01*
X353592Y332728D01*
X353636Y332518D01*
X353684Y332308D01*
X353738Y332100D01*
X353797Y331893D01*
X353861Y331688D01*
X353929Y331484D01*
X354003Y331282D01*
X354081Y331081D01*
X354164Y330883D01*
X354252Y330687D01*
X354345Y330493D01*
X354442Y330301D01*
X354544Y330111D01*
X354650Y329924D01*
X354761Y329740D01*
X354876Y329559D01*
X354995Y329380D01*
X355119Y329204D01*
X355247Y329031D01*
X355379Y328861D01*
X355515Y328695D01*
X359240Y333393D02*
X365505Y333393D01*
X362373Y330261D02*
X362373Y336526D01*
X371319Y334438D02*
X371316Y334223D01*
X371309Y334008D01*
X371296Y333793D01*
X371278Y333579D01*
X371254Y333365D01*
X371226Y333152D01*
X371193Y332940D01*
X371154Y332728D01*
X371110Y332518D01*
X371062Y332308D01*
X371008Y332100D01*
X370949Y331893D01*
X370885Y331688D01*
X370817Y331484D01*
X370743Y331282D01*
X370665Y331081D01*
X370582Y330883D01*
X370494Y330687D01*
X370401Y330493D01*
X370304Y330301D01*
X370202Y330111D01*
X370096Y329924D01*
X369985Y329740D01*
X369870Y329559D01*
X369751Y329380D01*
X369627Y329204D01*
X369499Y329031D01*
X369367Y328861D01*
X369231Y328695D01*
X371319Y334438D02*
X371316Y334653D01*
X371309Y334868D01*
X371296Y335083D01*
X371278Y335297D01*
X371254Y335511D01*
X371226Y335724D01*
X371193Y335936D01*
X371154Y336148D01*
X371110Y336358D01*
X371062Y336568D01*
X371008Y336776D01*
X370949Y336983D01*
X370885Y337188D01*
X370817Y337392D01*
X370743Y337594D01*
X370665Y337795D01*
X370582Y337993D01*
X370494Y338189D01*
X370401Y338383D01*
X370304Y338575D01*
X370202Y338765D01*
X370096Y338952D01*
X369985Y339136D01*
X369870Y339318D01*
X369751Y339496D01*
X369627Y339672D01*
X369499Y339845D01*
X369367Y340015D01*
X369231Y340181D01*
X354087Y465975D02*
X354090Y466190D01*
X354097Y466405D01*
X354110Y466620D01*
X354128Y466834D01*
X354152Y467048D01*
X354180Y467261D01*
X354213Y467473D01*
X354252Y467685D01*
X354296Y467895D01*
X354344Y468105D01*
X354398Y468313D01*
X354457Y468520D01*
X354521Y468725D01*
X354589Y468929D01*
X354663Y469131D01*
X354741Y469332D01*
X354824Y469530D01*
X354912Y469726D01*
X355005Y469920D01*
X355102Y470112D01*
X355204Y470302D01*
X355310Y470489D01*
X355421Y470673D01*
X355536Y470855D01*
X355655Y471033D01*
X355779Y471209D01*
X355907Y471382D01*
X356039Y471552D01*
X356175Y471718D01*
X354087Y465975D02*
X354090Y465760D01*
X354097Y465545D01*
X354110Y465330D01*
X354128Y465116D01*
X354152Y464902D01*
X354180Y464689D01*
X354213Y464477D01*
X354252Y464265D01*
X354296Y464055D01*
X354344Y463845D01*
X354398Y463637D01*
X354457Y463430D01*
X354521Y463225D01*
X354589Y463021D01*
X354663Y462819D01*
X354741Y462618D01*
X354824Y462420D01*
X354912Y462224D01*
X355005Y462030D01*
X355102Y461838D01*
X355204Y461648D01*
X355310Y461461D01*
X355421Y461277D01*
X355536Y461096D01*
X355655Y460917D01*
X355779Y460741D01*
X355907Y460568D01*
X356039Y460398D01*
X356175Y460232D01*
X359901Y464931D02*
X366166Y464931D01*
X363033Y461799D02*
X363033Y468064D01*
X371979Y465975D02*
X371976Y465760D01*
X371969Y465545D01*
X371956Y465330D01*
X371938Y465116D01*
X371914Y464902D01*
X371886Y464689D01*
X371853Y464477D01*
X371814Y464265D01*
X371770Y464055D01*
X371722Y463845D01*
X371668Y463637D01*
X371609Y463430D01*
X371545Y463225D01*
X371477Y463021D01*
X371403Y462819D01*
X371325Y462618D01*
X371242Y462420D01*
X371154Y462224D01*
X371061Y462030D01*
X370964Y461838D01*
X370862Y461648D01*
X370756Y461461D01*
X370645Y461277D01*
X370530Y461096D01*
X370411Y460917D01*
X370287Y460741D01*
X370159Y460568D01*
X370027Y460398D01*
X369891Y460232D01*
X371979Y465975D02*
X371976Y466190D01*
X371969Y466405D01*
X371956Y466620D01*
X371938Y466834D01*
X371914Y467048D01*
X371886Y467261D01*
X371853Y467473D01*
X371814Y467685D01*
X371770Y467895D01*
X371722Y468105D01*
X371668Y468313D01*
X371609Y468520D01*
X371545Y468725D01*
X371477Y468929D01*
X371403Y469131D01*
X371325Y469332D01*
X371242Y469530D01*
X371154Y469726D01*
X371061Y469920D01*
X370964Y470112D01*
X370862Y470302D01*
X370756Y470489D01*
X370645Y470673D01*
X370530Y470855D01*
X370411Y471033D01*
X370287Y471209D01*
X370159Y471382D01*
X370027Y471552D01*
X369891Y471718D01*
X483068Y466019D02*
X483071Y466234D01*
X483078Y466449D01*
X483091Y466664D01*
X483109Y466878D01*
X483133Y467092D01*
X483161Y467305D01*
X483194Y467517D01*
X483233Y467729D01*
X483277Y467939D01*
X483325Y468149D01*
X483379Y468357D01*
X483438Y468564D01*
X483502Y468769D01*
X483570Y468973D01*
X483644Y469175D01*
X483722Y469376D01*
X483805Y469574D01*
X483893Y469770D01*
X483986Y469964D01*
X484083Y470156D01*
X484185Y470346D01*
X484291Y470533D01*
X484402Y470717D01*
X484517Y470899D01*
X484636Y471077D01*
X484760Y471253D01*
X484888Y471426D01*
X485020Y471596D01*
X485156Y471762D01*
X483068Y466019D02*
X483071Y465804D01*
X483078Y465589D01*
X483091Y465374D01*
X483109Y465160D01*
X483133Y464946D01*
X483161Y464733D01*
X483194Y464521D01*
X483233Y464309D01*
X483277Y464099D01*
X483325Y463889D01*
X483379Y463681D01*
X483438Y463474D01*
X483502Y463269D01*
X483570Y463065D01*
X483644Y462863D01*
X483722Y462662D01*
X483805Y462464D01*
X483893Y462268D01*
X483986Y462074D01*
X484083Y461882D01*
X484185Y461692D01*
X484291Y461505D01*
X484402Y461321D01*
X484517Y461140D01*
X484636Y460961D01*
X484760Y460785D01*
X484888Y460612D01*
X485020Y460442D01*
X485156Y460276D01*
X488881Y464975D02*
X495146Y464975D01*
X492014Y468107D02*
X492014Y461842D01*
X498872Y460276D02*
X499008Y460442D01*
X499140Y460612D01*
X499268Y460785D01*
X499392Y460961D01*
X499511Y461140D01*
X499626Y461321D01*
X499737Y461505D01*
X499843Y461692D01*
X499945Y461882D01*
X500042Y462074D01*
X500135Y462268D01*
X500223Y462464D01*
X500306Y462662D01*
X500384Y462863D01*
X500458Y463065D01*
X500526Y463269D01*
X500590Y463474D01*
X500649Y463681D01*
X500703Y463889D01*
X500751Y464099D01*
X500795Y464309D01*
X500834Y464521D01*
X500867Y464733D01*
X500895Y464946D01*
X500919Y465160D01*
X500937Y465374D01*
X500950Y465589D01*
X500957Y465804D01*
X500960Y466019D01*
X500957Y466234D01*
X500950Y466449D01*
X500937Y466664D01*
X500919Y466878D01*
X500895Y467092D01*
X500867Y467305D01*
X500834Y467517D01*
X500795Y467729D01*
X500751Y467939D01*
X500703Y468149D01*
X500649Y468357D01*
X500590Y468564D01*
X500526Y468769D01*
X500458Y468973D01*
X500384Y469175D01*
X500306Y469376D01*
X500223Y469574D01*
X500135Y469770D01*
X500042Y469964D01*
X499945Y470156D01*
X499843Y470346D01*
X499737Y470533D01*
X499626Y470717D01*
X499511Y470899D01*
X499392Y471077D01*
X499268Y471253D01*
X499140Y471426D01*
X499008Y471596D01*
X498872Y471762D01*
X485047Y339542D02*
X484911Y339376D01*
X484779Y339206D01*
X484651Y339033D01*
X484527Y338857D01*
X484408Y338679D01*
X484293Y338497D01*
X484182Y338313D01*
X484076Y338126D01*
X483974Y337936D01*
X483877Y337744D01*
X483784Y337550D01*
X483696Y337354D01*
X483613Y337156D01*
X483535Y336955D01*
X483461Y336753D01*
X483393Y336549D01*
X483329Y336344D01*
X483270Y336137D01*
X483216Y335929D01*
X483168Y335719D01*
X483124Y335509D01*
X483085Y335297D01*
X483052Y335085D01*
X483024Y334872D01*
X483000Y334658D01*
X482982Y334444D01*
X482969Y334229D01*
X482962Y334014D01*
X482959Y333799D01*
X482962Y333584D01*
X482969Y333369D01*
X482982Y333154D01*
X483000Y332940D01*
X483024Y332726D01*
X483052Y332513D01*
X483085Y332301D01*
X483124Y332089D01*
X483168Y331879D01*
X483216Y331669D01*
X483270Y331461D01*
X483329Y331254D01*
X483393Y331049D01*
X483461Y330845D01*
X483535Y330643D01*
X483613Y330442D01*
X483696Y330244D01*
X483784Y330048D01*
X483877Y329854D01*
X483974Y329662D01*
X484076Y329472D01*
X484182Y329285D01*
X484293Y329101D01*
X484408Y328920D01*
X484527Y328741D01*
X484651Y328565D01*
X484779Y328392D01*
X484911Y328222D01*
X485047Y328056D01*
X488772Y332755D02*
X495038Y332755D01*
X491905Y329622D02*
X491905Y335888D01*
X500851Y333799D02*
X500848Y333584D01*
X500841Y333369D01*
X500828Y333154D01*
X500810Y332940D01*
X500786Y332726D01*
X500758Y332513D01*
X500725Y332301D01*
X500686Y332089D01*
X500642Y331879D01*
X500594Y331669D01*
X500540Y331461D01*
X500481Y331254D01*
X500417Y331049D01*
X500349Y330845D01*
X500275Y330643D01*
X500197Y330442D01*
X500114Y330244D01*
X500026Y330048D01*
X499933Y329854D01*
X499836Y329662D01*
X499734Y329472D01*
X499628Y329285D01*
X499517Y329101D01*
X499402Y328920D01*
X499283Y328741D01*
X499159Y328565D01*
X499031Y328392D01*
X498899Y328222D01*
X498763Y328056D01*
X500851Y333799D02*
X500848Y334014D01*
X500841Y334229D01*
X500828Y334444D01*
X500810Y334658D01*
X500786Y334872D01*
X500758Y335085D01*
X500725Y335297D01*
X500686Y335509D01*
X500642Y335719D01*
X500594Y335929D01*
X500540Y336137D01*
X500481Y336344D01*
X500417Y336549D01*
X500349Y336753D01*
X500275Y336955D01*
X500197Y337156D01*
X500114Y337354D01*
X500026Y337550D01*
X499933Y337744D01*
X499836Y337936D01*
X499734Y338126D01*
X499628Y338313D01*
X499517Y338497D01*
X499402Y338679D01*
X499283Y338857D01*
X499159Y339033D01*
X499031Y339206D01*
X498899Y339376D01*
X498763Y339542D01*
X486309Y277384D02*
X486173Y277218D01*
X486041Y277048D01*
X485913Y276875D01*
X485789Y276699D01*
X485670Y276521D01*
X485555Y276339D01*
X485444Y276155D01*
X485338Y275968D01*
X485236Y275778D01*
X485139Y275586D01*
X485046Y275392D01*
X484958Y275196D01*
X484875Y274998D01*
X484797Y274797D01*
X484723Y274595D01*
X484655Y274391D01*
X484591Y274186D01*
X484532Y273979D01*
X484478Y273771D01*
X484430Y273561D01*
X484386Y273351D01*
X484347Y273139D01*
X484314Y272927D01*
X484286Y272714D01*
X484262Y272500D01*
X484244Y272286D01*
X484231Y272071D01*
X484224Y271856D01*
X484221Y271641D01*
X484224Y271426D01*
X484231Y271211D01*
X484244Y270996D01*
X484262Y270782D01*
X484286Y270568D01*
X484314Y270355D01*
X484347Y270143D01*
X484386Y269931D01*
X484430Y269721D01*
X484478Y269511D01*
X484532Y269303D01*
X484591Y269096D01*
X484655Y268891D01*
X484723Y268687D01*
X484797Y268485D01*
X484875Y268284D01*
X484958Y268086D01*
X485046Y267890D01*
X485139Y267696D01*
X485236Y267504D01*
X485338Y267314D01*
X485444Y267127D01*
X485555Y266943D01*
X485670Y266762D01*
X485789Y266583D01*
X485913Y266407D01*
X486041Y266234D01*
X486173Y266064D01*
X486309Y265898D01*
X490034Y270596D02*
X496300Y270596D01*
X502113Y271641D02*
X502110Y271426D01*
X502103Y271211D01*
X502090Y270996D01*
X502072Y270782D01*
X502048Y270568D01*
X502020Y270355D01*
X501987Y270143D01*
X501948Y269931D01*
X501904Y269721D01*
X501856Y269511D01*
X501802Y269303D01*
X501743Y269096D01*
X501679Y268891D01*
X501611Y268687D01*
X501537Y268485D01*
X501459Y268284D01*
X501376Y268086D01*
X501288Y267890D01*
X501195Y267696D01*
X501098Y267504D01*
X500996Y267314D01*
X500890Y267127D01*
X500779Y266943D01*
X500664Y266762D01*
X500545Y266583D01*
X500421Y266407D01*
X500293Y266234D01*
X500161Y266064D01*
X500025Y265898D01*
X502113Y271641D02*
X502110Y271856D01*
X502103Y272071D01*
X502090Y272286D01*
X502072Y272500D01*
X502048Y272714D01*
X502020Y272927D01*
X501987Y273139D01*
X501948Y273351D01*
X501904Y273561D01*
X501856Y273771D01*
X501802Y273979D01*
X501743Y274186D01*
X501679Y274391D01*
X501611Y274595D01*
X501537Y274797D01*
X501459Y274998D01*
X501376Y275196D01*
X501288Y275392D01*
X501195Y275586D01*
X501098Y275778D01*
X500996Y275968D01*
X500890Y276155D01*
X500779Y276339D01*
X500664Y276521D01*
X500545Y276699D01*
X500421Y276875D01*
X500293Y277048D01*
X500161Y277218D01*
X500025Y277384D01*
X355008Y403904D02*
X355011Y404119D01*
X355018Y404334D01*
X355031Y404549D01*
X355049Y404763D01*
X355073Y404977D01*
X355101Y405190D01*
X355134Y405402D01*
X355173Y405614D01*
X355217Y405824D01*
X355265Y406034D01*
X355319Y406242D01*
X355378Y406449D01*
X355442Y406654D01*
X355510Y406858D01*
X355584Y407060D01*
X355662Y407261D01*
X355745Y407459D01*
X355833Y407655D01*
X355926Y407849D01*
X356023Y408041D01*
X356125Y408231D01*
X356231Y408418D01*
X356342Y408602D01*
X356457Y408784D01*
X356576Y408962D01*
X356700Y409138D01*
X356828Y409311D01*
X356960Y409481D01*
X357096Y409647D01*
X355008Y403904D02*
X355011Y403689D01*
X355018Y403474D01*
X355031Y403259D01*
X355049Y403045D01*
X355073Y402831D01*
X355101Y402618D01*
X355134Y402406D01*
X355173Y402194D01*
X355217Y401984D01*
X355265Y401774D01*
X355319Y401566D01*
X355378Y401359D01*
X355442Y401154D01*
X355510Y400950D01*
X355584Y400748D01*
X355662Y400547D01*
X355745Y400349D01*
X355833Y400153D01*
X355926Y399959D01*
X356023Y399767D01*
X356125Y399577D01*
X356231Y399390D01*
X356342Y399206D01*
X356457Y399025D01*
X356576Y398846D01*
X356700Y398670D01*
X356828Y398497D01*
X356960Y398327D01*
X357096Y398161D01*
X360821Y402860D02*
X367087Y402860D01*
X372900Y403904D02*
X372897Y403689D01*
X372890Y403474D01*
X372877Y403259D01*
X372859Y403045D01*
X372835Y402831D01*
X372807Y402618D01*
X372774Y402406D01*
X372735Y402194D01*
X372691Y401984D01*
X372643Y401774D01*
X372589Y401566D01*
X372530Y401359D01*
X372466Y401154D01*
X372398Y400950D01*
X372324Y400748D01*
X372246Y400547D01*
X372163Y400349D01*
X372075Y400153D01*
X371982Y399959D01*
X371885Y399767D01*
X371783Y399577D01*
X371677Y399390D01*
X371566Y399206D01*
X371451Y399025D01*
X371332Y398846D01*
X371208Y398670D01*
X371080Y398497D01*
X370948Y398327D01*
X370812Y398161D01*
X372900Y403904D02*
X372897Y404119D01*
X372890Y404334D01*
X372877Y404549D01*
X372859Y404763D01*
X372835Y404977D01*
X372807Y405190D01*
X372774Y405402D01*
X372735Y405614D01*
X372691Y405824D01*
X372643Y406034D01*
X372589Y406242D01*
X372530Y406449D01*
X372466Y406654D01*
X372398Y406858D01*
X372324Y407060D01*
X372246Y407261D01*
X372163Y407459D01*
X372075Y407655D01*
X371982Y407849D01*
X371885Y408041D01*
X371783Y408231D01*
X371677Y408418D01*
X371566Y408602D01*
X371451Y408784D01*
X371332Y408962D01*
X371208Y409138D01*
X371080Y409311D01*
X370948Y409481D01*
X370812Y409647D01*
X484308Y403563D02*
X484311Y403778D01*
X484318Y403993D01*
X484331Y404208D01*
X484349Y404422D01*
X484373Y404636D01*
X484401Y404849D01*
X484434Y405061D01*
X484473Y405273D01*
X484517Y405483D01*
X484565Y405693D01*
X484619Y405901D01*
X484678Y406108D01*
X484742Y406313D01*
X484810Y406517D01*
X484884Y406719D01*
X484962Y406920D01*
X485045Y407118D01*
X485133Y407314D01*
X485226Y407508D01*
X485323Y407700D01*
X485425Y407890D01*
X485531Y408077D01*
X485642Y408261D01*
X485757Y408443D01*
X485876Y408621D01*
X486000Y408797D01*
X486128Y408970D01*
X486260Y409140D01*
X486396Y409306D01*
X484308Y403563D02*
X484311Y403348D01*
X484318Y403133D01*
X484331Y402918D01*
X484349Y402704D01*
X484373Y402490D01*
X484401Y402277D01*
X484434Y402065D01*
X484473Y401853D01*
X484517Y401643D01*
X484565Y401433D01*
X484619Y401225D01*
X484678Y401018D01*
X484742Y400813D01*
X484810Y400609D01*
X484884Y400407D01*
X484962Y400206D01*
X485045Y400008D01*
X485133Y399812D01*
X485226Y399618D01*
X485323Y399426D01*
X485425Y399236D01*
X485531Y399049D01*
X485642Y398865D01*
X485757Y398684D01*
X485876Y398505D01*
X486000Y398329D01*
X486128Y398156D01*
X486260Y397986D01*
X486396Y397820D01*
X490121Y402519D02*
X496386Y402519D01*
X502200Y403563D02*
X502197Y403348D01*
X502190Y403133D01*
X502177Y402918D01*
X502159Y402704D01*
X502135Y402490D01*
X502107Y402277D01*
X502074Y402065D01*
X502035Y401853D01*
X501991Y401643D01*
X501943Y401433D01*
X501889Y401225D01*
X501830Y401018D01*
X501766Y400813D01*
X501698Y400609D01*
X501624Y400407D01*
X501546Y400206D01*
X501463Y400008D01*
X501375Y399812D01*
X501282Y399618D01*
X501185Y399426D01*
X501083Y399236D01*
X500977Y399049D01*
X500866Y398865D01*
X500751Y398684D01*
X500632Y398505D01*
X500508Y398329D01*
X500380Y398156D01*
X500248Y397986D01*
X500112Y397820D01*
X502200Y403563D02*
X502197Y403778D01*
X502190Y403993D01*
X502177Y404208D01*
X502159Y404422D01*
X502135Y404636D01*
X502107Y404849D01*
X502074Y405061D01*
X502035Y405273D01*
X501991Y405483D01*
X501943Y405693D01*
X501889Y405901D01*
X501830Y406108D01*
X501766Y406313D01*
X501698Y406517D01*
X501624Y406719D01*
X501546Y406920D01*
X501463Y407118D01*
X501375Y407314D01*
X501282Y407508D01*
X501185Y407700D01*
X501083Y407890D01*
X500977Y408077D01*
X500866Y408261D01*
X500751Y408443D01*
X500632Y408621D01*
X500508Y408797D01*
X500380Y408970D01*
X500248Y409140D01*
X500112Y409306D01*
X358612Y278153D02*
X358476Y277987D01*
X358344Y277817D01*
X358216Y277644D01*
X358092Y277468D01*
X357973Y277290D01*
X357858Y277108D01*
X357747Y276924D01*
X357641Y276737D01*
X357539Y276547D01*
X357442Y276355D01*
X357349Y276161D01*
X357261Y275965D01*
X357178Y275767D01*
X357100Y275566D01*
X357026Y275364D01*
X356958Y275160D01*
X356894Y274955D01*
X356835Y274748D01*
X356781Y274540D01*
X356733Y274330D01*
X356689Y274120D01*
X356650Y273908D01*
X356617Y273696D01*
X356589Y273483D01*
X356565Y273269D01*
X356547Y273055D01*
X356534Y272840D01*
X356527Y272625D01*
X356524Y272410D01*
X356527Y272195D01*
X356534Y271980D01*
X356547Y271765D01*
X356565Y271551D01*
X356589Y271337D01*
X356617Y271124D01*
X356650Y270912D01*
X356689Y270700D01*
X356733Y270490D01*
X356781Y270280D01*
X356835Y270072D01*
X356894Y269865D01*
X356958Y269660D01*
X357026Y269456D01*
X357100Y269254D01*
X357178Y269053D01*
X357261Y268855D01*
X357349Y268659D01*
X357442Y268465D01*
X357539Y268273D01*
X357641Y268083D01*
X357747Y267896D01*
X357858Y267712D01*
X357973Y267531D01*
X358092Y267352D01*
X358216Y267176D01*
X358344Y267003D01*
X358476Y266833D01*
X358612Y266667D01*
X362337Y271365D02*
X368603Y271365D01*
X374416Y272410D02*
X374413Y272195D01*
X374406Y271980D01*
X374393Y271765D01*
X374375Y271551D01*
X374351Y271337D01*
X374323Y271124D01*
X374290Y270912D01*
X374251Y270700D01*
X374207Y270490D01*
X374159Y270280D01*
X374105Y270072D01*
X374046Y269865D01*
X373982Y269660D01*
X373914Y269456D01*
X373840Y269254D01*
X373762Y269053D01*
X373679Y268855D01*
X373591Y268659D01*
X373498Y268465D01*
X373401Y268273D01*
X373299Y268083D01*
X373193Y267896D01*
X373082Y267712D01*
X372967Y267531D01*
X372848Y267352D01*
X372724Y267176D01*
X372596Y267003D01*
X372464Y266833D01*
X372328Y266667D01*
X374416Y272410D02*
X374413Y272625D01*
X374406Y272840D01*
X374393Y273055D01*
X374375Y273269D01*
X374351Y273483D01*
X374323Y273696D01*
X374290Y273908D01*
X374251Y274120D01*
X374207Y274330D01*
X374159Y274540D01*
X374105Y274748D01*
X374046Y274955D01*
X373982Y275160D01*
X373914Y275364D01*
X373840Y275566D01*
X373762Y275767D01*
X373679Y275965D01*
X373591Y276161D01*
X373498Y276355D01*
X373401Y276547D01*
X373299Y276737D01*
X373193Y276924D01*
X373082Y277108D01*
X372967Y277290D01*
X372848Y277468D01*
X372724Y277644D01*
X372596Y277817D01*
X372464Y277987D01*
X372328Y278153D01*
X308737Y253434D02*
X299339Y253434D01*
X299339Y256045D01*
X299341Y256146D01*
X299347Y256247D01*
X299357Y256348D01*
X299370Y256448D01*
X299388Y256548D01*
X299409Y256647D01*
X299435Y256745D01*
X299464Y256842D01*
X299496Y256938D01*
X299533Y257032D01*
X299573Y257125D01*
X299617Y257217D01*
X299664Y257306D01*
X299715Y257394D01*
X299769Y257480D01*
X299826Y257563D01*
X299886Y257645D01*
X299950Y257723D01*
X300016Y257800D01*
X300086Y257873D01*
X300158Y257944D01*
X300233Y258012D01*
X300311Y258077D01*
X300391Y258139D01*
X300473Y258198D01*
X300558Y258254D01*
X300645Y258306D01*
X300733Y258355D01*
X300824Y258401D01*
X300916Y258442D01*
X301010Y258481D01*
X301105Y258515D01*
X301201Y258546D01*
X301299Y258573D01*
X301397Y258597D01*
X301497Y258616D01*
X301597Y258632D01*
X301697Y258644D01*
X301798Y258652D01*
X301899Y258656D01*
X302001Y258656D01*
X302102Y258652D01*
X302203Y258644D01*
X302303Y258632D01*
X302403Y258616D01*
X302503Y258597D01*
X302601Y258573D01*
X302699Y258546D01*
X302795Y258515D01*
X302890Y258481D01*
X302984Y258442D01*
X303076Y258401D01*
X303167Y258355D01*
X303256Y258306D01*
X303342Y258254D01*
X303427Y258198D01*
X303509Y258139D01*
X303589Y258077D01*
X303667Y258012D01*
X303742Y257944D01*
X303814Y257873D01*
X303884Y257800D01*
X303950Y257723D01*
X304014Y257645D01*
X304074Y257563D01*
X304131Y257480D01*
X304185Y257394D01*
X304236Y257306D01*
X304283Y257217D01*
X304327Y257125D01*
X304367Y257032D01*
X304404Y256938D01*
X304436Y256842D01*
X304465Y256745D01*
X304491Y256647D01*
X304512Y256548D01*
X304530Y256448D01*
X304543Y256348D01*
X304553Y256247D01*
X304559Y256146D01*
X304561Y256045D01*
X304560Y256045D02*
X304560Y253434D01*
X299339Y261620D02*
X308737Y264753D01*
X299339Y267885D01*
X301428Y276163D02*
X299339Y278773D01*
X308737Y278773D01*
X308737Y276163D02*
X308737Y281384D01*
X308999Y384264D02*
X299601Y384264D01*
X299601Y386875D01*
X299603Y386976D01*
X299609Y387077D01*
X299619Y387178D01*
X299632Y387278D01*
X299650Y387378D01*
X299671Y387477D01*
X299697Y387575D01*
X299726Y387672D01*
X299758Y387768D01*
X299795Y387862D01*
X299835Y387955D01*
X299879Y388047D01*
X299926Y388136D01*
X299977Y388224D01*
X300031Y388310D01*
X300088Y388393D01*
X300148Y388475D01*
X300212Y388553D01*
X300278Y388630D01*
X300348Y388703D01*
X300420Y388774D01*
X300495Y388842D01*
X300573Y388907D01*
X300653Y388969D01*
X300735Y389028D01*
X300820Y389084D01*
X300907Y389136D01*
X300995Y389185D01*
X301086Y389231D01*
X301178Y389272D01*
X301272Y389311D01*
X301367Y389345D01*
X301463Y389376D01*
X301561Y389403D01*
X301659Y389427D01*
X301759Y389446D01*
X301859Y389462D01*
X301959Y389474D01*
X302060Y389482D01*
X302161Y389486D01*
X302263Y389486D01*
X302364Y389482D01*
X302465Y389474D01*
X302565Y389462D01*
X302665Y389446D01*
X302765Y389427D01*
X302863Y389403D01*
X302961Y389376D01*
X303057Y389345D01*
X303152Y389311D01*
X303246Y389272D01*
X303338Y389231D01*
X303429Y389185D01*
X303518Y389136D01*
X303604Y389084D01*
X303689Y389028D01*
X303771Y388969D01*
X303851Y388907D01*
X303929Y388842D01*
X304004Y388774D01*
X304076Y388703D01*
X304146Y388630D01*
X304212Y388553D01*
X304276Y388475D01*
X304336Y388393D01*
X304393Y388310D01*
X304447Y388224D01*
X304498Y388136D01*
X304545Y388047D01*
X304589Y387955D01*
X304629Y387862D01*
X304666Y387768D01*
X304698Y387672D01*
X304727Y387575D01*
X304753Y387477D01*
X304774Y387378D01*
X304792Y387278D01*
X304805Y387178D01*
X304815Y387077D01*
X304821Y386976D01*
X304823Y386875D01*
X304822Y386875D02*
X304822Y384264D01*
X299601Y392450D02*
X308999Y395582D01*
X299601Y398715D01*
X299601Y409864D02*
X299603Y409959D01*
X299609Y410053D01*
X299618Y410147D01*
X299631Y410241D01*
X299648Y410334D01*
X299669Y410426D01*
X299694Y410518D01*
X299722Y410608D01*
X299754Y410697D01*
X299789Y410785D01*
X299828Y410871D01*
X299870Y410956D01*
X299916Y411039D01*
X299965Y411120D01*
X300017Y411199D01*
X300072Y411276D01*
X300131Y411350D01*
X300192Y411422D01*
X300256Y411492D01*
X300323Y411559D01*
X300393Y411623D01*
X300465Y411684D01*
X300539Y411743D01*
X300616Y411798D01*
X300695Y411850D01*
X300776Y411899D01*
X300859Y411945D01*
X300944Y411987D01*
X301030Y412026D01*
X301118Y412061D01*
X301207Y412093D01*
X301297Y412121D01*
X301389Y412146D01*
X301481Y412167D01*
X301574Y412184D01*
X301668Y412197D01*
X301762Y412206D01*
X301856Y412212D01*
X301951Y412214D01*
X299602Y409864D02*
X299604Y409756D01*
X299610Y409647D01*
X299620Y409539D01*
X299633Y409432D01*
X299651Y409325D01*
X299672Y409218D01*
X299697Y409113D01*
X299726Y409008D01*
X299758Y408905D01*
X299795Y408803D01*
X299835Y408702D01*
X299878Y408603D01*
X299925Y408505D01*
X299976Y408409D01*
X300030Y408315D01*
X300087Y408223D01*
X300148Y408133D01*
X300212Y408045D01*
X300278Y407960D01*
X300348Y407877D01*
X300421Y407797D01*
X300497Y407719D01*
X300575Y407644D01*
X300656Y407572D01*
X300740Y407503D01*
X300826Y407437D01*
X300914Y407374D01*
X301005Y407315D01*
X301097Y407258D01*
X301192Y407205D01*
X301289Y407156D01*
X301387Y407110D01*
X301486Y407067D01*
X301588Y407028D01*
X301690Y406993D01*
X303779Y411431D02*
X303710Y411500D01*
X303639Y411566D01*
X303566Y411630D01*
X303490Y411691D01*
X303411Y411749D01*
X303331Y411803D01*
X303248Y411855D01*
X303164Y411903D01*
X303078Y411949D01*
X302990Y411990D01*
X302900Y412029D01*
X302809Y412064D01*
X302717Y412095D01*
X302624Y412123D01*
X302530Y412147D01*
X302435Y412167D01*
X302339Y412184D01*
X302242Y412197D01*
X302145Y412206D01*
X302048Y412212D01*
X301951Y412214D01*
X303778Y411431D02*
X308999Y406993D01*
X308999Y412214D01*
X429517Y252432D02*
X438915Y252432D01*
X429517Y252432D02*
X429517Y255043D01*
X429519Y255144D01*
X429525Y255245D01*
X429535Y255346D01*
X429548Y255446D01*
X429566Y255546D01*
X429587Y255645D01*
X429613Y255743D01*
X429642Y255840D01*
X429674Y255936D01*
X429711Y256030D01*
X429751Y256123D01*
X429795Y256215D01*
X429842Y256304D01*
X429893Y256392D01*
X429947Y256478D01*
X430004Y256561D01*
X430064Y256643D01*
X430128Y256721D01*
X430194Y256798D01*
X430264Y256871D01*
X430336Y256942D01*
X430411Y257010D01*
X430489Y257075D01*
X430569Y257137D01*
X430651Y257196D01*
X430736Y257252D01*
X430823Y257304D01*
X430911Y257353D01*
X431002Y257399D01*
X431094Y257440D01*
X431188Y257479D01*
X431283Y257513D01*
X431379Y257544D01*
X431477Y257571D01*
X431575Y257595D01*
X431675Y257614D01*
X431775Y257630D01*
X431875Y257642D01*
X431976Y257650D01*
X432077Y257654D01*
X432179Y257654D01*
X432280Y257650D01*
X432381Y257642D01*
X432481Y257630D01*
X432581Y257614D01*
X432681Y257595D01*
X432779Y257571D01*
X432877Y257544D01*
X432973Y257513D01*
X433068Y257479D01*
X433162Y257440D01*
X433254Y257399D01*
X433345Y257353D01*
X433434Y257304D01*
X433520Y257252D01*
X433605Y257196D01*
X433687Y257137D01*
X433767Y257075D01*
X433845Y257010D01*
X433920Y256942D01*
X433992Y256871D01*
X434062Y256798D01*
X434128Y256721D01*
X434192Y256643D01*
X434252Y256561D01*
X434309Y256478D01*
X434363Y256392D01*
X434414Y256304D01*
X434461Y256215D01*
X434505Y256123D01*
X434545Y256030D01*
X434582Y255936D01*
X434614Y255840D01*
X434643Y255743D01*
X434669Y255645D01*
X434690Y255546D01*
X434708Y255446D01*
X434721Y255346D01*
X434731Y255245D01*
X434737Y255144D01*
X434739Y255043D01*
X434738Y255043D02*
X434738Y252432D01*
X429517Y260618D02*
X438915Y263751D01*
X429517Y266883D01*
X438915Y275161D02*
X438915Y277771D01*
X438916Y277771D02*
X438914Y277872D01*
X438908Y277973D01*
X438898Y278074D01*
X438885Y278174D01*
X438867Y278274D01*
X438846Y278373D01*
X438820Y278471D01*
X438791Y278568D01*
X438759Y278664D01*
X438722Y278758D01*
X438682Y278851D01*
X438638Y278943D01*
X438591Y279032D01*
X438540Y279120D01*
X438486Y279206D01*
X438429Y279289D01*
X438369Y279371D01*
X438305Y279449D01*
X438239Y279526D01*
X438169Y279599D01*
X438097Y279670D01*
X438022Y279738D01*
X437944Y279803D01*
X437864Y279865D01*
X437782Y279924D01*
X437697Y279980D01*
X437611Y280032D01*
X437522Y280081D01*
X437431Y280127D01*
X437339Y280168D01*
X437245Y280207D01*
X437150Y280241D01*
X437054Y280272D01*
X436956Y280299D01*
X436858Y280323D01*
X436758Y280342D01*
X436658Y280358D01*
X436558Y280370D01*
X436457Y280378D01*
X436356Y280382D01*
X436254Y280382D01*
X436153Y280378D01*
X436052Y280370D01*
X435952Y280358D01*
X435852Y280342D01*
X435752Y280323D01*
X435654Y280299D01*
X435556Y280272D01*
X435460Y280241D01*
X435365Y280207D01*
X435271Y280168D01*
X435179Y280127D01*
X435088Y280081D01*
X435000Y280032D01*
X434913Y279980D01*
X434828Y279924D01*
X434746Y279865D01*
X434666Y279803D01*
X434588Y279738D01*
X434513Y279670D01*
X434441Y279599D01*
X434371Y279526D01*
X434305Y279449D01*
X434241Y279371D01*
X434181Y279289D01*
X434124Y279206D01*
X434070Y279120D01*
X434019Y279032D01*
X433972Y278943D01*
X433928Y278851D01*
X433888Y278758D01*
X433851Y278664D01*
X433819Y278568D01*
X433790Y278471D01*
X433764Y278373D01*
X433743Y278274D01*
X433725Y278174D01*
X433712Y278074D01*
X433702Y277973D01*
X433696Y277872D01*
X433694Y277771D01*
X429517Y278294D02*
X429517Y275161D01*
X429518Y278294D02*
X429520Y278384D01*
X429526Y278473D01*
X429535Y278563D01*
X429549Y278652D01*
X429566Y278740D01*
X429587Y278827D01*
X429612Y278914D01*
X429641Y278999D01*
X429673Y279083D01*
X429708Y279165D01*
X429748Y279246D01*
X429790Y279325D01*
X429836Y279402D01*
X429886Y279477D01*
X429938Y279550D01*
X429994Y279621D01*
X430052Y279689D01*
X430114Y279754D01*
X430178Y279817D01*
X430245Y279877D01*
X430314Y279934D01*
X430386Y279988D01*
X430460Y280039D01*
X430536Y280087D01*
X430614Y280131D01*
X430694Y280172D01*
X430776Y280210D01*
X430859Y280244D01*
X430944Y280274D01*
X431030Y280301D01*
X431116Y280324D01*
X431204Y280343D01*
X431293Y280358D01*
X431382Y280370D01*
X431471Y280378D01*
X431561Y280382D01*
X431651Y280382D01*
X431741Y280378D01*
X431830Y280370D01*
X431919Y280358D01*
X432008Y280343D01*
X432096Y280324D01*
X432182Y280301D01*
X432268Y280274D01*
X432353Y280244D01*
X432436Y280210D01*
X432518Y280172D01*
X432598Y280131D01*
X432676Y280087D01*
X432752Y280039D01*
X432826Y279988D01*
X432898Y279934D01*
X432967Y279877D01*
X433034Y279817D01*
X433098Y279754D01*
X433160Y279689D01*
X433218Y279621D01*
X433274Y279550D01*
X433326Y279477D01*
X433376Y279402D01*
X433422Y279325D01*
X433464Y279246D01*
X433504Y279165D01*
X433539Y279083D01*
X433571Y278999D01*
X433600Y278914D01*
X433625Y278827D01*
X433646Y278740D01*
X433663Y278652D01*
X433677Y278563D01*
X433686Y278473D01*
X433692Y278384D01*
X433694Y278294D01*
X433694Y276205D01*
X429097Y384894D02*
X438495Y384894D01*
X429097Y384894D02*
X429097Y387504D01*
X429099Y387605D01*
X429105Y387706D01*
X429115Y387807D01*
X429128Y387907D01*
X429146Y388007D01*
X429167Y388106D01*
X429193Y388204D01*
X429222Y388301D01*
X429254Y388397D01*
X429291Y388491D01*
X429331Y388584D01*
X429375Y388676D01*
X429422Y388765D01*
X429473Y388853D01*
X429527Y388939D01*
X429584Y389022D01*
X429644Y389104D01*
X429708Y389182D01*
X429774Y389259D01*
X429844Y389332D01*
X429916Y389403D01*
X429991Y389471D01*
X430069Y389536D01*
X430149Y389598D01*
X430231Y389657D01*
X430316Y389713D01*
X430403Y389765D01*
X430491Y389814D01*
X430582Y389860D01*
X430674Y389901D01*
X430768Y389940D01*
X430863Y389974D01*
X430959Y390005D01*
X431057Y390032D01*
X431155Y390056D01*
X431255Y390075D01*
X431355Y390091D01*
X431455Y390103D01*
X431556Y390111D01*
X431657Y390115D01*
X431759Y390115D01*
X431860Y390111D01*
X431961Y390103D01*
X432061Y390091D01*
X432161Y390075D01*
X432261Y390056D01*
X432359Y390032D01*
X432457Y390005D01*
X432553Y389974D01*
X432648Y389940D01*
X432742Y389901D01*
X432834Y389860D01*
X432925Y389814D01*
X433014Y389765D01*
X433100Y389713D01*
X433185Y389657D01*
X433267Y389598D01*
X433347Y389536D01*
X433425Y389471D01*
X433500Y389403D01*
X433572Y389332D01*
X433642Y389259D01*
X433708Y389182D01*
X433772Y389104D01*
X433832Y389022D01*
X433889Y388939D01*
X433943Y388853D01*
X433994Y388765D01*
X434041Y388676D01*
X434085Y388584D01*
X434125Y388491D01*
X434162Y388397D01*
X434194Y388301D01*
X434223Y388204D01*
X434249Y388106D01*
X434270Y388007D01*
X434288Y387907D01*
X434301Y387807D01*
X434311Y387706D01*
X434317Y387605D01*
X434319Y387504D01*
X434319Y384894D01*
X429097Y393080D02*
X438495Y396212D01*
X429097Y399345D01*
X429097Y409711D02*
X436407Y407622D01*
X436407Y412843D01*
X434319Y411277D02*
X438495Y411277D01*
D13*
X660937Y173837D02*
X689179Y145545D01*
X667939Y124342D02*
X639697Y152634D01*
X653013Y138374D02*
X616671Y102096D01*
X675173Y160495D02*
X718130Y203376D01*
X690859Y180664D02*
X675173Y160495D01*
X695369Y176145D02*
X690859Y180664D01*
X695369Y176145D02*
X675173Y160495D01*
X692195Y179325D01*
X694032Y177485D02*
X675173Y160495D01*
X691277Y180245D01*
X694951Y176564D02*
X675173Y160495D01*
X653013Y138374D02*
X632817Y122724D01*
X637328Y118206D01*
X653013Y138374D01*
X634154Y121385D01*
X635991Y119545D02*
X653013Y138374D01*
X633235Y122305D01*
X636909Y118625D02*
X653013Y138374D01*
D11*
X689954Y182290D02*
X692253Y184581D01*
X692332Y184662D01*
X692408Y184746D01*
X692481Y184833D01*
X692551Y184922D01*
X692618Y185014D01*
X692681Y185107D01*
X692741Y185203D01*
X692798Y185301D01*
X692852Y185401D01*
X692901Y185503D01*
X692948Y185606D01*
X692990Y185711D01*
X693029Y185818D01*
X693065Y185926D01*
X693096Y186034D01*
X693124Y186144D01*
X693147Y186255D01*
X693167Y186367D01*
X693183Y186479D01*
X693195Y186591D01*
X693203Y186704D01*
X693207Y186818D01*
X693208Y186931D01*
X693204Y187044D01*
X693196Y187157D01*
X693184Y187270D01*
X693169Y187382D01*
X693149Y187494D01*
X693126Y187605D01*
X693099Y187715D01*
X693068Y187824D01*
X693033Y187931D01*
X692994Y188038D01*
X692952Y188143D01*
X692906Y188247D01*
X692857Y188349D01*
X692804Y188449D01*
X692747Y188547D01*
X692687Y188643D01*
X692624Y188737D01*
X692558Y188829D01*
X692488Y188918D01*
X692415Y189005D01*
X692340Y189090D01*
X692261Y189171D01*
X692180Y189250D01*
X692096Y189326D01*
X692009Y189399D01*
X691920Y189469D01*
X691828Y189536D01*
X691735Y189599D01*
X691639Y189659D01*
X691541Y189716D01*
X691441Y189770D01*
X691339Y189819D01*
X691236Y189866D01*
X691131Y189908D01*
X691024Y189947D01*
X690916Y189983D01*
X690808Y190014D01*
X690698Y190042D01*
X690587Y190065D01*
X690475Y190085D01*
X690363Y190101D01*
X690251Y190113D01*
X690138Y190121D01*
X690024Y190125D01*
X689911Y190126D01*
X689798Y190122D01*
X689685Y190114D01*
X689572Y190102D01*
X689460Y190087D01*
X689348Y190067D01*
X689237Y190044D01*
X689127Y190017D01*
X689018Y189986D01*
X688911Y189951D01*
X688804Y189912D01*
X688699Y189870D01*
X688595Y189824D01*
X688493Y189775D01*
X688393Y189722D01*
X688295Y189665D01*
X688199Y189605D01*
X688105Y189542D01*
X688013Y189476D01*
X687924Y189406D01*
X687837Y189333D01*
X687752Y189258D01*
X687671Y189179D01*
X684465Y193315D02*
X681706Y190566D01*
X684466Y193315D02*
X684538Y193385D01*
X684614Y193451D01*
X684691Y193515D01*
X684772Y193576D01*
X684854Y193634D01*
X684939Y193688D01*
X685026Y193739D01*
X685114Y193787D01*
X685205Y193831D01*
X685297Y193871D01*
X685391Y193908D01*
X685486Y193942D01*
X685582Y193971D01*
X685679Y193997D01*
X685777Y194019D01*
X685876Y194038D01*
X685976Y194052D01*
X686076Y194063D01*
X686177Y194069D01*
X686277Y194072D01*
X686378Y194071D01*
X686479Y194066D01*
X686579Y194057D01*
X686679Y194044D01*
X686778Y194027D01*
X686877Y194007D01*
X686974Y193982D01*
X687071Y193954D01*
X687166Y193922D01*
X687261Y193887D01*
X687353Y193848D01*
X687445Y193805D01*
X687534Y193759D01*
X687622Y193709D01*
X687707Y193656D01*
X687791Y193600D01*
X687872Y193540D01*
X687951Y193478D01*
X688027Y193412D01*
X688101Y193344D01*
X688172Y193272D01*
X688240Y193198D01*
X688306Y193122D01*
X688368Y193043D01*
X688427Y192961D01*
X688483Y192878D01*
X688536Y192792D01*
X688585Y192704D01*
X688631Y192614D01*
X688673Y192523D01*
X688712Y192430D01*
X688747Y192336D01*
X688779Y192240D01*
X688807Y192144D01*
X688831Y192046D01*
X688851Y191947D01*
X688867Y191848D01*
X688880Y191748D01*
X688888Y191648D01*
X688893Y191547D01*
X688894Y191446D01*
X688891Y191346D01*
X688884Y191245D01*
X688873Y191145D01*
X688858Y191046D01*
X688839Y190947D01*
X688817Y190848D01*
X688791Y190751D01*
X688761Y190655D01*
X688727Y190560D01*
X688690Y190467D01*
X688649Y190375D01*
X688604Y190284D01*
X688556Y190196D01*
X688505Y190109D01*
X688450Y190025D01*
X688393Y189942D01*
X688332Y189862D01*
X688267Y189785D01*
X688200Y189710D01*
X688130Y189637D01*
X686291Y187804D01*
X697232Y190459D02*
X697690Y190000D01*
X697232Y190459D02*
X697692Y190917D01*
X698150Y190458D01*
X697690Y190000D01*
X697164Y197724D02*
X697004Y197889D01*
X696848Y198057D01*
X696695Y198229D01*
X696547Y198405D01*
X696403Y198584D01*
X696264Y198767D01*
X696129Y198953D01*
X695998Y199142D01*
X695872Y199334D01*
X695750Y199529D01*
X695634Y199727D01*
X695522Y199928D01*
X695414Y200131D01*
X695312Y200337D01*
X695215Y200545D01*
X695122Y200756D01*
X695035Y200969D01*
X694953Y201183D01*
X694876Y201400D01*
X694876Y201399D02*
X694835Y201486D01*
X694798Y201575D01*
X694765Y201665D01*
X694736Y201757D01*
X694710Y201849D01*
X694687Y201943D01*
X694669Y202037D01*
X694654Y202132D01*
X694643Y202227D01*
X694636Y202323D01*
X694633Y202419D01*
X694634Y202515D01*
X694638Y202611D01*
X694647Y202707D01*
X694659Y202803D01*
X694675Y202897D01*
X694695Y202991D01*
X694718Y203085D01*
X694745Y203177D01*
X694776Y203268D01*
X694811Y203357D01*
X694849Y203446D01*
X694890Y203532D01*
X694935Y203617D01*
X694984Y203700D01*
X695035Y203782D01*
X695090Y203860D01*
X695148Y203937D01*
X695209Y204011D01*
X695273Y204083D01*
X695339Y204152D01*
X695409Y204219D01*
X695481Y204283D01*
X695555Y204343D01*
X695632Y204401D01*
X695711Y204455D01*
X695793Y204507D01*
X695876Y204555D01*
X695961Y204600D01*
X696048Y204641D01*
X696136Y204679D01*
X696226Y204713D01*
X696317Y204743D01*
X696409Y204770D01*
X696503Y204793D01*
X696597Y204813D01*
X696692Y204828D01*
X696787Y204840D01*
X696883Y204848D01*
X696979Y204852D01*
X697075Y204853D01*
X697171Y204849D01*
X697267Y204842D01*
X697362Y204831D01*
X697457Y204816D01*
X697552Y204797D01*
X697645Y204774D01*
X697737Y204748D01*
X697829Y204718D01*
X697919Y204684D01*
X698007Y204647D01*
X698095Y204607D01*
X698095Y204606D02*
X698311Y204528D01*
X698525Y204445D01*
X698738Y204357D01*
X698948Y204264D01*
X699156Y204166D01*
X699361Y204063D01*
X699564Y203955D01*
X699764Y203842D01*
X699962Y203725D01*
X700157Y203603D01*
X700348Y203476D01*
X700537Y203345D01*
X700722Y203209D01*
X700905Y203069D01*
X701083Y202924D01*
X701259Y202776D01*
X701430Y202623D01*
X701598Y202466D01*
X701763Y202305D01*
X697164Y197723D02*
X697329Y197562D01*
X697497Y197405D01*
X697668Y197252D01*
X697844Y197104D01*
X698022Y196959D01*
X698205Y196819D01*
X698390Y196683D01*
X698579Y196552D01*
X698770Y196425D01*
X698965Y196303D01*
X699163Y196186D01*
X699363Y196073D01*
X699566Y195965D01*
X699771Y195862D01*
X699979Y195764D01*
X700189Y195671D01*
X700402Y195583D01*
X700616Y195500D01*
X700832Y195422D01*
X700832Y195421D02*
X700919Y195381D01*
X701008Y195344D01*
X701098Y195310D01*
X701190Y195280D01*
X701282Y195254D01*
X701375Y195231D01*
X701470Y195212D01*
X701565Y195197D01*
X701660Y195186D01*
X701756Y195179D01*
X701852Y195175D01*
X701948Y195176D01*
X702044Y195180D01*
X702140Y195188D01*
X702235Y195200D01*
X702330Y195215D01*
X702424Y195235D01*
X702518Y195258D01*
X702610Y195285D01*
X702701Y195315D01*
X702791Y195349D01*
X702879Y195387D01*
X702966Y195428D01*
X703051Y195473D01*
X703134Y195521D01*
X703216Y195573D01*
X703295Y195627D01*
X703372Y195685D01*
X703446Y195746D01*
X703518Y195809D01*
X703588Y195876D01*
X704051Y198629D02*
X703974Y198846D01*
X703892Y199061D01*
X703805Y199273D01*
X703712Y199484D01*
X703615Y199692D01*
X703513Y199898D01*
X703405Y200101D01*
X703293Y200302D01*
X703177Y200500D01*
X703055Y200695D01*
X702929Y200887D01*
X702798Y201076D01*
X702663Y201262D01*
X702524Y201445D01*
X702380Y201624D01*
X702232Y201800D01*
X702079Y201972D01*
X701923Y202140D01*
X701763Y202305D01*
X704051Y198629D02*
X704092Y198542D01*
X704129Y198453D01*
X704162Y198363D01*
X704191Y198271D01*
X704217Y198179D01*
X704240Y198085D01*
X704258Y197991D01*
X704273Y197896D01*
X704284Y197801D01*
X704291Y197705D01*
X704294Y197609D01*
X704293Y197513D01*
X704289Y197417D01*
X704280Y197321D01*
X704268Y197225D01*
X704252Y197131D01*
X704232Y197037D01*
X704209Y196943D01*
X704182Y196851D01*
X704151Y196760D01*
X704116Y196670D01*
X704078Y196582D01*
X704037Y196496D01*
X703992Y196411D01*
X703943Y196328D01*
X703892Y196246D01*
X703837Y196168D01*
X703779Y196091D01*
X703718Y196017D01*
X703654Y195945D01*
X703587Y195876D01*
X699915Y195883D02*
X699012Y204146D01*
X705261Y205792D02*
X705101Y205957D01*
X704945Y206125D01*
X704792Y206297D01*
X704644Y206473D01*
X704500Y206652D01*
X704361Y206835D01*
X704226Y207021D01*
X704095Y207210D01*
X703969Y207402D01*
X703847Y207597D01*
X703731Y207795D01*
X703619Y207996D01*
X703511Y208199D01*
X703409Y208405D01*
X703312Y208613D01*
X703219Y208824D01*
X703132Y209037D01*
X703050Y209251D01*
X702973Y209468D01*
X702972Y209467D02*
X702931Y209554D01*
X702894Y209643D01*
X702861Y209733D01*
X702832Y209825D01*
X702806Y209917D01*
X702783Y210011D01*
X702765Y210105D01*
X702750Y210200D01*
X702739Y210295D01*
X702732Y210391D01*
X702729Y210487D01*
X702730Y210583D01*
X702734Y210679D01*
X702743Y210775D01*
X702755Y210871D01*
X702771Y210965D01*
X702791Y211059D01*
X702814Y211153D01*
X702841Y211245D01*
X702872Y211336D01*
X702907Y211425D01*
X702945Y211514D01*
X702986Y211600D01*
X703031Y211685D01*
X703080Y211768D01*
X703131Y211850D01*
X703186Y211928D01*
X703244Y212005D01*
X703305Y212079D01*
X703369Y212151D01*
X703435Y212220D01*
X703505Y212287D01*
X703577Y212351D01*
X703651Y212411D01*
X703728Y212469D01*
X703807Y212523D01*
X703889Y212575D01*
X703972Y212623D01*
X704057Y212668D01*
X704144Y212709D01*
X704232Y212747D01*
X704322Y212781D01*
X704413Y212811D01*
X704505Y212838D01*
X704599Y212861D01*
X704693Y212881D01*
X704788Y212896D01*
X704883Y212908D01*
X704979Y212916D01*
X705075Y212920D01*
X705171Y212921D01*
X705267Y212917D01*
X705363Y212910D01*
X705458Y212899D01*
X705553Y212884D01*
X705648Y212865D01*
X705741Y212842D01*
X705833Y212816D01*
X705925Y212786D01*
X706015Y212752D01*
X706103Y212715D01*
X706191Y212675D01*
X706191Y212674D02*
X706407Y212596D01*
X706621Y212513D01*
X706834Y212425D01*
X707044Y212332D01*
X707252Y212234D01*
X707457Y212131D01*
X707660Y212023D01*
X707860Y211910D01*
X708058Y211793D01*
X708253Y211671D01*
X708444Y211544D01*
X708633Y211413D01*
X708818Y211277D01*
X709001Y211137D01*
X709179Y210992D01*
X709355Y210844D01*
X709526Y210691D01*
X709694Y210534D01*
X709859Y210373D01*
X705260Y205791D02*
X705425Y205630D01*
X705593Y205473D01*
X705764Y205320D01*
X705940Y205172D01*
X706118Y205027D01*
X706301Y204887D01*
X706486Y204751D01*
X706675Y204620D01*
X706866Y204493D01*
X707061Y204371D01*
X707259Y204254D01*
X707459Y204141D01*
X707662Y204033D01*
X707867Y203930D01*
X708075Y203832D01*
X708285Y203739D01*
X708498Y203651D01*
X708712Y203568D01*
X708928Y203490D01*
X708928Y203489D02*
X709015Y203449D01*
X709104Y203412D01*
X709194Y203378D01*
X709286Y203348D01*
X709378Y203322D01*
X709471Y203299D01*
X709566Y203280D01*
X709661Y203265D01*
X709756Y203254D01*
X709852Y203247D01*
X709948Y203243D01*
X710044Y203244D01*
X710140Y203248D01*
X710236Y203256D01*
X710331Y203268D01*
X710426Y203283D01*
X710520Y203303D01*
X710614Y203326D01*
X710706Y203353D01*
X710797Y203383D01*
X710887Y203417D01*
X710975Y203455D01*
X711062Y203496D01*
X711147Y203541D01*
X711230Y203589D01*
X711312Y203641D01*
X711391Y203695D01*
X711468Y203753D01*
X711542Y203814D01*
X711614Y203877D01*
X711684Y203944D01*
X712147Y206697D02*
X712070Y206914D01*
X711988Y207129D01*
X711901Y207341D01*
X711808Y207552D01*
X711711Y207760D01*
X711609Y207966D01*
X711501Y208169D01*
X711389Y208370D01*
X711273Y208568D01*
X711151Y208763D01*
X711025Y208955D01*
X710894Y209144D01*
X710759Y209330D01*
X710620Y209513D01*
X710476Y209692D01*
X710328Y209868D01*
X710175Y210040D01*
X710019Y210208D01*
X709859Y210373D01*
X712147Y206697D02*
X712188Y206610D01*
X712225Y206521D01*
X712258Y206431D01*
X712287Y206339D01*
X712313Y206247D01*
X712336Y206153D01*
X712354Y206059D01*
X712369Y205964D01*
X712380Y205869D01*
X712387Y205773D01*
X712390Y205677D01*
X712389Y205581D01*
X712385Y205485D01*
X712376Y205389D01*
X712364Y205293D01*
X712348Y205199D01*
X712328Y205105D01*
X712305Y205011D01*
X712278Y204919D01*
X712247Y204828D01*
X712212Y204738D01*
X712174Y204650D01*
X712133Y204564D01*
X712088Y204479D01*
X712039Y204396D01*
X711988Y204314D01*
X711933Y204236D01*
X711875Y204159D01*
X711814Y204085D01*
X711750Y204013D01*
X711683Y203944D01*
X708012Y203951D02*
X707108Y212214D01*
D13*
X688701Y659779D02*
X660459Y688071D01*
X639220Y666868D02*
X667462Y638577D01*
X652536Y652608D02*
X616194Y616330D01*
X674696Y674729D02*
X717652Y717610D01*
X690381Y694898D02*
X674696Y674729D01*
X694892Y690379D02*
X690381Y694898D01*
X694892Y690379D02*
X674696Y674729D01*
X691718Y693559D01*
X693555Y691719D02*
X674696Y674729D01*
X690800Y694479D01*
X694474Y690799D02*
X674696Y674729D01*
X652536Y652608D02*
X632340Y636958D01*
X636851Y632440D01*
X652536Y652608D01*
X633677Y635619D01*
X635514Y633779D02*
X652536Y652608D01*
X632758Y636539D01*
X636432Y632859D02*
X652536Y652608D01*
D11*
X689477Y696524D02*
X691775Y698815D01*
X691776Y698815D02*
X691855Y698896D01*
X691931Y698980D01*
X692004Y699067D01*
X692074Y699156D01*
X692141Y699248D01*
X692204Y699341D01*
X692264Y699437D01*
X692321Y699535D01*
X692375Y699635D01*
X692424Y699737D01*
X692471Y699840D01*
X692513Y699945D01*
X692552Y700052D01*
X692588Y700160D01*
X692619Y700268D01*
X692647Y700378D01*
X692670Y700489D01*
X692690Y700601D01*
X692706Y700713D01*
X692718Y700825D01*
X692726Y700938D01*
X692730Y701052D01*
X692731Y701165D01*
X692727Y701278D01*
X692719Y701391D01*
X692707Y701504D01*
X692692Y701616D01*
X692672Y701728D01*
X692649Y701839D01*
X692622Y701949D01*
X692591Y702058D01*
X692556Y702165D01*
X692517Y702272D01*
X692475Y702377D01*
X692429Y702481D01*
X692380Y702583D01*
X692327Y702683D01*
X692270Y702781D01*
X692210Y702877D01*
X692147Y702971D01*
X692081Y703063D01*
X692011Y703152D01*
X691938Y703239D01*
X691863Y703324D01*
X691784Y703405D01*
X691703Y703484D01*
X691619Y703560D01*
X691532Y703633D01*
X691443Y703703D01*
X691351Y703770D01*
X691258Y703833D01*
X691162Y703893D01*
X691064Y703950D01*
X690964Y704004D01*
X690862Y704053D01*
X690759Y704100D01*
X690654Y704142D01*
X690547Y704181D01*
X690439Y704217D01*
X690331Y704248D01*
X690221Y704276D01*
X690110Y704299D01*
X689998Y704319D01*
X689886Y704335D01*
X689774Y704347D01*
X689661Y704355D01*
X689547Y704359D01*
X689434Y704360D01*
X689321Y704356D01*
X689208Y704348D01*
X689095Y704336D01*
X688983Y704321D01*
X688871Y704301D01*
X688760Y704278D01*
X688650Y704251D01*
X688541Y704220D01*
X688434Y704185D01*
X688327Y704146D01*
X688222Y704104D01*
X688118Y704058D01*
X688016Y704009D01*
X687916Y703956D01*
X687818Y703899D01*
X687722Y703839D01*
X687628Y703776D01*
X687536Y703710D01*
X687447Y703640D01*
X687360Y703567D01*
X687275Y703492D01*
X687194Y703413D01*
X683988Y707549D02*
X681229Y704800D01*
X683989Y707549D02*
X684061Y707619D01*
X684137Y707685D01*
X684214Y707749D01*
X684295Y707810D01*
X684377Y707868D01*
X684462Y707922D01*
X684549Y707973D01*
X684637Y708021D01*
X684728Y708065D01*
X684820Y708105D01*
X684914Y708142D01*
X685009Y708176D01*
X685105Y708205D01*
X685202Y708231D01*
X685300Y708253D01*
X685399Y708272D01*
X685499Y708286D01*
X685599Y708297D01*
X685700Y708303D01*
X685800Y708306D01*
X685901Y708305D01*
X686002Y708300D01*
X686102Y708291D01*
X686202Y708278D01*
X686301Y708261D01*
X686400Y708241D01*
X686497Y708216D01*
X686594Y708188D01*
X686689Y708156D01*
X686784Y708121D01*
X686876Y708082D01*
X686968Y708039D01*
X687057Y707993D01*
X687145Y707943D01*
X687230Y707890D01*
X687314Y707834D01*
X687395Y707774D01*
X687474Y707712D01*
X687550Y707646D01*
X687624Y707578D01*
X687695Y707506D01*
X687763Y707432D01*
X687829Y707356D01*
X687891Y707277D01*
X687950Y707195D01*
X688006Y707112D01*
X688059Y707026D01*
X688108Y706938D01*
X688154Y706848D01*
X688196Y706757D01*
X688235Y706664D01*
X688270Y706570D01*
X688302Y706474D01*
X688330Y706378D01*
X688354Y706280D01*
X688374Y706181D01*
X688390Y706082D01*
X688403Y705982D01*
X688411Y705882D01*
X688416Y705781D01*
X688417Y705680D01*
X688414Y705580D01*
X688407Y705479D01*
X688396Y705379D01*
X688381Y705280D01*
X688362Y705181D01*
X688340Y705082D01*
X688314Y704985D01*
X688284Y704889D01*
X688250Y704794D01*
X688213Y704701D01*
X688172Y704609D01*
X688127Y704518D01*
X688079Y704430D01*
X688028Y704343D01*
X687973Y704259D01*
X687916Y704176D01*
X687855Y704096D01*
X687790Y704019D01*
X687723Y703944D01*
X687653Y703871D01*
X685814Y702038D01*
X696755Y704693D02*
X697213Y704234D01*
X696755Y704693D02*
X697215Y705151D01*
X697673Y704692D01*
X697213Y704234D01*
X696687Y711958D02*
X696527Y712123D01*
X696371Y712291D01*
X696218Y712463D01*
X696070Y712639D01*
X695926Y712818D01*
X695787Y713001D01*
X695652Y713187D01*
X695521Y713376D01*
X695395Y713568D01*
X695273Y713763D01*
X695157Y713961D01*
X695045Y714162D01*
X694937Y714365D01*
X694835Y714571D01*
X694738Y714779D01*
X694645Y714990D01*
X694558Y715203D01*
X694476Y715417D01*
X694399Y715634D01*
X694399Y715633D02*
X694358Y715720D01*
X694321Y715809D01*
X694288Y715899D01*
X694259Y715991D01*
X694233Y716083D01*
X694210Y716177D01*
X694192Y716271D01*
X694177Y716366D01*
X694166Y716461D01*
X694159Y716557D01*
X694156Y716653D01*
X694157Y716749D01*
X694161Y716845D01*
X694170Y716941D01*
X694182Y717037D01*
X694198Y717131D01*
X694218Y717225D01*
X694241Y717319D01*
X694268Y717411D01*
X694299Y717502D01*
X694334Y717591D01*
X694372Y717680D01*
X694413Y717766D01*
X694458Y717851D01*
X694507Y717934D01*
X694558Y718016D01*
X694613Y718094D01*
X694671Y718171D01*
X694732Y718245D01*
X694796Y718317D01*
X694862Y718386D01*
X694932Y718453D01*
X695004Y718517D01*
X695078Y718577D01*
X695155Y718635D01*
X695234Y718689D01*
X695316Y718741D01*
X695399Y718789D01*
X695484Y718834D01*
X695571Y718875D01*
X695659Y718913D01*
X695749Y718947D01*
X695840Y718977D01*
X695932Y719004D01*
X696026Y719027D01*
X696120Y719047D01*
X696215Y719062D01*
X696310Y719074D01*
X696406Y719082D01*
X696502Y719086D01*
X696598Y719087D01*
X696694Y719083D01*
X696790Y719076D01*
X696885Y719065D01*
X696980Y719050D01*
X697075Y719031D01*
X697168Y719008D01*
X697260Y718982D01*
X697352Y718952D01*
X697442Y718918D01*
X697530Y718881D01*
X697618Y718841D01*
X697618Y718840D02*
X697834Y718762D01*
X698048Y718679D01*
X698261Y718591D01*
X698471Y718498D01*
X698679Y718400D01*
X698884Y718297D01*
X699087Y718189D01*
X699287Y718076D01*
X699485Y717959D01*
X699680Y717837D01*
X699871Y717710D01*
X700060Y717579D01*
X700245Y717443D01*
X700428Y717303D01*
X700606Y717158D01*
X700782Y717010D01*
X700953Y716857D01*
X701121Y716700D01*
X701286Y716539D01*
X696687Y711957D02*
X696852Y711796D01*
X697020Y711639D01*
X697191Y711486D01*
X697367Y711338D01*
X697545Y711193D01*
X697728Y711053D01*
X697913Y710917D01*
X698102Y710786D01*
X698293Y710659D01*
X698488Y710537D01*
X698686Y710420D01*
X698886Y710307D01*
X699089Y710199D01*
X699294Y710096D01*
X699502Y709998D01*
X699712Y709905D01*
X699925Y709817D01*
X700139Y709734D01*
X700355Y709656D01*
X700355Y709655D02*
X700442Y709615D01*
X700531Y709578D01*
X700621Y709544D01*
X700713Y709514D01*
X700805Y709488D01*
X700898Y709465D01*
X700993Y709446D01*
X701088Y709431D01*
X701183Y709420D01*
X701279Y709413D01*
X701375Y709409D01*
X701471Y709410D01*
X701567Y709414D01*
X701663Y709422D01*
X701758Y709434D01*
X701853Y709449D01*
X701947Y709469D01*
X702041Y709492D01*
X702133Y709519D01*
X702224Y709549D01*
X702314Y709583D01*
X702402Y709621D01*
X702489Y709662D01*
X702574Y709707D01*
X702657Y709755D01*
X702739Y709807D01*
X702818Y709861D01*
X702895Y709919D01*
X702969Y709980D01*
X703041Y710043D01*
X703111Y710110D01*
X703573Y712863D02*
X703496Y713080D01*
X703414Y713295D01*
X703327Y713507D01*
X703234Y713718D01*
X703137Y713926D01*
X703035Y714132D01*
X702927Y714335D01*
X702815Y714536D01*
X702699Y714734D01*
X702577Y714929D01*
X702451Y715121D01*
X702320Y715310D01*
X702185Y715496D01*
X702046Y715679D01*
X701902Y715858D01*
X701754Y716034D01*
X701601Y716206D01*
X701445Y716374D01*
X701285Y716539D01*
X703574Y712863D02*
X703615Y712776D01*
X703652Y712687D01*
X703685Y712597D01*
X703714Y712505D01*
X703740Y712413D01*
X703763Y712319D01*
X703781Y712225D01*
X703796Y712130D01*
X703807Y712035D01*
X703814Y711939D01*
X703817Y711843D01*
X703816Y711747D01*
X703812Y711651D01*
X703803Y711555D01*
X703791Y711459D01*
X703775Y711365D01*
X703755Y711271D01*
X703732Y711177D01*
X703705Y711085D01*
X703674Y710994D01*
X703639Y710904D01*
X703601Y710816D01*
X703560Y710730D01*
X703515Y710645D01*
X703466Y710562D01*
X703415Y710480D01*
X703360Y710402D01*
X703302Y710325D01*
X703241Y710251D01*
X703177Y710179D01*
X703110Y710110D01*
X699438Y710117D02*
X698535Y718380D01*
X704784Y720026D02*
X704624Y720191D01*
X704468Y720359D01*
X704315Y720531D01*
X704167Y720707D01*
X704023Y720886D01*
X703884Y721069D01*
X703749Y721255D01*
X703618Y721444D01*
X703492Y721636D01*
X703370Y721831D01*
X703254Y722029D01*
X703142Y722230D01*
X703034Y722433D01*
X702932Y722639D01*
X702835Y722847D01*
X702742Y723058D01*
X702655Y723271D01*
X702573Y723485D01*
X702496Y723702D01*
X702495Y723701D02*
X702454Y723788D01*
X702417Y723877D01*
X702384Y723967D01*
X702355Y724059D01*
X702329Y724151D01*
X702306Y724245D01*
X702288Y724339D01*
X702273Y724434D01*
X702262Y724529D01*
X702255Y724625D01*
X702252Y724721D01*
X702253Y724817D01*
X702257Y724913D01*
X702266Y725009D01*
X702278Y725105D01*
X702294Y725199D01*
X702314Y725293D01*
X702337Y725387D01*
X702364Y725479D01*
X702395Y725570D01*
X702430Y725659D01*
X702468Y725748D01*
X702509Y725834D01*
X702554Y725919D01*
X702603Y726002D01*
X702654Y726084D01*
X702709Y726162D01*
X702767Y726239D01*
X702828Y726313D01*
X702892Y726385D01*
X702958Y726454D01*
X703028Y726521D01*
X703100Y726585D01*
X703174Y726645D01*
X703251Y726703D01*
X703330Y726757D01*
X703412Y726809D01*
X703495Y726857D01*
X703580Y726902D01*
X703667Y726943D01*
X703755Y726981D01*
X703845Y727015D01*
X703936Y727045D01*
X704028Y727072D01*
X704122Y727095D01*
X704216Y727115D01*
X704311Y727130D01*
X704406Y727142D01*
X704502Y727150D01*
X704598Y727154D01*
X704694Y727155D01*
X704790Y727151D01*
X704886Y727144D01*
X704981Y727133D01*
X705076Y727118D01*
X705171Y727099D01*
X705264Y727076D01*
X705356Y727050D01*
X705448Y727020D01*
X705538Y726986D01*
X705626Y726949D01*
X705714Y726909D01*
X705714Y726908D02*
X705930Y726830D01*
X706144Y726747D01*
X706357Y726659D01*
X706567Y726566D01*
X706775Y726468D01*
X706980Y726365D01*
X707183Y726257D01*
X707383Y726144D01*
X707581Y726027D01*
X707776Y725905D01*
X707967Y725778D01*
X708156Y725647D01*
X708341Y725511D01*
X708524Y725371D01*
X708702Y725226D01*
X708878Y725078D01*
X709049Y724925D01*
X709217Y724768D01*
X709382Y724607D01*
X704783Y720025D02*
X704948Y719864D01*
X705116Y719707D01*
X705287Y719554D01*
X705463Y719406D01*
X705641Y719261D01*
X705824Y719121D01*
X706009Y718985D01*
X706198Y718854D01*
X706389Y718727D01*
X706584Y718605D01*
X706782Y718488D01*
X706982Y718375D01*
X707185Y718267D01*
X707390Y718164D01*
X707598Y718066D01*
X707808Y717973D01*
X708021Y717885D01*
X708235Y717802D01*
X708451Y717724D01*
X708451Y717723D02*
X708538Y717683D01*
X708627Y717646D01*
X708717Y717612D01*
X708809Y717582D01*
X708901Y717556D01*
X708994Y717533D01*
X709089Y717514D01*
X709184Y717499D01*
X709279Y717488D01*
X709375Y717481D01*
X709471Y717477D01*
X709567Y717478D01*
X709663Y717482D01*
X709759Y717490D01*
X709854Y717502D01*
X709949Y717517D01*
X710043Y717537D01*
X710137Y717560D01*
X710229Y717587D01*
X710320Y717617D01*
X710410Y717651D01*
X710498Y717689D01*
X710585Y717730D01*
X710670Y717775D01*
X710753Y717823D01*
X710835Y717875D01*
X710914Y717929D01*
X710991Y717987D01*
X711065Y718048D01*
X711137Y718111D01*
X711207Y718178D01*
X711670Y720931D02*
X711593Y721148D01*
X711511Y721363D01*
X711424Y721575D01*
X711331Y721786D01*
X711234Y721994D01*
X711132Y722200D01*
X711024Y722403D01*
X710912Y722604D01*
X710796Y722802D01*
X710674Y722997D01*
X710548Y723189D01*
X710417Y723378D01*
X710282Y723564D01*
X710143Y723747D01*
X709999Y723926D01*
X709851Y724102D01*
X709698Y724274D01*
X709542Y724442D01*
X709382Y724607D01*
X711670Y720932D02*
X711711Y720845D01*
X711748Y720756D01*
X711781Y720666D01*
X711810Y720574D01*
X711836Y720482D01*
X711859Y720388D01*
X711877Y720294D01*
X711892Y720199D01*
X711903Y720104D01*
X711910Y720008D01*
X711913Y719912D01*
X711912Y719816D01*
X711908Y719720D01*
X711899Y719624D01*
X711887Y719528D01*
X711871Y719434D01*
X711851Y719340D01*
X711828Y719246D01*
X711801Y719154D01*
X711770Y719063D01*
X711735Y718973D01*
X711697Y718885D01*
X711656Y718799D01*
X711611Y718714D01*
X711562Y718631D01*
X711511Y718549D01*
X711456Y718471D01*
X711398Y718394D01*
X711337Y718320D01*
X711273Y718248D01*
X711206Y718179D01*
X707535Y718185D02*
X706631Y726448D01*
D13*
X113416Y661231D02*
X85174Y689522D01*
X63935Y668320D02*
X92177Y640028D01*
X77251Y654060D02*
X40909Y617782D01*
X99411Y676181D02*
X142367Y719062D01*
X115096Y696350D02*
X99411Y676181D01*
X119607Y691831D02*
X115096Y696350D01*
X119607Y691831D02*
X99411Y676181D01*
X116433Y695010D01*
X118270Y693170D02*
X99411Y676181D01*
X115515Y695930D01*
X119189Y692250D02*
X99411Y676181D01*
X77251Y654060D02*
X57055Y638410D01*
X61565Y633891D01*
X77251Y654060D01*
X58392Y637071D01*
X60229Y635231D02*
X77251Y654060D01*
X57473Y637991D01*
X61147Y634310D02*
X77251Y654060D01*
D11*
X114191Y697976D02*
X116490Y700267D01*
X116569Y700348D01*
X116645Y700432D01*
X116718Y700519D01*
X116788Y700608D01*
X116855Y700700D01*
X116918Y700793D01*
X116978Y700889D01*
X117035Y700987D01*
X117089Y701087D01*
X117138Y701189D01*
X117185Y701292D01*
X117227Y701397D01*
X117266Y701504D01*
X117302Y701612D01*
X117333Y701720D01*
X117361Y701830D01*
X117384Y701941D01*
X117404Y702053D01*
X117420Y702165D01*
X117432Y702277D01*
X117440Y702390D01*
X117444Y702504D01*
X117445Y702617D01*
X117441Y702730D01*
X117433Y702843D01*
X117421Y702956D01*
X117406Y703068D01*
X117386Y703180D01*
X117363Y703291D01*
X117336Y703401D01*
X117305Y703510D01*
X117270Y703617D01*
X117231Y703724D01*
X117189Y703829D01*
X117143Y703933D01*
X117094Y704035D01*
X117041Y704135D01*
X116984Y704233D01*
X116924Y704329D01*
X116861Y704423D01*
X116795Y704515D01*
X116725Y704604D01*
X116652Y704691D01*
X116577Y704776D01*
X116498Y704857D01*
X116417Y704936D01*
X116333Y705012D01*
X116246Y705085D01*
X116157Y705155D01*
X116065Y705222D01*
X115972Y705285D01*
X115876Y705345D01*
X115778Y705402D01*
X115678Y705456D01*
X115576Y705505D01*
X115473Y705552D01*
X115368Y705594D01*
X115261Y705633D01*
X115153Y705669D01*
X115045Y705700D01*
X114935Y705728D01*
X114824Y705751D01*
X114712Y705771D01*
X114600Y705787D01*
X114488Y705799D01*
X114375Y705807D01*
X114261Y705811D01*
X114148Y705812D01*
X114035Y705808D01*
X113922Y705800D01*
X113809Y705788D01*
X113697Y705773D01*
X113585Y705753D01*
X113474Y705730D01*
X113364Y705703D01*
X113255Y705672D01*
X113148Y705637D01*
X113041Y705598D01*
X112936Y705556D01*
X112832Y705510D01*
X112730Y705461D01*
X112630Y705408D01*
X112532Y705351D01*
X112436Y705291D01*
X112342Y705228D01*
X112250Y705162D01*
X112161Y705092D01*
X112074Y705019D01*
X111989Y704944D01*
X111908Y704865D01*
X108703Y709001D02*
X105944Y706252D01*
X108704Y709001D02*
X108776Y709071D01*
X108852Y709137D01*
X108929Y709201D01*
X109010Y709262D01*
X109092Y709320D01*
X109177Y709374D01*
X109264Y709425D01*
X109352Y709473D01*
X109443Y709517D01*
X109535Y709557D01*
X109629Y709594D01*
X109724Y709628D01*
X109820Y709657D01*
X109917Y709683D01*
X110015Y709705D01*
X110114Y709724D01*
X110214Y709738D01*
X110314Y709749D01*
X110415Y709755D01*
X110515Y709758D01*
X110616Y709757D01*
X110717Y709752D01*
X110817Y709743D01*
X110917Y709730D01*
X111016Y709713D01*
X111115Y709693D01*
X111212Y709668D01*
X111309Y709640D01*
X111404Y709608D01*
X111499Y709573D01*
X111591Y709534D01*
X111683Y709491D01*
X111772Y709445D01*
X111860Y709395D01*
X111945Y709342D01*
X112029Y709286D01*
X112110Y709226D01*
X112189Y709164D01*
X112265Y709098D01*
X112339Y709030D01*
X112410Y708958D01*
X112478Y708884D01*
X112544Y708808D01*
X112606Y708729D01*
X112665Y708647D01*
X112721Y708564D01*
X112774Y708478D01*
X112823Y708390D01*
X112869Y708300D01*
X112911Y708209D01*
X112950Y708116D01*
X112985Y708022D01*
X113017Y707926D01*
X113045Y707830D01*
X113069Y707732D01*
X113089Y707633D01*
X113105Y707534D01*
X113118Y707434D01*
X113126Y707334D01*
X113131Y707233D01*
X113132Y707132D01*
X113129Y707032D01*
X113122Y706931D01*
X113111Y706831D01*
X113096Y706732D01*
X113077Y706633D01*
X113055Y706534D01*
X113029Y706437D01*
X112999Y706341D01*
X112965Y706246D01*
X112928Y706153D01*
X112887Y706061D01*
X112842Y705970D01*
X112794Y705882D01*
X112743Y705795D01*
X112688Y705711D01*
X112631Y705628D01*
X112570Y705548D01*
X112505Y705471D01*
X112438Y705396D01*
X112368Y705323D01*
X110529Y703490D01*
X121470Y706145D02*
X121928Y705685D01*
X121470Y706145D02*
X121929Y706603D01*
X122388Y706143D01*
X121928Y705685D01*
X121402Y713409D02*
X121242Y713574D01*
X121086Y713742D01*
X120933Y713914D01*
X120785Y714090D01*
X120641Y714269D01*
X120502Y714452D01*
X120367Y714638D01*
X120236Y714827D01*
X120110Y715019D01*
X119988Y715214D01*
X119872Y715412D01*
X119760Y715613D01*
X119652Y715816D01*
X119550Y716022D01*
X119453Y716230D01*
X119360Y716441D01*
X119273Y716654D01*
X119191Y716868D01*
X119114Y717085D01*
X119073Y717172D01*
X119036Y717261D01*
X119003Y717351D01*
X118974Y717443D01*
X118948Y717535D01*
X118925Y717629D01*
X118907Y717723D01*
X118892Y717818D01*
X118881Y717913D01*
X118874Y718009D01*
X118871Y718105D01*
X118872Y718201D01*
X118876Y718297D01*
X118885Y718393D01*
X118897Y718489D01*
X118913Y718583D01*
X118933Y718677D01*
X118956Y718771D01*
X118983Y718863D01*
X119014Y718954D01*
X119049Y719043D01*
X119087Y719132D01*
X119128Y719218D01*
X119173Y719303D01*
X119222Y719386D01*
X119273Y719468D01*
X119328Y719546D01*
X119386Y719623D01*
X119447Y719697D01*
X119511Y719769D01*
X119577Y719838D01*
X119647Y719905D01*
X119719Y719969D01*
X119793Y720029D01*
X119870Y720087D01*
X119949Y720141D01*
X120031Y720193D01*
X120114Y720241D01*
X120199Y720286D01*
X120286Y720327D01*
X120374Y720365D01*
X120464Y720399D01*
X120555Y720429D01*
X120647Y720456D01*
X120741Y720479D01*
X120835Y720499D01*
X120930Y720514D01*
X121025Y720526D01*
X121121Y720534D01*
X121217Y720538D01*
X121313Y720539D01*
X121409Y720535D01*
X121505Y720528D01*
X121600Y720517D01*
X121695Y720502D01*
X121790Y720483D01*
X121883Y720460D01*
X121975Y720434D01*
X122067Y720404D01*
X122157Y720370D01*
X122245Y720333D01*
X122333Y720293D01*
X122333Y720292D02*
X122549Y720214D01*
X122763Y720131D01*
X122976Y720043D01*
X123186Y719950D01*
X123394Y719852D01*
X123599Y719749D01*
X123802Y719641D01*
X124002Y719528D01*
X124200Y719411D01*
X124395Y719289D01*
X124586Y719162D01*
X124775Y719031D01*
X124960Y718895D01*
X125143Y718755D01*
X125321Y718610D01*
X125497Y718462D01*
X125668Y718309D01*
X125836Y718152D01*
X126001Y717991D01*
X121402Y713409D02*
X121567Y713248D01*
X121735Y713091D01*
X121906Y712938D01*
X122082Y712790D01*
X122260Y712645D01*
X122443Y712505D01*
X122628Y712369D01*
X122817Y712238D01*
X123008Y712111D01*
X123203Y711989D01*
X123401Y711872D01*
X123601Y711759D01*
X123804Y711651D01*
X124009Y711548D01*
X124217Y711450D01*
X124427Y711357D01*
X124640Y711269D01*
X124854Y711186D01*
X125070Y711108D01*
X125070Y711107D02*
X125157Y711067D01*
X125246Y711030D01*
X125336Y710996D01*
X125428Y710966D01*
X125520Y710940D01*
X125613Y710917D01*
X125708Y710898D01*
X125803Y710883D01*
X125898Y710872D01*
X125994Y710865D01*
X126090Y710861D01*
X126186Y710862D01*
X126282Y710866D01*
X126378Y710874D01*
X126473Y710886D01*
X126568Y710901D01*
X126662Y710921D01*
X126756Y710944D01*
X126848Y710971D01*
X126939Y711001D01*
X127029Y711035D01*
X127117Y711073D01*
X127204Y711114D01*
X127289Y711159D01*
X127372Y711207D01*
X127454Y711259D01*
X127533Y711313D01*
X127610Y711371D01*
X127684Y711432D01*
X127756Y711495D01*
X127826Y711562D01*
X128288Y714315D02*
X128211Y714532D01*
X128129Y714747D01*
X128042Y714959D01*
X127949Y715170D01*
X127852Y715378D01*
X127750Y715584D01*
X127642Y715787D01*
X127530Y715988D01*
X127414Y716186D01*
X127292Y716381D01*
X127166Y716573D01*
X127035Y716762D01*
X126900Y716948D01*
X126761Y717131D01*
X126617Y717310D01*
X126469Y717486D01*
X126316Y717658D01*
X126160Y717826D01*
X126000Y717991D01*
X128289Y714315D02*
X128330Y714228D01*
X128367Y714139D01*
X128400Y714049D01*
X128429Y713957D01*
X128455Y713865D01*
X128478Y713771D01*
X128496Y713677D01*
X128511Y713582D01*
X128522Y713487D01*
X128529Y713391D01*
X128532Y713295D01*
X128531Y713199D01*
X128527Y713103D01*
X128518Y713007D01*
X128506Y712911D01*
X128490Y712817D01*
X128470Y712723D01*
X128447Y712629D01*
X128420Y712537D01*
X128389Y712446D01*
X128354Y712356D01*
X128316Y712268D01*
X128275Y712182D01*
X128230Y712097D01*
X128181Y712014D01*
X128130Y711932D01*
X128075Y711854D01*
X128017Y711777D01*
X127956Y711703D01*
X127892Y711631D01*
X127825Y711562D01*
X124153Y711568D02*
X123250Y719832D01*
X129499Y721477D02*
X129339Y721642D01*
X129183Y721810D01*
X129030Y721982D01*
X128882Y722158D01*
X128738Y722337D01*
X128599Y722520D01*
X128464Y722706D01*
X128333Y722895D01*
X128207Y723087D01*
X128085Y723282D01*
X127969Y723480D01*
X127857Y723681D01*
X127749Y723884D01*
X127647Y724090D01*
X127550Y724298D01*
X127457Y724509D01*
X127370Y724722D01*
X127288Y724936D01*
X127211Y725153D01*
X127210Y725153D02*
X127169Y725240D01*
X127132Y725329D01*
X127099Y725419D01*
X127070Y725511D01*
X127044Y725603D01*
X127021Y725697D01*
X127003Y725791D01*
X126988Y725886D01*
X126977Y725981D01*
X126970Y726077D01*
X126967Y726173D01*
X126968Y726269D01*
X126972Y726365D01*
X126981Y726461D01*
X126993Y726557D01*
X127009Y726651D01*
X127029Y726745D01*
X127052Y726839D01*
X127079Y726931D01*
X127110Y727022D01*
X127145Y727111D01*
X127183Y727200D01*
X127224Y727286D01*
X127269Y727371D01*
X127318Y727454D01*
X127369Y727536D01*
X127424Y727614D01*
X127482Y727691D01*
X127543Y727765D01*
X127607Y727837D01*
X127673Y727906D01*
X127743Y727973D01*
X127815Y728037D01*
X127889Y728097D01*
X127966Y728155D01*
X128045Y728209D01*
X128127Y728261D01*
X128210Y728309D01*
X128295Y728354D01*
X128382Y728395D01*
X128470Y728433D01*
X128560Y728467D01*
X128651Y728497D01*
X128743Y728524D01*
X128837Y728547D01*
X128931Y728567D01*
X129026Y728582D01*
X129121Y728594D01*
X129217Y728602D01*
X129313Y728606D01*
X129409Y728607D01*
X129505Y728603D01*
X129601Y728596D01*
X129696Y728585D01*
X129791Y728570D01*
X129886Y728551D01*
X129979Y728528D01*
X130071Y728502D01*
X130163Y728472D01*
X130253Y728438D01*
X130341Y728401D01*
X130429Y728361D01*
X130429Y728360D02*
X130645Y728282D01*
X130859Y728199D01*
X131072Y728111D01*
X131282Y728018D01*
X131490Y727920D01*
X131695Y727817D01*
X131898Y727709D01*
X132098Y727596D01*
X132296Y727479D01*
X132491Y727357D01*
X132682Y727230D01*
X132871Y727099D01*
X133056Y726963D01*
X133239Y726823D01*
X133417Y726678D01*
X133593Y726530D01*
X133764Y726377D01*
X133932Y726220D01*
X134097Y726059D01*
X129498Y721477D02*
X129663Y721316D01*
X129831Y721159D01*
X130002Y721006D01*
X130178Y720858D01*
X130356Y720713D01*
X130539Y720573D01*
X130724Y720437D01*
X130913Y720306D01*
X131104Y720179D01*
X131299Y720057D01*
X131497Y719940D01*
X131697Y719827D01*
X131900Y719719D01*
X132105Y719616D01*
X132313Y719518D01*
X132523Y719425D01*
X132736Y719337D01*
X132950Y719254D01*
X133166Y719176D01*
X133166Y719175D02*
X133253Y719135D01*
X133342Y719098D01*
X133432Y719064D01*
X133524Y719034D01*
X133616Y719008D01*
X133709Y718985D01*
X133804Y718966D01*
X133899Y718951D01*
X133994Y718940D01*
X134090Y718933D01*
X134186Y718929D01*
X134282Y718930D01*
X134378Y718934D01*
X134474Y718942D01*
X134569Y718954D01*
X134664Y718969D01*
X134758Y718989D01*
X134852Y719012D01*
X134944Y719039D01*
X135035Y719069D01*
X135125Y719103D01*
X135213Y719141D01*
X135300Y719182D01*
X135385Y719227D01*
X135468Y719275D01*
X135550Y719327D01*
X135629Y719381D01*
X135706Y719439D01*
X135780Y719500D01*
X135852Y719563D01*
X135922Y719630D01*
X136385Y722383D02*
X136308Y722600D01*
X136226Y722815D01*
X136139Y723027D01*
X136046Y723238D01*
X135949Y723446D01*
X135847Y723652D01*
X135739Y723855D01*
X135627Y724056D01*
X135511Y724254D01*
X135389Y724449D01*
X135263Y724641D01*
X135132Y724830D01*
X134997Y725016D01*
X134858Y725199D01*
X134714Y725378D01*
X134566Y725554D01*
X134413Y725726D01*
X134257Y725894D01*
X134097Y726059D01*
X136385Y722383D02*
X136426Y722296D01*
X136463Y722207D01*
X136496Y722117D01*
X136525Y722025D01*
X136551Y721933D01*
X136574Y721839D01*
X136592Y721745D01*
X136607Y721650D01*
X136618Y721555D01*
X136625Y721459D01*
X136628Y721363D01*
X136627Y721267D01*
X136623Y721171D01*
X136614Y721075D01*
X136602Y720979D01*
X136586Y720885D01*
X136566Y720791D01*
X136543Y720697D01*
X136516Y720605D01*
X136485Y720514D01*
X136450Y720424D01*
X136412Y720336D01*
X136371Y720250D01*
X136326Y720165D01*
X136277Y720082D01*
X136226Y720000D01*
X136171Y719922D01*
X136113Y719845D01*
X136052Y719771D01*
X135988Y719699D01*
X135921Y719630D01*
X132249Y719636D02*
X131346Y727900D01*
D13*
X85458Y175730D02*
X113700Y147439D01*
X92461Y126236D02*
X64219Y154528D01*
X77535Y140268D02*
X41193Y103990D01*
X99695Y162389D02*
X142651Y205270D01*
X115380Y182558D02*
X99695Y162389D01*
X119891Y178039D02*
X115380Y182558D01*
X119891Y178039D02*
X99695Y162389D01*
X116717Y181218D01*
X118554Y179378D02*
X99695Y162389D01*
X115799Y182138D01*
X119473Y178458D02*
X99695Y162389D01*
X77535Y140268D02*
X57339Y124618D01*
X61849Y120099D01*
X77535Y140268D01*
X58676Y123279D01*
X60513Y121438D02*
X77535Y140268D01*
X57757Y124199D01*
X61431Y120518D02*
X77535Y140268D01*
D11*
X114475Y184184D02*
X116774Y186475D01*
X116853Y186556D01*
X116929Y186640D01*
X117002Y186727D01*
X117072Y186816D01*
X117139Y186908D01*
X117202Y187001D01*
X117262Y187097D01*
X117319Y187195D01*
X117373Y187295D01*
X117422Y187397D01*
X117469Y187500D01*
X117511Y187605D01*
X117550Y187712D01*
X117586Y187820D01*
X117617Y187928D01*
X117645Y188038D01*
X117668Y188149D01*
X117688Y188261D01*
X117704Y188373D01*
X117716Y188485D01*
X117724Y188598D01*
X117728Y188712D01*
X117729Y188825D01*
X117725Y188938D01*
X117717Y189051D01*
X117705Y189164D01*
X117690Y189276D01*
X117670Y189388D01*
X117647Y189499D01*
X117620Y189609D01*
X117589Y189718D01*
X117554Y189825D01*
X117515Y189932D01*
X117473Y190037D01*
X117427Y190141D01*
X117378Y190243D01*
X117325Y190343D01*
X117268Y190441D01*
X117208Y190537D01*
X117145Y190631D01*
X117079Y190723D01*
X117009Y190812D01*
X116936Y190899D01*
X116861Y190984D01*
X116782Y191065D01*
X116701Y191144D01*
X116617Y191220D01*
X116530Y191293D01*
X116441Y191363D01*
X116349Y191430D01*
X116256Y191493D01*
X116160Y191553D01*
X116062Y191610D01*
X115962Y191664D01*
X115860Y191713D01*
X115757Y191760D01*
X115652Y191802D01*
X115545Y191841D01*
X115437Y191877D01*
X115329Y191908D01*
X115219Y191936D01*
X115108Y191959D01*
X114996Y191979D01*
X114884Y191995D01*
X114772Y192007D01*
X114659Y192015D01*
X114545Y192019D01*
X114432Y192020D01*
X114319Y192016D01*
X114206Y192008D01*
X114093Y191996D01*
X113981Y191981D01*
X113869Y191961D01*
X113758Y191938D01*
X113648Y191911D01*
X113539Y191880D01*
X113432Y191845D01*
X113325Y191806D01*
X113220Y191764D01*
X113116Y191718D01*
X113014Y191669D01*
X112914Y191616D01*
X112816Y191559D01*
X112720Y191499D01*
X112626Y191436D01*
X112534Y191370D01*
X112445Y191300D01*
X112358Y191227D01*
X112273Y191152D01*
X112192Y191073D01*
X108987Y195209D02*
X106228Y192460D01*
X108988Y195209D02*
X109060Y195279D01*
X109136Y195345D01*
X109213Y195409D01*
X109294Y195470D01*
X109376Y195528D01*
X109461Y195582D01*
X109548Y195633D01*
X109636Y195681D01*
X109727Y195725D01*
X109819Y195765D01*
X109913Y195802D01*
X110008Y195836D01*
X110104Y195865D01*
X110201Y195891D01*
X110299Y195913D01*
X110398Y195932D01*
X110498Y195946D01*
X110598Y195957D01*
X110699Y195963D01*
X110799Y195966D01*
X110900Y195965D01*
X111001Y195960D01*
X111101Y195951D01*
X111201Y195938D01*
X111300Y195921D01*
X111399Y195901D01*
X111496Y195876D01*
X111593Y195848D01*
X111688Y195816D01*
X111783Y195781D01*
X111875Y195742D01*
X111967Y195699D01*
X112056Y195653D01*
X112144Y195603D01*
X112229Y195550D01*
X112313Y195494D01*
X112394Y195434D01*
X112473Y195372D01*
X112549Y195306D01*
X112623Y195238D01*
X112694Y195166D01*
X112762Y195092D01*
X112828Y195016D01*
X112890Y194937D01*
X112949Y194855D01*
X113005Y194772D01*
X113058Y194686D01*
X113107Y194598D01*
X113153Y194508D01*
X113195Y194417D01*
X113234Y194324D01*
X113269Y194230D01*
X113301Y194134D01*
X113329Y194038D01*
X113353Y193940D01*
X113373Y193841D01*
X113389Y193742D01*
X113402Y193642D01*
X113410Y193542D01*
X113415Y193441D01*
X113416Y193340D01*
X113413Y193240D01*
X113406Y193139D01*
X113395Y193039D01*
X113380Y192940D01*
X113361Y192841D01*
X113339Y192742D01*
X113313Y192645D01*
X113283Y192549D01*
X113249Y192454D01*
X113212Y192361D01*
X113171Y192269D01*
X113126Y192178D01*
X113078Y192090D01*
X113027Y192003D01*
X112972Y191919D01*
X112915Y191836D01*
X112854Y191756D01*
X112789Y191679D01*
X112722Y191604D01*
X112652Y191531D01*
X110813Y189698D01*
X121754Y192353D02*
X122212Y191893D01*
X121754Y192353D02*
X122213Y192811D01*
X122672Y192351D01*
X122212Y191893D01*
X121686Y199617D02*
X121526Y199782D01*
X121370Y199950D01*
X121217Y200122D01*
X121069Y200298D01*
X120925Y200477D01*
X120786Y200660D01*
X120651Y200846D01*
X120520Y201035D01*
X120394Y201227D01*
X120272Y201422D01*
X120156Y201620D01*
X120044Y201821D01*
X119936Y202024D01*
X119834Y202230D01*
X119737Y202438D01*
X119644Y202649D01*
X119557Y202862D01*
X119475Y203076D01*
X119398Y203293D01*
X119357Y203380D01*
X119320Y203469D01*
X119287Y203559D01*
X119258Y203651D01*
X119232Y203743D01*
X119209Y203837D01*
X119191Y203931D01*
X119176Y204026D01*
X119165Y204121D01*
X119158Y204217D01*
X119155Y204313D01*
X119156Y204409D01*
X119160Y204505D01*
X119169Y204601D01*
X119181Y204697D01*
X119197Y204791D01*
X119217Y204885D01*
X119240Y204979D01*
X119267Y205071D01*
X119298Y205162D01*
X119333Y205251D01*
X119371Y205340D01*
X119412Y205426D01*
X119457Y205511D01*
X119506Y205594D01*
X119557Y205676D01*
X119612Y205754D01*
X119670Y205831D01*
X119731Y205905D01*
X119795Y205977D01*
X119861Y206046D01*
X119931Y206113D01*
X120003Y206177D01*
X120077Y206237D01*
X120154Y206295D01*
X120233Y206349D01*
X120315Y206401D01*
X120398Y206449D01*
X120483Y206494D01*
X120570Y206535D01*
X120658Y206573D01*
X120748Y206607D01*
X120839Y206637D01*
X120931Y206664D01*
X121025Y206687D01*
X121119Y206707D01*
X121214Y206722D01*
X121309Y206734D01*
X121405Y206742D01*
X121501Y206746D01*
X121597Y206747D01*
X121693Y206743D01*
X121789Y206736D01*
X121884Y206725D01*
X121979Y206710D01*
X122074Y206691D01*
X122167Y206668D01*
X122259Y206642D01*
X122351Y206612D01*
X122441Y206578D01*
X122529Y206541D01*
X122617Y206501D01*
X122617Y206500D02*
X122833Y206422D01*
X123047Y206339D01*
X123260Y206251D01*
X123470Y206158D01*
X123678Y206060D01*
X123883Y205957D01*
X124086Y205849D01*
X124286Y205736D01*
X124484Y205619D01*
X124679Y205497D01*
X124870Y205370D01*
X125059Y205239D01*
X125244Y205103D01*
X125427Y204963D01*
X125605Y204818D01*
X125781Y204670D01*
X125952Y204517D01*
X126120Y204360D01*
X126285Y204199D01*
X121686Y199617D02*
X121851Y199456D01*
X122019Y199299D01*
X122190Y199146D01*
X122366Y198998D01*
X122544Y198853D01*
X122727Y198713D01*
X122912Y198577D01*
X123101Y198446D01*
X123292Y198319D01*
X123487Y198197D01*
X123685Y198080D01*
X123885Y197967D01*
X124088Y197859D01*
X124293Y197756D01*
X124501Y197658D01*
X124711Y197565D01*
X124924Y197477D01*
X125138Y197394D01*
X125354Y197316D01*
X125354Y197315D02*
X125441Y197275D01*
X125530Y197238D01*
X125620Y197204D01*
X125712Y197174D01*
X125804Y197148D01*
X125897Y197125D01*
X125992Y197106D01*
X126087Y197091D01*
X126182Y197080D01*
X126278Y197073D01*
X126374Y197069D01*
X126470Y197070D01*
X126566Y197074D01*
X126662Y197082D01*
X126757Y197094D01*
X126852Y197109D01*
X126946Y197129D01*
X127040Y197152D01*
X127132Y197179D01*
X127223Y197209D01*
X127313Y197243D01*
X127401Y197281D01*
X127488Y197322D01*
X127573Y197367D01*
X127656Y197415D01*
X127738Y197467D01*
X127817Y197521D01*
X127894Y197579D01*
X127968Y197640D01*
X128040Y197703D01*
X128110Y197770D01*
X128572Y200522D02*
X128495Y200739D01*
X128413Y200954D01*
X128326Y201166D01*
X128233Y201377D01*
X128136Y201585D01*
X128034Y201791D01*
X127926Y201994D01*
X127814Y202195D01*
X127698Y202393D01*
X127576Y202588D01*
X127450Y202780D01*
X127319Y202969D01*
X127184Y203155D01*
X127045Y203338D01*
X126901Y203517D01*
X126753Y203693D01*
X126600Y203865D01*
X126444Y204033D01*
X126284Y204198D01*
X128573Y200523D02*
X128614Y200436D01*
X128651Y200347D01*
X128684Y200257D01*
X128713Y200165D01*
X128739Y200073D01*
X128762Y199979D01*
X128780Y199885D01*
X128795Y199790D01*
X128806Y199695D01*
X128813Y199599D01*
X128816Y199503D01*
X128815Y199407D01*
X128811Y199311D01*
X128802Y199215D01*
X128790Y199119D01*
X128774Y199025D01*
X128754Y198931D01*
X128731Y198837D01*
X128704Y198745D01*
X128673Y198654D01*
X128638Y198564D01*
X128600Y198476D01*
X128559Y198390D01*
X128514Y198305D01*
X128465Y198222D01*
X128414Y198140D01*
X128359Y198062D01*
X128301Y197985D01*
X128240Y197911D01*
X128176Y197839D01*
X128109Y197770D01*
X124437Y197776D02*
X123534Y206040D01*
X129783Y207685D02*
X129623Y207850D01*
X129467Y208018D01*
X129314Y208190D01*
X129166Y208366D01*
X129022Y208545D01*
X128883Y208728D01*
X128748Y208914D01*
X128617Y209103D01*
X128491Y209295D01*
X128369Y209490D01*
X128253Y209688D01*
X128141Y209889D01*
X128033Y210092D01*
X127931Y210298D01*
X127834Y210506D01*
X127741Y210717D01*
X127654Y210930D01*
X127572Y211144D01*
X127495Y211361D01*
X127494Y211361D02*
X127453Y211448D01*
X127416Y211537D01*
X127383Y211627D01*
X127354Y211719D01*
X127328Y211811D01*
X127305Y211905D01*
X127287Y211999D01*
X127272Y212094D01*
X127261Y212189D01*
X127254Y212285D01*
X127251Y212381D01*
X127252Y212477D01*
X127256Y212573D01*
X127265Y212669D01*
X127277Y212765D01*
X127293Y212859D01*
X127313Y212953D01*
X127336Y213047D01*
X127363Y213139D01*
X127394Y213230D01*
X127429Y213319D01*
X127467Y213408D01*
X127508Y213494D01*
X127553Y213579D01*
X127602Y213662D01*
X127653Y213744D01*
X127708Y213822D01*
X127766Y213899D01*
X127827Y213973D01*
X127891Y214045D01*
X127957Y214114D01*
X128027Y214181D01*
X128099Y214245D01*
X128173Y214305D01*
X128250Y214363D01*
X128329Y214417D01*
X128411Y214469D01*
X128494Y214517D01*
X128579Y214562D01*
X128666Y214603D01*
X128754Y214641D01*
X128844Y214675D01*
X128935Y214705D01*
X129027Y214732D01*
X129121Y214755D01*
X129215Y214775D01*
X129310Y214790D01*
X129405Y214802D01*
X129501Y214810D01*
X129597Y214814D01*
X129693Y214815D01*
X129789Y214811D01*
X129885Y214804D01*
X129980Y214793D01*
X130075Y214778D01*
X130170Y214759D01*
X130263Y214736D01*
X130355Y214710D01*
X130447Y214680D01*
X130537Y214646D01*
X130625Y214609D01*
X130713Y214569D01*
X130713Y214568D02*
X130929Y214490D01*
X131143Y214407D01*
X131356Y214319D01*
X131566Y214226D01*
X131774Y214128D01*
X131979Y214025D01*
X132182Y213917D01*
X132382Y213804D01*
X132580Y213687D01*
X132775Y213565D01*
X132966Y213438D01*
X133155Y213307D01*
X133340Y213171D01*
X133523Y213031D01*
X133701Y212886D01*
X133877Y212738D01*
X134048Y212585D01*
X134216Y212428D01*
X134381Y212267D01*
X129782Y207685D02*
X129947Y207524D01*
X130115Y207367D01*
X130286Y207214D01*
X130462Y207066D01*
X130640Y206921D01*
X130823Y206781D01*
X131008Y206645D01*
X131197Y206514D01*
X131388Y206387D01*
X131583Y206265D01*
X131781Y206148D01*
X131981Y206035D01*
X132184Y205927D01*
X132389Y205824D01*
X132597Y205726D01*
X132807Y205633D01*
X133020Y205545D01*
X133234Y205462D01*
X133450Y205384D01*
X133450Y205383D02*
X133537Y205343D01*
X133626Y205306D01*
X133716Y205272D01*
X133808Y205242D01*
X133900Y205216D01*
X133993Y205193D01*
X134088Y205174D01*
X134183Y205159D01*
X134278Y205148D01*
X134374Y205141D01*
X134470Y205137D01*
X134566Y205138D01*
X134662Y205142D01*
X134758Y205150D01*
X134853Y205162D01*
X134948Y205177D01*
X135042Y205197D01*
X135136Y205220D01*
X135228Y205247D01*
X135319Y205277D01*
X135409Y205311D01*
X135497Y205349D01*
X135584Y205390D01*
X135669Y205435D01*
X135752Y205483D01*
X135834Y205535D01*
X135913Y205589D01*
X135990Y205647D01*
X136064Y205708D01*
X136136Y205771D01*
X136206Y205838D01*
X136669Y208591D02*
X136592Y208808D01*
X136510Y209023D01*
X136423Y209235D01*
X136330Y209446D01*
X136233Y209654D01*
X136131Y209860D01*
X136023Y210063D01*
X135911Y210264D01*
X135795Y210462D01*
X135673Y210657D01*
X135547Y210849D01*
X135416Y211038D01*
X135281Y211224D01*
X135142Y211407D01*
X134998Y211586D01*
X134850Y211762D01*
X134697Y211934D01*
X134541Y212102D01*
X134381Y212267D01*
X136669Y208591D02*
X136710Y208504D01*
X136747Y208415D01*
X136780Y208325D01*
X136809Y208233D01*
X136835Y208141D01*
X136858Y208047D01*
X136876Y207953D01*
X136891Y207858D01*
X136902Y207763D01*
X136909Y207667D01*
X136912Y207571D01*
X136911Y207475D01*
X136907Y207379D01*
X136898Y207283D01*
X136886Y207187D01*
X136870Y207093D01*
X136850Y206999D01*
X136827Y206905D01*
X136800Y206813D01*
X136769Y206722D01*
X136734Y206632D01*
X136696Y206544D01*
X136655Y206458D01*
X136610Y206373D01*
X136561Y206290D01*
X136510Y206208D01*
X136455Y206130D01*
X136397Y206053D01*
X136336Y205979D01*
X136272Y205907D01*
X136205Y205838D01*
X132533Y205844D02*
X131630Y214108D01*
M02*
