G04 EAGLE Gerber RS-274X export*
G75*
%MOMM*%
%FSLAX34Y34*%
%LPD*%
%INBoard Outline*%
%IPPOS*%
%AMOC8*
5,1,8,0,0,1.08239X$1,22.5*%
G01*
%ADD10C,0.000000*%
%ADD11C,0.254000*%


D10*
X26502Y80658D02*
X735801Y80487D01*
X735321Y742342D01*
X26022Y742513D01*
X26502Y80658D01*
X663543Y134963D02*
X663548Y135331D01*
X663561Y135699D01*
X663584Y136066D01*
X663615Y136433D01*
X663656Y136799D01*
X663705Y137164D01*
X663764Y137527D01*
X663831Y137889D01*
X663907Y138250D01*
X663993Y138608D01*
X664086Y138964D01*
X664189Y139317D01*
X664300Y139668D01*
X664420Y140016D01*
X664548Y140361D01*
X664685Y140703D01*
X664830Y141042D01*
X664983Y141376D01*
X665145Y141707D01*
X665314Y142034D01*
X665492Y142356D01*
X665677Y142675D01*
X665870Y142988D01*
X666071Y143297D01*
X666279Y143600D01*
X666495Y143898D01*
X666718Y144191D01*
X666948Y144479D01*
X667185Y144761D01*
X667429Y145036D01*
X667679Y145306D01*
X667936Y145570D01*
X668200Y145827D01*
X668470Y146077D01*
X668745Y146321D01*
X669027Y146558D01*
X669315Y146788D01*
X669608Y147011D01*
X669906Y147227D01*
X670209Y147435D01*
X670518Y147636D01*
X670831Y147829D01*
X671150Y148014D01*
X671472Y148192D01*
X671799Y148361D01*
X672130Y148523D01*
X672464Y148676D01*
X672803Y148821D01*
X673145Y148958D01*
X673490Y149086D01*
X673838Y149206D01*
X674189Y149317D01*
X674542Y149420D01*
X674898Y149513D01*
X675256Y149599D01*
X675617Y149675D01*
X675979Y149742D01*
X676342Y149801D01*
X676707Y149850D01*
X677073Y149891D01*
X677440Y149922D01*
X677807Y149945D01*
X678175Y149958D01*
X678543Y149963D01*
X678911Y149958D01*
X679279Y149945D01*
X679646Y149922D01*
X680013Y149891D01*
X680379Y149850D01*
X680744Y149801D01*
X681107Y149742D01*
X681469Y149675D01*
X681830Y149599D01*
X682188Y149513D01*
X682544Y149420D01*
X682897Y149317D01*
X683248Y149206D01*
X683596Y149086D01*
X683941Y148958D01*
X684283Y148821D01*
X684622Y148676D01*
X684956Y148523D01*
X685287Y148361D01*
X685614Y148192D01*
X685936Y148014D01*
X686255Y147829D01*
X686568Y147636D01*
X686877Y147435D01*
X687180Y147227D01*
X687478Y147011D01*
X687771Y146788D01*
X688059Y146558D01*
X688341Y146321D01*
X688616Y146077D01*
X688886Y145827D01*
X689150Y145570D01*
X689407Y145306D01*
X689657Y145036D01*
X689901Y144761D01*
X690138Y144479D01*
X690368Y144191D01*
X690591Y143898D01*
X690807Y143600D01*
X691015Y143297D01*
X691216Y142988D01*
X691409Y142675D01*
X691594Y142356D01*
X691772Y142034D01*
X691941Y141707D01*
X692103Y141376D01*
X692256Y141042D01*
X692401Y140703D01*
X692538Y140361D01*
X692666Y140016D01*
X692786Y139668D01*
X692897Y139317D01*
X693000Y138964D01*
X693093Y138608D01*
X693179Y138250D01*
X693255Y137889D01*
X693322Y137527D01*
X693381Y137164D01*
X693430Y136799D01*
X693471Y136433D01*
X693502Y136066D01*
X693525Y135699D01*
X693538Y135331D01*
X693543Y134963D01*
X693538Y134595D01*
X693525Y134227D01*
X693502Y133860D01*
X693471Y133493D01*
X693430Y133127D01*
X693381Y132762D01*
X693322Y132399D01*
X693255Y132037D01*
X693179Y131676D01*
X693093Y131318D01*
X693000Y130962D01*
X692897Y130609D01*
X692786Y130258D01*
X692666Y129910D01*
X692538Y129565D01*
X692401Y129223D01*
X692256Y128884D01*
X692103Y128550D01*
X691941Y128219D01*
X691772Y127892D01*
X691594Y127570D01*
X691409Y127251D01*
X691216Y126938D01*
X691015Y126629D01*
X690807Y126326D01*
X690591Y126028D01*
X690368Y125735D01*
X690138Y125447D01*
X689901Y125165D01*
X689657Y124890D01*
X689407Y124620D01*
X689150Y124356D01*
X688886Y124099D01*
X688616Y123849D01*
X688341Y123605D01*
X688059Y123368D01*
X687771Y123138D01*
X687478Y122915D01*
X687180Y122699D01*
X686877Y122491D01*
X686568Y122290D01*
X686255Y122097D01*
X685936Y121912D01*
X685614Y121734D01*
X685287Y121565D01*
X684956Y121403D01*
X684622Y121250D01*
X684283Y121105D01*
X683941Y120968D01*
X683596Y120840D01*
X683248Y120720D01*
X682897Y120609D01*
X682544Y120506D01*
X682188Y120413D01*
X681830Y120327D01*
X681469Y120251D01*
X681107Y120184D01*
X680744Y120125D01*
X680379Y120076D01*
X680013Y120035D01*
X679646Y120004D01*
X679279Y119981D01*
X678911Y119968D01*
X678543Y119963D01*
X678175Y119968D01*
X677807Y119981D01*
X677440Y120004D01*
X677073Y120035D01*
X676707Y120076D01*
X676342Y120125D01*
X675979Y120184D01*
X675617Y120251D01*
X675256Y120327D01*
X674898Y120413D01*
X674542Y120506D01*
X674189Y120609D01*
X673838Y120720D01*
X673490Y120840D01*
X673145Y120968D01*
X672803Y121105D01*
X672464Y121250D01*
X672130Y121403D01*
X671799Y121565D01*
X671472Y121734D01*
X671150Y121912D01*
X670831Y122097D01*
X670518Y122290D01*
X670209Y122491D01*
X669906Y122699D01*
X669608Y122915D01*
X669315Y123138D01*
X669027Y123368D01*
X668745Y123605D01*
X668470Y123849D01*
X668200Y124099D01*
X667936Y124356D01*
X667679Y124620D01*
X667429Y124890D01*
X667185Y125165D01*
X666948Y125447D01*
X666718Y125735D01*
X666495Y126028D01*
X666279Y126326D01*
X666071Y126629D01*
X665870Y126938D01*
X665677Y127251D01*
X665492Y127570D01*
X665314Y127892D01*
X665145Y128219D01*
X664983Y128550D01*
X664830Y128884D01*
X664685Y129223D01*
X664548Y129565D01*
X664420Y129910D01*
X664300Y130258D01*
X664189Y130609D01*
X664086Y130962D01*
X663993Y131318D01*
X663907Y131676D01*
X663831Y132037D01*
X663764Y132399D01*
X663705Y132762D01*
X663656Y133127D01*
X663615Y133493D01*
X663584Y133860D01*
X663561Y134227D01*
X663548Y134595D01*
X663543Y134963D01*
X663066Y649197D02*
X663071Y649565D01*
X663084Y649933D01*
X663107Y650300D01*
X663138Y650667D01*
X663179Y651033D01*
X663228Y651398D01*
X663287Y651761D01*
X663354Y652123D01*
X663430Y652484D01*
X663516Y652842D01*
X663609Y653198D01*
X663712Y653551D01*
X663823Y653902D01*
X663943Y654250D01*
X664071Y654595D01*
X664208Y654937D01*
X664353Y655276D01*
X664506Y655610D01*
X664668Y655941D01*
X664837Y656268D01*
X665015Y656590D01*
X665200Y656909D01*
X665393Y657222D01*
X665594Y657531D01*
X665802Y657834D01*
X666018Y658132D01*
X666241Y658425D01*
X666471Y658713D01*
X666708Y658995D01*
X666952Y659270D01*
X667202Y659540D01*
X667459Y659804D01*
X667723Y660061D01*
X667993Y660311D01*
X668268Y660555D01*
X668550Y660792D01*
X668838Y661022D01*
X669131Y661245D01*
X669429Y661461D01*
X669732Y661669D01*
X670041Y661870D01*
X670354Y662063D01*
X670673Y662248D01*
X670995Y662426D01*
X671322Y662595D01*
X671653Y662757D01*
X671987Y662910D01*
X672326Y663055D01*
X672668Y663192D01*
X673013Y663320D01*
X673361Y663440D01*
X673712Y663551D01*
X674065Y663654D01*
X674421Y663747D01*
X674779Y663833D01*
X675140Y663909D01*
X675502Y663976D01*
X675865Y664035D01*
X676230Y664084D01*
X676596Y664125D01*
X676963Y664156D01*
X677330Y664179D01*
X677698Y664192D01*
X678066Y664197D01*
X678434Y664192D01*
X678802Y664179D01*
X679169Y664156D01*
X679536Y664125D01*
X679902Y664084D01*
X680267Y664035D01*
X680630Y663976D01*
X680992Y663909D01*
X681353Y663833D01*
X681711Y663747D01*
X682067Y663654D01*
X682420Y663551D01*
X682771Y663440D01*
X683119Y663320D01*
X683464Y663192D01*
X683806Y663055D01*
X684145Y662910D01*
X684479Y662757D01*
X684810Y662595D01*
X685137Y662426D01*
X685459Y662248D01*
X685778Y662063D01*
X686091Y661870D01*
X686400Y661669D01*
X686703Y661461D01*
X687001Y661245D01*
X687294Y661022D01*
X687582Y660792D01*
X687864Y660555D01*
X688139Y660311D01*
X688409Y660061D01*
X688673Y659804D01*
X688930Y659540D01*
X689180Y659270D01*
X689424Y658995D01*
X689661Y658713D01*
X689891Y658425D01*
X690114Y658132D01*
X690330Y657834D01*
X690538Y657531D01*
X690739Y657222D01*
X690932Y656909D01*
X691117Y656590D01*
X691295Y656268D01*
X691464Y655941D01*
X691626Y655610D01*
X691779Y655276D01*
X691924Y654937D01*
X692061Y654595D01*
X692189Y654250D01*
X692309Y653902D01*
X692420Y653551D01*
X692523Y653198D01*
X692616Y652842D01*
X692702Y652484D01*
X692778Y652123D01*
X692845Y651761D01*
X692904Y651398D01*
X692953Y651033D01*
X692994Y650667D01*
X693025Y650300D01*
X693048Y649933D01*
X693061Y649565D01*
X693066Y649197D01*
X693061Y648829D01*
X693048Y648461D01*
X693025Y648094D01*
X692994Y647727D01*
X692953Y647361D01*
X692904Y646996D01*
X692845Y646633D01*
X692778Y646271D01*
X692702Y645910D01*
X692616Y645552D01*
X692523Y645196D01*
X692420Y644843D01*
X692309Y644492D01*
X692189Y644144D01*
X692061Y643799D01*
X691924Y643457D01*
X691779Y643118D01*
X691626Y642784D01*
X691464Y642453D01*
X691295Y642126D01*
X691117Y641804D01*
X690932Y641485D01*
X690739Y641172D01*
X690538Y640863D01*
X690330Y640560D01*
X690114Y640262D01*
X689891Y639969D01*
X689661Y639681D01*
X689424Y639399D01*
X689180Y639124D01*
X688930Y638854D01*
X688673Y638590D01*
X688409Y638333D01*
X688139Y638083D01*
X687864Y637839D01*
X687582Y637602D01*
X687294Y637372D01*
X687001Y637149D01*
X686703Y636933D01*
X686400Y636725D01*
X686091Y636524D01*
X685778Y636331D01*
X685459Y636146D01*
X685137Y635968D01*
X684810Y635799D01*
X684479Y635637D01*
X684145Y635484D01*
X683806Y635339D01*
X683464Y635202D01*
X683119Y635074D01*
X682771Y634954D01*
X682420Y634843D01*
X682067Y634740D01*
X681711Y634647D01*
X681353Y634561D01*
X680992Y634485D01*
X680630Y634418D01*
X680267Y634359D01*
X679902Y634310D01*
X679536Y634269D01*
X679169Y634238D01*
X678802Y634215D01*
X678434Y634202D01*
X678066Y634197D01*
X677698Y634202D01*
X677330Y634215D01*
X676963Y634238D01*
X676596Y634269D01*
X676230Y634310D01*
X675865Y634359D01*
X675502Y634418D01*
X675140Y634485D01*
X674779Y634561D01*
X674421Y634647D01*
X674065Y634740D01*
X673712Y634843D01*
X673361Y634954D01*
X673013Y635074D01*
X672668Y635202D01*
X672326Y635339D01*
X671987Y635484D01*
X671653Y635637D01*
X671322Y635799D01*
X670995Y635968D01*
X670673Y636146D01*
X670354Y636331D01*
X670041Y636524D01*
X669732Y636725D01*
X669429Y636933D01*
X669131Y637149D01*
X668838Y637372D01*
X668550Y637602D01*
X668268Y637839D01*
X667993Y638083D01*
X667723Y638333D01*
X667459Y638590D01*
X667202Y638854D01*
X666952Y639124D01*
X666708Y639399D01*
X666471Y639681D01*
X666241Y639969D01*
X666018Y640262D01*
X665802Y640560D01*
X665594Y640863D01*
X665393Y641172D01*
X665200Y641485D01*
X665015Y641804D01*
X664837Y642126D01*
X664668Y642453D01*
X664506Y642784D01*
X664353Y643118D01*
X664208Y643457D01*
X664071Y643799D01*
X663943Y644144D01*
X663823Y644492D01*
X663712Y644843D01*
X663609Y645196D01*
X663516Y645552D01*
X663430Y645910D01*
X663354Y646271D01*
X663287Y646633D01*
X663228Y646996D01*
X663179Y647361D01*
X663138Y647727D01*
X663107Y648094D01*
X663084Y648461D01*
X663071Y648829D01*
X663066Y649197D01*
X87781Y650649D02*
X87786Y651017D01*
X87799Y651385D01*
X87822Y651752D01*
X87853Y652119D01*
X87894Y652485D01*
X87943Y652850D01*
X88002Y653213D01*
X88069Y653575D01*
X88145Y653936D01*
X88231Y654294D01*
X88324Y654650D01*
X88427Y655003D01*
X88538Y655354D01*
X88658Y655702D01*
X88786Y656047D01*
X88923Y656389D01*
X89068Y656728D01*
X89221Y657062D01*
X89383Y657393D01*
X89552Y657720D01*
X89730Y658042D01*
X89915Y658361D01*
X90108Y658674D01*
X90309Y658983D01*
X90517Y659286D01*
X90733Y659584D01*
X90956Y659877D01*
X91186Y660165D01*
X91423Y660447D01*
X91667Y660722D01*
X91917Y660992D01*
X92174Y661256D01*
X92438Y661513D01*
X92708Y661763D01*
X92983Y662007D01*
X93265Y662244D01*
X93553Y662474D01*
X93846Y662697D01*
X94144Y662913D01*
X94447Y663121D01*
X94756Y663322D01*
X95069Y663515D01*
X95388Y663700D01*
X95710Y663878D01*
X96037Y664047D01*
X96368Y664209D01*
X96702Y664362D01*
X97041Y664507D01*
X97383Y664644D01*
X97728Y664772D01*
X98076Y664892D01*
X98427Y665003D01*
X98780Y665106D01*
X99136Y665199D01*
X99494Y665285D01*
X99855Y665361D01*
X100217Y665428D01*
X100580Y665487D01*
X100945Y665536D01*
X101311Y665577D01*
X101678Y665608D01*
X102045Y665631D01*
X102413Y665644D01*
X102781Y665649D01*
X103149Y665644D01*
X103517Y665631D01*
X103884Y665608D01*
X104251Y665577D01*
X104617Y665536D01*
X104982Y665487D01*
X105345Y665428D01*
X105707Y665361D01*
X106068Y665285D01*
X106426Y665199D01*
X106782Y665106D01*
X107135Y665003D01*
X107486Y664892D01*
X107834Y664772D01*
X108179Y664644D01*
X108521Y664507D01*
X108860Y664362D01*
X109194Y664209D01*
X109525Y664047D01*
X109852Y663878D01*
X110174Y663700D01*
X110493Y663515D01*
X110806Y663322D01*
X111115Y663121D01*
X111418Y662913D01*
X111716Y662697D01*
X112009Y662474D01*
X112297Y662244D01*
X112579Y662007D01*
X112854Y661763D01*
X113124Y661513D01*
X113388Y661256D01*
X113645Y660992D01*
X113895Y660722D01*
X114139Y660447D01*
X114376Y660165D01*
X114606Y659877D01*
X114829Y659584D01*
X115045Y659286D01*
X115253Y658983D01*
X115454Y658674D01*
X115647Y658361D01*
X115832Y658042D01*
X116010Y657720D01*
X116179Y657393D01*
X116341Y657062D01*
X116494Y656728D01*
X116639Y656389D01*
X116776Y656047D01*
X116904Y655702D01*
X117024Y655354D01*
X117135Y655003D01*
X117238Y654650D01*
X117331Y654294D01*
X117417Y653936D01*
X117493Y653575D01*
X117560Y653213D01*
X117619Y652850D01*
X117668Y652485D01*
X117709Y652119D01*
X117740Y651752D01*
X117763Y651385D01*
X117776Y651017D01*
X117781Y650649D01*
X117776Y650281D01*
X117763Y649913D01*
X117740Y649546D01*
X117709Y649179D01*
X117668Y648813D01*
X117619Y648448D01*
X117560Y648085D01*
X117493Y647723D01*
X117417Y647362D01*
X117331Y647004D01*
X117238Y646648D01*
X117135Y646295D01*
X117024Y645944D01*
X116904Y645596D01*
X116776Y645251D01*
X116639Y644909D01*
X116494Y644570D01*
X116341Y644236D01*
X116179Y643905D01*
X116010Y643578D01*
X115832Y643256D01*
X115647Y642937D01*
X115454Y642624D01*
X115253Y642315D01*
X115045Y642012D01*
X114829Y641714D01*
X114606Y641421D01*
X114376Y641133D01*
X114139Y640851D01*
X113895Y640576D01*
X113645Y640306D01*
X113388Y640042D01*
X113124Y639785D01*
X112854Y639535D01*
X112579Y639291D01*
X112297Y639054D01*
X112009Y638824D01*
X111716Y638601D01*
X111418Y638385D01*
X111115Y638177D01*
X110806Y637976D01*
X110493Y637783D01*
X110174Y637598D01*
X109852Y637420D01*
X109525Y637251D01*
X109194Y637089D01*
X108860Y636936D01*
X108521Y636791D01*
X108179Y636654D01*
X107834Y636526D01*
X107486Y636406D01*
X107135Y636295D01*
X106782Y636192D01*
X106426Y636099D01*
X106068Y636013D01*
X105707Y635937D01*
X105345Y635870D01*
X104982Y635811D01*
X104617Y635762D01*
X104251Y635721D01*
X103884Y635690D01*
X103517Y635667D01*
X103149Y635654D01*
X102781Y635649D01*
X102413Y635654D01*
X102045Y635667D01*
X101678Y635690D01*
X101311Y635721D01*
X100945Y635762D01*
X100580Y635811D01*
X100217Y635870D01*
X99855Y635937D01*
X99494Y636013D01*
X99136Y636099D01*
X98780Y636192D01*
X98427Y636295D01*
X98076Y636406D01*
X97728Y636526D01*
X97383Y636654D01*
X97041Y636791D01*
X96702Y636936D01*
X96368Y637089D01*
X96037Y637251D01*
X95710Y637420D01*
X95388Y637598D01*
X95069Y637783D01*
X94756Y637976D01*
X94447Y638177D01*
X94144Y638385D01*
X93846Y638601D01*
X93553Y638824D01*
X93265Y639054D01*
X92983Y639291D01*
X92708Y639535D01*
X92438Y639785D01*
X92174Y640042D01*
X91917Y640306D01*
X91667Y640576D01*
X91423Y640851D01*
X91186Y641133D01*
X90956Y641421D01*
X90733Y641714D01*
X90517Y642012D01*
X90309Y642315D01*
X90108Y642624D01*
X89915Y642937D01*
X89730Y643256D01*
X89552Y643578D01*
X89383Y643905D01*
X89221Y644236D01*
X89068Y644570D01*
X88923Y644909D01*
X88786Y645251D01*
X88658Y645596D01*
X88538Y645944D01*
X88427Y646295D01*
X88324Y646648D01*
X88231Y647004D01*
X88145Y647362D01*
X88069Y647723D01*
X88002Y648085D01*
X87943Y648448D01*
X87894Y648813D01*
X87853Y649179D01*
X87822Y649546D01*
X87799Y649913D01*
X87786Y650281D01*
X87781Y650649D01*
X88065Y136857D02*
X88070Y137225D01*
X88083Y137593D01*
X88106Y137960D01*
X88137Y138327D01*
X88178Y138693D01*
X88227Y139058D01*
X88286Y139421D01*
X88353Y139783D01*
X88429Y140144D01*
X88515Y140502D01*
X88608Y140858D01*
X88711Y141211D01*
X88822Y141562D01*
X88942Y141910D01*
X89070Y142255D01*
X89207Y142597D01*
X89352Y142936D01*
X89505Y143270D01*
X89667Y143601D01*
X89836Y143928D01*
X90014Y144250D01*
X90199Y144569D01*
X90392Y144882D01*
X90593Y145191D01*
X90801Y145494D01*
X91017Y145792D01*
X91240Y146085D01*
X91470Y146373D01*
X91707Y146655D01*
X91951Y146930D01*
X92201Y147200D01*
X92458Y147464D01*
X92722Y147721D01*
X92992Y147971D01*
X93267Y148215D01*
X93549Y148452D01*
X93837Y148682D01*
X94130Y148905D01*
X94428Y149121D01*
X94731Y149329D01*
X95040Y149530D01*
X95353Y149723D01*
X95672Y149908D01*
X95994Y150086D01*
X96321Y150255D01*
X96652Y150417D01*
X96986Y150570D01*
X97325Y150715D01*
X97667Y150852D01*
X98012Y150980D01*
X98360Y151100D01*
X98711Y151211D01*
X99064Y151314D01*
X99420Y151407D01*
X99778Y151493D01*
X100139Y151569D01*
X100501Y151636D01*
X100864Y151695D01*
X101229Y151744D01*
X101595Y151785D01*
X101962Y151816D01*
X102329Y151839D01*
X102697Y151852D01*
X103065Y151857D01*
X103433Y151852D01*
X103801Y151839D01*
X104168Y151816D01*
X104535Y151785D01*
X104901Y151744D01*
X105266Y151695D01*
X105629Y151636D01*
X105991Y151569D01*
X106352Y151493D01*
X106710Y151407D01*
X107066Y151314D01*
X107419Y151211D01*
X107770Y151100D01*
X108118Y150980D01*
X108463Y150852D01*
X108805Y150715D01*
X109144Y150570D01*
X109478Y150417D01*
X109809Y150255D01*
X110136Y150086D01*
X110458Y149908D01*
X110777Y149723D01*
X111090Y149530D01*
X111399Y149329D01*
X111702Y149121D01*
X112000Y148905D01*
X112293Y148682D01*
X112581Y148452D01*
X112863Y148215D01*
X113138Y147971D01*
X113408Y147721D01*
X113672Y147464D01*
X113929Y147200D01*
X114179Y146930D01*
X114423Y146655D01*
X114660Y146373D01*
X114890Y146085D01*
X115113Y145792D01*
X115329Y145494D01*
X115537Y145191D01*
X115738Y144882D01*
X115931Y144569D01*
X116116Y144250D01*
X116294Y143928D01*
X116463Y143601D01*
X116625Y143270D01*
X116778Y142936D01*
X116923Y142597D01*
X117060Y142255D01*
X117188Y141910D01*
X117308Y141562D01*
X117419Y141211D01*
X117522Y140858D01*
X117615Y140502D01*
X117701Y140144D01*
X117777Y139783D01*
X117844Y139421D01*
X117903Y139058D01*
X117952Y138693D01*
X117993Y138327D01*
X118024Y137960D01*
X118047Y137593D01*
X118060Y137225D01*
X118065Y136857D01*
X118060Y136489D01*
X118047Y136121D01*
X118024Y135754D01*
X117993Y135387D01*
X117952Y135021D01*
X117903Y134656D01*
X117844Y134293D01*
X117777Y133931D01*
X117701Y133570D01*
X117615Y133212D01*
X117522Y132856D01*
X117419Y132503D01*
X117308Y132152D01*
X117188Y131804D01*
X117060Y131459D01*
X116923Y131117D01*
X116778Y130778D01*
X116625Y130444D01*
X116463Y130113D01*
X116294Y129786D01*
X116116Y129464D01*
X115931Y129145D01*
X115738Y128832D01*
X115537Y128523D01*
X115329Y128220D01*
X115113Y127922D01*
X114890Y127629D01*
X114660Y127341D01*
X114423Y127059D01*
X114179Y126784D01*
X113929Y126514D01*
X113672Y126250D01*
X113408Y125993D01*
X113138Y125743D01*
X112863Y125499D01*
X112581Y125262D01*
X112293Y125032D01*
X112000Y124809D01*
X111702Y124593D01*
X111399Y124385D01*
X111090Y124184D01*
X110777Y123991D01*
X110458Y123806D01*
X110136Y123628D01*
X109809Y123459D01*
X109478Y123297D01*
X109144Y123144D01*
X108805Y122999D01*
X108463Y122862D01*
X108118Y122734D01*
X107770Y122614D01*
X107419Y122503D01*
X107066Y122400D01*
X106710Y122307D01*
X106352Y122221D01*
X105991Y122145D01*
X105629Y122078D01*
X105266Y122019D01*
X104901Y121970D01*
X104535Y121929D01*
X104168Y121898D01*
X103801Y121875D01*
X103433Y121862D01*
X103065Y121857D01*
X102697Y121862D01*
X102329Y121875D01*
X101962Y121898D01*
X101595Y121929D01*
X101229Y121970D01*
X100864Y122019D01*
X100501Y122078D01*
X100139Y122145D01*
X99778Y122221D01*
X99420Y122307D01*
X99064Y122400D01*
X98711Y122503D01*
X98360Y122614D01*
X98012Y122734D01*
X97667Y122862D01*
X97325Y122999D01*
X96986Y123144D01*
X96652Y123297D01*
X96321Y123459D01*
X95994Y123628D01*
X95672Y123806D01*
X95353Y123991D01*
X95040Y124184D01*
X94731Y124385D01*
X94428Y124593D01*
X94130Y124809D01*
X93837Y125032D01*
X93549Y125262D01*
X93267Y125499D01*
X92992Y125743D01*
X92722Y125993D01*
X92458Y126250D01*
X92201Y126514D01*
X91951Y126784D01*
X91707Y127059D01*
X91470Y127341D01*
X91240Y127629D01*
X91017Y127922D01*
X90801Y128220D01*
X90593Y128523D01*
X90392Y128832D01*
X90199Y129145D01*
X90014Y129464D01*
X89836Y129786D01*
X89667Y130113D01*
X89505Y130444D01*
X89352Y130778D01*
X89207Y131117D01*
X89070Y131459D01*
X88942Y131804D01*
X88822Y132152D01*
X88711Y132503D01*
X88608Y132856D01*
X88515Y133212D01*
X88429Y133570D01*
X88353Y133931D01*
X88286Y134293D01*
X88227Y134656D01*
X88178Y135021D01*
X88137Y135387D01*
X88106Y135754D01*
X88083Y136121D01*
X88070Y136489D01*
X88065Y136857D01*
D11*
X26022Y742513D02*
X26502Y80658D01*
X735801Y80487D01*
X735321Y742342D01*
X26022Y742513D01*
X693543Y134427D02*
X693467Y133359D01*
X693314Y132298D01*
X693086Y131251D01*
X692785Y130223D01*
X692410Y129219D01*
X691965Y128245D01*
X691452Y127304D01*
X690872Y126403D01*
X690230Y125545D01*
X689529Y124735D01*
X688771Y123978D01*
X687961Y123276D01*
X687103Y122634D01*
X686202Y122055D01*
X685262Y121541D01*
X684287Y121096D01*
X683283Y120722D01*
X682255Y120420D01*
X681208Y120192D01*
X680148Y120040D01*
X679079Y119963D01*
X678007Y119963D01*
X676939Y120040D01*
X675878Y120192D01*
X674831Y120420D01*
X673803Y120722D01*
X672799Y121096D01*
X671825Y121541D01*
X670884Y122055D01*
X669983Y122634D01*
X669125Y123276D01*
X668315Y123978D01*
X667558Y124735D01*
X666856Y125545D01*
X666214Y126403D01*
X665635Y127304D01*
X665121Y128245D01*
X664676Y129219D01*
X664302Y130223D01*
X664000Y131251D01*
X663772Y132298D01*
X663620Y133359D01*
X663543Y134427D01*
X663543Y135499D01*
X663620Y136568D01*
X663772Y137628D01*
X664000Y138675D01*
X664302Y139703D01*
X664676Y140707D01*
X665121Y141682D01*
X665635Y142622D01*
X666214Y143523D01*
X666856Y144381D01*
X667558Y145191D01*
X668315Y145949D01*
X669125Y146650D01*
X669983Y147292D01*
X670884Y147872D01*
X671825Y148385D01*
X672799Y148830D01*
X673803Y149205D01*
X674831Y149506D01*
X675878Y149734D01*
X676939Y149887D01*
X678007Y149963D01*
X679079Y149963D01*
X680148Y149887D01*
X681208Y149734D01*
X682255Y149506D01*
X683283Y149205D01*
X684287Y148830D01*
X685262Y148385D01*
X686202Y147872D01*
X687103Y147292D01*
X687961Y146650D01*
X688771Y145949D01*
X689529Y145191D01*
X690230Y144381D01*
X690872Y143523D01*
X691452Y142622D01*
X691965Y141682D01*
X692410Y140707D01*
X692785Y139703D01*
X693086Y138675D01*
X693314Y137628D01*
X693467Y136568D01*
X693543Y135499D01*
X693543Y134427D01*
X693066Y648661D02*
X692990Y647593D01*
X692837Y646532D01*
X692609Y645485D01*
X692308Y644457D01*
X691933Y643453D01*
X691488Y642479D01*
X690975Y641538D01*
X690395Y640637D01*
X689753Y639779D01*
X689051Y638969D01*
X688294Y638212D01*
X687484Y637510D01*
X686626Y636868D01*
X685725Y636289D01*
X684785Y635775D01*
X683810Y635330D01*
X682806Y634956D01*
X681778Y634654D01*
X680731Y634426D01*
X679671Y634274D01*
X678602Y634197D01*
X677530Y634197D01*
X676462Y634274D01*
X675401Y634426D01*
X674354Y634654D01*
X673326Y634956D01*
X672322Y635330D01*
X671348Y635775D01*
X670407Y636289D01*
X669506Y636868D01*
X668648Y637510D01*
X667838Y638212D01*
X667081Y638969D01*
X666379Y639779D01*
X665737Y640637D01*
X665158Y641538D01*
X664644Y642479D01*
X664199Y643453D01*
X663825Y644457D01*
X663523Y645485D01*
X663295Y646532D01*
X663143Y647593D01*
X663066Y648661D01*
X663066Y649733D01*
X663143Y650802D01*
X663295Y651862D01*
X663523Y652909D01*
X663825Y653937D01*
X664199Y654941D01*
X664644Y655916D01*
X665158Y656856D01*
X665737Y657757D01*
X666379Y658615D01*
X667081Y659425D01*
X667838Y660183D01*
X668648Y660884D01*
X669506Y661526D01*
X670407Y662106D01*
X671348Y662619D01*
X672322Y663064D01*
X673326Y663439D01*
X674354Y663741D01*
X675401Y663968D01*
X676462Y664121D01*
X677530Y664197D01*
X678602Y664197D01*
X679671Y664121D01*
X680731Y663968D01*
X681778Y663741D01*
X682806Y663439D01*
X683810Y663064D01*
X684785Y662619D01*
X685725Y662106D01*
X686626Y661526D01*
X687484Y660884D01*
X688294Y660183D01*
X689051Y659425D01*
X689753Y658615D01*
X690395Y657757D01*
X690975Y656856D01*
X691488Y655916D01*
X691933Y654941D01*
X692308Y653937D01*
X692609Y652909D01*
X692837Y651862D01*
X692990Y650802D01*
X693066Y649733D01*
X693066Y648661D01*
X117781Y650113D02*
X117705Y649044D01*
X117552Y647984D01*
X117324Y646937D01*
X117022Y645909D01*
X116648Y644905D01*
X116203Y643930D01*
X115689Y642990D01*
X115110Y642089D01*
X114468Y641231D01*
X113766Y640421D01*
X113009Y639663D01*
X112199Y638962D01*
X111341Y638320D01*
X110440Y637740D01*
X109500Y637227D01*
X108525Y636782D01*
X107521Y636407D01*
X106493Y636106D01*
X105446Y635878D01*
X104385Y635725D01*
X103317Y635649D01*
X102245Y635649D01*
X101177Y635725D01*
X100116Y635878D01*
X99069Y636106D01*
X98041Y636407D01*
X97037Y636782D01*
X96062Y637227D01*
X95122Y637740D01*
X94221Y638320D01*
X93363Y638962D01*
X92553Y639663D01*
X91796Y640421D01*
X91094Y641231D01*
X90452Y642089D01*
X89873Y642990D01*
X89359Y643930D01*
X88914Y644905D01*
X88540Y645909D01*
X88238Y646937D01*
X88010Y647984D01*
X87857Y649044D01*
X87781Y650113D01*
X87781Y651185D01*
X87857Y652253D01*
X88010Y653314D01*
X88238Y654361D01*
X88540Y655389D01*
X88914Y656393D01*
X89359Y657367D01*
X89873Y658308D01*
X90452Y659209D01*
X91094Y660067D01*
X91796Y660877D01*
X92553Y661634D01*
X93363Y662336D01*
X94221Y662978D01*
X95122Y663557D01*
X96062Y664071D01*
X97037Y664516D01*
X98041Y664890D01*
X99069Y665192D01*
X100116Y665420D01*
X101177Y665572D01*
X102245Y665649D01*
X103317Y665649D01*
X104385Y665572D01*
X105446Y665420D01*
X106493Y665192D01*
X107521Y664890D01*
X108525Y664516D01*
X109500Y664071D01*
X110440Y663557D01*
X111341Y662978D01*
X112199Y662336D01*
X113009Y661634D01*
X113766Y660877D01*
X114468Y660067D01*
X115110Y659209D01*
X115689Y658308D01*
X116203Y657367D01*
X116648Y656393D01*
X117022Y655389D01*
X117324Y654361D01*
X117552Y653314D01*
X117705Y652253D01*
X117781Y651185D01*
X117781Y650113D01*
X118065Y136321D02*
X117989Y135252D01*
X117836Y134192D01*
X117608Y133145D01*
X117306Y132117D01*
X116932Y131113D01*
X116487Y130138D01*
X115973Y129198D01*
X115394Y128296D01*
X114752Y127439D01*
X114050Y126629D01*
X113293Y125871D01*
X112483Y125170D01*
X111625Y124528D01*
X110724Y123948D01*
X109784Y123435D01*
X108809Y122990D01*
X107805Y122615D01*
X106777Y122313D01*
X105730Y122086D01*
X104669Y121933D01*
X103601Y121857D01*
X102529Y121857D01*
X101461Y121933D01*
X100400Y122086D01*
X99353Y122313D01*
X98325Y122615D01*
X97321Y122990D01*
X96346Y123435D01*
X95406Y123948D01*
X94505Y124528D01*
X93647Y125170D01*
X92837Y125871D01*
X92080Y126629D01*
X91378Y127439D01*
X90736Y128296D01*
X90157Y129198D01*
X89643Y130138D01*
X89198Y131113D01*
X88824Y132117D01*
X88522Y133145D01*
X88294Y134192D01*
X88141Y135252D01*
X88065Y136321D01*
X88065Y137392D01*
X88141Y138461D01*
X88294Y139522D01*
X88522Y140569D01*
X88824Y141597D01*
X89198Y142601D01*
X89643Y143575D01*
X90157Y144516D01*
X90736Y145417D01*
X91378Y146275D01*
X92080Y147085D01*
X92837Y147842D01*
X93647Y148544D01*
X94505Y149186D01*
X95406Y149765D01*
X96346Y150279D01*
X97321Y150724D01*
X98325Y151098D01*
X99353Y151400D01*
X100400Y151628D01*
X101461Y151780D01*
X102529Y151857D01*
X103601Y151857D01*
X104669Y151780D01*
X105730Y151628D01*
X106777Y151400D01*
X107805Y151098D01*
X108809Y150724D01*
X109784Y150279D01*
X110724Y149765D01*
X111625Y149186D01*
X112483Y148544D01*
X113293Y147842D01*
X114050Y147085D01*
X114752Y146275D01*
X115394Y145417D01*
X115973Y144516D01*
X116487Y143575D01*
X116932Y142601D01*
X117306Y141597D01*
X117608Y140569D01*
X117836Y139522D01*
X117989Y138461D01*
X118065Y137392D01*
X118065Y136321D01*
M02*
