G04 EAGLE Gerber RS-274X export*
G75*
%MOMM*%
%FSLAX34Y34*%
%LPD*%
%INSilkscreen Top*%
%IPPOS*%
%AMOC8*
5,1,8,0,0,1.08239X$1,22.5*%
G01*
%ADD10R,23.000000X25.000000*%
%ADD11C,0.177800*%
%ADD12C,0.101600*%
%ADD13C,0.076200*%
%ADD14C,0.130000*%


D10*
X629496Y688013D03*
X864402Y688036D03*
X629717Y432852D03*
X864599Y432817D03*
D11*
X436002Y1006983D02*
X436002Y1027049D01*
X433772Y1006983D02*
X438232Y1006983D01*
X438232Y1027049D02*
X433772Y1027049D01*
X446810Y1014786D02*
X452384Y1012557D01*
X446810Y1014787D02*
X446711Y1014828D01*
X446614Y1014873D01*
X446519Y1014922D01*
X446426Y1014974D01*
X446334Y1015030D01*
X446245Y1015089D01*
X446158Y1015151D01*
X446074Y1015217D01*
X445991Y1015285D01*
X445912Y1015357D01*
X445835Y1015431D01*
X445761Y1015508D01*
X445690Y1015588D01*
X445622Y1015670D01*
X445557Y1015755D01*
X445495Y1015842D01*
X445436Y1015932D01*
X445381Y1016023D01*
X445329Y1016117D01*
X445281Y1016212D01*
X445236Y1016310D01*
X445195Y1016408D01*
X445158Y1016508D01*
X445124Y1016610D01*
X445094Y1016713D01*
X445068Y1016816D01*
X445046Y1016921D01*
X445027Y1017026D01*
X445013Y1017132D01*
X445002Y1017239D01*
X444996Y1017345D01*
X444993Y1017452D01*
X444994Y1017559D01*
X445000Y1017666D01*
X445009Y1017773D01*
X445022Y1017879D01*
X445039Y1017984D01*
X445060Y1018089D01*
X445085Y1018193D01*
X445114Y1018296D01*
X445146Y1018398D01*
X445182Y1018499D01*
X445222Y1018598D01*
X445266Y1018696D01*
X445313Y1018792D01*
X445364Y1018886D01*
X445418Y1018978D01*
X445475Y1019068D01*
X445536Y1019156D01*
X445600Y1019242D01*
X445667Y1019325D01*
X445737Y1019406D01*
X445810Y1019484D01*
X445886Y1019559D01*
X445965Y1019632D01*
X446046Y1019701D01*
X446130Y1019768D01*
X446216Y1019831D01*
X446305Y1019891D01*
X446395Y1019948D01*
X446488Y1020001D01*
X446582Y1020051D01*
X446679Y1020097D01*
X446777Y1020140D01*
X446876Y1020179D01*
X446977Y1020214D01*
X447079Y1020246D01*
X447183Y1020274D01*
X447287Y1020298D01*
X447392Y1020318D01*
X447498Y1020334D01*
X447604Y1020346D01*
X447710Y1020355D01*
X447817Y1020359D01*
X447924Y1020360D01*
X447925Y1020360D02*
X448229Y1020352D01*
X448533Y1020336D01*
X448837Y1020314D01*
X449140Y1020284D01*
X449442Y1020247D01*
X449743Y1020202D01*
X450043Y1020151D01*
X450341Y1020092D01*
X450639Y1020026D01*
X450934Y1019952D01*
X451228Y1019872D01*
X451519Y1019785D01*
X451809Y1019691D01*
X452096Y1019590D01*
X452380Y1019481D01*
X452662Y1019367D01*
X452941Y1019245D01*
X452383Y1012556D02*
X452482Y1012515D01*
X452579Y1012470D01*
X452674Y1012421D01*
X452767Y1012369D01*
X452859Y1012313D01*
X452948Y1012254D01*
X453035Y1012192D01*
X453119Y1012126D01*
X453202Y1012058D01*
X453281Y1011986D01*
X453358Y1011912D01*
X453432Y1011835D01*
X453503Y1011755D01*
X453571Y1011673D01*
X453636Y1011588D01*
X453698Y1011501D01*
X453757Y1011411D01*
X453812Y1011320D01*
X453864Y1011226D01*
X453912Y1011131D01*
X453957Y1011033D01*
X453998Y1010935D01*
X454035Y1010835D01*
X454069Y1010733D01*
X454099Y1010630D01*
X454125Y1010527D01*
X454147Y1010422D01*
X454166Y1010317D01*
X454180Y1010211D01*
X454191Y1010104D01*
X454197Y1009998D01*
X454200Y1009891D01*
X454199Y1009784D01*
X454193Y1009677D01*
X454184Y1009570D01*
X454171Y1009464D01*
X454154Y1009359D01*
X454133Y1009254D01*
X454108Y1009150D01*
X454079Y1009047D01*
X454047Y1008945D01*
X454011Y1008844D01*
X453971Y1008745D01*
X453927Y1008647D01*
X453880Y1008551D01*
X453829Y1008457D01*
X453775Y1008365D01*
X453718Y1008275D01*
X453657Y1008187D01*
X453593Y1008101D01*
X453526Y1008018D01*
X453456Y1007937D01*
X453383Y1007859D01*
X453307Y1007784D01*
X453228Y1007711D01*
X453147Y1007642D01*
X453063Y1007575D01*
X452977Y1007512D01*
X452888Y1007452D01*
X452798Y1007395D01*
X452705Y1007342D01*
X452611Y1007292D01*
X452514Y1007246D01*
X452416Y1007203D01*
X452317Y1007164D01*
X452216Y1007129D01*
X452114Y1007097D01*
X452010Y1007069D01*
X451906Y1007045D01*
X451801Y1007025D01*
X451695Y1007009D01*
X451589Y1006997D01*
X451483Y1006988D01*
X451376Y1006984D01*
X451269Y1006983D01*
X450822Y1006995D01*
X450375Y1007017D01*
X449929Y1007050D01*
X449484Y1007093D01*
X449040Y1007147D01*
X448598Y1007211D01*
X448157Y1007286D01*
X447718Y1007371D01*
X447281Y1007467D01*
X446847Y1007573D01*
X446415Y1007689D01*
X445986Y1007815D01*
X445560Y1007951D01*
X445138Y1008098D01*
X461204Y1011442D02*
X461204Y1015901D01*
X461206Y1016033D01*
X461212Y1016165D01*
X461222Y1016297D01*
X461235Y1016428D01*
X461253Y1016559D01*
X461274Y1016690D01*
X461300Y1016819D01*
X461329Y1016948D01*
X461362Y1017076D01*
X461398Y1017203D01*
X461439Y1017329D01*
X461483Y1017454D01*
X461531Y1017577D01*
X461582Y1017699D01*
X461637Y1017819D01*
X461696Y1017937D01*
X461758Y1018054D01*
X461824Y1018169D01*
X461892Y1018281D01*
X461965Y1018392D01*
X462040Y1018501D01*
X462119Y1018607D01*
X462200Y1018711D01*
X462285Y1018812D01*
X462373Y1018911D01*
X462464Y1019007D01*
X462557Y1019100D01*
X462653Y1019191D01*
X462752Y1019279D01*
X462853Y1019364D01*
X462957Y1019445D01*
X463063Y1019524D01*
X463172Y1019599D01*
X463283Y1019672D01*
X463395Y1019740D01*
X463510Y1019806D01*
X463627Y1019868D01*
X463745Y1019927D01*
X463865Y1019982D01*
X463987Y1020033D01*
X464110Y1020081D01*
X464235Y1020125D01*
X464361Y1020166D01*
X464488Y1020202D01*
X464616Y1020235D01*
X464745Y1020264D01*
X464874Y1020290D01*
X465005Y1020311D01*
X465136Y1020329D01*
X465267Y1020342D01*
X465399Y1020352D01*
X465531Y1020358D01*
X465663Y1020360D01*
X465795Y1020358D01*
X465927Y1020352D01*
X466059Y1020342D01*
X466190Y1020329D01*
X466321Y1020311D01*
X466452Y1020290D01*
X466581Y1020264D01*
X466710Y1020235D01*
X466838Y1020202D01*
X466965Y1020166D01*
X467091Y1020125D01*
X467216Y1020081D01*
X467339Y1020033D01*
X467461Y1019982D01*
X467581Y1019927D01*
X467699Y1019868D01*
X467816Y1019806D01*
X467931Y1019740D01*
X468043Y1019672D01*
X468154Y1019599D01*
X468263Y1019524D01*
X468369Y1019445D01*
X468473Y1019364D01*
X468574Y1019279D01*
X468673Y1019191D01*
X468769Y1019100D01*
X468862Y1019007D01*
X468953Y1018911D01*
X469041Y1018812D01*
X469126Y1018711D01*
X469207Y1018607D01*
X469286Y1018501D01*
X469361Y1018392D01*
X469434Y1018281D01*
X469502Y1018169D01*
X469568Y1018054D01*
X469630Y1017937D01*
X469689Y1017819D01*
X469744Y1017699D01*
X469795Y1017577D01*
X469843Y1017454D01*
X469887Y1017329D01*
X469928Y1017203D01*
X469964Y1017076D01*
X469997Y1016948D01*
X470026Y1016819D01*
X470052Y1016690D01*
X470073Y1016559D01*
X470091Y1016428D01*
X470104Y1016297D01*
X470114Y1016165D01*
X470120Y1016033D01*
X470122Y1015901D01*
X470122Y1011442D01*
X470120Y1011310D01*
X470114Y1011178D01*
X470104Y1011046D01*
X470091Y1010915D01*
X470073Y1010784D01*
X470052Y1010653D01*
X470026Y1010524D01*
X469997Y1010395D01*
X469964Y1010267D01*
X469928Y1010140D01*
X469887Y1010014D01*
X469843Y1009889D01*
X469795Y1009766D01*
X469744Y1009644D01*
X469689Y1009524D01*
X469630Y1009406D01*
X469568Y1009289D01*
X469502Y1009174D01*
X469434Y1009062D01*
X469361Y1008951D01*
X469286Y1008842D01*
X469207Y1008736D01*
X469126Y1008632D01*
X469041Y1008531D01*
X468953Y1008432D01*
X468862Y1008336D01*
X468769Y1008243D01*
X468673Y1008152D01*
X468574Y1008064D01*
X468473Y1007979D01*
X468369Y1007898D01*
X468263Y1007819D01*
X468154Y1007744D01*
X468043Y1007671D01*
X467931Y1007603D01*
X467816Y1007537D01*
X467699Y1007475D01*
X467581Y1007416D01*
X467461Y1007361D01*
X467339Y1007310D01*
X467216Y1007262D01*
X467091Y1007218D01*
X466965Y1007177D01*
X466838Y1007141D01*
X466710Y1007108D01*
X466581Y1007079D01*
X466452Y1007053D01*
X466321Y1007032D01*
X466190Y1007014D01*
X466059Y1007001D01*
X465927Y1006991D01*
X465795Y1006985D01*
X465663Y1006983D01*
X465531Y1006985D01*
X465399Y1006991D01*
X465267Y1007001D01*
X465136Y1007014D01*
X465005Y1007032D01*
X464874Y1007053D01*
X464745Y1007079D01*
X464616Y1007108D01*
X464488Y1007141D01*
X464361Y1007177D01*
X464235Y1007218D01*
X464110Y1007262D01*
X463987Y1007310D01*
X463865Y1007361D01*
X463745Y1007416D01*
X463627Y1007475D01*
X463510Y1007537D01*
X463395Y1007603D01*
X463283Y1007671D01*
X463172Y1007744D01*
X463063Y1007819D01*
X462957Y1007898D01*
X462853Y1007979D01*
X462752Y1008064D01*
X462653Y1008152D01*
X462557Y1008243D01*
X462464Y1008336D01*
X462373Y1008432D01*
X462285Y1008531D01*
X462200Y1008632D01*
X462119Y1008736D01*
X462040Y1008842D01*
X461965Y1008951D01*
X461892Y1009062D01*
X461824Y1009174D01*
X461758Y1009289D01*
X461696Y1009406D01*
X461637Y1009524D01*
X461582Y1009644D01*
X461531Y1009766D01*
X461483Y1009889D01*
X461439Y1010014D01*
X461398Y1010140D01*
X461362Y1010267D01*
X461329Y1010395D01*
X461300Y1010524D01*
X461274Y1010653D01*
X461253Y1010784D01*
X461235Y1010915D01*
X461222Y1011046D01*
X461212Y1011178D01*
X461206Y1011310D01*
X461204Y1011442D01*
X477642Y1010327D02*
X477642Y1027049D01*
X477642Y1010327D02*
X477644Y1010213D01*
X477650Y1010099D01*
X477660Y1009985D01*
X477673Y1009872D01*
X477691Y1009759D01*
X477712Y1009647D01*
X477737Y1009535D01*
X477766Y1009425D01*
X477799Y1009315D01*
X477835Y1009207D01*
X477875Y1009100D01*
X477919Y1008995D01*
X477966Y1008891D01*
X478017Y1008789D01*
X478071Y1008688D01*
X478129Y1008590D01*
X478190Y1008493D01*
X478254Y1008399D01*
X478321Y1008306D01*
X478392Y1008217D01*
X478466Y1008129D01*
X478542Y1008045D01*
X478621Y1007962D01*
X478704Y1007883D01*
X478788Y1007807D01*
X478876Y1007733D01*
X478965Y1007662D01*
X479058Y1007595D01*
X479152Y1007531D01*
X479249Y1007470D01*
X479347Y1007412D01*
X479448Y1007358D01*
X479550Y1007307D01*
X479654Y1007260D01*
X479759Y1007216D01*
X479866Y1007176D01*
X479974Y1007140D01*
X480084Y1007107D01*
X480194Y1007078D01*
X480306Y1007053D01*
X480418Y1007032D01*
X480531Y1007014D01*
X480644Y1007001D01*
X480758Y1006991D01*
X480872Y1006985D01*
X480986Y1006983D01*
X490995Y1014786D02*
X496011Y1014786D01*
X490995Y1014786D02*
X490871Y1014784D01*
X490748Y1014778D01*
X490624Y1014768D01*
X490501Y1014755D01*
X490378Y1014737D01*
X490257Y1014715D01*
X490135Y1014690D01*
X490015Y1014661D01*
X489896Y1014628D01*
X489777Y1014591D01*
X489660Y1014551D01*
X489545Y1014506D01*
X489431Y1014459D01*
X489318Y1014407D01*
X489207Y1014352D01*
X489098Y1014294D01*
X488991Y1014232D01*
X488885Y1014167D01*
X488782Y1014098D01*
X488681Y1014026D01*
X488583Y1013951D01*
X488487Y1013873D01*
X488393Y1013792D01*
X488302Y1013708D01*
X488214Y1013621D01*
X488129Y1013532D01*
X488046Y1013439D01*
X487966Y1013344D01*
X487890Y1013247D01*
X487817Y1013147D01*
X487746Y1013045D01*
X487679Y1012941D01*
X487616Y1012835D01*
X487556Y1012727D01*
X487499Y1012617D01*
X487446Y1012505D01*
X487396Y1012392D01*
X487350Y1012277D01*
X487308Y1012160D01*
X487269Y1012043D01*
X487234Y1011924D01*
X487203Y1011804D01*
X487176Y1011683D01*
X487152Y1011562D01*
X487133Y1011439D01*
X487117Y1011316D01*
X487105Y1011193D01*
X487097Y1011070D01*
X487093Y1010946D01*
X487093Y1010822D01*
X487097Y1010698D01*
X487105Y1010575D01*
X487117Y1010452D01*
X487133Y1010329D01*
X487152Y1010206D01*
X487176Y1010085D01*
X487203Y1009964D01*
X487234Y1009844D01*
X487269Y1009725D01*
X487308Y1009608D01*
X487350Y1009491D01*
X487396Y1009376D01*
X487446Y1009263D01*
X487499Y1009151D01*
X487556Y1009041D01*
X487616Y1008933D01*
X487679Y1008827D01*
X487746Y1008723D01*
X487817Y1008621D01*
X487890Y1008521D01*
X487966Y1008424D01*
X488046Y1008329D01*
X488129Y1008236D01*
X488214Y1008147D01*
X488302Y1008060D01*
X488393Y1007976D01*
X488487Y1007895D01*
X488583Y1007817D01*
X488681Y1007742D01*
X488782Y1007670D01*
X488885Y1007601D01*
X488991Y1007536D01*
X489098Y1007474D01*
X489207Y1007416D01*
X489318Y1007361D01*
X489431Y1007309D01*
X489545Y1007262D01*
X489660Y1007217D01*
X489777Y1007177D01*
X489896Y1007140D01*
X490015Y1007107D01*
X490135Y1007078D01*
X490257Y1007053D01*
X490378Y1007031D01*
X490501Y1007013D01*
X490624Y1007000D01*
X490748Y1006990D01*
X490871Y1006984D01*
X490995Y1006982D01*
X490995Y1006983D02*
X496011Y1006983D01*
X496011Y1017016D01*
X496009Y1017130D01*
X496003Y1017244D01*
X495993Y1017358D01*
X495980Y1017471D01*
X495962Y1017584D01*
X495941Y1017696D01*
X495916Y1017808D01*
X495887Y1017918D01*
X495854Y1018028D01*
X495818Y1018136D01*
X495778Y1018243D01*
X495734Y1018348D01*
X495687Y1018452D01*
X495636Y1018554D01*
X495582Y1018655D01*
X495524Y1018753D01*
X495463Y1018850D01*
X495399Y1018944D01*
X495332Y1019037D01*
X495261Y1019126D01*
X495187Y1019214D01*
X495111Y1019298D01*
X495032Y1019381D01*
X494949Y1019460D01*
X494865Y1019536D01*
X494777Y1019610D01*
X494688Y1019681D01*
X494595Y1019748D01*
X494501Y1019812D01*
X494404Y1019873D01*
X494306Y1019931D01*
X494205Y1019985D01*
X494103Y1020036D01*
X493999Y1020083D01*
X493894Y1020127D01*
X493787Y1020167D01*
X493679Y1020203D01*
X493569Y1020236D01*
X493459Y1020265D01*
X493347Y1020290D01*
X493235Y1020311D01*
X493122Y1020329D01*
X493009Y1020342D01*
X492895Y1020352D01*
X492781Y1020358D01*
X492667Y1020360D01*
X488208Y1020360D01*
X502381Y1020360D02*
X509069Y1020360D01*
X504610Y1027049D02*
X504610Y1010327D01*
X504612Y1010213D01*
X504618Y1010099D01*
X504628Y1009985D01*
X504641Y1009872D01*
X504659Y1009759D01*
X504680Y1009647D01*
X504705Y1009535D01*
X504734Y1009425D01*
X504767Y1009315D01*
X504803Y1009207D01*
X504843Y1009100D01*
X504887Y1008995D01*
X504934Y1008891D01*
X504985Y1008789D01*
X505039Y1008688D01*
X505097Y1008590D01*
X505158Y1008493D01*
X505222Y1008399D01*
X505289Y1008306D01*
X505360Y1008217D01*
X505434Y1008129D01*
X505510Y1008045D01*
X505589Y1007962D01*
X505672Y1007883D01*
X505756Y1007807D01*
X505844Y1007733D01*
X505933Y1007662D01*
X506026Y1007595D01*
X506120Y1007531D01*
X506217Y1007470D01*
X506315Y1007412D01*
X506416Y1007358D01*
X506518Y1007307D01*
X506622Y1007260D01*
X506727Y1007216D01*
X506834Y1007176D01*
X506942Y1007140D01*
X507052Y1007107D01*
X507162Y1007078D01*
X507274Y1007053D01*
X507386Y1007032D01*
X507499Y1007014D01*
X507612Y1007001D01*
X507726Y1006991D01*
X507840Y1006985D01*
X507954Y1006983D01*
X509069Y1006983D01*
X518928Y1006983D02*
X524502Y1006983D01*
X518928Y1006983D02*
X518814Y1006985D01*
X518700Y1006991D01*
X518586Y1007001D01*
X518473Y1007014D01*
X518360Y1007032D01*
X518248Y1007053D01*
X518136Y1007078D01*
X518026Y1007107D01*
X517916Y1007140D01*
X517808Y1007176D01*
X517701Y1007216D01*
X517596Y1007260D01*
X517492Y1007307D01*
X517390Y1007358D01*
X517289Y1007412D01*
X517191Y1007470D01*
X517094Y1007531D01*
X517000Y1007595D01*
X516907Y1007662D01*
X516818Y1007733D01*
X516730Y1007807D01*
X516646Y1007883D01*
X516563Y1007962D01*
X516484Y1008045D01*
X516408Y1008129D01*
X516334Y1008217D01*
X516263Y1008306D01*
X516196Y1008399D01*
X516132Y1008493D01*
X516071Y1008590D01*
X516013Y1008688D01*
X515959Y1008789D01*
X515908Y1008891D01*
X515861Y1008995D01*
X515817Y1009100D01*
X515777Y1009207D01*
X515741Y1009315D01*
X515708Y1009425D01*
X515679Y1009535D01*
X515654Y1009647D01*
X515633Y1009759D01*
X515615Y1009872D01*
X515602Y1009985D01*
X515592Y1010099D01*
X515586Y1010213D01*
X515584Y1010327D01*
X515583Y1010327D02*
X515583Y1015901D01*
X515585Y1016033D01*
X515591Y1016165D01*
X515601Y1016297D01*
X515614Y1016428D01*
X515632Y1016559D01*
X515653Y1016690D01*
X515679Y1016819D01*
X515708Y1016948D01*
X515741Y1017076D01*
X515777Y1017203D01*
X515818Y1017329D01*
X515862Y1017454D01*
X515910Y1017577D01*
X515961Y1017699D01*
X516016Y1017819D01*
X516075Y1017937D01*
X516137Y1018054D01*
X516203Y1018169D01*
X516271Y1018281D01*
X516344Y1018392D01*
X516419Y1018501D01*
X516498Y1018607D01*
X516579Y1018711D01*
X516664Y1018812D01*
X516752Y1018911D01*
X516843Y1019007D01*
X516936Y1019100D01*
X517032Y1019191D01*
X517131Y1019279D01*
X517232Y1019364D01*
X517336Y1019445D01*
X517442Y1019524D01*
X517551Y1019599D01*
X517662Y1019672D01*
X517774Y1019740D01*
X517889Y1019806D01*
X518006Y1019868D01*
X518124Y1019927D01*
X518244Y1019982D01*
X518366Y1020033D01*
X518489Y1020081D01*
X518614Y1020125D01*
X518740Y1020166D01*
X518867Y1020202D01*
X518995Y1020235D01*
X519124Y1020264D01*
X519253Y1020290D01*
X519384Y1020311D01*
X519515Y1020329D01*
X519646Y1020342D01*
X519778Y1020352D01*
X519910Y1020358D01*
X520042Y1020360D01*
X520174Y1020358D01*
X520306Y1020352D01*
X520438Y1020342D01*
X520569Y1020329D01*
X520700Y1020311D01*
X520831Y1020290D01*
X520960Y1020264D01*
X521089Y1020235D01*
X521217Y1020202D01*
X521344Y1020166D01*
X521470Y1020125D01*
X521595Y1020081D01*
X521718Y1020033D01*
X521840Y1019982D01*
X521960Y1019927D01*
X522078Y1019868D01*
X522195Y1019806D01*
X522310Y1019740D01*
X522422Y1019672D01*
X522533Y1019599D01*
X522642Y1019524D01*
X522748Y1019445D01*
X522852Y1019364D01*
X522953Y1019279D01*
X523052Y1019191D01*
X523148Y1019100D01*
X523241Y1019007D01*
X523332Y1018911D01*
X523420Y1018812D01*
X523505Y1018711D01*
X523586Y1018607D01*
X523665Y1018501D01*
X523740Y1018392D01*
X523813Y1018281D01*
X523881Y1018169D01*
X523947Y1018054D01*
X524009Y1017937D01*
X524068Y1017819D01*
X524123Y1017699D01*
X524174Y1017577D01*
X524222Y1017454D01*
X524266Y1017329D01*
X524307Y1017203D01*
X524343Y1017076D01*
X524376Y1016948D01*
X524405Y1016819D01*
X524431Y1016690D01*
X524452Y1016559D01*
X524470Y1016428D01*
X524483Y1016297D01*
X524493Y1016165D01*
X524499Y1016033D01*
X524501Y1015901D01*
X524502Y1015901D02*
X524502Y1013671D01*
X515583Y1013671D01*
X540503Y1006983D02*
X540503Y1027049D01*
X540503Y1006983D02*
X534929Y1006983D01*
X534815Y1006985D01*
X534701Y1006991D01*
X534587Y1007001D01*
X534474Y1007014D01*
X534361Y1007032D01*
X534249Y1007053D01*
X534137Y1007078D01*
X534027Y1007107D01*
X533917Y1007140D01*
X533809Y1007176D01*
X533702Y1007216D01*
X533597Y1007260D01*
X533493Y1007307D01*
X533391Y1007358D01*
X533290Y1007412D01*
X533192Y1007470D01*
X533095Y1007531D01*
X533001Y1007595D01*
X532908Y1007662D01*
X532819Y1007733D01*
X532731Y1007807D01*
X532647Y1007883D01*
X532564Y1007962D01*
X532485Y1008045D01*
X532409Y1008129D01*
X532335Y1008217D01*
X532264Y1008306D01*
X532197Y1008399D01*
X532133Y1008493D01*
X532072Y1008590D01*
X532014Y1008688D01*
X531960Y1008789D01*
X531909Y1008891D01*
X531862Y1008995D01*
X531818Y1009100D01*
X531778Y1009207D01*
X531742Y1009315D01*
X531709Y1009425D01*
X531680Y1009535D01*
X531655Y1009647D01*
X531634Y1009759D01*
X531616Y1009872D01*
X531603Y1009985D01*
X531593Y1010099D01*
X531587Y1010213D01*
X531585Y1010327D01*
X531585Y1017016D01*
X531587Y1017130D01*
X531593Y1017244D01*
X531603Y1017358D01*
X531616Y1017471D01*
X531634Y1017584D01*
X531655Y1017696D01*
X531680Y1017808D01*
X531709Y1017918D01*
X531742Y1018028D01*
X531778Y1018136D01*
X531818Y1018243D01*
X531862Y1018348D01*
X531909Y1018452D01*
X531960Y1018554D01*
X532014Y1018655D01*
X532072Y1018753D01*
X532133Y1018850D01*
X532197Y1018944D01*
X532264Y1019037D01*
X532335Y1019126D01*
X532409Y1019214D01*
X532485Y1019298D01*
X532564Y1019381D01*
X532647Y1019460D01*
X532731Y1019536D01*
X532819Y1019610D01*
X532908Y1019681D01*
X533001Y1019748D01*
X533095Y1019812D01*
X533192Y1019873D01*
X533290Y1019931D01*
X533391Y1019985D01*
X533493Y1020036D01*
X533597Y1020083D01*
X533702Y1020127D01*
X533809Y1020167D01*
X533917Y1020203D01*
X534027Y1020236D01*
X534137Y1020265D01*
X534249Y1020290D01*
X534361Y1020311D01*
X534474Y1020329D01*
X534587Y1020342D01*
X534701Y1020352D01*
X534815Y1020358D01*
X534929Y1020360D01*
X540503Y1020360D01*
X559148Y1027049D02*
X559148Y1006983D01*
X559148Y1027049D02*
X564722Y1027049D01*
X564870Y1027047D01*
X565019Y1027041D01*
X565167Y1027031D01*
X565314Y1027017D01*
X565462Y1027000D01*
X565609Y1026978D01*
X565755Y1026952D01*
X565900Y1026923D01*
X566045Y1026890D01*
X566189Y1026853D01*
X566331Y1026812D01*
X566473Y1026767D01*
X566613Y1026718D01*
X566752Y1026666D01*
X566889Y1026610D01*
X567025Y1026551D01*
X567160Y1026488D01*
X567292Y1026421D01*
X567423Y1026351D01*
X567552Y1026277D01*
X567679Y1026200D01*
X567803Y1026120D01*
X567926Y1026036D01*
X568046Y1025949D01*
X568164Y1025859D01*
X568280Y1025766D01*
X568393Y1025670D01*
X568503Y1025571D01*
X568611Y1025469D01*
X568716Y1025364D01*
X568818Y1025256D01*
X568917Y1025146D01*
X569013Y1025033D01*
X569106Y1024917D01*
X569196Y1024799D01*
X569283Y1024679D01*
X569367Y1024556D01*
X569447Y1024432D01*
X569524Y1024305D01*
X569598Y1024176D01*
X569668Y1024045D01*
X569735Y1023913D01*
X569798Y1023778D01*
X569857Y1023642D01*
X569913Y1023505D01*
X569965Y1023366D01*
X570014Y1023226D01*
X570059Y1023084D01*
X570100Y1022942D01*
X570137Y1022798D01*
X570170Y1022653D01*
X570199Y1022508D01*
X570225Y1022362D01*
X570247Y1022215D01*
X570264Y1022067D01*
X570278Y1021920D01*
X570288Y1021772D01*
X570294Y1021623D01*
X570296Y1021475D01*
X570294Y1021327D01*
X570288Y1021178D01*
X570278Y1021030D01*
X570264Y1020883D01*
X570247Y1020735D01*
X570225Y1020588D01*
X570199Y1020442D01*
X570170Y1020297D01*
X570137Y1020152D01*
X570100Y1020008D01*
X570059Y1019866D01*
X570014Y1019724D01*
X569965Y1019584D01*
X569913Y1019445D01*
X569857Y1019308D01*
X569798Y1019172D01*
X569735Y1019037D01*
X569668Y1018905D01*
X569598Y1018774D01*
X569524Y1018645D01*
X569447Y1018518D01*
X569367Y1018394D01*
X569283Y1018271D01*
X569196Y1018151D01*
X569106Y1018033D01*
X569013Y1017917D01*
X568917Y1017804D01*
X568818Y1017694D01*
X568716Y1017586D01*
X568611Y1017481D01*
X568503Y1017379D01*
X568393Y1017280D01*
X568280Y1017184D01*
X568164Y1017091D01*
X568046Y1017001D01*
X567926Y1016914D01*
X567803Y1016830D01*
X567679Y1016750D01*
X567552Y1016673D01*
X567423Y1016599D01*
X567292Y1016529D01*
X567160Y1016462D01*
X567025Y1016399D01*
X566889Y1016340D01*
X566752Y1016284D01*
X566613Y1016232D01*
X566473Y1016183D01*
X566331Y1016138D01*
X566189Y1016097D01*
X566045Y1016060D01*
X565900Y1016027D01*
X565755Y1015998D01*
X565609Y1015972D01*
X565462Y1015950D01*
X565314Y1015933D01*
X565167Y1015919D01*
X565019Y1015909D01*
X564870Y1015903D01*
X564722Y1015901D01*
X559148Y1015901D01*
X575766Y1027049D02*
X582455Y1006983D01*
X589143Y1027049D01*
X609733Y1006983D02*
X614192Y1006983D01*
X609733Y1006983D02*
X609601Y1006985D01*
X609469Y1006991D01*
X609337Y1007001D01*
X609206Y1007014D01*
X609075Y1007032D01*
X608944Y1007053D01*
X608815Y1007079D01*
X608686Y1007108D01*
X608558Y1007141D01*
X608431Y1007177D01*
X608305Y1007218D01*
X608180Y1007262D01*
X608057Y1007310D01*
X607935Y1007361D01*
X607815Y1007416D01*
X607697Y1007475D01*
X607580Y1007537D01*
X607465Y1007603D01*
X607353Y1007671D01*
X607242Y1007744D01*
X607133Y1007819D01*
X607027Y1007898D01*
X606923Y1007979D01*
X606822Y1008064D01*
X606723Y1008152D01*
X606627Y1008243D01*
X606534Y1008336D01*
X606443Y1008432D01*
X606355Y1008531D01*
X606270Y1008632D01*
X606189Y1008736D01*
X606110Y1008842D01*
X606035Y1008951D01*
X605962Y1009062D01*
X605894Y1009174D01*
X605828Y1009289D01*
X605766Y1009406D01*
X605707Y1009524D01*
X605652Y1009644D01*
X605601Y1009766D01*
X605553Y1009889D01*
X605509Y1010014D01*
X605468Y1010140D01*
X605432Y1010267D01*
X605399Y1010395D01*
X605370Y1010524D01*
X605344Y1010653D01*
X605323Y1010784D01*
X605305Y1010915D01*
X605292Y1011046D01*
X605282Y1011178D01*
X605276Y1011310D01*
X605274Y1011442D01*
X605274Y1022590D01*
X605276Y1022722D01*
X605282Y1022854D01*
X605292Y1022986D01*
X605305Y1023117D01*
X605323Y1023248D01*
X605344Y1023379D01*
X605370Y1023508D01*
X605399Y1023637D01*
X605432Y1023765D01*
X605468Y1023892D01*
X605509Y1024018D01*
X605553Y1024143D01*
X605601Y1024266D01*
X605652Y1024388D01*
X605707Y1024508D01*
X605766Y1024626D01*
X605828Y1024743D01*
X605894Y1024858D01*
X605962Y1024970D01*
X606035Y1025081D01*
X606110Y1025189D01*
X606189Y1025296D01*
X606270Y1025400D01*
X606355Y1025501D01*
X606443Y1025600D01*
X606534Y1025696D01*
X606627Y1025789D01*
X606723Y1025880D01*
X606822Y1025968D01*
X606923Y1026053D01*
X607027Y1026134D01*
X607133Y1026213D01*
X607242Y1026288D01*
X607353Y1026361D01*
X607465Y1026429D01*
X607580Y1026495D01*
X607697Y1026557D01*
X607815Y1026616D01*
X607935Y1026671D01*
X608057Y1026722D01*
X608180Y1026770D01*
X608305Y1026814D01*
X608431Y1026855D01*
X608558Y1026891D01*
X608686Y1026924D01*
X608815Y1026953D01*
X608944Y1026979D01*
X609075Y1027000D01*
X609206Y1027018D01*
X609337Y1027031D01*
X609469Y1027041D01*
X609601Y1027047D01*
X609733Y1027049D01*
X614192Y1027049D01*
X623978Y1006983D02*
X629552Y1006983D01*
X623978Y1006983D02*
X623864Y1006985D01*
X623750Y1006991D01*
X623636Y1007001D01*
X623523Y1007014D01*
X623410Y1007032D01*
X623298Y1007053D01*
X623186Y1007078D01*
X623076Y1007107D01*
X622966Y1007140D01*
X622858Y1007176D01*
X622751Y1007216D01*
X622646Y1007260D01*
X622542Y1007307D01*
X622440Y1007358D01*
X622339Y1007412D01*
X622241Y1007470D01*
X622144Y1007531D01*
X622050Y1007595D01*
X621957Y1007662D01*
X621868Y1007733D01*
X621780Y1007807D01*
X621696Y1007883D01*
X621613Y1007962D01*
X621534Y1008045D01*
X621458Y1008129D01*
X621384Y1008217D01*
X621313Y1008306D01*
X621246Y1008399D01*
X621182Y1008493D01*
X621121Y1008590D01*
X621063Y1008688D01*
X621009Y1008789D01*
X620958Y1008891D01*
X620911Y1008995D01*
X620867Y1009100D01*
X620827Y1009207D01*
X620791Y1009315D01*
X620758Y1009425D01*
X620729Y1009535D01*
X620704Y1009647D01*
X620683Y1009759D01*
X620665Y1009872D01*
X620652Y1009985D01*
X620642Y1010099D01*
X620636Y1010213D01*
X620634Y1010327D01*
X620634Y1015901D01*
X620636Y1016033D01*
X620642Y1016165D01*
X620652Y1016297D01*
X620665Y1016428D01*
X620683Y1016559D01*
X620704Y1016690D01*
X620730Y1016819D01*
X620759Y1016948D01*
X620792Y1017076D01*
X620828Y1017203D01*
X620869Y1017329D01*
X620913Y1017454D01*
X620961Y1017577D01*
X621012Y1017699D01*
X621067Y1017819D01*
X621126Y1017937D01*
X621188Y1018054D01*
X621254Y1018169D01*
X621322Y1018281D01*
X621395Y1018392D01*
X621470Y1018501D01*
X621549Y1018607D01*
X621630Y1018711D01*
X621715Y1018812D01*
X621803Y1018911D01*
X621894Y1019007D01*
X621987Y1019100D01*
X622083Y1019191D01*
X622182Y1019279D01*
X622283Y1019364D01*
X622387Y1019445D01*
X622493Y1019524D01*
X622602Y1019599D01*
X622713Y1019672D01*
X622825Y1019740D01*
X622940Y1019806D01*
X623057Y1019868D01*
X623175Y1019927D01*
X623295Y1019982D01*
X623417Y1020033D01*
X623540Y1020081D01*
X623665Y1020125D01*
X623791Y1020166D01*
X623918Y1020202D01*
X624046Y1020235D01*
X624175Y1020264D01*
X624304Y1020290D01*
X624435Y1020311D01*
X624566Y1020329D01*
X624697Y1020342D01*
X624829Y1020352D01*
X624961Y1020358D01*
X625093Y1020360D01*
X625225Y1020358D01*
X625357Y1020352D01*
X625489Y1020342D01*
X625620Y1020329D01*
X625751Y1020311D01*
X625882Y1020290D01*
X626011Y1020264D01*
X626140Y1020235D01*
X626268Y1020202D01*
X626395Y1020166D01*
X626521Y1020125D01*
X626646Y1020081D01*
X626769Y1020033D01*
X626891Y1019982D01*
X627011Y1019927D01*
X627129Y1019868D01*
X627246Y1019806D01*
X627361Y1019740D01*
X627473Y1019672D01*
X627584Y1019599D01*
X627693Y1019524D01*
X627799Y1019445D01*
X627903Y1019364D01*
X628004Y1019279D01*
X628103Y1019191D01*
X628199Y1019100D01*
X628292Y1019007D01*
X628383Y1018911D01*
X628471Y1018812D01*
X628556Y1018711D01*
X628637Y1018607D01*
X628716Y1018501D01*
X628791Y1018392D01*
X628864Y1018281D01*
X628932Y1018169D01*
X628998Y1018054D01*
X629060Y1017937D01*
X629119Y1017819D01*
X629174Y1017699D01*
X629225Y1017577D01*
X629273Y1017454D01*
X629317Y1017329D01*
X629358Y1017203D01*
X629394Y1017076D01*
X629427Y1016948D01*
X629456Y1016819D01*
X629482Y1016690D01*
X629503Y1016559D01*
X629521Y1016428D01*
X629534Y1016297D01*
X629544Y1016165D01*
X629550Y1016033D01*
X629552Y1015901D01*
X629552Y1013671D01*
X620634Y1013671D01*
X637072Y1010327D02*
X637072Y1027049D01*
X637072Y1010327D02*
X637074Y1010213D01*
X637080Y1010099D01*
X637090Y1009985D01*
X637103Y1009872D01*
X637121Y1009759D01*
X637142Y1009647D01*
X637167Y1009535D01*
X637196Y1009425D01*
X637229Y1009315D01*
X637265Y1009207D01*
X637305Y1009100D01*
X637349Y1008995D01*
X637396Y1008891D01*
X637447Y1008789D01*
X637501Y1008688D01*
X637559Y1008590D01*
X637620Y1008493D01*
X637684Y1008399D01*
X637751Y1008306D01*
X637822Y1008217D01*
X637896Y1008129D01*
X637972Y1008045D01*
X638051Y1007962D01*
X638134Y1007883D01*
X638218Y1007807D01*
X638306Y1007733D01*
X638395Y1007662D01*
X638488Y1007595D01*
X638582Y1007531D01*
X638679Y1007470D01*
X638777Y1007412D01*
X638878Y1007358D01*
X638980Y1007307D01*
X639084Y1007260D01*
X639189Y1007216D01*
X639296Y1007176D01*
X639404Y1007140D01*
X639514Y1007107D01*
X639624Y1007078D01*
X639736Y1007053D01*
X639848Y1007032D01*
X639961Y1007014D01*
X640074Y1007001D01*
X640188Y1006991D01*
X640302Y1006985D01*
X640416Y1006983D01*
X646959Y1010327D02*
X646959Y1027049D01*
X646959Y1010327D02*
X646961Y1010213D01*
X646967Y1010099D01*
X646977Y1009985D01*
X646990Y1009872D01*
X647008Y1009759D01*
X647029Y1009647D01*
X647054Y1009535D01*
X647083Y1009425D01*
X647116Y1009315D01*
X647152Y1009207D01*
X647192Y1009100D01*
X647236Y1008995D01*
X647283Y1008891D01*
X647334Y1008789D01*
X647388Y1008688D01*
X647446Y1008590D01*
X647507Y1008493D01*
X647571Y1008399D01*
X647638Y1008306D01*
X647709Y1008217D01*
X647783Y1008129D01*
X647859Y1008045D01*
X647938Y1007962D01*
X648021Y1007883D01*
X648105Y1007807D01*
X648193Y1007733D01*
X648282Y1007662D01*
X648375Y1007595D01*
X648469Y1007531D01*
X648566Y1007470D01*
X648664Y1007412D01*
X648765Y1007358D01*
X648867Y1007307D01*
X648971Y1007260D01*
X649076Y1007216D01*
X649183Y1007176D01*
X649291Y1007140D01*
X649401Y1007107D01*
X649511Y1007078D01*
X649623Y1007053D01*
X649735Y1007032D01*
X649848Y1007014D01*
X649961Y1007001D01*
X650075Y1006991D01*
X650189Y1006985D01*
X650303Y1006983D01*
X667129Y1006983D02*
X676048Y1006983D01*
X667129Y1006983D02*
X667129Y1027049D01*
X676048Y1027049D01*
X673818Y1018130D02*
X667129Y1018130D01*
X681810Y1006983D02*
X690728Y1020360D01*
X681810Y1020360D02*
X690728Y1006983D01*
X695797Y1020360D02*
X702486Y1020360D01*
X698026Y1027049D02*
X698026Y1010327D01*
X698027Y1010327D02*
X698029Y1010213D01*
X698035Y1010099D01*
X698045Y1009985D01*
X698058Y1009872D01*
X698076Y1009759D01*
X698097Y1009647D01*
X698122Y1009535D01*
X698151Y1009425D01*
X698184Y1009315D01*
X698220Y1009207D01*
X698260Y1009100D01*
X698304Y1008995D01*
X698351Y1008891D01*
X698402Y1008789D01*
X698456Y1008688D01*
X698514Y1008590D01*
X698575Y1008493D01*
X698639Y1008399D01*
X698706Y1008306D01*
X698777Y1008217D01*
X698851Y1008129D01*
X698927Y1008045D01*
X699006Y1007962D01*
X699089Y1007883D01*
X699173Y1007807D01*
X699261Y1007733D01*
X699350Y1007662D01*
X699443Y1007595D01*
X699537Y1007531D01*
X699634Y1007470D01*
X699732Y1007412D01*
X699833Y1007358D01*
X699935Y1007307D01*
X700039Y1007260D01*
X700144Y1007216D01*
X700251Y1007176D01*
X700359Y1007140D01*
X700469Y1007107D01*
X700579Y1007078D01*
X700691Y1007053D01*
X700803Y1007032D01*
X700916Y1007014D01*
X701029Y1007001D01*
X701143Y1006991D01*
X701257Y1006985D01*
X701371Y1006983D01*
X702486Y1006983D01*
X712344Y1006983D02*
X717918Y1006983D01*
X712344Y1006983D02*
X712230Y1006985D01*
X712116Y1006991D01*
X712002Y1007001D01*
X711889Y1007014D01*
X711776Y1007032D01*
X711664Y1007053D01*
X711552Y1007078D01*
X711442Y1007107D01*
X711332Y1007140D01*
X711224Y1007176D01*
X711117Y1007216D01*
X711012Y1007260D01*
X710908Y1007307D01*
X710806Y1007358D01*
X710705Y1007412D01*
X710607Y1007470D01*
X710510Y1007531D01*
X710416Y1007595D01*
X710323Y1007662D01*
X710234Y1007733D01*
X710146Y1007807D01*
X710062Y1007883D01*
X709979Y1007962D01*
X709900Y1008045D01*
X709824Y1008129D01*
X709750Y1008217D01*
X709679Y1008306D01*
X709612Y1008399D01*
X709548Y1008493D01*
X709487Y1008590D01*
X709429Y1008688D01*
X709375Y1008789D01*
X709324Y1008891D01*
X709277Y1008995D01*
X709233Y1009100D01*
X709193Y1009207D01*
X709157Y1009315D01*
X709124Y1009425D01*
X709095Y1009535D01*
X709070Y1009647D01*
X709049Y1009759D01*
X709031Y1009872D01*
X709018Y1009985D01*
X709008Y1010099D01*
X709002Y1010213D01*
X709000Y1010327D01*
X709000Y1015901D01*
X709002Y1016033D01*
X709008Y1016165D01*
X709018Y1016297D01*
X709031Y1016428D01*
X709049Y1016559D01*
X709070Y1016690D01*
X709096Y1016819D01*
X709125Y1016948D01*
X709158Y1017076D01*
X709194Y1017203D01*
X709235Y1017329D01*
X709279Y1017454D01*
X709327Y1017577D01*
X709378Y1017699D01*
X709433Y1017819D01*
X709492Y1017937D01*
X709554Y1018054D01*
X709620Y1018169D01*
X709688Y1018281D01*
X709761Y1018392D01*
X709836Y1018501D01*
X709915Y1018607D01*
X709996Y1018711D01*
X710081Y1018812D01*
X710169Y1018911D01*
X710260Y1019007D01*
X710353Y1019100D01*
X710449Y1019191D01*
X710548Y1019279D01*
X710649Y1019364D01*
X710753Y1019445D01*
X710859Y1019524D01*
X710968Y1019599D01*
X711079Y1019672D01*
X711191Y1019740D01*
X711306Y1019806D01*
X711423Y1019868D01*
X711541Y1019927D01*
X711661Y1019982D01*
X711783Y1020033D01*
X711906Y1020081D01*
X712031Y1020125D01*
X712157Y1020166D01*
X712284Y1020202D01*
X712412Y1020235D01*
X712541Y1020264D01*
X712670Y1020290D01*
X712801Y1020311D01*
X712932Y1020329D01*
X713063Y1020342D01*
X713195Y1020352D01*
X713327Y1020358D01*
X713459Y1020360D01*
X713591Y1020358D01*
X713723Y1020352D01*
X713855Y1020342D01*
X713986Y1020329D01*
X714117Y1020311D01*
X714248Y1020290D01*
X714377Y1020264D01*
X714506Y1020235D01*
X714634Y1020202D01*
X714761Y1020166D01*
X714887Y1020125D01*
X715012Y1020081D01*
X715135Y1020033D01*
X715257Y1019982D01*
X715377Y1019927D01*
X715495Y1019868D01*
X715612Y1019806D01*
X715727Y1019740D01*
X715839Y1019672D01*
X715950Y1019599D01*
X716059Y1019524D01*
X716165Y1019445D01*
X716269Y1019364D01*
X716370Y1019279D01*
X716469Y1019191D01*
X716565Y1019100D01*
X716658Y1019007D01*
X716749Y1018911D01*
X716837Y1018812D01*
X716922Y1018711D01*
X717003Y1018607D01*
X717082Y1018501D01*
X717157Y1018392D01*
X717230Y1018281D01*
X717298Y1018169D01*
X717364Y1018054D01*
X717426Y1017937D01*
X717485Y1017819D01*
X717540Y1017699D01*
X717591Y1017577D01*
X717639Y1017454D01*
X717683Y1017329D01*
X717724Y1017203D01*
X717760Y1017076D01*
X717793Y1016948D01*
X717822Y1016819D01*
X717848Y1016690D01*
X717869Y1016559D01*
X717887Y1016428D01*
X717900Y1016297D01*
X717910Y1016165D01*
X717916Y1016033D01*
X717918Y1015901D01*
X717918Y1013671D01*
X709000Y1013671D01*
X725684Y1006983D02*
X725684Y1020360D01*
X731258Y1020360D01*
X731372Y1020358D01*
X731486Y1020352D01*
X731600Y1020342D01*
X731713Y1020329D01*
X731826Y1020311D01*
X731938Y1020290D01*
X732050Y1020265D01*
X732160Y1020236D01*
X732270Y1020203D01*
X732378Y1020167D01*
X732485Y1020127D01*
X732590Y1020083D01*
X732694Y1020036D01*
X732796Y1019985D01*
X732897Y1019931D01*
X732995Y1019873D01*
X733092Y1019812D01*
X733186Y1019748D01*
X733279Y1019681D01*
X733368Y1019610D01*
X733456Y1019536D01*
X733540Y1019460D01*
X733623Y1019381D01*
X733702Y1019298D01*
X733778Y1019214D01*
X733852Y1019126D01*
X733923Y1019037D01*
X733990Y1018944D01*
X734054Y1018850D01*
X734115Y1018754D01*
X734173Y1018655D01*
X734227Y1018554D01*
X734278Y1018452D01*
X734325Y1018348D01*
X734369Y1018243D01*
X734409Y1018136D01*
X734445Y1018028D01*
X734478Y1017918D01*
X734507Y1017808D01*
X734532Y1017696D01*
X734553Y1017584D01*
X734571Y1017471D01*
X734584Y1017358D01*
X734594Y1017244D01*
X734600Y1017130D01*
X734602Y1017016D01*
X734602Y1006983D01*
X744041Y1014786D02*
X749615Y1012557D01*
X744041Y1014787D02*
X743942Y1014828D01*
X743845Y1014873D01*
X743750Y1014922D01*
X743657Y1014974D01*
X743565Y1015030D01*
X743476Y1015089D01*
X743389Y1015151D01*
X743305Y1015217D01*
X743222Y1015285D01*
X743143Y1015357D01*
X743066Y1015431D01*
X742992Y1015508D01*
X742921Y1015588D01*
X742853Y1015670D01*
X742788Y1015755D01*
X742726Y1015842D01*
X742667Y1015932D01*
X742612Y1016023D01*
X742560Y1016117D01*
X742512Y1016212D01*
X742467Y1016310D01*
X742426Y1016408D01*
X742389Y1016508D01*
X742355Y1016610D01*
X742325Y1016713D01*
X742299Y1016816D01*
X742277Y1016921D01*
X742258Y1017026D01*
X742244Y1017132D01*
X742233Y1017239D01*
X742227Y1017345D01*
X742224Y1017452D01*
X742225Y1017559D01*
X742231Y1017666D01*
X742240Y1017773D01*
X742253Y1017879D01*
X742270Y1017984D01*
X742291Y1018089D01*
X742316Y1018193D01*
X742345Y1018296D01*
X742377Y1018398D01*
X742413Y1018499D01*
X742453Y1018598D01*
X742497Y1018696D01*
X742544Y1018792D01*
X742595Y1018886D01*
X742649Y1018978D01*
X742706Y1019068D01*
X742767Y1019156D01*
X742831Y1019242D01*
X742898Y1019325D01*
X742968Y1019406D01*
X743041Y1019484D01*
X743117Y1019559D01*
X743196Y1019632D01*
X743277Y1019701D01*
X743361Y1019768D01*
X743447Y1019831D01*
X743536Y1019891D01*
X743626Y1019948D01*
X743719Y1020001D01*
X743813Y1020051D01*
X743910Y1020097D01*
X744008Y1020140D01*
X744107Y1020179D01*
X744208Y1020214D01*
X744310Y1020246D01*
X744414Y1020274D01*
X744518Y1020298D01*
X744623Y1020318D01*
X744729Y1020334D01*
X744835Y1020346D01*
X744941Y1020355D01*
X745048Y1020359D01*
X745155Y1020360D01*
X745156Y1020360D02*
X745460Y1020352D01*
X745764Y1020336D01*
X746068Y1020314D01*
X746371Y1020284D01*
X746673Y1020247D01*
X746974Y1020202D01*
X747274Y1020151D01*
X747572Y1020092D01*
X747870Y1020026D01*
X748165Y1019952D01*
X748459Y1019872D01*
X748750Y1019785D01*
X749040Y1019691D01*
X749327Y1019590D01*
X749611Y1019481D01*
X749893Y1019367D01*
X750172Y1019245D01*
X749614Y1012556D02*
X749713Y1012515D01*
X749810Y1012470D01*
X749905Y1012421D01*
X749998Y1012369D01*
X750090Y1012313D01*
X750179Y1012254D01*
X750266Y1012192D01*
X750350Y1012126D01*
X750433Y1012058D01*
X750512Y1011986D01*
X750589Y1011912D01*
X750663Y1011835D01*
X750734Y1011755D01*
X750802Y1011673D01*
X750867Y1011588D01*
X750929Y1011501D01*
X750988Y1011411D01*
X751043Y1011320D01*
X751095Y1011226D01*
X751143Y1011131D01*
X751188Y1011033D01*
X751229Y1010935D01*
X751266Y1010835D01*
X751300Y1010733D01*
X751330Y1010630D01*
X751356Y1010527D01*
X751378Y1010422D01*
X751397Y1010317D01*
X751411Y1010211D01*
X751422Y1010104D01*
X751428Y1009998D01*
X751431Y1009891D01*
X751430Y1009784D01*
X751424Y1009677D01*
X751415Y1009570D01*
X751402Y1009464D01*
X751385Y1009359D01*
X751364Y1009254D01*
X751339Y1009150D01*
X751310Y1009047D01*
X751278Y1008945D01*
X751242Y1008844D01*
X751202Y1008745D01*
X751158Y1008647D01*
X751111Y1008551D01*
X751060Y1008457D01*
X751006Y1008365D01*
X750949Y1008275D01*
X750888Y1008187D01*
X750824Y1008101D01*
X750757Y1008018D01*
X750687Y1007937D01*
X750614Y1007859D01*
X750538Y1007784D01*
X750459Y1007711D01*
X750378Y1007642D01*
X750294Y1007575D01*
X750208Y1007512D01*
X750119Y1007452D01*
X750029Y1007395D01*
X749936Y1007342D01*
X749842Y1007292D01*
X749745Y1007246D01*
X749647Y1007203D01*
X749548Y1007164D01*
X749447Y1007129D01*
X749345Y1007097D01*
X749241Y1007069D01*
X749137Y1007045D01*
X749032Y1007025D01*
X748926Y1007009D01*
X748820Y1006997D01*
X748714Y1006988D01*
X748607Y1006984D01*
X748500Y1006983D01*
X748053Y1006995D01*
X747606Y1007017D01*
X747160Y1007050D01*
X746715Y1007093D01*
X746271Y1007147D01*
X745829Y1007211D01*
X745388Y1007286D01*
X744949Y1007371D01*
X744512Y1007467D01*
X744078Y1007573D01*
X743646Y1007689D01*
X743217Y1007815D01*
X742791Y1007951D01*
X742369Y1008098D01*
X758569Y1006983D02*
X758569Y1020360D01*
X758011Y1025934D02*
X758011Y1027049D01*
X759126Y1027049D01*
X759126Y1025934D01*
X758011Y1025934D01*
X765851Y1015901D02*
X765851Y1011442D01*
X765851Y1015901D02*
X765853Y1016033D01*
X765859Y1016165D01*
X765869Y1016297D01*
X765882Y1016428D01*
X765900Y1016559D01*
X765921Y1016690D01*
X765947Y1016819D01*
X765976Y1016948D01*
X766009Y1017076D01*
X766045Y1017203D01*
X766086Y1017329D01*
X766130Y1017454D01*
X766178Y1017577D01*
X766229Y1017699D01*
X766284Y1017819D01*
X766343Y1017937D01*
X766405Y1018054D01*
X766471Y1018169D01*
X766539Y1018281D01*
X766612Y1018392D01*
X766687Y1018501D01*
X766766Y1018607D01*
X766847Y1018711D01*
X766932Y1018812D01*
X767020Y1018911D01*
X767111Y1019007D01*
X767204Y1019100D01*
X767300Y1019191D01*
X767399Y1019279D01*
X767500Y1019364D01*
X767604Y1019445D01*
X767710Y1019524D01*
X767819Y1019599D01*
X767930Y1019672D01*
X768042Y1019740D01*
X768157Y1019806D01*
X768274Y1019868D01*
X768392Y1019927D01*
X768512Y1019982D01*
X768634Y1020033D01*
X768757Y1020081D01*
X768882Y1020125D01*
X769008Y1020166D01*
X769135Y1020202D01*
X769263Y1020235D01*
X769392Y1020264D01*
X769521Y1020290D01*
X769652Y1020311D01*
X769783Y1020329D01*
X769914Y1020342D01*
X770046Y1020352D01*
X770178Y1020358D01*
X770310Y1020360D01*
X770442Y1020358D01*
X770574Y1020352D01*
X770706Y1020342D01*
X770837Y1020329D01*
X770968Y1020311D01*
X771099Y1020290D01*
X771228Y1020264D01*
X771357Y1020235D01*
X771485Y1020202D01*
X771612Y1020166D01*
X771738Y1020125D01*
X771863Y1020081D01*
X771986Y1020033D01*
X772108Y1019982D01*
X772228Y1019927D01*
X772346Y1019868D01*
X772463Y1019806D01*
X772578Y1019740D01*
X772690Y1019672D01*
X772801Y1019599D01*
X772910Y1019524D01*
X773016Y1019445D01*
X773120Y1019364D01*
X773221Y1019279D01*
X773320Y1019191D01*
X773416Y1019100D01*
X773509Y1019007D01*
X773600Y1018911D01*
X773688Y1018812D01*
X773773Y1018711D01*
X773854Y1018607D01*
X773933Y1018501D01*
X774008Y1018392D01*
X774081Y1018281D01*
X774149Y1018169D01*
X774215Y1018054D01*
X774277Y1017937D01*
X774336Y1017819D01*
X774391Y1017699D01*
X774442Y1017577D01*
X774490Y1017454D01*
X774534Y1017329D01*
X774575Y1017203D01*
X774611Y1017076D01*
X774644Y1016948D01*
X774673Y1016819D01*
X774699Y1016690D01*
X774720Y1016559D01*
X774738Y1016428D01*
X774751Y1016297D01*
X774761Y1016165D01*
X774767Y1016033D01*
X774769Y1015901D01*
X774769Y1011442D01*
X774767Y1011310D01*
X774761Y1011178D01*
X774751Y1011046D01*
X774738Y1010915D01*
X774720Y1010784D01*
X774699Y1010653D01*
X774673Y1010524D01*
X774644Y1010395D01*
X774611Y1010267D01*
X774575Y1010140D01*
X774534Y1010014D01*
X774490Y1009889D01*
X774442Y1009766D01*
X774391Y1009644D01*
X774336Y1009524D01*
X774277Y1009406D01*
X774215Y1009289D01*
X774149Y1009174D01*
X774081Y1009062D01*
X774008Y1008951D01*
X773933Y1008842D01*
X773854Y1008736D01*
X773773Y1008632D01*
X773688Y1008531D01*
X773600Y1008432D01*
X773509Y1008336D01*
X773416Y1008243D01*
X773320Y1008152D01*
X773221Y1008064D01*
X773120Y1007979D01*
X773016Y1007898D01*
X772910Y1007819D01*
X772801Y1007744D01*
X772690Y1007671D01*
X772578Y1007603D01*
X772463Y1007537D01*
X772346Y1007475D01*
X772228Y1007416D01*
X772108Y1007361D01*
X771986Y1007310D01*
X771863Y1007262D01*
X771738Y1007218D01*
X771612Y1007177D01*
X771485Y1007141D01*
X771357Y1007108D01*
X771228Y1007079D01*
X771099Y1007053D01*
X770968Y1007032D01*
X770837Y1007014D01*
X770706Y1007001D01*
X770574Y1006991D01*
X770442Y1006985D01*
X770310Y1006983D01*
X770178Y1006985D01*
X770046Y1006991D01*
X769914Y1007001D01*
X769783Y1007014D01*
X769652Y1007032D01*
X769521Y1007053D01*
X769392Y1007079D01*
X769263Y1007108D01*
X769135Y1007141D01*
X769008Y1007177D01*
X768882Y1007218D01*
X768757Y1007262D01*
X768634Y1007310D01*
X768512Y1007361D01*
X768392Y1007416D01*
X768274Y1007475D01*
X768157Y1007537D01*
X768042Y1007603D01*
X767930Y1007671D01*
X767819Y1007744D01*
X767710Y1007819D01*
X767604Y1007898D01*
X767500Y1007979D01*
X767399Y1008064D01*
X767300Y1008152D01*
X767204Y1008243D01*
X767111Y1008336D01*
X767020Y1008432D01*
X766932Y1008531D01*
X766847Y1008632D01*
X766766Y1008736D01*
X766687Y1008842D01*
X766612Y1008951D01*
X766539Y1009062D01*
X766471Y1009174D01*
X766405Y1009289D01*
X766343Y1009406D01*
X766284Y1009524D01*
X766229Y1009644D01*
X766178Y1009766D01*
X766130Y1009889D01*
X766086Y1010014D01*
X766045Y1010140D01*
X766009Y1010267D01*
X765976Y1010395D01*
X765947Y1010524D01*
X765921Y1010653D01*
X765900Y1010784D01*
X765882Y1010915D01*
X765869Y1011046D01*
X765859Y1011178D01*
X765853Y1011310D01*
X765851Y1011442D01*
X782535Y1006983D02*
X782535Y1020360D01*
X788109Y1020360D01*
X788223Y1020358D01*
X788337Y1020352D01*
X788451Y1020342D01*
X788564Y1020329D01*
X788677Y1020311D01*
X788789Y1020290D01*
X788901Y1020265D01*
X789011Y1020236D01*
X789121Y1020203D01*
X789229Y1020167D01*
X789336Y1020127D01*
X789441Y1020083D01*
X789545Y1020036D01*
X789647Y1019985D01*
X789748Y1019931D01*
X789846Y1019873D01*
X789943Y1019812D01*
X790037Y1019748D01*
X790130Y1019681D01*
X790219Y1019610D01*
X790307Y1019536D01*
X790391Y1019460D01*
X790474Y1019381D01*
X790553Y1019298D01*
X790629Y1019214D01*
X790703Y1019126D01*
X790774Y1019037D01*
X790841Y1018944D01*
X790905Y1018850D01*
X790966Y1018754D01*
X791024Y1018655D01*
X791078Y1018554D01*
X791129Y1018452D01*
X791176Y1018348D01*
X791220Y1018243D01*
X791260Y1018136D01*
X791296Y1018028D01*
X791329Y1017918D01*
X791358Y1017808D01*
X791383Y1017696D01*
X791404Y1017584D01*
X791422Y1017471D01*
X791435Y1017358D01*
X791445Y1017244D01*
X791451Y1017130D01*
X791453Y1017016D01*
X791453Y1006983D01*
X810033Y1018130D02*
X815607Y1018130D01*
X815607Y1018131D02*
X815755Y1018129D01*
X815904Y1018123D01*
X816052Y1018113D01*
X816199Y1018099D01*
X816347Y1018082D01*
X816494Y1018060D01*
X816640Y1018034D01*
X816785Y1018005D01*
X816930Y1017972D01*
X817074Y1017935D01*
X817216Y1017894D01*
X817358Y1017849D01*
X817498Y1017800D01*
X817637Y1017748D01*
X817774Y1017692D01*
X817910Y1017633D01*
X818045Y1017570D01*
X818177Y1017503D01*
X818308Y1017433D01*
X818437Y1017359D01*
X818564Y1017282D01*
X818688Y1017202D01*
X818811Y1017118D01*
X818931Y1017031D01*
X819049Y1016941D01*
X819165Y1016848D01*
X819278Y1016752D01*
X819388Y1016653D01*
X819496Y1016551D01*
X819601Y1016446D01*
X819703Y1016338D01*
X819802Y1016228D01*
X819898Y1016115D01*
X819991Y1015999D01*
X820081Y1015881D01*
X820168Y1015761D01*
X820252Y1015638D01*
X820332Y1015514D01*
X820409Y1015387D01*
X820483Y1015258D01*
X820553Y1015127D01*
X820620Y1014995D01*
X820683Y1014860D01*
X820742Y1014724D01*
X820798Y1014587D01*
X820850Y1014448D01*
X820899Y1014308D01*
X820944Y1014166D01*
X820985Y1014024D01*
X821022Y1013880D01*
X821055Y1013735D01*
X821084Y1013590D01*
X821110Y1013444D01*
X821132Y1013297D01*
X821149Y1013149D01*
X821163Y1013002D01*
X821173Y1012854D01*
X821179Y1012705D01*
X821181Y1012557D01*
X821179Y1012409D01*
X821173Y1012260D01*
X821163Y1012112D01*
X821149Y1011965D01*
X821132Y1011817D01*
X821110Y1011670D01*
X821084Y1011524D01*
X821055Y1011379D01*
X821022Y1011234D01*
X820985Y1011090D01*
X820944Y1010948D01*
X820899Y1010806D01*
X820850Y1010666D01*
X820798Y1010527D01*
X820742Y1010390D01*
X820683Y1010254D01*
X820620Y1010119D01*
X820553Y1009987D01*
X820483Y1009856D01*
X820409Y1009727D01*
X820332Y1009600D01*
X820252Y1009476D01*
X820168Y1009353D01*
X820081Y1009233D01*
X819991Y1009115D01*
X819898Y1008999D01*
X819802Y1008886D01*
X819703Y1008776D01*
X819601Y1008668D01*
X819496Y1008563D01*
X819388Y1008461D01*
X819278Y1008362D01*
X819165Y1008266D01*
X819049Y1008173D01*
X818931Y1008083D01*
X818811Y1007996D01*
X818688Y1007912D01*
X818564Y1007832D01*
X818437Y1007755D01*
X818308Y1007681D01*
X818177Y1007611D01*
X818045Y1007544D01*
X817910Y1007481D01*
X817774Y1007422D01*
X817637Y1007366D01*
X817498Y1007314D01*
X817358Y1007265D01*
X817216Y1007220D01*
X817074Y1007179D01*
X816930Y1007142D01*
X816785Y1007109D01*
X816640Y1007080D01*
X816494Y1007054D01*
X816347Y1007032D01*
X816199Y1007015D01*
X816052Y1007001D01*
X815904Y1006991D01*
X815755Y1006985D01*
X815607Y1006983D01*
X810033Y1006983D01*
X810033Y1027049D01*
X815607Y1027049D01*
X815739Y1027047D01*
X815871Y1027041D01*
X816003Y1027031D01*
X816134Y1027018D01*
X816265Y1027000D01*
X816396Y1026979D01*
X816525Y1026953D01*
X816654Y1026924D01*
X816782Y1026891D01*
X816909Y1026855D01*
X817035Y1026814D01*
X817160Y1026770D01*
X817283Y1026722D01*
X817405Y1026671D01*
X817525Y1026616D01*
X817643Y1026557D01*
X817760Y1026495D01*
X817875Y1026429D01*
X817987Y1026361D01*
X818098Y1026288D01*
X818207Y1026213D01*
X818313Y1026134D01*
X818417Y1026053D01*
X818518Y1025968D01*
X818617Y1025880D01*
X818713Y1025789D01*
X818806Y1025696D01*
X818897Y1025600D01*
X818985Y1025501D01*
X819070Y1025400D01*
X819151Y1025296D01*
X819230Y1025190D01*
X819305Y1025081D01*
X819378Y1024970D01*
X819446Y1024858D01*
X819512Y1024743D01*
X819574Y1024626D01*
X819633Y1024508D01*
X819688Y1024388D01*
X819739Y1024266D01*
X819787Y1024143D01*
X819831Y1024018D01*
X819872Y1023892D01*
X819908Y1023765D01*
X819941Y1023637D01*
X819970Y1023508D01*
X819996Y1023379D01*
X820017Y1023248D01*
X820035Y1023117D01*
X820048Y1022986D01*
X820058Y1022854D01*
X820064Y1022722D01*
X820066Y1022590D01*
X820064Y1022458D01*
X820058Y1022326D01*
X820048Y1022194D01*
X820035Y1022063D01*
X820017Y1021932D01*
X819996Y1021801D01*
X819970Y1021672D01*
X819941Y1021543D01*
X819908Y1021415D01*
X819872Y1021288D01*
X819831Y1021162D01*
X819787Y1021037D01*
X819739Y1020914D01*
X819688Y1020792D01*
X819633Y1020672D01*
X819574Y1020554D01*
X819512Y1020437D01*
X819446Y1020322D01*
X819378Y1020210D01*
X819305Y1020099D01*
X819230Y1019990D01*
X819151Y1019884D01*
X819070Y1019780D01*
X818985Y1019679D01*
X818897Y1019580D01*
X818806Y1019484D01*
X818713Y1019391D01*
X818617Y1019300D01*
X818518Y1019212D01*
X818417Y1019127D01*
X818313Y1019046D01*
X818207Y1018967D01*
X818098Y1018892D01*
X817987Y1018819D01*
X817875Y1018751D01*
X817760Y1018685D01*
X817643Y1018623D01*
X817525Y1018564D01*
X817405Y1018509D01*
X817283Y1018458D01*
X817160Y1018410D01*
X817035Y1018366D01*
X816909Y1018325D01*
X816782Y1018289D01*
X816654Y1018256D01*
X816525Y1018227D01*
X816396Y1018201D01*
X816265Y1018180D01*
X816134Y1018162D01*
X816003Y1018149D01*
X815871Y1018139D01*
X815739Y1018133D01*
X815607Y1018131D01*
X827645Y1015901D02*
X827645Y1011442D01*
X827645Y1015901D02*
X827647Y1016033D01*
X827653Y1016165D01*
X827663Y1016297D01*
X827676Y1016428D01*
X827694Y1016559D01*
X827715Y1016690D01*
X827741Y1016819D01*
X827770Y1016948D01*
X827803Y1017076D01*
X827839Y1017203D01*
X827880Y1017329D01*
X827924Y1017454D01*
X827972Y1017577D01*
X828023Y1017699D01*
X828078Y1017819D01*
X828137Y1017937D01*
X828199Y1018054D01*
X828265Y1018169D01*
X828333Y1018281D01*
X828406Y1018392D01*
X828481Y1018501D01*
X828560Y1018607D01*
X828641Y1018711D01*
X828726Y1018812D01*
X828814Y1018911D01*
X828905Y1019007D01*
X828998Y1019100D01*
X829094Y1019191D01*
X829193Y1019279D01*
X829294Y1019364D01*
X829398Y1019445D01*
X829504Y1019524D01*
X829613Y1019599D01*
X829724Y1019672D01*
X829836Y1019740D01*
X829951Y1019806D01*
X830068Y1019868D01*
X830186Y1019927D01*
X830306Y1019982D01*
X830428Y1020033D01*
X830551Y1020081D01*
X830676Y1020125D01*
X830802Y1020166D01*
X830929Y1020202D01*
X831057Y1020235D01*
X831186Y1020264D01*
X831315Y1020290D01*
X831446Y1020311D01*
X831577Y1020329D01*
X831708Y1020342D01*
X831840Y1020352D01*
X831972Y1020358D01*
X832104Y1020360D01*
X832236Y1020358D01*
X832368Y1020352D01*
X832500Y1020342D01*
X832631Y1020329D01*
X832762Y1020311D01*
X832893Y1020290D01*
X833022Y1020264D01*
X833151Y1020235D01*
X833279Y1020202D01*
X833406Y1020166D01*
X833532Y1020125D01*
X833657Y1020081D01*
X833780Y1020033D01*
X833902Y1019982D01*
X834022Y1019927D01*
X834140Y1019868D01*
X834257Y1019806D01*
X834372Y1019740D01*
X834484Y1019672D01*
X834595Y1019599D01*
X834704Y1019524D01*
X834810Y1019445D01*
X834914Y1019364D01*
X835015Y1019279D01*
X835114Y1019191D01*
X835210Y1019100D01*
X835303Y1019007D01*
X835394Y1018911D01*
X835482Y1018812D01*
X835567Y1018711D01*
X835648Y1018607D01*
X835727Y1018501D01*
X835802Y1018392D01*
X835875Y1018281D01*
X835943Y1018169D01*
X836009Y1018054D01*
X836071Y1017937D01*
X836130Y1017819D01*
X836185Y1017699D01*
X836236Y1017577D01*
X836284Y1017454D01*
X836328Y1017329D01*
X836369Y1017203D01*
X836405Y1017076D01*
X836438Y1016948D01*
X836467Y1016819D01*
X836493Y1016690D01*
X836514Y1016559D01*
X836532Y1016428D01*
X836545Y1016297D01*
X836555Y1016165D01*
X836561Y1016033D01*
X836563Y1015901D01*
X836563Y1011442D01*
X836561Y1011310D01*
X836555Y1011178D01*
X836545Y1011046D01*
X836532Y1010915D01*
X836514Y1010784D01*
X836493Y1010653D01*
X836467Y1010524D01*
X836438Y1010395D01*
X836405Y1010267D01*
X836369Y1010140D01*
X836328Y1010014D01*
X836284Y1009889D01*
X836236Y1009766D01*
X836185Y1009644D01*
X836130Y1009524D01*
X836071Y1009406D01*
X836009Y1009289D01*
X835943Y1009174D01*
X835875Y1009062D01*
X835802Y1008951D01*
X835727Y1008842D01*
X835648Y1008736D01*
X835567Y1008632D01*
X835482Y1008531D01*
X835394Y1008432D01*
X835303Y1008336D01*
X835210Y1008243D01*
X835114Y1008152D01*
X835015Y1008064D01*
X834914Y1007979D01*
X834810Y1007898D01*
X834704Y1007819D01*
X834595Y1007744D01*
X834484Y1007671D01*
X834372Y1007603D01*
X834257Y1007537D01*
X834140Y1007475D01*
X834022Y1007416D01*
X833902Y1007361D01*
X833780Y1007310D01*
X833657Y1007262D01*
X833532Y1007218D01*
X833406Y1007177D01*
X833279Y1007141D01*
X833151Y1007108D01*
X833022Y1007079D01*
X832893Y1007053D01*
X832762Y1007032D01*
X832631Y1007014D01*
X832500Y1007001D01*
X832368Y1006991D01*
X832236Y1006985D01*
X832104Y1006983D01*
X831972Y1006985D01*
X831840Y1006991D01*
X831708Y1007001D01*
X831577Y1007014D01*
X831446Y1007032D01*
X831315Y1007053D01*
X831186Y1007079D01*
X831057Y1007108D01*
X830929Y1007141D01*
X830802Y1007177D01*
X830676Y1007218D01*
X830551Y1007262D01*
X830428Y1007310D01*
X830306Y1007361D01*
X830186Y1007416D01*
X830068Y1007475D01*
X829951Y1007537D01*
X829836Y1007603D01*
X829724Y1007671D01*
X829613Y1007744D01*
X829504Y1007819D01*
X829398Y1007898D01*
X829294Y1007979D01*
X829193Y1008064D01*
X829094Y1008152D01*
X828998Y1008243D01*
X828905Y1008336D01*
X828814Y1008432D01*
X828726Y1008531D01*
X828641Y1008632D01*
X828560Y1008736D01*
X828481Y1008842D01*
X828406Y1008951D01*
X828333Y1009062D01*
X828265Y1009174D01*
X828199Y1009289D01*
X828137Y1009406D01*
X828078Y1009524D01*
X828023Y1009644D01*
X827972Y1009766D01*
X827924Y1009889D01*
X827880Y1010014D01*
X827839Y1010140D01*
X827803Y1010267D01*
X827770Y1010395D01*
X827741Y1010524D01*
X827715Y1010653D01*
X827694Y1010784D01*
X827676Y1010915D01*
X827663Y1011046D01*
X827653Y1011178D01*
X827647Y1011310D01*
X827645Y1011442D01*
X847548Y1014786D02*
X852565Y1014786D01*
X847548Y1014786D02*
X847424Y1014784D01*
X847301Y1014778D01*
X847177Y1014768D01*
X847054Y1014755D01*
X846931Y1014737D01*
X846810Y1014715D01*
X846688Y1014690D01*
X846568Y1014661D01*
X846449Y1014628D01*
X846330Y1014591D01*
X846213Y1014551D01*
X846098Y1014506D01*
X845984Y1014459D01*
X845871Y1014407D01*
X845760Y1014352D01*
X845651Y1014294D01*
X845544Y1014232D01*
X845438Y1014167D01*
X845335Y1014098D01*
X845234Y1014026D01*
X845136Y1013951D01*
X845040Y1013873D01*
X844946Y1013792D01*
X844855Y1013708D01*
X844767Y1013621D01*
X844682Y1013532D01*
X844599Y1013439D01*
X844519Y1013344D01*
X844443Y1013247D01*
X844370Y1013147D01*
X844299Y1013045D01*
X844232Y1012941D01*
X844169Y1012835D01*
X844109Y1012727D01*
X844052Y1012617D01*
X843999Y1012505D01*
X843949Y1012392D01*
X843903Y1012277D01*
X843861Y1012160D01*
X843822Y1012043D01*
X843787Y1011924D01*
X843756Y1011804D01*
X843729Y1011683D01*
X843705Y1011562D01*
X843686Y1011439D01*
X843670Y1011316D01*
X843658Y1011193D01*
X843650Y1011070D01*
X843646Y1010946D01*
X843646Y1010822D01*
X843650Y1010698D01*
X843658Y1010575D01*
X843670Y1010452D01*
X843686Y1010329D01*
X843705Y1010206D01*
X843729Y1010085D01*
X843756Y1009964D01*
X843787Y1009844D01*
X843822Y1009725D01*
X843861Y1009608D01*
X843903Y1009491D01*
X843949Y1009376D01*
X843999Y1009263D01*
X844052Y1009151D01*
X844109Y1009041D01*
X844169Y1008933D01*
X844232Y1008827D01*
X844299Y1008723D01*
X844370Y1008621D01*
X844443Y1008521D01*
X844519Y1008424D01*
X844599Y1008329D01*
X844682Y1008236D01*
X844767Y1008147D01*
X844855Y1008060D01*
X844946Y1007976D01*
X845040Y1007895D01*
X845136Y1007817D01*
X845234Y1007742D01*
X845335Y1007670D01*
X845438Y1007601D01*
X845544Y1007536D01*
X845651Y1007474D01*
X845760Y1007416D01*
X845871Y1007361D01*
X845984Y1007309D01*
X846098Y1007262D01*
X846213Y1007217D01*
X846330Y1007177D01*
X846449Y1007140D01*
X846568Y1007107D01*
X846688Y1007078D01*
X846810Y1007053D01*
X846931Y1007031D01*
X847054Y1007013D01*
X847177Y1007000D01*
X847301Y1006990D01*
X847424Y1006984D01*
X847548Y1006982D01*
X847548Y1006983D02*
X852565Y1006983D01*
X852565Y1017016D01*
X852564Y1017016D02*
X852562Y1017130D01*
X852556Y1017244D01*
X852546Y1017358D01*
X852533Y1017471D01*
X852515Y1017584D01*
X852494Y1017696D01*
X852469Y1017808D01*
X852440Y1017918D01*
X852407Y1018028D01*
X852371Y1018136D01*
X852331Y1018243D01*
X852287Y1018348D01*
X852240Y1018452D01*
X852189Y1018554D01*
X852135Y1018655D01*
X852077Y1018753D01*
X852016Y1018850D01*
X851952Y1018944D01*
X851885Y1019037D01*
X851814Y1019126D01*
X851740Y1019214D01*
X851664Y1019298D01*
X851585Y1019381D01*
X851502Y1019460D01*
X851418Y1019536D01*
X851330Y1019610D01*
X851241Y1019681D01*
X851148Y1019748D01*
X851054Y1019812D01*
X850957Y1019873D01*
X850859Y1019931D01*
X850758Y1019985D01*
X850656Y1020036D01*
X850552Y1020083D01*
X850447Y1020127D01*
X850340Y1020167D01*
X850232Y1020203D01*
X850122Y1020236D01*
X850012Y1020265D01*
X849900Y1020290D01*
X849788Y1020311D01*
X849675Y1020329D01*
X849562Y1020342D01*
X849448Y1020352D01*
X849334Y1020358D01*
X849220Y1020360D01*
X844761Y1020360D01*
X861092Y1020360D02*
X861092Y1006983D01*
X861092Y1020360D02*
X867781Y1020360D01*
X867781Y1018130D01*
X882226Y1027049D02*
X882226Y1006983D01*
X876652Y1006983D01*
X876538Y1006985D01*
X876424Y1006991D01*
X876310Y1007001D01*
X876197Y1007014D01*
X876084Y1007032D01*
X875972Y1007053D01*
X875860Y1007078D01*
X875750Y1007107D01*
X875640Y1007140D01*
X875532Y1007176D01*
X875425Y1007216D01*
X875320Y1007260D01*
X875216Y1007307D01*
X875114Y1007358D01*
X875013Y1007412D01*
X874915Y1007470D01*
X874818Y1007531D01*
X874724Y1007595D01*
X874631Y1007662D01*
X874542Y1007733D01*
X874454Y1007807D01*
X874370Y1007883D01*
X874287Y1007962D01*
X874208Y1008045D01*
X874132Y1008129D01*
X874058Y1008217D01*
X873987Y1008306D01*
X873920Y1008399D01*
X873856Y1008493D01*
X873795Y1008590D01*
X873737Y1008688D01*
X873683Y1008789D01*
X873632Y1008891D01*
X873585Y1008995D01*
X873541Y1009100D01*
X873501Y1009207D01*
X873465Y1009315D01*
X873432Y1009425D01*
X873403Y1009535D01*
X873378Y1009647D01*
X873357Y1009759D01*
X873339Y1009872D01*
X873326Y1009985D01*
X873316Y1010099D01*
X873310Y1010213D01*
X873308Y1010327D01*
X873308Y1017016D01*
X873310Y1017130D01*
X873316Y1017244D01*
X873326Y1017358D01*
X873339Y1017471D01*
X873357Y1017584D01*
X873378Y1017696D01*
X873403Y1017808D01*
X873432Y1017918D01*
X873465Y1018028D01*
X873501Y1018136D01*
X873541Y1018243D01*
X873585Y1018348D01*
X873632Y1018452D01*
X873683Y1018554D01*
X873737Y1018655D01*
X873795Y1018753D01*
X873856Y1018850D01*
X873920Y1018944D01*
X873987Y1019037D01*
X874058Y1019126D01*
X874132Y1019214D01*
X874208Y1019298D01*
X874287Y1019381D01*
X874370Y1019460D01*
X874454Y1019536D01*
X874542Y1019610D01*
X874631Y1019681D01*
X874724Y1019748D01*
X874818Y1019812D01*
X874915Y1019873D01*
X875013Y1019931D01*
X875114Y1019985D01*
X875216Y1020036D01*
X875320Y1020083D01*
X875425Y1020127D01*
X875532Y1020167D01*
X875640Y1020203D01*
X875750Y1020236D01*
X875860Y1020265D01*
X875972Y1020290D01*
X876084Y1020311D01*
X876197Y1020329D01*
X876310Y1020342D01*
X876424Y1020352D01*
X876538Y1020358D01*
X876652Y1020360D01*
X882226Y1020360D01*
X338297Y990037D02*
X338297Y969971D01*
X338297Y990037D02*
X347216Y990037D01*
X347216Y981118D02*
X338297Y981118D01*
X353596Y978889D02*
X353596Y974430D01*
X353596Y978889D02*
X353598Y979021D01*
X353604Y979153D01*
X353614Y979285D01*
X353627Y979416D01*
X353645Y979547D01*
X353666Y979678D01*
X353692Y979807D01*
X353721Y979936D01*
X353754Y980064D01*
X353790Y980191D01*
X353831Y980317D01*
X353875Y980442D01*
X353923Y980565D01*
X353974Y980687D01*
X354029Y980807D01*
X354088Y980925D01*
X354150Y981042D01*
X354216Y981157D01*
X354284Y981269D01*
X354357Y981380D01*
X354432Y981489D01*
X354511Y981595D01*
X354592Y981699D01*
X354677Y981800D01*
X354765Y981899D01*
X354856Y981995D01*
X354949Y982088D01*
X355045Y982179D01*
X355144Y982267D01*
X355245Y982352D01*
X355349Y982433D01*
X355455Y982512D01*
X355564Y982587D01*
X355675Y982660D01*
X355787Y982728D01*
X355902Y982794D01*
X356019Y982856D01*
X356137Y982915D01*
X356257Y982970D01*
X356379Y983021D01*
X356502Y983069D01*
X356627Y983113D01*
X356753Y983154D01*
X356880Y983190D01*
X357008Y983223D01*
X357137Y983252D01*
X357266Y983278D01*
X357397Y983299D01*
X357528Y983317D01*
X357659Y983330D01*
X357791Y983340D01*
X357923Y983346D01*
X358055Y983348D01*
X358187Y983346D01*
X358319Y983340D01*
X358451Y983330D01*
X358582Y983317D01*
X358713Y983299D01*
X358844Y983278D01*
X358973Y983252D01*
X359102Y983223D01*
X359230Y983190D01*
X359357Y983154D01*
X359483Y983113D01*
X359608Y983069D01*
X359731Y983021D01*
X359853Y982970D01*
X359973Y982915D01*
X360091Y982856D01*
X360208Y982794D01*
X360323Y982728D01*
X360435Y982660D01*
X360546Y982587D01*
X360655Y982512D01*
X360761Y982433D01*
X360865Y982352D01*
X360966Y982267D01*
X361065Y982179D01*
X361161Y982088D01*
X361254Y981995D01*
X361345Y981899D01*
X361433Y981800D01*
X361518Y981699D01*
X361599Y981595D01*
X361678Y981489D01*
X361753Y981380D01*
X361826Y981269D01*
X361894Y981157D01*
X361960Y981042D01*
X362022Y980925D01*
X362081Y980807D01*
X362136Y980687D01*
X362187Y980565D01*
X362235Y980442D01*
X362279Y980317D01*
X362320Y980191D01*
X362356Y980064D01*
X362389Y979936D01*
X362418Y979807D01*
X362444Y979678D01*
X362465Y979547D01*
X362483Y979416D01*
X362496Y979285D01*
X362506Y979153D01*
X362512Y979021D01*
X362514Y978889D01*
X362514Y974430D01*
X362512Y974298D01*
X362506Y974166D01*
X362496Y974034D01*
X362483Y973903D01*
X362465Y973772D01*
X362444Y973641D01*
X362418Y973512D01*
X362389Y973383D01*
X362356Y973255D01*
X362320Y973128D01*
X362279Y973002D01*
X362235Y972877D01*
X362187Y972754D01*
X362136Y972632D01*
X362081Y972512D01*
X362022Y972394D01*
X361960Y972277D01*
X361894Y972162D01*
X361826Y972050D01*
X361753Y971939D01*
X361678Y971830D01*
X361599Y971724D01*
X361518Y971620D01*
X361433Y971519D01*
X361345Y971420D01*
X361254Y971324D01*
X361161Y971231D01*
X361065Y971140D01*
X360966Y971052D01*
X360865Y970967D01*
X360761Y970886D01*
X360655Y970807D01*
X360546Y970732D01*
X360435Y970659D01*
X360323Y970591D01*
X360208Y970525D01*
X360091Y970463D01*
X359973Y970404D01*
X359853Y970349D01*
X359731Y970298D01*
X359608Y970250D01*
X359483Y970206D01*
X359357Y970165D01*
X359230Y970129D01*
X359102Y970096D01*
X358973Y970067D01*
X358844Y970041D01*
X358713Y970020D01*
X358582Y970002D01*
X358451Y969989D01*
X358319Y969979D01*
X358187Y969973D01*
X358055Y969971D01*
X357923Y969973D01*
X357791Y969979D01*
X357659Y969989D01*
X357528Y970002D01*
X357397Y970020D01*
X357266Y970041D01*
X357137Y970067D01*
X357008Y970096D01*
X356880Y970129D01*
X356753Y970165D01*
X356627Y970206D01*
X356502Y970250D01*
X356379Y970298D01*
X356257Y970349D01*
X356137Y970404D01*
X356019Y970463D01*
X355902Y970525D01*
X355787Y970591D01*
X355675Y970659D01*
X355564Y970732D01*
X355455Y970807D01*
X355349Y970886D01*
X355245Y970967D01*
X355144Y971052D01*
X355045Y971140D01*
X354949Y971231D01*
X354856Y971324D01*
X354765Y971420D01*
X354677Y971519D01*
X354592Y971620D01*
X354511Y971724D01*
X354432Y971830D01*
X354357Y971939D01*
X354284Y972050D01*
X354216Y972162D01*
X354150Y972277D01*
X354088Y972394D01*
X354029Y972512D01*
X353974Y972632D01*
X353923Y972754D01*
X353875Y972877D01*
X353831Y973002D01*
X353790Y973128D01*
X353754Y973255D01*
X353721Y973383D01*
X353692Y973512D01*
X353666Y973641D01*
X353645Y973772D01*
X353627Y973903D01*
X353614Y974034D01*
X353604Y974166D01*
X353598Y974298D01*
X353596Y974430D01*
X370359Y969971D02*
X370359Y983348D01*
X377048Y983348D01*
X377048Y981118D01*
X383500Y983348D02*
X383500Y969971D01*
X383500Y983348D02*
X393533Y983348D01*
X393647Y983346D01*
X393761Y983340D01*
X393875Y983330D01*
X393988Y983317D01*
X394101Y983299D01*
X394213Y983278D01*
X394325Y983253D01*
X394435Y983224D01*
X394545Y983191D01*
X394653Y983155D01*
X394760Y983115D01*
X394865Y983071D01*
X394969Y983024D01*
X395071Y982973D01*
X395172Y982919D01*
X395270Y982861D01*
X395367Y982800D01*
X395461Y982736D01*
X395554Y982669D01*
X395643Y982598D01*
X395731Y982524D01*
X395815Y982448D01*
X395898Y982369D01*
X395977Y982286D01*
X396053Y982202D01*
X396127Y982114D01*
X396198Y982025D01*
X396265Y981932D01*
X396329Y981838D01*
X396390Y981741D01*
X396448Y981643D01*
X396502Y981542D01*
X396553Y981440D01*
X396600Y981336D01*
X396644Y981231D01*
X396684Y981124D01*
X396720Y981016D01*
X396753Y980906D01*
X396782Y980796D01*
X396807Y980684D01*
X396828Y980572D01*
X396846Y980459D01*
X396859Y980346D01*
X396869Y980232D01*
X396875Y980118D01*
X396877Y980004D01*
X396877Y969971D01*
X390188Y969971D02*
X390188Y983348D01*
X415540Y990037D02*
X415540Y969971D01*
X415540Y990037D02*
X424459Y990037D01*
X424459Y981118D02*
X415540Y981118D01*
X434676Y977774D02*
X439693Y977774D01*
X434676Y977774D02*
X434552Y977772D01*
X434429Y977766D01*
X434305Y977756D01*
X434182Y977743D01*
X434059Y977725D01*
X433938Y977703D01*
X433816Y977678D01*
X433696Y977649D01*
X433577Y977616D01*
X433458Y977579D01*
X433341Y977539D01*
X433226Y977494D01*
X433112Y977447D01*
X432999Y977395D01*
X432888Y977340D01*
X432779Y977282D01*
X432672Y977220D01*
X432566Y977155D01*
X432463Y977086D01*
X432362Y977014D01*
X432264Y976939D01*
X432168Y976861D01*
X432074Y976780D01*
X431983Y976696D01*
X431895Y976609D01*
X431810Y976520D01*
X431727Y976427D01*
X431647Y976332D01*
X431571Y976235D01*
X431498Y976135D01*
X431427Y976033D01*
X431360Y975929D01*
X431297Y975823D01*
X431237Y975715D01*
X431180Y975605D01*
X431127Y975493D01*
X431077Y975380D01*
X431031Y975265D01*
X430989Y975148D01*
X430950Y975031D01*
X430915Y974912D01*
X430884Y974792D01*
X430857Y974671D01*
X430833Y974550D01*
X430814Y974427D01*
X430798Y974304D01*
X430786Y974181D01*
X430778Y974058D01*
X430774Y973934D01*
X430774Y973810D01*
X430778Y973686D01*
X430786Y973563D01*
X430798Y973440D01*
X430814Y973317D01*
X430833Y973194D01*
X430857Y973073D01*
X430884Y972952D01*
X430915Y972832D01*
X430950Y972713D01*
X430989Y972596D01*
X431031Y972479D01*
X431077Y972364D01*
X431127Y972251D01*
X431180Y972139D01*
X431237Y972029D01*
X431297Y971921D01*
X431360Y971815D01*
X431427Y971711D01*
X431498Y971609D01*
X431571Y971509D01*
X431647Y971412D01*
X431727Y971317D01*
X431810Y971224D01*
X431895Y971135D01*
X431983Y971048D01*
X432074Y970964D01*
X432168Y970883D01*
X432264Y970805D01*
X432362Y970730D01*
X432463Y970658D01*
X432566Y970589D01*
X432672Y970524D01*
X432779Y970462D01*
X432888Y970404D01*
X432999Y970349D01*
X433112Y970297D01*
X433226Y970250D01*
X433341Y970205D01*
X433458Y970165D01*
X433577Y970128D01*
X433696Y970095D01*
X433816Y970066D01*
X433938Y970041D01*
X434059Y970019D01*
X434182Y970001D01*
X434305Y969988D01*
X434429Y969978D01*
X434552Y969972D01*
X434676Y969970D01*
X434676Y969971D02*
X439693Y969971D01*
X439693Y980004D01*
X439692Y980004D02*
X439690Y980118D01*
X439684Y980232D01*
X439674Y980346D01*
X439661Y980459D01*
X439643Y980572D01*
X439622Y980684D01*
X439597Y980796D01*
X439568Y980906D01*
X439535Y981016D01*
X439499Y981124D01*
X439459Y981231D01*
X439415Y981336D01*
X439368Y981440D01*
X439317Y981542D01*
X439263Y981643D01*
X439205Y981741D01*
X439144Y981838D01*
X439080Y981932D01*
X439013Y982025D01*
X438942Y982114D01*
X438868Y982202D01*
X438792Y982286D01*
X438713Y982369D01*
X438630Y982448D01*
X438546Y982524D01*
X438458Y982598D01*
X438369Y982669D01*
X438276Y982736D01*
X438182Y982800D01*
X438085Y982861D01*
X437987Y982919D01*
X437886Y982973D01*
X437784Y983024D01*
X437680Y983071D01*
X437575Y983115D01*
X437468Y983155D01*
X437360Y983191D01*
X437250Y983224D01*
X437140Y983253D01*
X437028Y983278D01*
X436916Y983299D01*
X436803Y983317D01*
X436690Y983330D01*
X436576Y983340D01*
X436462Y983346D01*
X436348Y983348D01*
X431889Y983348D01*
X450885Y969971D02*
X455344Y969971D01*
X450885Y969971D02*
X450771Y969973D01*
X450657Y969979D01*
X450543Y969989D01*
X450430Y970002D01*
X450317Y970020D01*
X450205Y970041D01*
X450093Y970066D01*
X449983Y970095D01*
X449873Y970128D01*
X449765Y970164D01*
X449658Y970204D01*
X449553Y970248D01*
X449449Y970295D01*
X449347Y970346D01*
X449246Y970400D01*
X449148Y970458D01*
X449051Y970519D01*
X448957Y970583D01*
X448864Y970650D01*
X448775Y970721D01*
X448687Y970795D01*
X448603Y970871D01*
X448520Y970950D01*
X448441Y971033D01*
X448365Y971117D01*
X448291Y971205D01*
X448220Y971294D01*
X448153Y971387D01*
X448089Y971481D01*
X448028Y971578D01*
X447970Y971676D01*
X447916Y971777D01*
X447865Y971879D01*
X447818Y971983D01*
X447774Y972088D01*
X447734Y972195D01*
X447698Y972303D01*
X447665Y972413D01*
X447636Y972523D01*
X447611Y972635D01*
X447590Y972747D01*
X447572Y972860D01*
X447559Y972973D01*
X447549Y973087D01*
X447543Y973201D01*
X447541Y973315D01*
X447541Y980004D01*
X447543Y980118D01*
X447549Y980232D01*
X447559Y980346D01*
X447572Y980459D01*
X447590Y980572D01*
X447611Y980684D01*
X447636Y980796D01*
X447665Y980906D01*
X447698Y981016D01*
X447734Y981124D01*
X447774Y981231D01*
X447818Y981336D01*
X447865Y981440D01*
X447916Y981542D01*
X447970Y981643D01*
X448028Y981741D01*
X448089Y981838D01*
X448153Y981932D01*
X448220Y982025D01*
X448291Y982114D01*
X448365Y982202D01*
X448441Y982286D01*
X448520Y982369D01*
X448603Y982448D01*
X448687Y982524D01*
X448775Y982598D01*
X448864Y982669D01*
X448957Y982736D01*
X449051Y982800D01*
X449148Y982861D01*
X449246Y982919D01*
X449347Y982973D01*
X449449Y983024D01*
X449553Y983071D01*
X449658Y983115D01*
X449765Y983155D01*
X449873Y983191D01*
X449983Y983224D01*
X450093Y983253D01*
X450205Y983278D01*
X450317Y983299D01*
X450430Y983317D01*
X450543Y983330D01*
X450657Y983340D01*
X450771Y983346D01*
X450885Y983348D01*
X455344Y983348D01*
X460275Y983348D02*
X466963Y983348D01*
X462504Y990037D02*
X462504Y973315D01*
X462506Y973201D01*
X462512Y973087D01*
X462522Y972973D01*
X462535Y972860D01*
X462553Y972747D01*
X462574Y972635D01*
X462599Y972523D01*
X462628Y972413D01*
X462661Y972303D01*
X462697Y972195D01*
X462737Y972088D01*
X462781Y971983D01*
X462828Y971879D01*
X462879Y971777D01*
X462933Y971676D01*
X462991Y971578D01*
X463052Y971481D01*
X463116Y971387D01*
X463183Y971294D01*
X463254Y971205D01*
X463328Y971117D01*
X463404Y971033D01*
X463483Y970950D01*
X463566Y970871D01*
X463650Y970795D01*
X463738Y970721D01*
X463827Y970650D01*
X463920Y970583D01*
X464014Y970519D01*
X464111Y970458D01*
X464209Y970400D01*
X464310Y970346D01*
X464412Y970295D01*
X464516Y970248D01*
X464621Y970204D01*
X464728Y970164D01*
X464836Y970128D01*
X464946Y970095D01*
X465056Y970066D01*
X465168Y970041D01*
X465280Y970020D01*
X465393Y970002D01*
X465506Y969989D01*
X465620Y969979D01*
X465734Y969973D01*
X465848Y969971D01*
X466963Y969971D01*
X473477Y974430D02*
X473477Y978889D01*
X473479Y979021D01*
X473485Y979153D01*
X473495Y979285D01*
X473508Y979416D01*
X473526Y979547D01*
X473547Y979678D01*
X473573Y979807D01*
X473602Y979936D01*
X473635Y980064D01*
X473671Y980191D01*
X473712Y980317D01*
X473756Y980442D01*
X473804Y980565D01*
X473855Y980687D01*
X473910Y980807D01*
X473969Y980925D01*
X474031Y981042D01*
X474097Y981157D01*
X474165Y981269D01*
X474238Y981380D01*
X474313Y981489D01*
X474392Y981595D01*
X474473Y981699D01*
X474558Y981800D01*
X474646Y981899D01*
X474737Y981995D01*
X474830Y982088D01*
X474926Y982179D01*
X475025Y982267D01*
X475126Y982352D01*
X475230Y982433D01*
X475336Y982512D01*
X475445Y982587D01*
X475556Y982660D01*
X475668Y982728D01*
X475783Y982794D01*
X475900Y982856D01*
X476018Y982915D01*
X476138Y982970D01*
X476260Y983021D01*
X476383Y983069D01*
X476508Y983113D01*
X476634Y983154D01*
X476761Y983190D01*
X476889Y983223D01*
X477018Y983252D01*
X477147Y983278D01*
X477278Y983299D01*
X477409Y983317D01*
X477540Y983330D01*
X477672Y983340D01*
X477804Y983346D01*
X477936Y983348D01*
X478068Y983346D01*
X478200Y983340D01*
X478332Y983330D01*
X478463Y983317D01*
X478594Y983299D01*
X478725Y983278D01*
X478854Y983252D01*
X478983Y983223D01*
X479111Y983190D01*
X479238Y983154D01*
X479364Y983113D01*
X479489Y983069D01*
X479612Y983021D01*
X479734Y982970D01*
X479854Y982915D01*
X479972Y982856D01*
X480089Y982794D01*
X480204Y982728D01*
X480316Y982660D01*
X480427Y982587D01*
X480536Y982512D01*
X480642Y982433D01*
X480746Y982352D01*
X480847Y982267D01*
X480946Y982179D01*
X481042Y982088D01*
X481135Y981995D01*
X481226Y981899D01*
X481314Y981800D01*
X481399Y981699D01*
X481480Y981595D01*
X481559Y981489D01*
X481634Y981380D01*
X481707Y981269D01*
X481775Y981157D01*
X481841Y981042D01*
X481903Y980925D01*
X481962Y980807D01*
X482017Y980687D01*
X482068Y980565D01*
X482116Y980442D01*
X482160Y980317D01*
X482201Y980191D01*
X482237Y980064D01*
X482270Y979936D01*
X482299Y979807D01*
X482325Y979678D01*
X482346Y979547D01*
X482364Y979416D01*
X482377Y979285D01*
X482387Y979153D01*
X482393Y979021D01*
X482395Y978889D01*
X482396Y978889D02*
X482396Y974430D01*
X482395Y974430D02*
X482393Y974298D01*
X482387Y974166D01*
X482377Y974034D01*
X482364Y973903D01*
X482346Y973772D01*
X482325Y973641D01*
X482299Y973512D01*
X482270Y973383D01*
X482237Y973255D01*
X482201Y973128D01*
X482160Y973002D01*
X482116Y972877D01*
X482068Y972754D01*
X482017Y972632D01*
X481962Y972512D01*
X481903Y972394D01*
X481841Y972277D01*
X481775Y972162D01*
X481707Y972050D01*
X481634Y971939D01*
X481559Y971830D01*
X481480Y971724D01*
X481399Y971620D01*
X481314Y971519D01*
X481226Y971420D01*
X481135Y971324D01*
X481042Y971231D01*
X480946Y971140D01*
X480847Y971052D01*
X480746Y970967D01*
X480642Y970886D01*
X480536Y970807D01*
X480427Y970732D01*
X480316Y970659D01*
X480204Y970591D01*
X480089Y970525D01*
X479972Y970463D01*
X479854Y970404D01*
X479734Y970349D01*
X479612Y970298D01*
X479489Y970250D01*
X479364Y970206D01*
X479238Y970165D01*
X479111Y970129D01*
X478983Y970096D01*
X478854Y970067D01*
X478725Y970041D01*
X478594Y970020D01*
X478463Y970002D01*
X478332Y969989D01*
X478200Y969979D01*
X478068Y969973D01*
X477936Y969971D01*
X477804Y969973D01*
X477672Y969979D01*
X477540Y969989D01*
X477409Y970002D01*
X477278Y970020D01*
X477147Y970041D01*
X477018Y970067D01*
X476889Y970096D01*
X476761Y970129D01*
X476634Y970165D01*
X476508Y970206D01*
X476383Y970250D01*
X476260Y970298D01*
X476138Y970349D01*
X476018Y970404D01*
X475900Y970463D01*
X475783Y970525D01*
X475668Y970591D01*
X475556Y970659D01*
X475445Y970732D01*
X475336Y970807D01*
X475230Y970886D01*
X475126Y970967D01*
X475025Y971052D01*
X474926Y971140D01*
X474830Y971231D01*
X474737Y971324D01*
X474646Y971420D01*
X474558Y971519D01*
X474473Y971620D01*
X474392Y971724D01*
X474313Y971830D01*
X474238Y971939D01*
X474165Y972050D01*
X474097Y972162D01*
X474031Y972277D01*
X473969Y972394D01*
X473910Y972512D01*
X473855Y972632D01*
X473804Y972754D01*
X473756Y972877D01*
X473712Y973002D01*
X473671Y973128D01*
X473635Y973255D01*
X473602Y973383D01*
X473573Y973512D01*
X473547Y973641D01*
X473526Y973772D01*
X473508Y973903D01*
X473495Y974034D01*
X473485Y974166D01*
X473479Y974298D01*
X473477Y974430D01*
X490240Y969971D02*
X490240Y983348D01*
X496929Y983348D01*
X496929Y981118D01*
X518660Y990037D02*
X518801Y990035D01*
X518941Y990029D01*
X519082Y990019D01*
X519222Y990005D01*
X519361Y989988D01*
X519500Y989966D01*
X519639Y989941D01*
X519776Y989911D01*
X519913Y989878D01*
X520049Y989841D01*
X520184Y989800D01*
X520317Y989755D01*
X520449Y989707D01*
X520580Y989655D01*
X520709Y989599D01*
X520837Y989540D01*
X520963Y989477D01*
X521087Y989411D01*
X521209Y989341D01*
X521329Y989268D01*
X521447Y989191D01*
X521563Y989112D01*
X521677Y989029D01*
X521788Y988942D01*
X521897Y988853D01*
X522003Y988761D01*
X522107Y988666D01*
X522208Y988568D01*
X522306Y988467D01*
X522401Y988363D01*
X522493Y988257D01*
X522582Y988148D01*
X522669Y988037D01*
X522752Y987923D01*
X522831Y987807D01*
X522908Y987689D01*
X522981Y987569D01*
X523051Y987447D01*
X523117Y987323D01*
X523180Y987197D01*
X523239Y987069D01*
X523295Y986940D01*
X523347Y986809D01*
X523395Y986677D01*
X523440Y986544D01*
X523481Y986409D01*
X523518Y986273D01*
X523551Y986136D01*
X523581Y985999D01*
X523606Y985860D01*
X523628Y985721D01*
X523645Y985582D01*
X523659Y985442D01*
X523669Y985301D01*
X523675Y985161D01*
X523677Y985020D01*
X518660Y990037D02*
X518501Y990035D01*
X518342Y990029D01*
X518184Y990019D01*
X518025Y990006D01*
X517867Y989988D01*
X517710Y989967D01*
X517553Y989941D01*
X517397Y989912D01*
X517241Y989879D01*
X517087Y989842D01*
X516933Y989801D01*
X516781Y989757D01*
X516629Y989709D01*
X516479Y989657D01*
X516330Y989601D01*
X516183Y989542D01*
X516037Y989479D01*
X515892Y989412D01*
X515750Y989342D01*
X515609Y989269D01*
X515470Y989192D01*
X515333Y989112D01*
X515198Y989028D01*
X515065Y988941D01*
X514934Y988851D01*
X514805Y988757D01*
X514679Y988661D01*
X514555Y988561D01*
X514434Y988458D01*
X514315Y988352D01*
X514199Y988244D01*
X514086Y988132D01*
X513975Y988018D01*
X513868Y987901D01*
X513763Y987782D01*
X513661Y987660D01*
X513562Y987535D01*
X513467Y987409D01*
X513374Y987279D01*
X513285Y987148D01*
X513199Y987014D01*
X513116Y986879D01*
X513037Y986741D01*
X512961Y986601D01*
X512888Y986460D01*
X512819Y986317D01*
X512754Y986172D01*
X512692Y986025D01*
X512634Y985878D01*
X512579Y985728D01*
X512529Y985578D01*
X522004Y981118D02*
X522108Y981220D01*
X522209Y981325D01*
X522307Y981432D01*
X522403Y981542D01*
X522495Y981654D01*
X522584Y981769D01*
X522671Y981886D01*
X522754Y982005D01*
X522833Y982127D01*
X522910Y982251D01*
X522983Y982376D01*
X523052Y982504D01*
X523119Y982633D01*
X523181Y982765D01*
X523240Y982898D01*
X523296Y983032D01*
X523348Y983168D01*
X523396Y983305D01*
X523440Y983444D01*
X523481Y983583D01*
X523518Y983724D01*
X523551Y983866D01*
X523580Y984008D01*
X523605Y984151D01*
X523627Y984295D01*
X523645Y984439D01*
X523658Y984584D01*
X523668Y984729D01*
X523674Y984875D01*
X523676Y985020D01*
X522005Y981118D02*
X512529Y969971D01*
X523677Y969971D01*
X531140Y971643D02*
X531140Y972757D01*
X532255Y972757D01*
X532255Y971643D01*
X531140Y971643D01*
X531140Y980561D02*
X531140Y981676D01*
X532255Y981676D01*
X532255Y980561D01*
X531140Y980561D01*
X555737Y990037D02*
X555878Y990035D01*
X556018Y990029D01*
X556159Y990019D01*
X556299Y990005D01*
X556438Y989988D01*
X556577Y989966D01*
X556716Y989941D01*
X556853Y989911D01*
X556990Y989878D01*
X557126Y989841D01*
X557261Y989800D01*
X557394Y989755D01*
X557526Y989707D01*
X557657Y989655D01*
X557786Y989599D01*
X557914Y989540D01*
X558040Y989477D01*
X558164Y989411D01*
X558286Y989341D01*
X558406Y989268D01*
X558524Y989191D01*
X558640Y989112D01*
X558754Y989029D01*
X558865Y988942D01*
X558974Y988853D01*
X559080Y988761D01*
X559184Y988666D01*
X559285Y988568D01*
X559383Y988467D01*
X559478Y988363D01*
X559570Y988257D01*
X559659Y988148D01*
X559746Y988037D01*
X559829Y987923D01*
X559908Y987807D01*
X559985Y987689D01*
X560058Y987569D01*
X560128Y987447D01*
X560194Y987323D01*
X560257Y987197D01*
X560316Y987069D01*
X560372Y986940D01*
X560424Y986809D01*
X560472Y986677D01*
X560517Y986544D01*
X560558Y986409D01*
X560595Y986273D01*
X560628Y986136D01*
X560658Y985999D01*
X560683Y985860D01*
X560705Y985721D01*
X560722Y985582D01*
X560736Y985442D01*
X560746Y985301D01*
X560752Y985161D01*
X560754Y985020D01*
X555737Y990037D02*
X555578Y990035D01*
X555419Y990029D01*
X555261Y990019D01*
X555102Y990006D01*
X554944Y989988D01*
X554787Y989967D01*
X554630Y989941D01*
X554474Y989912D01*
X554318Y989879D01*
X554164Y989842D01*
X554010Y989801D01*
X553858Y989757D01*
X553706Y989709D01*
X553556Y989657D01*
X553407Y989601D01*
X553260Y989542D01*
X553114Y989479D01*
X552969Y989412D01*
X552827Y989342D01*
X552686Y989269D01*
X552547Y989192D01*
X552410Y989112D01*
X552275Y989028D01*
X552142Y988941D01*
X552011Y988851D01*
X551882Y988757D01*
X551756Y988661D01*
X551632Y988561D01*
X551511Y988458D01*
X551392Y988352D01*
X551276Y988244D01*
X551163Y988132D01*
X551052Y988018D01*
X550945Y987901D01*
X550840Y987782D01*
X550738Y987660D01*
X550639Y987535D01*
X550544Y987409D01*
X550451Y987279D01*
X550362Y987148D01*
X550276Y987014D01*
X550193Y986879D01*
X550114Y986741D01*
X550038Y986601D01*
X549965Y986460D01*
X549896Y986317D01*
X549831Y986172D01*
X549769Y986025D01*
X549711Y985878D01*
X549656Y985728D01*
X549606Y985578D01*
X559081Y981118D02*
X559185Y981220D01*
X559286Y981325D01*
X559384Y981432D01*
X559480Y981542D01*
X559572Y981654D01*
X559661Y981769D01*
X559748Y981886D01*
X559831Y982005D01*
X559910Y982127D01*
X559987Y982251D01*
X560060Y982376D01*
X560129Y982504D01*
X560196Y982633D01*
X560258Y982765D01*
X560317Y982898D01*
X560373Y983032D01*
X560425Y983168D01*
X560473Y983305D01*
X560517Y983444D01*
X560558Y983583D01*
X560595Y983724D01*
X560628Y983866D01*
X560657Y984008D01*
X560682Y984151D01*
X560704Y984295D01*
X560722Y984439D01*
X560735Y984584D01*
X560745Y984729D01*
X560751Y984875D01*
X560753Y985020D01*
X559081Y981118D02*
X549606Y969971D01*
X560753Y969971D01*
X567599Y969971D02*
X567599Y971085D01*
X568714Y971085D01*
X568714Y969971D01*
X567599Y969971D01*
X575559Y969971D02*
X582248Y969971D01*
X582380Y969973D01*
X582512Y969979D01*
X582644Y969989D01*
X582775Y970002D01*
X582906Y970020D01*
X583037Y970041D01*
X583166Y970067D01*
X583295Y970096D01*
X583423Y970129D01*
X583550Y970165D01*
X583676Y970206D01*
X583801Y970250D01*
X583924Y970298D01*
X584046Y970349D01*
X584166Y970404D01*
X584284Y970463D01*
X584401Y970525D01*
X584516Y970591D01*
X584628Y970659D01*
X584739Y970732D01*
X584848Y970807D01*
X584954Y970886D01*
X585058Y970967D01*
X585159Y971052D01*
X585258Y971140D01*
X585354Y971231D01*
X585447Y971324D01*
X585538Y971420D01*
X585626Y971519D01*
X585711Y971620D01*
X585792Y971724D01*
X585871Y971831D01*
X585946Y971939D01*
X586019Y972050D01*
X586087Y972162D01*
X586153Y972277D01*
X586215Y972394D01*
X586274Y972512D01*
X586329Y972632D01*
X586380Y972754D01*
X586428Y972877D01*
X586472Y973002D01*
X586513Y973128D01*
X586549Y973255D01*
X586582Y973383D01*
X586611Y973512D01*
X586637Y973641D01*
X586658Y973772D01*
X586676Y973903D01*
X586689Y974034D01*
X586699Y974166D01*
X586705Y974298D01*
X586707Y974430D01*
X586707Y976659D01*
X586705Y976791D01*
X586699Y976923D01*
X586689Y977055D01*
X586676Y977186D01*
X586658Y977317D01*
X586637Y977448D01*
X586611Y977577D01*
X586582Y977706D01*
X586549Y977834D01*
X586513Y977961D01*
X586472Y978087D01*
X586428Y978212D01*
X586380Y978335D01*
X586329Y978457D01*
X586274Y978577D01*
X586215Y978695D01*
X586153Y978812D01*
X586087Y978927D01*
X586019Y979039D01*
X585946Y979150D01*
X585871Y979259D01*
X585792Y979365D01*
X585711Y979469D01*
X585626Y979570D01*
X585538Y979669D01*
X585447Y979765D01*
X585354Y979858D01*
X585258Y979949D01*
X585159Y980037D01*
X585058Y980122D01*
X584954Y980203D01*
X584848Y980282D01*
X584739Y980357D01*
X584628Y980430D01*
X584516Y980498D01*
X584401Y980564D01*
X584284Y980626D01*
X584166Y980685D01*
X584046Y980740D01*
X583924Y980791D01*
X583801Y980839D01*
X583676Y980883D01*
X583550Y980924D01*
X583423Y980960D01*
X583295Y980993D01*
X583166Y981022D01*
X583037Y981048D01*
X582906Y981069D01*
X582775Y981087D01*
X582644Y981100D01*
X582512Y981110D01*
X582380Y981116D01*
X582248Y981118D01*
X575559Y981118D01*
X575559Y990037D01*
X586707Y990037D01*
X607225Y969971D02*
X611684Y969971D01*
X607225Y969971D02*
X607111Y969973D01*
X606997Y969979D01*
X606883Y969989D01*
X606770Y970002D01*
X606657Y970020D01*
X606545Y970041D01*
X606433Y970066D01*
X606323Y970095D01*
X606213Y970128D01*
X606105Y970164D01*
X605998Y970204D01*
X605893Y970248D01*
X605789Y970295D01*
X605687Y970346D01*
X605586Y970400D01*
X605488Y970458D01*
X605391Y970519D01*
X605297Y970583D01*
X605204Y970650D01*
X605115Y970721D01*
X605027Y970795D01*
X604943Y970871D01*
X604860Y970950D01*
X604781Y971033D01*
X604705Y971117D01*
X604631Y971205D01*
X604560Y971294D01*
X604493Y971387D01*
X604429Y971481D01*
X604368Y971578D01*
X604310Y971676D01*
X604256Y971777D01*
X604205Y971879D01*
X604158Y971983D01*
X604114Y972088D01*
X604074Y972195D01*
X604038Y972303D01*
X604005Y972413D01*
X603976Y972523D01*
X603951Y972635D01*
X603930Y972747D01*
X603912Y972860D01*
X603899Y972973D01*
X603889Y973087D01*
X603883Y973201D01*
X603881Y973315D01*
X603880Y973315D02*
X603880Y980004D01*
X603881Y980004D02*
X603883Y980118D01*
X603889Y980232D01*
X603899Y980346D01*
X603912Y980459D01*
X603930Y980572D01*
X603951Y980684D01*
X603976Y980796D01*
X604005Y980906D01*
X604038Y981016D01*
X604074Y981124D01*
X604114Y981231D01*
X604158Y981336D01*
X604205Y981440D01*
X604256Y981542D01*
X604310Y981643D01*
X604368Y981741D01*
X604429Y981838D01*
X604493Y981932D01*
X604560Y982025D01*
X604631Y982114D01*
X604705Y982202D01*
X604781Y982286D01*
X604860Y982369D01*
X604943Y982448D01*
X605027Y982524D01*
X605115Y982598D01*
X605204Y982669D01*
X605297Y982736D01*
X605391Y982800D01*
X605488Y982861D01*
X605586Y982919D01*
X605687Y982973D01*
X605789Y983024D01*
X605893Y983071D01*
X605998Y983115D01*
X606105Y983155D01*
X606213Y983191D01*
X606323Y983224D01*
X606433Y983253D01*
X606545Y983278D01*
X606657Y983299D01*
X606770Y983317D01*
X606883Y983330D01*
X606997Y983340D01*
X607111Y983346D01*
X607225Y983348D01*
X611684Y983348D01*
X618936Y983348D02*
X618936Y969971D01*
X618936Y983348D02*
X628969Y983348D01*
X629083Y983346D01*
X629197Y983340D01*
X629311Y983330D01*
X629424Y983317D01*
X629537Y983299D01*
X629649Y983278D01*
X629761Y983253D01*
X629871Y983224D01*
X629981Y983191D01*
X630089Y983155D01*
X630196Y983115D01*
X630301Y983071D01*
X630405Y983024D01*
X630507Y982973D01*
X630608Y982919D01*
X630706Y982861D01*
X630803Y982800D01*
X630897Y982736D01*
X630990Y982669D01*
X631079Y982598D01*
X631167Y982524D01*
X631251Y982448D01*
X631334Y982369D01*
X631413Y982286D01*
X631489Y982202D01*
X631563Y982114D01*
X631634Y982025D01*
X631701Y981932D01*
X631765Y981838D01*
X631826Y981741D01*
X631884Y981643D01*
X631938Y981542D01*
X631989Y981440D01*
X632036Y981336D01*
X632080Y981231D01*
X632120Y981124D01*
X632156Y981016D01*
X632189Y980906D01*
X632218Y980796D01*
X632243Y980684D01*
X632264Y980572D01*
X632282Y980459D01*
X632295Y980346D01*
X632305Y980232D01*
X632311Y980118D01*
X632313Y980004D01*
X632314Y980004D02*
X632314Y969971D01*
X625625Y969971D02*
X625625Y983348D01*
X649591Y969971D02*
X658509Y983348D01*
X649591Y983348D02*
X658509Y969971D01*
X681179Y990037D02*
X681320Y990035D01*
X681460Y990029D01*
X681601Y990019D01*
X681741Y990005D01*
X681880Y989988D01*
X682019Y989966D01*
X682158Y989941D01*
X682295Y989911D01*
X682432Y989878D01*
X682568Y989841D01*
X682703Y989800D01*
X682836Y989755D01*
X682968Y989707D01*
X683099Y989655D01*
X683228Y989599D01*
X683356Y989540D01*
X683482Y989477D01*
X683606Y989411D01*
X683728Y989341D01*
X683848Y989268D01*
X683966Y989191D01*
X684082Y989112D01*
X684196Y989029D01*
X684307Y988942D01*
X684416Y988853D01*
X684522Y988761D01*
X684626Y988666D01*
X684727Y988568D01*
X684825Y988467D01*
X684920Y988363D01*
X685012Y988257D01*
X685101Y988148D01*
X685188Y988037D01*
X685271Y987923D01*
X685350Y987807D01*
X685427Y987689D01*
X685500Y987569D01*
X685570Y987447D01*
X685636Y987323D01*
X685699Y987197D01*
X685758Y987069D01*
X685814Y986940D01*
X685866Y986809D01*
X685914Y986677D01*
X685959Y986544D01*
X686000Y986409D01*
X686037Y986273D01*
X686070Y986136D01*
X686100Y985999D01*
X686125Y985860D01*
X686147Y985721D01*
X686164Y985582D01*
X686178Y985442D01*
X686188Y985301D01*
X686194Y985161D01*
X686196Y985020D01*
X681179Y990037D02*
X681020Y990035D01*
X680861Y990029D01*
X680703Y990019D01*
X680544Y990006D01*
X680386Y989988D01*
X680229Y989967D01*
X680072Y989941D01*
X679916Y989912D01*
X679760Y989879D01*
X679606Y989842D01*
X679452Y989801D01*
X679300Y989757D01*
X679148Y989709D01*
X678998Y989657D01*
X678849Y989601D01*
X678702Y989542D01*
X678556Y989479D01*
X678411Y989412D01*
X678269Y989342D01*
X678128Y989269D01*
X677989Y989192D01*
X677852Y989112D01*
X677717Y989028D01*
X677584Y988941D01*
X677453Y988851D01*
X677324Y988757D01*
X677198Y988661D01*
X677074Y988561D01*
X676953Y988458D01*
X676834Y988352D01*
X676718Y988244D01*
X676605Y988132D01*
X676494Y988018D01*
X676387Y987901D01*
X676282Y987782D01*
X676180Y987660D01*
X676081Y987535D01*
X675986Y987409D01*
X675893Y987279D01*
X675804Y987148D01*
X675718Y987014D01*
X675635Y986879D01*
X675556Y986741D01*
X675480Y986601D01*
X675407Y986460D01*
X675338Y986317D01*
X675273Y986172D01*
X675211Y986025D01*
X675153Y985878D01*
X675098Y985728D01*
X675048Y985578D01*
X684524Y981118D02*
X684628Y981220D01*
X684729Y981325D01*
X684827Y981432D01*
X684923Y981542D01*
X685015Y981654D01*
X685104Y981769D01*
X685191Y981886D01*
X685274Y982005D01*
X685353Y982127D01*
X685430Y982251D01*
X685503Y982376D01*
X685572Y982504D01*
X685639Y982633D01*
X685701Y982765D01*
X685760Y982898D01*
X685816Y983032D01*
X685868Y983168D01*
X685916Y983305D01*
X685960Y983444D01*
X686001Y983583D01*
X686038Y983724D01*
X686071Y983866D01*
X686100Y984008D01*
X686125Y984151D01*
X686147Y984295D01*
X686165Y984439D01*
X686178Y984584D01*
X686188Y984729D01*
X686194Y984875D01*
X686196Y985020D01*
X684524Y981118D02*
X675048Y969971D01*
X686196Y969971D01*
X693041Y969971D02*
X693041Y971085D01*
X694156Y971085D01*
X694156Y969971D01*
X693041Y969971D01*
X701002Y969971D02*
X706576Y969971D01*
X706576Y969970D02*
X706724Y969972D01*
X706873Y969978D01*
X707021Y969988D01*
X707168Y970002D01*
X707316Y970019D01*
X707463Y970041D01*
X707609Y970067D01*
X707754Y970096D01*
X707899Y970129D01*
X708043Y970166D01*
X708185Y970207D01*
X708327Y970252D01*
X708467Y970301D01*
X708606Y970353D01*
X708743Y970409D01*
X708879Y970468D01*
X709014Y970531D01*
X709146Y970598D01*
X709277Y970668D01*
X709406Y970742D01*
X709533Y970819D01*
X709657Y970899D01*
X709780Y970983D01*
X709900Y971070D01*
X710018Y971160D01*
X710134Y971253D01*
X710247Y971349D01*
X710357Y971448D01*
X710465Y971550D01*
X710570Y971655D01*
X710672Y971763D01*
X710771Y971873D01*
X710867Y971986D01*
X710960Y972102D01*
X711050Y972220D01*
X711137Y972340D01*
X711221Y972463D01*
X711301Y972587D01*
X711378Y972714D01*
X711452Y972843D01*
X711522Y972974D01*
X711589Y973106D01*
X711652Y973241D01*
X711711Y973377D01*
X711767Y973514D01*
X711819Y973653D01*
X711868Y973793D01*
X711913Y973935D01*
X711954Y974077D01*
X711991Y974221D01*
X712024Y974366D01*
X712053Y974511D01*
X712079Y974657D01*
X712101Y974804D01*
X712118Y974952D01*
X712132Y975099D01*
X712142Y975247D01*
X712148Y975396D01*
X712150Y975544D01*
X712148Y975692D01*
X712142Y975841D01*
X712132Y975989D01*
X712118Y976136D01*
X712101Y976284D01*
X712079Y976431D01*
X712053Y976577D01*
X712024Y976722D01*
X711991Y976867D01*
X711954Y977011D01*
X711913Y977153D01*
X711868Y977295D01*
X711819Y977435D01*
X711767Y977574D01*
X711711Y977711D01*
X711652Y977847D01*
X711589Y977982D01*
X711522Y978114D01*
X711452Y978245D01*
X711378Y978374D01*
X711301Y978501D01*
X711221Y978625D01*
X711137Y978748D01*
X711050Y978868D01*
X710960Y978986D01*
X710867Y979102D01*
X710771Y979215D01*
X710672Y979325D01*
X710570Y979433D01*
X710465Y979538D01*
X710357Y979640D01*
X710247Y979739D01*
X710134Y979835D01*
X710018Y979928D01*
X709900Y980018D01*
X709780Y980105D01*
X709657Y980189D01*
X709533Y980269D01*
X709406Y980346D01*
X709277Y980420D01*
X709146Y980490D01*
X709014Y980557D01*
X708879Y980620D01*
X708743Y980679D01*
X708606Y980735D01*
X708467Y980787D01*
X708327Y980836D01*
X708185Y980881D01*
X708043Y980922D01*
X707899Y980959D01*
X707754Y980992D01*
X707609Y981021D01*
X707463Y981047D01*
X707316Y981069D01*
X707168Y981086D01*
X707021Y981100D01*
X706873Y981110D01*
X706724Y981116D01*
X706576Y981118D01*
X707690Y990037D02*
X701002Y990037D01*
X707690Y990036D02*
X707822Y990034D01*
X707954Y990028D01*
X708086Y990018D01*
X708217Y990005D01*
X708348Y989987D01*
X708479Y989966D01*
X708608Y989940D01*
X708737Y989911D01*
X708865Y989878D01*
X708992Y989842D01*
X709118Y989801D01*
X709243Y989757D01*
X709366Y989709D01*
X709488Y989658D01*
X709608Y989603D01*
X709726Y989544D01*
X709843Y989482D01*
X709958Y989416D01*
X710070Y989348D01*
X710181Y989275D01*
X710290Y989200D01*
X710396Y989121D01*
X710500Y989040D01*
X710601Y988955D01*
X710700Y988867D01*
X710796Y988776D01*
X710889Y988683D01*
X710980Y988587D01*
X711068Y988488D01*
X711153Y988387D01*
X711234Y988283D01*
X711313Y988177D01*
X711388Y988068D01*
X711461Y987957D01*
X711529Y987845D01*
X711595Y987730D01*
X711657Y987613D01*
X711716Y987495D01*
X711771Y987375D01*
X711822Y987253D01*
X711870Y987130D01*
X711914Y987005D01*
X711955Y986879D01*
X711991Y986752D01*
X712024Y986624D01*
X712053Y986495D01*
X712079Y986366D01*
X712100Y986235D01*
X712118Y986104D01*
X712131Y985973D01*
X712141Y985841D01*
X712147Y985709D01*
X712149Y985577D01*
X712147Y985445D01*
X712141Y985313D01*
X712131Y985181D01*
X712118Y985050D01*
X712100Y984919D01*
X712079Y984788D01*
X712053Y984659D01*
X712024Y984530D01*
X711991Y984402D01*
X711955Y984275D01*
X711914Y984149D01*
X711870Y984024D01*
X711822Y983901D01*
X711771Y983779D01*
X711716Y983659D01*
X711657Y983541D01*
X711595Y983424D01*
X711529Y983309D01*
X711461Y983197D01*
X711388Y983086D01*
X711313Y982977D01*
X711234Y982871D01*
X711153Y982767D01*
X711068Y982666D01*
X710980Y982567D01*
X710889Y982471D01*
X710796Y982378D01*
X710700Y982287D01*
X710601Y982199D01*
X710500Y982114D01*
X710396Y982033D01*
X710290Y981954D01*
X710181Y981879D01*
X710070Y981806D01*
X709958Y981738D01*
X709843Y981672D01*
X709726Y981610D01*
X709608Y981551D01*
X709488Y981496D01*
X709366Y981445D01*
X709243Y981397D01*
X709118Y981353D01*
X708992Y981312D01*
X708865Y981276D01*
X708737Y981243D01*
X708608Y981214D01*
X708479Y981188D01*
X708348Y981167D01*
X708217Y981149D01*
X708086Y981136D01*
X707954Y981126D01*
X707822Y981120D01*
X707690Y981118D01*
X703231Y981118D01*
X732667Y969971D02*
X737126Y969971D01*
X732667Y969971D02*
X732553Y969973D01*
X732439Y969979D01*
X732325Y969989D01*
X732212Y970002D01*
X732099Y970020D01*
X731987Y970041D01*
X731875Y970066D01*
X731765Y970095D01*
X731655Y970128D01*
X731547Y970164D01*
X731440Y970204D01*
X731335Y970248D01*
X731231Y970295D01*
X731129Y970346D01*
X731028Y970400D01*
X730930Y970458D01*
X730833Y970519D01*
X730739Y970583D01*
X730646Y970650D01*
X730557Y970721D01*
X730469Y970795D01*
X730385Y970871D01*
X730302Y970950D01*
X730223Y971033D01*
X730147Y971117D01*
X730073Y971205D01*
X730002Y971294D01*
X729935Y971387D01*
X729871Y971481D01*
X729810Y971578D01*
X729752Y971676D01*
X729698Y971777D01*
X729647Y971879D01*
X729600Y971983D01*
X729556Y972088D01*
X729516Y972195D01*
X729480Y972303D01*
X729447Y972413D01*
X729418Y972523D01*
X729393Y972635D01*
X729372Y972747D01*
X729354Y972860D01*
X729341Y972973D01*
X729331Y973087D01*
X729325Y973201D01*
X729323Y973315D01*
X729323Y980004D01*
X729325Y980118D01*
X729331Y980232D01*
X729341Y980346D01*
X729354Y980459D01*
X729372Y980572D01*
X729393Y980684D01*
X729418Y980796D01*
X729447Y980906D01*
X729480Y981016D01*
X729516Y981124D01*
X729556Y981231D01*
X729600Y981336D01*
X729647Y981440D01*
X729698Y981542D01*
X729752Y981643D01*
X729810Y981741D01*
X729871Y981838D01*
X729935Y981932D01*
X730002Y982025D01*
X730073Y982114D01*
X730147Y982202D01*
X730223Y982286D01*
X730302Y982369D01*
X730385Y982448D01*
X730469Y982524D01*
X730557Y982598D01*
X730646Y982669D01*
X730739Y982736D01*
X730833Y982800D01*
X730930Y982861D01*
X731028Y982919D01*
X731129Y982973D01*
X731231Y983024D01*
X731335Y983071D01*
X731440Y983115D01*
X731547Y983155D01*
X731655Y983191D01*
X731765Y983224D01*
X731875Y983253D01*
X731987Y983278D01*
X732099Y983299D01*
X732212Y983317D01*
X732325Y983330D01*
X732439Y983340D01*
X732553Y983346D01*
X732667Y983348D01*
X737126Y983348D01*
X744379Y983348D02*
X744379Y969971D01*
X744379Y983348D02*
X754412Y983348D01*
X754526Y983346D01*
X754640Y983340D01*
X754754Y983330D01*
X754867Y983317D01*
X754980Y983299D01*
X755092Y983278D01*
X755204Y983253D01*
X755314Y983224D01*
X755424Y983191D01*
X755532Y983155D01*
X755639Y983115D01*
X755744Y983071D01*
X755848Y983024D01*
X755950Y982973D01*
X756051Y982919D01*
X756149Y982861D01*
X756246Y982800D01*
X756340Y982736D01*
X756433Y982669D01*
X756522Y982598D01*
X756610Y982524D01*
X756694Y982448D01*
X756777Y982369D01*
X756856Y982286D01*
X756932Y982202D01*
X757006Y982114D01*
X757077Y982025D01*
X757144Y981932D01*
X757208Y981838D01*
X757269Y981741D01*
X757327Y981643D01*
X757381Y981542D01*
X757432Y981440D01*
X757479Y981336D01*
X757523Y981231D01*
X757563Y981124D01*
X757599Y981016D01*
X757632Y980906D01*
X757661Y980796D01*
X757686Y980684D01*
X757707Y980572D01*
X757725Y980459D01*
X757738Y980346D01*
X757748Y980232D01*
X757754Y980118D01*
X757756Y980004D01*
X757756Y969971D01*
X751068Y969971D02*
X751068Y983348D01*
X776059Y980004D02*
X776065Y980463D01*
X776081Y980922D01*
X776109Y981380D01*
X776147Y981838D01*
X776197Y982294D01*
X776257Y982750D01*
X776329Y983203D01*
X776411Y983655D01*
X776505Y984105D01*
X776609Y984552D01*
X776723Y984996D01*
X776849Y985438D01*
X776985Y985877D01*
X777131Y986312D01*
X777288Y986744D01*
X777455Y987171D01*
X777633Y987595D01*
X777821Y988014D01*
X778018Y988428D01*
X778226Y988838D01*
X778443Y989242D01*
X778670Y989641D01*
X778907Y990035D01*
X779153Y990423D01*
X779408Y990805D01*
X779672Y991180D01*
X779945Y991549D01*
X780228Y991911D01*
X780518Y992267D01*
X776060Y980004D02*
X776066Y979545D01*
X776082Y979086D01*
X776110Y978628D01*
X776148Y978170D01*
X776198Y977714D01*
X776258Y977258D01*
X776330Y976805D01*
X776412Y976353D01*
X776506Y975903D01*
X776610Y975456D01*
X776724Y975012D01*
X776850Y974570D01*
X776986Y974131D01*
X777132Y973696D01*
X777289Y973265D01*
X777456Y972837D01*
X777634Y972413D01*
X777822Y971994D01*
X778019Y971580D01*
X778227Y971170D01*
X778444Y970766D01*
X778671Y970367D01*
X778908Y969973D01*
X779154Y969585D01*
X779409Y969204D01*
X779673Y968828D01*
X779946Y968459D01*
X780228Y968097D01*
X780519Y967741D01*
X798662Y985020D02*
X798660Y985161D01*
X798654Y985301D01*
X798644Y985442D01*
X798630Y985582D01*
X798613Y985721D01*
X798591Y985860D01*
X798566Y985999D01*
X798536Y986136D01*
X798503Y986273D01*
X798466Y986409D01*
X798425Y986544D01*
X798380Y986677D01*
X798332Y986809D01*
X798280Y986940D01*
X798224Y987069D01*
X798165Y987197D01*
X798102Y987323D01*
X798036Y987447D01*
X797966Y987569D01*
X797893Y987689D01*
X797816Y987807D01*
X797737Y987923D01*
X797654Y988037D01*
X797567Y988148D01*
X797478Y988257D01*
X797386Y988363D01*
X797291Y988467D01*
X797193Y988568D01*
X797092Y988666D01*
X796988Y988761D01*
X796882Y988853D01*
X796773Y988942D01*
X796662Y989029D01*
X796548Y989112D01*
X796432Y989191D01*
X796314Y989268D01*
X796194Y989341D01*
X796072Y989411D01*
X795948Y989477D01*
X795822Y989540D01*
X795694Y989599D01*
X795565Y989655D01*
X795434Y989707D01*
X795302Y989755D01*
X795169Y989800D01*
X795034Y989841D01*
X794898Y989878D01*
X794761Y989911D01*
X794624Y989941D01*
X794485Y989966D01*
X794346Y989988D01*
X794207Y990005D01*
X794067Y990019D01*
X793926Y990029D01*
X793786Y990035D01*
X793645Y990037D01*
X793486Y990035D01*
X793327Y990029D01*
X793169Y990019D01*
X793010Y990006D01*
X792852Y989988D01*
X792695Y989967D01*
X792538Y989941D01*
X792382Y989912D01*
X792226Y989879D01*
X792072Y989842D01*
X791918Y989801D01*
X791766Y989757D01*
X791614Y989709D01*
X791464Y989657D01*
X791315Y989601D01*
X791168Y989542D01*
X791022Y989479D01*
X790877Y989412D01*
X790735Y989342D01*
X790594Y989269D01*
X790455Y989192D01*
X790318Y989112D01*
X790183Y989028D01*
X790050Y988941D01*
X789919Y988851D01*
X789790Y988757D01*
X789664Y988661D01*
X789540Y988561D01*
X789419Y988458D01*
X789300Y988352D01*
X789184Y988244D01*
X789071Y988132D01*
X788960Y988018D01*
X788853Y987901D01*
X788748Y987782D01*
X788646Y987660D01*
X788547Y987535D01*
X788452Y987409D01*
X788359Y987279D01*
X788270Y987148D01*
X788184Y987014D01*
X788101Y986879D01*
X788022Y986741D01*
X787946Y986601D01*
X787873Y986460D01*
X787804Y986317D01*
X787739Y986172D01*
X787677Y986025D01*
X787619Y985878D01*
X787564Y985728D01*
X787514Y985578D01*
X796989Y981118D02*
X797093Y981220D01*
X797194Y981325D01*
X797292Y981432D01*
X797388Y981542D01*
X797480Y981654D01*
X797569Y981769D01*
X797656Y981886D01*
X797739Y982005D01*
X797818Y982127D01*
X797895Y982251D01*
X797968Y982376D01*
X798037Y982504D01*
X798104Y982633D01*
X798166Y982765D01*
X798225Y982898D01*
X798281Y983032D01*
X798333Y983168D01*
X798381Y983305D01*
X798425Y983444D01*
X798466Y983583D01*
X798503Y983724D01*
X798536Y983866D01*
X798565Y984008D01*
X798590Y984151D01*
X798612Y984295D01*
X798630Y984439D01*
X798643Y984584D01*
X798653Y984729D01*
X798659Y984875D01*
X798661Y985020D01*
X796989Y981118D02*
X787514Y969971D01*
X798662Y969971D01*
X806052Y969971D02*
X812741Y969971D01*
X812873Y969973D01*
X813005Y969979D01*
X813137Y969989D01*
X813268Y970002D01*
X813399Y970020D01*
X813530Y970041D01*
X813659Y970067D01*
X813788Y970096D01*
X813916Y970129D01*
X814043Y970165D01*
X814169Y970206D01*
X814294Y970250D01*
X814417Y970298D01*
X814539Y970349D01*
X814659Y970404D01*
X814777Y970463D01*
X814894Y970525D01*
X815009Y970591D01*
X815121Y970659D01*
X815232Y970732D01*
X815341Y970807D01*
X815447Y970886D01*
X815551Y970967D01*
X815652Y971052D01*
X815751Y971140D01*
X815847Y971231D01*
X815940Y971324D01*
X816031Y971420D01*
X816119Y971519D01*
X816204Y971620D01*
X816285Y971724D01*
X816364Y971831D01*
X816439Y971939D01*
X816512Y972050D01*
X816580Y972162D01*
X816646Y972277D01*
X816708Y972394D01*
X816767Y972512D01*
X816822Y972632D01*
X816873Y972754D01*
X816921Y972877D01*
X816965Y973002D01*
X817006Y973128D01*
X817042Y973255D01*
X817075Y973383D01*
X817104Y973512D01*
X817130Y973641D01*
X817151Y973772D01*
X817169Y973903D01*
X817182Y974034D01*
X817192Y974166D01*
X817198Y974298D01*
X817200Y974430D01*
X817200Y976659D01*
X817198Y976791D01*
X817192Y976923D01*
X817182Y977055D01*
X817169Y977186D01*
X817151Y977317D01*
X817130Y977448D01*
X817104Y977577D01*
X817075Y977706D01*
X817042Y977834D01*
X817006Y977961D01*
X816965Y978087D01*
X816921Y978212D01*
X816873Y978335D01*
X816822Y978457D01*
X816767Y978577D01*
X816708Y978695D01*
X816646Y978812D01*
X816580Y978927D01*
X816512Y979039D01*
X816439Y979150D01*
X816364Y979259D01*
X816285Y979365D01*
X816204Y979469D01*
X816119Y979570D01*
X816031Y979669D01*
X815940Y979765D01*
X815847Y979858D01*
X815751Y979949D01*
X815652Y980037D01*
X815551Y980122D01*
X815447Y980203D01*
X815341Y980282D01*
X815232Y980357D01*
X815121Y980430D01*
X815009Y980498D01*
X814894Y980564D01*
X814777Y980626D01*
X814659Y980685D01*
X814539Y980740D01*
X814417Y980791D01*
X814294Y980839D01*
X814169Y980883D01*
X814043Y980924D01*
X813916Y980960D01*
X813788Y980993D01*
X813659Y981022D01*
X813530Y981048D01*
X813399Y981069D01*
X813268Y981087D01*
X813137Y981100D01*
X813005Y981110D01*
X812873Y981116D01*
X812741Y981118D01*
X806052Y981118D01*
X806052Y990037D01*
X817200Y990037D01*
X835217Y983348D02*
X835217Y969971D01*
X835217Y983348D02*
X845250Y983348D01*
X845364Y983346D01*
X845478Y983340D01*
X845592Y983330D01*
X845705Y983317D01*
X845818Y983299D01*
X845930Y983278D01*
X846042Y983253D01*
X846152Y983224D01*
X846262Y983191D01*
X846370Y983155D01*
X846477Y983115D01*
X846582Y983071D01*
X846686Y983024D01*
X846788Y982973D01*
X846889Y982919D01*
X846987Y982861D01*
X847084Y982800D01*
X847178Y982736D01*
X847271Y982669D01*
X847360Y982598D01*
X847448Y982524D01*
X847532Y982448D01*
X847615Y982369D01*
X847694Y982286D01*
X847770Y982202D01*
X847844Y982114D01*
X847915Y982025D01*
X847982Y981932D01*
X848046Y981838D01*
X848107Y981741D01*
X848165Y981643D01*
X848219Y981542D01*
X848270Y981440D01*
X848317Y981336D01*
X848361Y981231D01*
X848401Y981124D01*
X848437Y981016D01*
X848470Y980906D01*
X848499Y980796D01*
X848524Y980684D01*
X848545Y980572D01*
X848563Y980459D01*
X848576Y980346D01*
X848586Y980232D01*
X848592Y980118D01*
X848594Y980004D01*
X848594Y969971D01*
X841905Y969971D02*
X841905Y983348D01*
X857463Y983348D02*
X857463Y969971D01*
X857463Y983348D02*
X867496Y983348D01*
X867610Y983346D01*
X867724Y983340D01*
X867838Y983330D01*
X867951Y983317D01*
X868064Y983299D01*
X868176Y983278D01*
X868288Y983253D01*
X868398Y983224D01*
X868508Y983191D01*
X868616Y983155D01*
X868723Y983115D01*
X868828Y983071D01*
X868932Y983024D01*
X869034Y982973D01*
X869135Y982919D01*
X869233Y982861D01*
X869330Y982800D01*
X869424Y982736D01*
X869517Y982669D01*
X869606Y982598D01*
X869694Y982524D01*
X869778Y982448D01*
X869861Y982369D01*
X869940Y982286D01*
X870016Y982202D01*
X870090Y982114D01*
X870161Y982025D01*
X870228Y981932D01*
X870292Y981838D01*
X870353Y981741D01*
X870411Y981643D01*
X870465Y981542D01*
X870516Y981440D01*
X870563Y981336D01*
X870607Y981231D01*
X870647Y981124D01*
X870683Y981016D01*
X870716Y980906D01*
X870745Y980796D01*
X870770Y980684D01*
X870791Y980572D01*
X870809Y980459D01*
X870822Y980346D01*
X870832Y980232D01*
X870838Y980118D01*
X870840Y980004D01*
X870840Y969971D01*
X864151Y969971D02*
X864151Y983348D01*
X888118Y969971D02*
X897036Y983348D01*
X888118Y983348D02*
X897036Y969971D01*
X919706Y990037D02*
X919847Y990035D01*
X919987Y990029D01*
X920128Y990019D01*
X920268Y990005D01*
X920407Y989988D01*
X920546Y989966D01*
X920685Y989941D01*
X920822Y989911D01*
X920959Y989878D01*
X921095Y989841D01*
X921230Y989800D01*
X921363Y989755D01*
X921495Y989707D01*
X921626Y989655D01*
X921755Y989599D01*
X921883Y989540D01*
X922009Y989477D01*
X922133Y989411D01*
X922255Y989341D01*
X922375Y989268D01*
X922493Y989191D01*
X922609Y989112D01*
X922723Y989029D01*
X922834Y988942D01*
X922943Y988853D01*
X923049Y988761D01*
X923153Y988666D01*
X923254Y988568D01*
X923352Y988467D01*
X923447Y988363D01*
X923539Y988257D01*
X923628Y988148D01*
X923715Y988037D01*
X923798Y987923D01*
X923877Y987807D01*
X923954Y987689D01*
X924027Y987569D01*
X924097Y987447D01*
X924163Y987323D01*
X924226Y987197D01*
X924285Y987069D01*
X924341Y986940D01*
X924393Y986809D01*
X924441Y986677D01*
X924486Y986544D01*
X924527Y986409D01*
X924564Y986273D01*
X924597Y986136D01*
X924627Y985999D01*
X924652Y985860D01*
X924674Y985721D01*
X924691Y985582D01*
X924705Y985442D01*
X924715Y985301D01*
X924721Y985161D01*
X924723Y985020D01*
X919706Y990037D02*
X919547Y990035D01*
X919388Y990029D01*
X919230Y990019D01*
X919071Y990006D01*
X918913Y989988D01*
X918756Y989967D01*
X918599Y989941D01*
X918443Y989912D01*
X918287Y989879D01*
X918133Y989842D01*
X917979Y989801D01*
X917827Y989757D01*
X917675Y989709D01*
X917525Y989657D01*
X917376Y989601D01*
X917229Y989542D01*
X917083Y989479D01*
X916938Y989412D01*
X916796Y989342D01*
X916655Y989269D01*
X916516Y989192D01*
X916379Y989112D01*
X916244Y989028D01*
X916111Y988941D01*
X915980Y988851D01*
X915851Y988757D01*
X915725Y988661D01*
X915601Y988561D01*
X915480Y988458D01*
X915361Y988352D01*
X915245Y988244D01*
X915132Y988132D01*
X915021Y988018D01*
X914914Y987901D01*
X914809Y987782D01*
X914707Y987660D01*
X914608Y987535D01*
X914513Y987409D01*
X914420Y987279D01*
X914331Y987148D01*
X914245Y987014D01*
X914162Y986879D01*
X914083Y986741D01*
X914007Y986601D01*
X913934Y986460D01*
X913865Y986317D01*
X913800Y986172D01*
X913738Y986025D01*
X913680Y985878D01*
X913625Y985728D01*
X913575Y985578D01*
X923050Y981118D02*
X923154Y981220D01*
X923255Y981325D01*
X923353Y981432D01*
X923449Y981542D01*
X923541Y981654D01*
X923630Y981769D01*
X923717Y981886D01*
X923800Y982005D01*
X923879Y982127D01*
X923956Y982251D01*
X924029Y982376D01*
X924098Y982504D01*
X924165Y982633D01*
X924227Y982765D01*
X924286Y982898D01*
X924342Y983032D01*
X924394Y983168D01*
X924442Y983305D01*
X924486Y983444D01*
X924527Y983583D01*
X924564Y983724D01*
X924597Y983866D01*
X924626Y984008D01*
X924651Y984151D01*
X924673Y984295D01*
X924691Y984439D01*
X924704Y984584D01*
X924714Y984729D01*
X924720Y984875D01*
X924722Y985020D01*
X923050Y981118D02*
X913574Y969971D01*
X924722Y969971D01*
X932113Y969971D02*
X937687Y969971D01*
X937687Y969970D02*
X937835Y969972D01*
X937984Y969978D01*
X938132Y969988D01*
X938279Y970002D01*
X938427Y970019D01*
X938574Y970041D01*
X938720Y970067D01*
X938865Y970096D01*
X939010Y970129D01*
X939154Y970166D01*
X939296Y970207D01*
X939438Y970252D01*
X939578Y970301D01*
X939717Y970353D01*
X939854Y970409D01*
X939990Y970468D01*
X940125Y970531D01*
X940257Y970598D01*
X940388Y970668D01*
X940517Y970742D01*
X940644Y970819D01*
X940768Y970899D01*
X940891Y970983D01*
X941011Y971070D01*
X941129Y971160D01*
X941245Y971253D01*
X941358Y971349D01*
X941468Y971448D01*
X941576Y971550D01*
X941681Y971655D01*
X941783Y971763D01*
X941882Y971873D01*
X941978Y971986D01*
X942071Y972102D01*
X942161Y972220D01*
X942248Y972340D01*
X942332Y972463D01*
X942412Y972587D01*
X942489Y972714D01*
X942563Y972843D01*
X942633Y972974D01*
X942700Y973106D01*
X942763Y973241D01*
X942822Y973377D01*
X942878Y973514D01*
X942930Y973653D01*
X942979Y973793D01*
X943024Y973935D01*
X943065Y974077D01*
X943102Y974221D01*
X943135Y974366D01*
X943164Y974511D01*
X943190Y974657D01*
X943212Y974804D01*
X943229Y974952D01*
X943243Y975099D01*
X943253Y975247D01*
X943259Y975396D01*
X943261Y975544D01*
X943259Y975692D01*
X943253Y975841D01*
X943243Y975989D01*
X943229Y976136D01*
X943212Y976284D01*
X943190Y976431D01*
X943164Y976577D01*
X943135Y976722D01*
X943102Y976867D01*
X943065Y977011D01*
X943024Y977153D01*
X942979Y977295D01*
X942930Y977435D01*
X942878Y977574D01*
X942822Y977711D01*
X942763Y977847D01*
X942700Y977982D01*
X942633Y978114D01*
X942563Y978245D01*
X942489Y978374D01*
X942412Y978501D01*
X942332Y978625D01*
X942248Y978748D01*
X942161Y978868D01*
X942071Y978986D01*
X941978Y979102D01*
X941882Y979215D01*
X941783Y979325D01*
X941681Y979433D01*
X941576Y979538D01*
X941468Y979640D01*
X941358Y979739D01*
X941245Y979835D01*
X941129Y979928D01*
X941011Y980018D01*
X940891Y980105D01*
X940768Y980189D01*
X940644Y980269D01*
X940517Y980346D01*
X940388Y980420D01*
X940257Y980490D01*
X940125Y980557D01*
X939990Y980620D01*
X939854Y980679D01*
X939717Y980735D01*
X939578Y980787D01*
X939438Y980836D01*
X939296Y980881D01*
X939154Y980922D01*
X939010Y980959D01*
X938865Y980992D01*
X938720Y981021D01*
X938574Y981047D01*
X938427Y981069D01*
X938279Y981086D01*
X938132Y981100D01*
X937984Y981110D01*
X937835Y981116D01*
X937687Y981118D01*
X938801Y990037D02*
X932113Y990037D01*
X938801Y990036D02*
X938933Y990034D01*
X939065Y990028D01*
X939197Y990018D01*
X939328Y990005D01*
X939459Y989987D01*
X939590Y989966D01*
X939719Y989940D01*
X939848Y989911D01*
X939976Y989878D01*
X940103Y989842D01*
X940229Y989801D01*
X940354Y989757D01*
X940477Y989709D01*
X940599Y989658D01*
X940719Y989603D01*
X940837Y989544D01*
X940954Y989482D01*
X941069Y989416D01*
X941181Y989348D01*
X941292Y989275D01*
X941401Y989200D01*
X941507Y989121D01*
X941611Y989040D01*
X941712Y988955D01*
X941811Y988867D01*
X941907Y988776D01*
X942000Y988683D01*
X942091Y988587D01*
X942179Y988488D01*
X942264Y988387D01*
X942345Y988283D01*
X942424Y988177D01*
X942499Y988068D01*
X942572Y987957D01*
X942640Y987845D01*
X942706Y987730D01*
X942768Y987613D01*
X942827Y987495D01*
X942882Y987375D01*
X942933Y987253D01*
X942981Y987130D01*
X943025Y987005D01*
X943066Y986879D01*
X943102Y986752D01*
X943135Y986624D01*
X943164Y986495D01*
X943190Y986366D01*
X943211Y986235D01*
X943229Y986104D01*
X943242Y985973D01*
X943252Y985841D01*
X943258Y985709D01*
X943260Y985577D01*
X943258Y985445D01*
X943252Y985313D01*
X943242Y985181D01*
X943229Y985050D01*
X943211Y984919D01*
X943190Y984788D01*
X943164Y984659D01*
X943135Y984530D01*
X943102Y984402D01*
X943066Y984275D01*
X943025Y984149D01*
X942981Y984024D01*
X942933Y983901D01*
X942882Y983779D01*
X942827Y983659D01*
X942768Y983541D01*
X942706Y983424D01*
X942640Y983309D01*
X942572Y983197D01*
X942499Y983086D01*
X942424Y982977D01*
X942345Y982871D01*
X942264Y982767D01*
X942179Y982666D01*
X942091Y982567D01*
X942000Y982471D01*
X941907Y982378D01*
X941811Y982287D01*
X941712Y982199D01*
X941611Y982114D01*
X941507Y982033D01*
X941401Y981954D01*
X941292Y981879D01*
X941181Y981806D01*
X941069Y981738D01*
X940954Y981672D01*
X940837Y981610D01*
X940719Y981551D01*
X940599Y981496D01*
X940477Y981445D01*
X940354Y981397D01*
X940229Y981353D01*
X940103Y981312D01*
X939976Y981276D01*
X939848Y981243D01*
X939719Y981214D01*
X939590Y981188D01*
X939459Y981167D01*
X939328Y981149D01*
X939197Y981136D01*
X939065Y981126D01*
X938933Y981120D01*
X938801Y981118D01*
X934342Y981118D01*
X961277Y983348D02*
X961277Y969971D01*
X961277Y983348D02*
X971310Y983348D01*
X971424Y983346D01*
X971538Y983340D01*
X971652Y983330D01*
X971765Y983317D01*
X971878Y983299D01*
X971990Y983278D01*
X972102Y983253D01*
X972212Y983224D01*
X972322Y983191D01*
X972430Y983155D01*
X972537Y983115D01*
X972642Y983071D01*
X972746Y983024D01*
X972848Y982973D01*
X972949Y982919D01*
X973047Y982861D01*
X973144Y982800D01*
X973238Y982736D01*
X973331Y982669D01*
X973420Y982598D01*
X973508Y982524D01*
X973592Y982448D01*
X973675Y982369D01*
X973754Y982286D01*
X973830Y982202D01*
X973904Y982114D01*
X973975Y982025D01*
X974042Y981932D01*
X974106Y981838D01*
X974167Y981741D01*
X974225Y981643D01*
X974279Y981542D01*
X974330Y981440D01*
X974377Y981336D01*
X974421Y981231D01*
X974461Y981124D01*
X974497Y981016D01*
X974530Y980906D01*
X974559Y980796D01*
X974584Y980684D01*
X974605Y980572D01*
X974623Y980459D01*
X974636Y980346D01*
X974646Y980232D01*
X974652Y980118D01*
X974654Y980004D01*
X974654Y969971D01*
X967966Y969971D02*
X967966Y983348D01*
X983523Y983348D02*
X983523Y969971D01*
X983523Y983348D02*
X993556Y983348D01*
X993670Y983346D01*
X993784Y983340D01*
X993898Y983330D01*
X994011Y983317D01*
X994124Y983299D01*
X994236Y983278D01*
X994348Y983253D01*
X994458Y983224D01*
X994568Y983191D01*
X994676Y983155D01*
X994783Y983115D01*
X994888Y983071D01*
X994992Y983024D01*
X995094Y982973D01*
X995195Y982919D01*
X995293Y982861D01*
X995390Y982800D01*
X995484Y982736D01*
X995577Y982669D01*
X995666Y982598D01*
X995754Y982524D01*
X995838Y982448D01*
X995921Y982369D01*
X996000Y982286D01*
X996076Y982202D01*
X996150Y982114D01*
X996221Y982025D01*
X996288Y981932D01*
X996352Y981838D01*
X996413Y981741D01*
X996471Y981643D01*
X996525Y981542D01*
X996576Y981440D01*
X996623Y981336D01*
X996667Y981231D01*
X996707Y981124D01*
X996743Y981016D01*
X996776Y980906D01*
X996805Y980796D01*
X996830Y980684D01*
X996851Y980572D01*
X996869Y980459D01*
X996882Y980346D01*
X996892Y980232D01*
X996898Y980118D01*
X996900Y980004D01*
X996900Y969971D01*
X990212Y969971D02*
X990212Y983348D01*
X1009094Y980004D02*
X1009088Y979545D01*
X1009072Y979086D01*
X1009044Y978628D01*
X1009006Y978170D01*
X1008956Y977714D01*
X1008896Y977258D01*
X1008824Y976805D01*
X1008742Y976353D01*
X1008648Y975903D01*
X1008544Y975456D01*
X1008430Y975012D01*
X1008304Y974570D01*
X1008168Y974131D01*
X1008022Y973696D01*
X1007865Y973265D01*
X1007698Y972837D01*
X1007520Y972413D01*
X1007332Y971994D01*
X1007135Y971580D01*
X1006927Y971170D01*
X1006710Y970766D01*
X1006483Y970367D01*
X1006246Y969973D01*
X1006000Y969585D01*
X1005745Y969204D01*
X1005481Y968828D01*
X1005208Y968459D01*
X1004926Y968097D01*
X1004635Y967741D01*
X1009094Y980004D02*
X1009088Y980463D01*
X1009072Y980922D01*
X1009044Y981380D01*
X1009006Y981838D01*
X1008956Y982294D01*
X1008896Y982750D01*
X1008824Y983203D01*
X1008742Y983655D01*
X1008648Y984105D01*
X1008544Y984552D01*
X1008430Y984996D01*
X1008304Y985438D01*
X1008168Y985877D01*
X1008022Y986312D01*
X1007865Y986744D01*
X1007698Y987171D01*
X1007520Y987595D01*
X1007332Y988014D01*
X1007135Y988428D01*
X1006927Y988838D01*
X1006710Y989242D01*
X1006483Y989641D01*
X1006246Y990035D01*
X1006000Y990423D01*
X1005745Y990805D01*
X1005481Y991180D01*
X1005208Y991549D01*
X1004925Y991911D01*
X1004635Y992267D01*
D12*
X505729Y421874D02*
X494045Y421874D01*
X494045Y425120D01*
X494044Y425120D02*
X494046Y425233D01*
X494052Y425346D01*
X494062Y425459D01*
X494076Y425572D01*
X494093Y425684D01*
X494115Y425795D01*
X494140Y425905D01*
X494170Y426015D01*
X494203Y426123D01*
X494240Y426230D01*
X494280Y426336D01*
X494325Y426440D01*
X494373Y426543D01*
X494424Y426644D01*
X494479Y426743D01*
X494537Y426840D01*
X494599Y426935D01*
X494664Y427028D01*
X494732Y427118D01*
X494803Y427206D01*
X494878Y427292D01*
X494955Y427375D01*
X495035Y427455D01*
X495118Y427532D01*
X495204Y427607D01*
X495292Y427678D01*
X495382Y427746D01*
X495475Y427811D01*
X495570Y427873D01*
X495667Y427931D01*
X495766Y427986D01*
X495867Y428037D01*
X495970Y428085D01*
X496074Y428130D01*
X496180Y428170D01*
X496287Y428207D01*
X496395Y428240D01*
X496505Y428270D01*
X496615Y428295D01*
X496726Y428317D01*
X496838Y428334D01*
X496951Y428348D01*
X497064Y428358D01*
X497177Y428364D01*
X497290Y428366D01*
X497403Y428364D01*
X497516Y428358D01*
X497629Y428348D01*
X497742Y428334D01*
X497854Y428317D01*
X497965Y428295D01*
X498075Y428270D01*
X498185Y428240D01*
X498293Y428207D01*
X498400Y428170D01*
X498506Y428130D01*
X498610Y428085D01*
X498713Y428037D01*
X498814Y427986D01*
X498913Y427931D01*
X499010Y427873D01*
X499105Y427811D01*
X499198Y427746D01*
X499288Y427678D01*
X499376Y427607D01*
X499462Y427532D01*
X499545Y427455D01*
X499625Y427375D01*
X499702Y427292D01*
X499777Y427206D01*
X499848Y427118D01*
X499916Y427028D01*
X499981Y426935D01*
X500043Y426840D01*
X500101Y426743D01*
X500156Y426644D01*
X500207Y426543D01*
X500255Y426440D01*
X500300Y426336D01*
X500340Y426230D01*
X500377Y426123D01*
X500410Y426015D01*
X500440Y425905D01*
X500465Y425795D01*
X500487Y425684D01*
X500504Y425572D01*
X500518Y425459D01*
X500528Y425346D01*
X500534Y425233D01*
X500536Y425120D01*
X500536Y421874D01*
X494045Y432105D02*
X505729Y435999D01*
X494045Y439894D01*
X496641Y450280D02*
X494045Y453525D01*
X505729Y453525D01*
X505729Y450280D02*
X505729Y456771D01*
X505805Y679241D02*
X494121Y679241D01*
X494121Y682487D01*
X494123Y682600D01*
X494129Y682713D01*
X494139Y682826D01*
X494153Y682939D01*
X494170Y683051D01*
X494192Y683162D01*
X494217Y683272D01*
X494247Y683382D01*
X494280Y683490D01*
X494317Y683597D01*
X494357Y683703D01*
X494402Y683807D01*
X494450Y683910D01*
X494501Y684011D01*
X494556Y684110D01*
X494614Y684207D01*
X494676Y684302D01*
X494741Y684395D01*
X494809Y684485D01*
X494880Y684573D01*
X494955Y684659D01*
X495032Y684742D01*
X495112Y684822D01*
X495195Y684899D01*
X495281Y684974D01*
X495369Y685045D01*
X495459Y685113D01*
X495552Y685178D01*
X495647Y685240D01*
X495744Y685298D01*
X495843Y685353D01*
X495944Y685404D01*
X496047Y685452D01*
X496151Y685497D01*
X496257Y685537D01*
X496364Y685574D01*
X496472Y685607D01*
X496582Y685637D01*
X496692Y685662D01*
X496803Y685684D01*
X496915Y685701D01*
X497028Y685715D01*
X497141Y685725D01*
X497254Y685731D01*
X497367Y685733D01*
X497480Y685731D01*
X497593Y685725D01*
X497706Y685715D01*
X497819Y685701D01*
X497931Y685684D01*
X498042Y685662D01*
X498152Y685637D01*
X498262Y685607D01*
X498370Y685574D01*
X498477Y685537D01*
X498583Y685497D01*
X498687Y685452D01*
X498790Y685404D01*
X498891Y685353D01*
X498990Y685298D01*
X499087Y685240D01*
X499182Y685178D01*
X499275Y685113D01*
X499365Y685045D01*
X499453Y684974D01*
X499539Y684899D01*
X499622Y684822D01*
X499702Y684742D01*
X499779Y684659D01*
X499854Y684573D01*
X499925Y684485D01*
X499993Y684395D01*
X500058Y684302D01*
X500120Y684207D01*
X500178Y684110D01*
X500233Y684011D01*
X500284Y683910D01*
X500332Y683807D01*
X500377Y683703D01*
X500417Y683597D01*
X500454Y683490D01*
X500487Y683382D01*
X500517Y683272D01*
X500542Y683162D01*
X500564Y683051D01*
X500581Y682939D01*
X500595Y682826D01*
X500605Y682713D01*
X500611Y682600D01*
X500613Y682487D01*
X500612Y682487D02*
X500612Y679241D01*
X494121Y689472D02*
X505805Y693367D01*
X494121Y697261D01*
X494121Y711217D02*
X494123Y711324D01*
X494129Y711430D01*
X494139Y711536D01*
X494152Y711642D01*
X494170Y711748D01*
X494191Y711852D01*
X494216Y711956D01*
X494245Y712059D01*
X494277Y712160D01*
X494314Y712260D01*
X494354Y712359D01*
X494397Y712457D01*
X494444Y712553D01*
X494495Y712647D01*
X494549Y712739D01*
X494606Y712829D01*
X494666Y712917D01*
X494730Y713002D01*
X494797Y713085D01*
X494867Y713166D01*
X494939Y713244D01*
X495015Y713320D01*
X495093Y713392D01*
X495174Y713462D01*
X495257Y713529D01*
X495342Y713593D01*
X495430Y713653D01*
X495520Y713710D01*
X495612Y713764D01*
X495706Y713815D01*
X495802Y713862D01*
X495900Y713905D01*
X495999Y713945D01*
X496099Y713982D01*
X496200Y714014D01*
X496303Y714043D01*
X496407Y714068D01*
X496511Y714089D01*
X496617Y714107D01*
X496723Y714120D01*
X496829Y714130D01*
X496935Y714136D01*
X497042Y714138D01*
X494121Y711217D02*
X494123Y711096D01*
X494129Y710975D01*
X494139Y710855D01*
X494152Y710734D01*
X494170Y710615D01*
X494191Y710495D01*
X494216Y710377D01*
X494245Y710260D01*
X494278Y710143D01*
X494314Y710028D01*
X494355Y709914D01*
X494398Y709801D01*
X494446Y709689D01*
X494497Y709580D01*
X494552Y709472D01*
X494610Y709365D01*
X494671Y709261D01*
X494736Y709159D01*
X494804Y709059D01*
X494875Y708961D01*
X494949Y708865D01*
X495026Y708772D01*
X495107Y708682D01*
X495190Y708594D01*
X495276Y708509D01*
X495365Y708426D01*
X495456Y708347D01*
X495550Y708270D01*
X495646Y708197D01*
X495744Y708127D01*
X495845Y708060D01*
X495948Y707996D01*
X496053Y707936D01*
X496160Y707878D01*
X496268Y707825D01*
X496378Y707775D01*
X496490Y707729D01*
X496603Y707686D01*
X496718Y707647D01*
X499314Y713164D02*
X499236Y713243D01*
X499156Y713319D01*
X499073Y713392D01*
X498987Y713462D01*
X498900Y713529D01*
X498809Y713593D01*
X498717Y713653D01*
X498623Y713711D01*
X498526Y713765D01*
X498428Y713815D01*
X498328Y713862D01*
X498227Y713906D01*
X498124Y713946D01*
X498019Y713982D01*
X497914Y714014D01*
X497807Y714043D01*
X497700Y714068D01*
X497591Y714090D01*
X497482Y714107D01*
X497373Y714121D01*
X497263Y714130D01*
X497152Y714136D01*
X497042Y714138D01*
X499314Y713165D02*
X505805Y707647D01*
X505805Y714138D01*
X988523Y419373D02*
X1000207Y419373D01*
X988523Y419373D02*
X988523Y422618D01*
X988522Y422618D02*
X988524Y422731D01*
X988530Y422844D01*
X988540Y422957D01*
X988554Y423070D01*
X988571Y423182D01*
X988593Y423293D01*
X988618Y423403D01*
X988648Y423513D01*
X988681Y423621D01*
X988718Y423728D01*
X988758Y423834D01*
X988803Y423938D01*
X988851Y424041D01*
X988902Y424142D01*
X988957Y424241D01*
X989015Y424338D01*
X989077Y424433D01*
X989142Y424526D01*
X989210Y424616D01*
X989281Y424704D01*
X989356Y424790D01*
X989433Y424873D01*
X989513Y424953D01*
X989596Y425030D01*
X989682Y425105D01*
X989770Y425176D01*
X989860Y425244D01*
X989953Y425309D01*
X990048Y425371D01*
X990145Y425429D01*
X990244Y425484D01*
X990345Y425535D01*
X990448Y425583D01*
X990552Y425628D01*
X990658Y425668D01*
X990765Y425705D01*
X990873Y425738D01*
X990983Y425768D01*
X991093Y425793D01*
X991204Y425815D01*
X991316Y425832D01*
X991429Y425846D01*
X991542Y425856D01*
X991655Y425862D01*
X991768Y425864D01*
X991881Y425862D01*
X991994Y425856D01*
X992107Y425846D01*
X992220Y425832D01*
X992332Y425815D01*
X992443Y425793D01*
X992553Y425768D01*
X992663Y425738D01*
X992771Y425705D01*
X992878Y425668D01*
X992984Y425628D01*
X993088Y425583D01*
X993191Y425535D01*
X993292Y425484D01*
X993391Y425429D01*
X993488Y425371D01*
X993583Y425309D01*
X993676Y425244D01*
X993766Y425176D01*
X993854Y425105D01*
X993940Y425030D01*
X994023Y424953D01*
X994103Y424873D01*
X994180Y424790D01*
X994255Y424704D01*
X994326Y424616D01*
X994394Y424526D01*
X994459Y424433D01*
X994521Y424338D01*
X994579Y424241D01*
X994634Y424142D01*
X994685Y424041D01*
X994733Y423938D01*
X994778Y423834D01*
X994818Y423728D01*
X994855Y423621D01*
X994888Y423513D01*
X994918Y423403D01*
X994943Y423293D01*
X994965Y423182D01*
X994982Y423070D01*
X994996Y422957D01*
X995006Y422844D01*
X995012Y422731D01*
X995014Y422618D01*
X995014Y419373D01*
X988523Y429603D02*
X1000207Y433498D01*
X988523Y437393D01*
X1000207Y447779D02*
X1000207Y451024D01*
X1000205Y451137D01*
X1000199Y451250D01*
X1000189Y451363D01*
X1000175Y451476D01*
X1000158Y451588D01*
X1000136Y451699D01*
X1000111Y451809D01*
X1000081Y451919D01*
X1000048Y452027D01*
X1000011Y452134D01*
X999971Y452240D01*
X999926Y452344D01*
X999878Y452447D01*
X999827Y452548D01*
X999772Y452647D01*
X999714Y452744D01*
X999652Y452839D01*
X999587Y452932D01*
X999519Y453022D01*
X999448Y453110D01*
X999373Y453196D01*
X999296Y453279D01*
X999216Y453359D01*
X999133Y453436D01*
X999047Y453511D01*
X998959Y453582D01*
X998869Y453650D01*
X998776Y453715D01*
X998681Y453777D01*
X998584Y453835D01*
X998485Y453890D01*
X998384Y453941D01*
X998281Y453989D01*
X998177Y454034D01*
X998071Y454074D01*
X997964Y454111D01*
X997856Y454144D01*
X997746Y454174D01*
X997636Y454199D01*
X997525Y454221D01*
X997413Y454238D01*
X997300Y454252D01*
X997187Y454262D01*
X997074Y454268D01*
X996961Y454270D01*
X996848Y454268D01*
X996735Y454262D01*
X996622Y454252D01*
X996509Y454238D01*
X996397Y454221D01*
X996286Y454199D01*
X996176Y454174D01*
X996066Y454144D01*
X995958Y454111D01*
X995851Y454074D01*
X995745Y454034D01*
X995641Y453989D01*
X995538Y453941D01*
X995437Y453890D01*
X995338Y453835D01*
X995241Y453777D01*
X995146Y453715D01*
X995053Y453650D01*
X994963Y453582D01*
X994875Y453511D01*
X994789Y453436D01*
X994706Y453359D01*
X994626Y453279D01*
X994549Y453196D01*
X994474Y453110D01*
X994403Y453022D01*
X994335Y452932D01*
X994270Y452839D01*
X994208Y452744D01*
X994150Y452647D01*
X994095Y452548D01*
X994044Y452447D01*
X993996Y452344D01*
X993951Y452240D01*
X993911Y452134D01*
X993874Y452027D01*
X993841Y451919D01*
X993811Y451809D01*
X993786Y451699D01*
X993764Y451588D01*
X993747Y451476D01*
X993733Y451363D01*
X993723Y451250D01*
X993717Y451137D01*
X993715Y451024D01*
X988523Y451673D02*
X988523Y447779D01*
X988523Y451673D02*
X988525Y451774D01*
X988531Y451874D01*
X988541Y451974D01*
X988554Y452074D01*
X988572Y452173D01*
X988593Y452272D01*
X988618Y452369D01*
X988647Y452466D01*
X988680Y452561D01*
X988716Y452655D01*
X988756Y452747D01*
X988799Y452838D01*
X988846Y452927D01*
X988896Y453014D01*
X988950Y453100D01*
X989007Y453183D01*
X989067Y453263D01*
X989130Y453342D01*
X989197Y453418D01*
X989266Y453491D01*
X989338Y453561D01*
X989412Y453629D01*
X989489Y453694D01*
X989569Y453755D01*
X989651Y453814D01*
X989735Y453869D01*
X989821Y453921D01*
X989909Y453970D01*
X989999Y454015D01*
X990091Y454057D01*
X990184Y454095D01*
X990279Y454129D01*
X990374Y454160D01*
X990471Y454187D01*
X990569Y454210D01*
X990668Y454230D01*
X990768Y454245D01*
X990868Y454257D01*
X990968Y454265D01*
X991069Y454269D01*
X991169Y454269D01*
X991270Y454265D01*
X991370Y454257D01*
X991470Y454245D01*
X991570Y454230D01*
X991669Y454210D01*
X991767Y454187D01*
X991864Y454160D01*
X991959Y454129D01*
X992054Y454095D01*
X992147Y454057D01*
X992239Y454015D01*
X992329Y453970D01*
X992417Y453921D01*
X992503Y453869D01*
X992587Y453814D01*
X992669Y453755D01*
X992749Y453694D01*
X992826Y453629D01*
X992900Y453561D01*
X992972Y453491D01*
X993041Y453418D01*
X993108Y453342D01*
X993171Y453263D01*
X993231Y453183D01*
X993288Y453100D01*
X993342Y453014D01*
X993392Y452927D01*
X993439Y452838D01*
X993482Y452747D01*
X993522Y452655D01*
X993558Y452561D01*
X993591Y452466D01*
X993620Y452369D01*
X993645Y452272D01*
X993666Y452173D01*
X993684Y452074D01*
X993697Y451974D01*
X993707Y451874D01*
X993713Y451774D01*
X993715Y451673D01*
X993716Y451673D02*
X993716Y449077D01*
X998758Y671129D02*
X987074Y671129D01*
X987074Y674375D01*
X987076Y674488D01*
X987082Y674601D01*
X987092Y674714D01*
X987106Y674827D01*
X987123Y674939D01*
X987145Y675050D01*
X987170Y675160D01*
X987200Y675270D01*
X987233Y675378D01*
X987270Y675485D01*
X987310Y675591D01*
X987355Y675695D01*
X987403Y675798D01*
X987454Y675899D01*
X987509Y675998D01*
X987567Y676095D01*
X987629Y676190D01*
X987694Y676283D01*
X987762Y676373D01*
X987833Y676461D01*
X987908Y676547D01*
X987985Y676630D01*
X988065Y676710D01*
X988148Y676787D01*
X988234Y676862D01*
X988322Y676933D01*
X988412Y677001D01*
X988505Y677066D01*
X988600Y677128D01*
X988697Y677186D01*
X988796Y677241D01*
X988897Y677292D01*
X989000Y677340D01*
X989104Y677385D01*
X989210Y677425D01*
X989317Y677462D01*
X989425Y677495D01*
X989535Y677525D01*
X989645Y677550D01*
X989756Y677572D01*
X989868Y677589D01*
X989981Y677603D01*
X990094Y677613D01*
X990207Y677619D01*
X990320Y677621D01*
X990433Y677619D01*
X990546Y677613D01*
X990659Y677603D01*
X990772Y677589D01*
X990884Y677572D01*
X990995Y677550D01*
X991105Y677525D01*
X991215Y677495D01*
X991323Y677462D01*
X991430Y677425D01*
X991536Y677385D01*
X991640Y677340D01*
X991743Y677292D01*
X991844Y677241D01*
X991943Y677186D01*
X992040Y677128D01*
X992135Y677066D01*
X992228Y677001D01*
X992318Y676933D01*
X992406Y676862D01*
X992492Y676787D01*
X992575Y676710D01*
X992655Y676630D01*
X992732Y676547D01*
X992807Y676461D01*
X992878Y676373D01*
X992946Y676283D01*
X993011Y676190D01*
X993073Y676095D01*
X993131Y675998D01*
X993186Y675899D01*
X993237Y675798D01*
X993285Y675695D01*
X993330Y675591D01*
X993370Y675485D01*
X993407Y675378D01*
X993440Y675270D01*
X993470Y675160D01*
X993495Y675050D01*
X993517Y674939D01*
X993534Y674827D01*
X993548Y674714D01*
X993558Y674601D01*
X993564Y674488D01*
X993566Y674375D01*
X993565Y674375D02*
X993565Y671129D01*
X987074Y681360D02*
X998758Y685254D01*
X987074Y689149D01*
X987074Y702131D02*
X996162Y699535D01*
X996162Y706026D01*
X993565Y704079D02*
X998758Y704079D01*
D13*
X624944Y347562D02*
X624808Y347396D01*
X624676Y347226D01*
X624548Y347053D01*
X624424Y346877D01*
X624305Y346699D01*
X624190Y346517D01*
X624079Y346333D01*
X623973Y346146D01*
X623871Y345956D01*
X623774Y345764D01*
X623681Y345570D01*
X623593Y345374D01*
X623510Y345176D01*
X623432Y344975D01*
X623358Y344773D01*
X623290Y344569D01*
X623226Y344364D01*
X623167Y344157D01*
X623113Y343949D01*
X623065Y343739D01*
X623021Y343529D01*
X622982Y343317D01*
X622949Y343105D01*
X622921Y342892D01*
X622897Y342678D01*
X622879Y342464D01*
X622866Y342249D01*
X622859Y342034D01*
X622856Y341819D01*
X622859Y341604D01*
X622866Y341389D01*
X622879Y341174D01*
X622897Y340960D01*
X622921Y340746D01*
X622949Y340533D01*
X622982Y340321D01*
X623021Y340109D01*
X623065Y339899D01*
X623113Y339689D01*
X623167Y339481D01*
X623226Y339274D01*
X623290Y339069D01*
X623358Y338865D01*
X623432Y338663D01*
X623510Y338462D01*
X623593Y338264D01*
X623681Y338068D01*
X623774Y337874D01*
X623871Y337682D01*
X623973Y337492D01*
X624079Y337305D01*
X624190Y337121D01*
X624305Y336940D01*
X624424Y336761D01*
X624548Y336585D01*
X624676Y336412D01*
X624808Y336242D01*
X624944Y336076D01*
X628669Y340775D02*
X634934Y340775D01*
X640748Y341819D02*
X640745Y341604D01*
X640738Y341389D01*
X640725Y341174D01*
X640707Y340960D01*
X640683Y340746D01*
X640655Y340533D01*
X640622Y340321D01*
X640583Y340109D01*
X640539Y339899D01*
X640491Y339689D01*
X640437Y339481D01*
X640378Y339274D01*
X640314Y339069D01*
X640246Y338865D01*
X640172Y338663D01*
X640094Y338462D01*
X640011Y338264D01*
X639923Y338068D01*
X639830Y337874D01*
X639733Y337682D01*
X639631Y337492D01*
X639525Y337305D01*
X639414Y337121D01*
X639299Y336940D01*
X639180Y336761D01*
X639056Y336585D01*
X638928Y336412D01*
X638796Y336242D01*
X638660Y336076D01*
X640748Y341819D02*
X640745Y342034D01*
X640738Y342249D01*
X640725Y342464D01*
X640707Y342678D01*
X640683Y342892D01*
X640655Y343105D01*
X640622Y343317D01*
X640583Y343529D01*
X640539Y343739D01*
X640491Y343949D01*
X640437Y344157D01*
X640378Y344364D01*
X640314Y344569D01*
X640246Y344773D01*
X640172Y344975D01*
X640094Y345176D01*
X640011Y345374D01*
X639923Y345570D01*
X639830Y345764D01*
X639733Y345956D01*
X639631Y346146D01*
X639525Y346333D01*
X639414Y346517D01*
X639299Y346699D01*
X639180Y346877D01*
X639056Y347053D01*
X638928Y347226D01*
X638796Y347396D01*
X638660Y347562D01*
X857218Y342349D02*
X857221Y342564D01*
X857228Y342779D01*
X857241Y342994D01*
X857259Y343208D01*
X857283Y343422D01*
X857311Y343635D01*
X857344Y343847D01*
X857383Y344059D01*
X857427Y344269D01*
X857475Y344479D01*
X857529Y344687D01*
X857588Y344894D01*
X857652Y345099D01*
X857720Y345303D01*
X857794Y345505D01*
X857872Y345706D01*
X857955Y345904D01*
X858043Y346100D01*
X858136Y346294D01*
X858233Y346486D01*
X858335Y346676D01*
X858441Y346863D01*
X858552Y347047D01*
X858667Y347229D01*
X858786Y347407D01*
X858910Y347583D01*
X859038Y347756D01*
X859170Y347926D01*
X859306Y348092D01*
X857218Y342349D02*
X857221Y342134D01*
X857228Y341919D01*
X857241Y341704D01*
X857259Y341490D01*
X857283Y341276D01*
X857311Y341063D01*
X857344Y340851D01*
X857383Y340639D01*
X857427Y340429D01*
X857475Y340219D01*
X857529Y340011D01*
X857588Y339804D01*
X857652Y339599D01*
X857720Y339395D01*
X857794Y339193D01*
X857872Y338992D01*
X857955Y338794D01*
X858043Y338598D01*
X858136Y338404D01*
X858233Y338212D01*
X858335Y338022D01*
X858441Y337835D01*
X858552Y337651D01*
X858667Y337470D01*
X858786Y337291D01*
X858910Y337115D01*
X859038Y336942D01*
X859170Y336772D01*
X859306Y336606D01*
X863031Y341305D02*
X869296Y341305D01*
X875110Y342349D02*
X875107Y342134D01*
X875100Y341919D01*
X875087Y341704D01*
X875069Y341490D01*
X875045Y341276D01*
X875017Y341063D01*
X874984Y340851D01*
X874945Y340639D01*
X874901Y340429D01*
X874853Y340219D01*
X874799Y340011D01*
X874740Y339804D01*
X874676Y339599D01*
X874608Y339395D01*
X874534Y339193D01*
X874456Y338992D01*
X874373Y338794D01*
X874285Y338598D01*
X874192Y338404D01*
X874095Y338212D01*
X873993Y338022D01*
X873887Y337835D01*
X873776Y337651D01*
X873661Y337470D01*
X873542Y337291D01*
X873418Y337115D01*
X873290Y336942D01*
X873158Y336772D01*
X873022Y336606D01*
X875110Y342349D02*
X875107Y342564D01*
X875100Y342779D01*
X875087Y342994D01*
X875069Y343208D01*
X875045Y343422D01*
X875017Y343635D01*
X874984Y343847D01*
X874945Y344059D01*
X874901Y344269D01*
X874853Y344479D01*
X874799Y344687D01*
X874740Y344894D01*
X874676Y345099D01*
X874608Y345303D01*
X874534Y345505D01*
X874456Y345706D01*
X874373Y345904D01*
X874285Y346100D01*
X874192Y346294D01*
X874095Y346486D01*
X873993Y346676D01*
X873887Y346863D01*
X873776Y347047D01*
X873661Y347229D01*
X873542Y347407D01*
X873418Y347583D01*
X873290Y347756D01*
X873158Y347926D01*
X873022Y348092D01*
X620317Y596758D02*
X620320Y596973D01*
X620327Y597188D01*
X620340Y597403D01*
X620358Y597617D01*
X620382Y597831D01*
X620410Y598044D01*
X620443Y598256D01*
X620482Y598468D01*
X620526Y598678D01*
X620574Y598888D01*
X620628Y599096D01*
X620687Y599303D01*
X620751Y599508D01*
X620819Y599712D01*
X620893Y599914D01*
X620971Y600115D01*
X621054Y600313D01*
X621142Y600509D01*
X621235Y600703D01*
X621332Y600895D01*
X621434Y601085D01*
X621540Y601272D01*
X621651Y601456D01*
X621766Y601638D01*
X621885Y601816D01*
X622009Y601992D01*
X622137Y602165D01*
X622269Y602335D01*
X622405Y602501D01*
X620317Y596758D02*
X620320Y596543D01*
X620327Y596328D01*
X620340Y596113D01*
X620358Y595899D01*
X620382Y595685D01*
X620410Y595472D01*
X620443Y595260D01*
X620482Y595048D01*
X620526Y594838D01*
X620574Y594628D01*
X620628Y594420D01*
X620687Y594213D01*
X620751Y594008D01*
X620819Y593804D01*
X620893Y593602D01*
X620971Y593401D01*
X621054Y593203D01*
X621142Y593007D01*
X621235Y592813D01*
X621332Y592621D01*
X621434Y592431D01*
X621540Y592244D01*
X621651Y592060D01*
X621766Y591879D01*
X621885Y591700D01*
X622009Y591524D01*
X622137Y591351D01*
X622269Y591181D01*
X622405Y591015D01*
X626130Y595714D02*
X632396Y595714D01*
X638209Y596758D02*
X638206Y596543D01*
X638199Y596328D01*
X638186Y596113D01*
X638168Y595899D01*
X638144Y595685D01*
X638116Y595472D01*
X638083Y595260D01*
X638044Y595048D01*
X638000Y594838D01*
X637952Y594628D01*
X637898Y594420D01*
X637839Y594213D01*
X637775Y594008D01*
X637707Y593804D01*
X637633Y593602D01*
X637555Y593401D01*
X637472Y593203D01*
X637384Y593007D01*
X637291Y592813D01*
X637194Y592621D01*
X637092Y592431D01*
X636986Y592244D01*
X636875Y592060D01*
X636760Y591879D01*
X636641Y591700D01*
X636517Y591524D01*
X636389Y591351D01*
X636257Y591181D01*
X636121Y591015D01*
X638209Y596758D02*
X638206Y596973D01*
X638199Y597188D01*
X638186Y597403D01*
X638168Y597617D01*
X638144Y597831D01*
X638116Y598044D01*
X638083Y598256D01*
X638044Y598468D01*
X638000Y598678D01*
X637952Y598888D01*
X637898Y599096D01*
X637839Y599303D01*
X637775Y599508D01*
X637707Y599712D01*
X637633Y599914D01*
X637555Y600115D01*
X637472Y600313D01*
X637384Y600509D01*
X637291Y600703D01*
X637194Y600895D01*
X637092Y601085D01*
X636986Y601272D01*
X636875Y601456D01*
X636760Y601638D01*
X636641Y601816D01*
X636517Y601992D01*
X636389Y602165D01*
X636257Y602335D01*
X636121Y602501D01*
X860262Y597635D02*
X860265Y597850D01*
X860272Y598065D01*
X860285Y598280D01*
X860303Y598494D01*
X860327Y598708D01*
X860355Y598921D01*
X860388Y599133D01*
X860427Y599345D01*
X860471Y599555D01*
X860519Y599765D01*
X860573Y599973D01*
X860632Y600180D01*
X860696Y600385D01*
X860764Y600589D01*
X860838Y600791D01*
X860916Y600992D01*
X860999Y601190D01*
X861087Y601386D01*
X861180Y601580D01*
X861277Y601772D01*
X861379Y601962D01*
X861485Y602149D01*
X861596Y602333D01*
X861711Y602515D01*
X861830Y602693D01*
X861954Y602869D01*
X862082Y603042D01*
X862214Y603212D01*
X862350Y603378D01*
X860262Y597635D02*
X860265Y597420D01*
X860272Y597205D01*
X860285Y596990D01*
X860303Y596776D01*
X860327Y596562D01*
X860355Y596349D01*
X860388Y596137D01*
X860427Y595925D01*
X860471Y595715D01*
X860519Y595505D01*
X860573Y595297D01*
X860632Y595090D01*
X860696Y594885D01*
X860764Y594681D01*
X860838Y594479D01*
X860916Y594278D01*
X860999Y594080D01*
X861087Y593884D01*
X861180Y593690D01*
X861277Y593498D01*
X861379Y593308D01*
X861485Y593121D01*
X861596Y592937D01*
X861711Y592756D01*
X861830Y592577D01*
X861954Y592401D01*
X862082Y592228D01*
X862214Y592058D01*
X862350Y591892D01*
X866076Y596591D02*
X872341Y596591D01*
X878154Y597635D02*
X878151Y597420D01*
X878144Y597205D01*
X878131Y596990D01*
X878113Y596776D01*
X878089Y596562D01*
X878061Y596349D01*
X878028Y596137D01*
X877989Y595925D01*
X877945Y595715D01*
X877897Y595505D01*
X877843Y595297D01*
X877784Y595090D01*
X877720Y594885D01*
X877652Y594681D01*
X877578Y594479D01*
X877500Y594278D01*
X877417Y594080D01*
X877329Y593884D01*
X877236Y593690D01*
X877139Y593498D01*
X877037Y593308D01*
X876931Y593121D01*
X876820Y592937D01*
X876705Y592756D01*
X876586Y592577D01*
X876462Y592401D01*
X876334Y592228D01*
X876202Y592058D01*
X876066Y591892D01*
X878154Y597635D02*
X878151Y597850D01*
X878144Y598065D01*
X878131Y598280D01*
X878113Y598494D01*
X878089Y598708D01*
X878061Y598921D01*
X878028Y599133D01*
X877989Y599345D01*
X877945Y599555D01*
X877897Y599765D01*
X877843Y599973D01*
X877784Y600180D01*
X877720Y600385D01*
X877652Y600589D01*
X877578Y600791D01*
X877500Y600992D01*
X877417Y601190D01*
X877329Y601386D01*
X877236Y601580D01*
X877139Y601772D01*
X877037Y601962D01*
X876931Y602149D01*
X876820Y602333D01*
X876705Y602515D01*
X876586Y602693D01*
X876462Y602869D01*
X876334Y603042D01*
X876202Y603212D01*
X876066Y603378D01*
X622130Y780939D02*
X622133Y781154D01*
X622140Y781369D01*
X622153Y781584D01*
X622171Y781798D01*
X622195Y782012D01*
X622223Y782225D01*
X622256Y782437D01*
X622295Y782649D01*
X622339Y782859D01*
X622387Y783069D01*
X622441Y783277D01*
X622500Y783484D01*
X622564Y783689D01*
X622632Y783893D01*
X622706Y784095D01*
X622784Y784296D01*
X622867Y784494D01*
X622955Y784690D01*
X623048Y784884D01*
X623145Y785076D01*
X623247Y785266D01*
X623353Y785453D01*
X623464Y785637D01*
X623579Y785819D01*
X623698Y785997D01*
X623822Y786173D01*
X623950Y786346D01*
X624082Y786516D01*
X624218Y786682D01*
X622130Y780939D02*
X622133Y780724D01*
X622140Y780509D01*
X622153Y780294D01*
X622171Y780080D01*
X622195Y779866D01*
X622223Y779653D01*
X622256Y779441D01*
X622295Y779229D01*
X622339Y779019D01*
X622387Y778809D01*
X622441Y778601D01*
X622500Y778394D01*
X622564Y778189D01*
X622632Y777985D01*
X622706Y777783D01*
X622784Y777582D01*
X622867Y777384D01*
X622955Y777188D01*
X623048Y776994D01*
X623145Y776802D01*
X623247Y776612D01*
X623353Y776425D01*
X623464Y776241D01*
X623579Y776060D01*
X623698Y775881D01*
X623822Y775705D01*
X623950Y775532D01*
X624082Y775362D01*
X624218Y775196D01*
X627943Y779895D02*
X634208Y779895D01*
X631076Y783027D02*
X631076Y776762D01*
X637934Y775196D02*
X638070Y775362D01*
X638202Y775532D01*
X638330Y775705D01*
X638454Y775881D01*
X638573Y776060D01*
X638688Y776241D01*
X638799Y776425D01*
X638905Y776612D01*
X639007Y776802D01*
X639104Y776994D01*
X639197Y777188D01*
X639285Y777384D01*
X639368Y777582D01*
X639446Y777783D01*
X639520Y777985D01*
X639588Y778189D01*
X639652Y778394D01*
X639711Y778601D01*
X639765Y778809D01*
X639813Y779019D01*
X639857Y779229D01*
X639896Y779441D01*
X639929Y779653D01*
X639957Y779866D01*
X639981Y780080D01*
X639999Y780294D01*
X640012Y780509D01*
X640019Y780724D01*
X640022Y780939D01*
X640019Y781154D01*
X640012Y781369D01*
X639999Y781584D01*
X639981Y781798D01*
X639957Y782012D01*
X639929Y782225D01*
X639896Y782437D01*
X639857Y782649D01*
X639813Y782859D01*
X639765Y783069D01*
X639711Y783277D01*
X639652Y783484D01*
X639588Y783689D01*
X639520Y783893D01*
X639446Y784095D01*
X639368Y784296D01*
X639285Y784494D01*
X639197Y784690D01*
X639104Y784884D01*
X639007Y785076D01*
X638905Y785266D01*
X638799Y785453D01*
X638688Y785637D01*
X638573Y785819D01*
X638454Y785997D01*
X638330Y786173D01*
X638202Y786346D01*
X638070Y786516D01*
X637934Y786682D01*
X622173Y530068D02*
X622037Y529902D01*
X621905Y529732D01*
X621777Y529559D01*
X621653Y529383D01*
X621534Y529205D01*
X621419Y529023D01*
X621308Y528839D01*
X621202Y528652D01*
X621100Y528462D01*
X621003Y528270D01*
X620910Y528076D01*
X620822Y527880D01*
X620739Y527682D01*
X620661Y527481D01*
X620587Y527279D01*
X620519Y527075D01*
X620455Y526870D01*
X620396Y526663D01*
X620342Y526455D01*
X620294Y526245D01*
X620250Y526035D01*
X620211Y525823D01*
X620178Y525611D01*
X620150Y525398D01*
X620126Y525184D01*
X620108Y524970D01*
X620095Y524755D01*
X620088Y524540D01*
X620085Y524325D01*
X620088Y524110D01*
X620095Y523895D01*
X620108Y523680D01*
X620126Y523466D01*
X620150Y523252D01*
X620178Y523039D01*
X620211Y522827D01*
X620250Y522615D01*
X620294Y522405D01*
X620342Y522195D01*
X620396Y521987D01*
X620455Y521780D01*
X620519Y521575D01*
X620587Y521371D01*
X620661Y521169D01*
X620739Y520968D01*
X620822Y520770D01*
X620910Y520574D01*
X621003Y520380D01*
X621100Y520188D01*
X621202Y519998D01*
X621308Y519811D01*
X621419Y519627D01*
X621534Y519446D01*
X621653Y519267D01*
X621777Y519091D01*
X621905Y518918D01*
X622037Y518748D01*
X622173Y518582D01*
X625899Y523280D02*
X632164Y523280D01*
X629031Y520148D02*
X629031Y526413D01*
X637977Y524325D02*
X637974Y524110D01*
X637967Y523895D01*
X637954Y523680D01*
X637936Y523466D01*
X637912Y523252D01*
X637884Y523039D01*
X637851Y522827D01*
X637812Y522615D01*
X637768Y522405D01*
X637720Y522195D01*
X637666Y521987D01*
X637607Y521780D01*
X637543Y521575D01*
X637475Y521371D01*
X637401Y521169D01*
X637323Y520968D01*
X637240Y520770D01*
X637152Y520574D01*
X637059Y520380D01*
X636962Y520188D01*
X636860Y519998D01*
X636754Y519811D01*
X636643Y519627D01*
X636528Y519446D01*
X636409Y519267D01*
X636285Y519091D01*
X636157Y518918D01*
X636025Y518748D01*
X635889Y518582D01*
X637977Y524325D02*
X637974Y524540D01*
X637967Y524755D01*
X637954Y524970D01*
X637936Y525184D01*
X637912Y525398D01*
X637884Y525611D01*
X637851Y525823D01*
X637812Y526035D01*
X637768Y526245D01*
X637720Y526455D01*
X637666Y526663D01*
X637607Y526870D01*
X637543Y527075D01*
X637475Y527279D01*
X637401Y527481D01*
X637323Y527682D01*
X637240Y527880D01*
X637152Y528076D01*
X637059Y528270D01*
X636962Y528462D01*
X636860Y528652D01*
X636754Y528839D01*
X636643Y529023D01*
X636528Y529205D01*
X636409Y529383D01*
X636285Y529559D01*
X636157Y529732D01*
X636025Y529902D01*
X635889Y530068D01*
X858269Y524680D02*
X858272Y524895D01*
X858279Y525110D01*
X858292Y525325D01*
X858310Y525539D01*
X858334Y525753D01*
X858362Y525966D01*
X858395Y526178D01*
X858434Y526390D01*
X858478Y526600D01*
X858526Y526810D01*
X858580Y527018D01*
X858639Y527225D01*
X858703Y527430D01*
X858771Y527634D01*
X858845Y527836D01*
X858923Y528037D01*
X859006Y528235D01*
X859094Y528431D01*
X859187Y528625D01*
X859284Y528817D01*
X859386Y529007D01*
X859492Y529194D01*
X859603Y529378D01*
X859718Y529560D01*
X859837Y529738D01*
X859961Y529914D01*
X860089Y530087D01*
X860221Y530257D01*
X860357Y530423D01*
X858269Y524680D02*
X858272Y524465D01*
X858279Y524250D01*
X858292Y524035D01*
X858310Y523821D01*
X858334Y523607D01*
X858362Y523394D01*
X858395Y523182D01*
X858434Y522970D01*
X858478Y522760D01*
X858526Y522550D01*
X858580Y522342D01*
X858639Y522135D01*
X858703Y521930D01*
X858771Y521726D01*
X858845Y521524D01*
X858923Y521323D01*
X859006Y521125D01*
X859094Y520929D01*
X859187Y520735D01*
X859284Y520543D01*
X859386Y520353D01*
X859492Y520166D01*
X859603Y519982D01*
X859718Y519801D01*
X859837Y519622D01*
X859961Y519446D01*
X860089Y519273D01*
X860221Y519103D01*
X860357Y518937D01*
X864082Y523635D02*
X870347Y523635D01*
X867215Y520503D02*
X867215Y526768D01*
X876161Y524680D02*
X876158Y524465D01*
X876151Y524250D01*
X876138Y524035D01*
X876120Y523821D01*
X876096Y523607D01*
X876068Y523394D01*
X876035Y523182D01*
X875996Y522970D01*
X875952Y522760D01*
X875904Y522550D01*
X875850Y522342D01*
X875791Y522135D01*
X875727Y521930D01*
X875659Y521726D01*
X875585Y521524D01*
X875507Y521323D01*
X875424Y521125D01*
X875336Y520929D01*
X875243Y520735D01*
X875146Y520543D01*
X875044Y520353D01*
X874938Y520166D01*
X874827Y519982D01*
X874712Y519801D01*
X874593Y519622D01*
X874469Y519446D01*
X874341Y519273D01*
X874209Y519103D01*
X874073Y518937D01*
X876161Y524680D02*
X876158Y524895D01*
X876151Y525110D01*
X876138Y525325D01*
X876120Y525539D01*
X876096Y525753D01*
X876068Y525966D01*
X876035Y526178D01*
X875996Y526390D01*
X875952Y526600D01*
X875904Y526810D01*
X875850Y527018D01*
X875791Y527225D01*
X875727Y527430D01*
X875659Y527634D01*
X875585Y527836D01*
X875507Y528037D01*
X875424Y528235D01*
X875336Y528431D01*
X875243Y528625D01*
X875146Y528817D01*
X875044Y529007D01*
X874938Y529194D01*
X874827Y529378D01*
X874712Y529560D01*
X874593Y529738D01*
X874469Y529914D01*
X874341Y530087D01*
X874209Y530257D01*
X874073Y530423D01*
X857369Y781514D02*
X857372Y781729D01*
X857379Y781944D01*
X857392Y782159D01*
X857410Y782373D01*
X857434Y782587D01*
X857462Y782800D01*
X857495Y783012D01*
X857534Y783224D01*
X857578Y783434D01*
X857626Y783644D01*
X857680Y783852D01*
X857739Y784059D01*
X857803Y784264D01*
X857871Y784468D01*
X857945Y784670D01*
X858023Y784871D01*
X858106Y785069D01*
X858194Y785265D01*
X858287Y785459D01*
X858384Y785651D01*
X858486Y785841D01*
X858592Y786028D01*
X858703Y786212D01*
X858818Y786394D01*
X858937Y786572D01*
X859061Y786748D01*
X859189Y786921D01*
X859321Y787091D01*
X859457Y787257D01*
X857369Y781514D02*
X857372Y781299D01*
X857379Y781084D01*
X857392Y780869D01*
X857410Y780655D01*
X857434Y780441D01*
X857462Y780228D01*
X857495Y780016D01*
X857534Y779804D01*
X857578Y779594D01*
X857626Y779384D01*
X857680Y779176D01*
X857739Y778969D01*
X857803Y778764D01*
X857871Y778560D01*
X857945Y778358D01*
X858023Y778157D01*
X858106Y777959D01*
X858194Y777763D01*
X858287Y777569D01*
X858384Y777377D01*
X858486Y777187D01*
X858592Y777000D01*
X858703Y776816D01*
X858818Y776635D01*
X858937Y776456D01*
X859061Y776280D01*
X859189Y776107D01*
X859321Y775937D01*
X859457Y775771D01*
X863182Y780469D02*
X869447Y780469D01*
X866315Y777337D02*
X866315Y783602D01*
X875261Y781514D02*
X875258Y781299D01*
X875251Y781084D01*
X875238Y780869D01*
X875220Y780655D01*
X875196Y780441D01*
X875168Y780228D01*
X875135Y780016D01*
X875096Y779804D01*
X875052Y779594D01*
X875004Y779384D01*
X874950Y779176D01*
X874891Y778969D01*
X874827Y778764D01*
X874759Y778560D01*
X874685Y778358D01*
X874607Y778157D01*
X874524Y777959D01*
X874436Y777763D01*
X874343Y777569D01*
X874246Y777377D01*
X874144Y777187D01*
X874038Y777000D01*
X873927Y776816D01*
X873812Y776635D01*
X873693Y776456D01*
X873569Y776280D01*
X873441Y776107D01*
X873309Y775937D01*
X873173Y775771D01*
X875261Y781514D02*
X875258Y781729D01*
X875251Y781944D01*
X875238Y782159D01*
X875220Y782373D01*
X875196Y782587D01*
X875168Y782800D01*
X875135Y783012D01*
X875096Y783224D01*
X875052Y783434D01*
X875004Y783644D01*
X874950Y783852D01*
X874891Y784059D01*
X874827Y784264D01*
X874759Y784468D01*
X874685Y784670D01*
X874607Y784871D01*
X874524Y785069D01*
X874436Y785265D01*
X874343Y785459D01*
X874246Y785651D01*
X874144Y785841D01*
X874038Y786028D01*
X873927Y786212D01*
X873812Y786394D01*
X873693Y786572D01*
X873569Y786748D01*
X873441Y786921D01*
X873309Y787091D01*
X873173Y787257D01*
D14*
X152733Y988494D02*
X124491Y1016786D01*
X103251Y995584D02*
X131493Y967292D01*
X116568Y981324D02*
X80226Y945046D01*
X138728Y1003445D02*
X181684Y1046326D01*
X154413Y1023613D02*
X138728Y1003445D01*
X154413Y1023613D02*
X158924Y1019095D01*
X138728Y1003445D01*
X155750Y1022274D01*
X157587Y1020434D02*
X138728Y1003445D01*
X154832Y1023194D01*
X158505Y1019514D02*
X138728Y1003445D01*
X116568Y981324D02*
X96371Y965674D01*
X100882Y961155D01*
X116568Y981324D01*
X97708Y964334D01*
X99545Y962494D02*
X116568Y981324D01*
X96790Y965254D01*
X100464Y961574D02*
X116568Y981324D01*
D12*
X153508Y1025240D02*
X155807Y1027530D01*
X155886Y1027611D01*
X155962Y1027695D01*
X156035Y1027782D01*
X156105Y1027871D01*
X156172Y1027963D01*
X156235Y1028056D01*
X156295Y1028152D01*
X156352Y1028250D01*
X156406Y1028350D01*
X156455Y1028452D01*
X156502Y1028555D01*
X156544Y1028660D01*
X156583Y1028767D01*
X156619Y1028875D01*
X156650Y1028983D01*
X156678Y1029093D01*
X156701Y1029204D01*
X156721Y1029316D01*
X156737Y1029428D01*
X156749Y1029540D01*
X156757Y1029653D01*
X156761Y1029767D01*
X156762Y1029880D01*
X156758Y1029993D01*
X156750Y1030106D01*
X156738Y1030219D01*
X156723Y1030331D01*
X156703Y1030443D01*
X156680Y1030554D01*
X156653Y1030664D01*
X156622Y1030773D01*
X156587Y1030880D01*
X156548Y1030987D01*
X156506Y1031092D01*
X156460Y1031196D01*
X156411Y1031298D01*
X156358Y1031398D01*
X156301Y1031496D01*
X156241Y1031592D01*
X156178Y1031686D01*
X156112Y1031778D01*
X156042Y1031867D01*
X155969Y1031954D01*
X155894Y1032039D01*
X155815Y1032120D01*
X155734Y1032199D01*
X155650Y1032275D01*
X155563Y1032348D01*
X155474Y1032418D01*
X155382Y1032485D01*
X155289Y1032548D01*
X155193Y1032608D01*
X155095Y1032665D01*
X154995Y1032719D01*
X154893Y1032768D01*
X154790Y1032815D01*
X154685Y1032857D01*
X154578Y1032896D01*
X154470Y1032932D01*
X154362Y1032963D01*
X154252Y1032991D01*
X154141Y1033014D01*
X154029Y1033034D01*
X153917Y1033050D01*
X153805Y1033062D01*
X153692Y1033070D01*
X153578Y1033074D01*
X153465Y1033075D01*
X153352Y1033071D01*
X153239Y1033063D01*
X153126Y1033051D01*
X153014Y1033036D01*
X152902Y1033016D01*
X152791Y1032993D01*
X152681Y1032966D01*
X152572Y1032935D01*
X152465Y1032900D01*
X152358Y1032861D01*
X152253Y1032819D01*
X152149Y1032773D01*
X152047Y1032724D01*
X151947Y1032671D01*
X151849Y1032614D01*
X151753Y1032554D01*
X151659Y1032491D01*
X151567Y1032425D01*
X151478Y1032355D01*
X151391Y1032282D01*
X151306Y1032207D01*
X151225Y1032128D01*
X148019Y1036265D02*
X145261Y1033516D01*
X148020Y1036265D02*
X148092Y1036335D01*
X148168Y1036401D01*
X148245Y1036465D01*
X148326Y1036526D01*
X148408Y1036584D01*
X148493Y1036638D01*
X148580Y1036689D01*
X148668Y1036737D01*
X148759Y1036781D01*
X148851Y1036821D01*
X148945Y1036858D01*
X149040Y1036892D01*
X149136Y1036921D01*
X149233Y1036947D01*
X149331Y1036969D01*
X149430Y1036988D01*
X149530Y1037002D01*
X149630Y1037013D01*
X149731Y1037019D01*
X149831Y1037022D01*
X149932Y1037021D01*
X150033Y1037016D01*
X150133Y1037007D01*
X150233Y1036994D01*
X150332Y1036977D01*
X150431Y1036957D01*
X150528Y1036932D01*
X150625Y1036904D01*
X150720Y1036872D01*
X150815Y1036837D01*
X150907Y1036798D01*
X150999Y1036755D01*
X151088Y1036709D01*
X151176Y1036659D01*
X151261Y1036606D01*
X151345Y1036550D01*
X151426Y1036490D01*
X151505Y1036428D01*
X151581Y1036362D01*
X151655Y1036294D01*
X151726Y1036222D01*
X151794Y1036148D01*
X151860Y1036072D01*
X151922Y1035993D01*
X151981Y1035911D01*
X152037Y1035828D01*
X152090Y1035742D01*
X152139Y1035654D01*
X152185Y1035564D01*
X152227Y1035473D01*
X152266Y1035380D01*
X152301Y1035286D01*
X152333Y1035190D01*
X152361Y1035094D01*
X152385Y1034996D01*
X152405Y1034897D01*
X152421Y1034798D01*
X152434Y1034698D01*
X152442Y1034598D01*
X152447Y1034497D01*
X152448Y1034396D01*
X152445Y1034296D01*
X152438Y1034195D01*
X152427Y1034095D01*
X152412Y1033996D01*
X152393Y1033897D01*
X152371Y1033798D01*
X152345Y1033701D01*
X152315Y1033605D01*
X152281Y1033510D01*
X152244Y1033417D01*
X152203Y1033325D01*
X152158Y1033234D01*
X152110Y1033146D01*
X152059Y1033059D01*
X152004Y1032975D01*
X151947Y1032892D01*
X151886Y1032812D01*
X151821Y1032735D01*
X151754Y1032660D01*
X151684Y1032587D01*
X151685Y1032587D02*
X149846Y1030754D01*
X160786Y1033409D02*
X161245Y1032949D01*
X160786Y1033409D02*
X161246Y1033867D01*
X161704Y1033407D01*
X161245Y1032949D01*
X160719Y1040673D02*
X160559Y1040838D01*
X160403Y1041006D01*
X160250Y1041178D01*
X160102Y1041354D01*
X159958Y1041533D01*
X159819Y1041716D01*
X159684Y1041902D01*
X159553Y1042091D01*
X159427Y1042283D01*
X159305Y1042478D01*
X159189Y1042676D01*
X159077Y1042877D01*
X158969Y1043080D01*
X158867Y1043286D01*
X158770Y1043494D01*
X158677Y1043705D01*
X158590Y1043918D01*
X158508Y1044132D01*
X158431Y1044349D01*
X158390Y1044436D01*
X158353Y1044525D01*
X158320Y1044615D01*
X158291Y1044707D01*
X158265Y1044799D01*
X158242Y1044893D01*
X158224Y1044987D01*
X158209Y1045082D01*
X158198Y1045177D01*
X158191Y1045273D01*
X158188Y1045369D01*
X158189Y1045465D01*
X158193Y1045561D01*
X158202Y1045657D01*
X158214Y1045753D01*
X158230Y1045847D01*
X158250Y1045941D01*
X158273Y1046035D01*
X158300Y1046127D01*
X158331Y1046218D01*
X158366Y1046307D01*
X158404Y1046396D01*
X158445Y1046482D01*
X158490Y1046567D01*
X158539Y1046650D01*
X158590Y1046732D01*
X158645Y1046810D01*
X158703Y1046887D01*
X158764Y1046961D01*
X158828Y1047033D01*
X158894Y1047102D01*
X158964Y1047169D01*
X159036Y1047233D01*
X159110Y1047293D01*
X159187Y1047351D01*
X159266Y1047405D01*
X159348Y1047457D01*
X159431Y1047505D01*
X159516Y1047550D01*
X159603Y1047591D01*
X159691Y1047629D01*
X159781Y1047663D01*
X159872Y1047693D01*
X159964Y1047720D01*
X160058Y1047743D01*
X160152Y1047763D01*
X160247Y1047778D01*
X160342Y1047790D01*
X160438Y1047798D01*
X160534Y1047802D01*
X160630Y1047803D01*
X160726Y1047799D01*
X160822Y1047792D01*
X160917Y1047781D01*
X161012Y1047766D01*
X161107Y1047747D01*
X161200Y1047724D01*
X161292Y1047698D01*
X161384Y1047668D01*
X161474Y1047634D01*
X161562Y1047597D01*
X161650Y1047557D01*
X161649Y1047556D02*
X161865Y1047478D01*
X162079Y1047395D01*
X162292Y1047307D01*
X162502Y1047214D01*
X162710Y1047116D01*
X162915Y1047013D01*
X163118Y1046905D01*
X163318Y1046792D01*
X163516Y1046675D01*
X163711Y1046553D01*
X163902Y1046426D01*
X164091Y1046295D01*
X164276Y1046159D01*
X164459Y1046019D01*
X164637Y1045874D01*
X164813Y1045726D01*
X164984Y1045573D01*
X165152Y1045416D01*
X165317Y1045255D01*
X160719Y1040673D02*
X160884Y1040512D01*
X161052Y1040355D01*
X161223Y1040202D01*
X161399Y1040054D01*
X161577Y1039909D01*
X161760Y1039769D01*
X161945Y1039633D01*
X162134Y1039502D01*
X162325Y1039375D01*
X162520Y1039253D01*
X162718Y1039136D01*
X162918Y1039023D01*
X163121Y1038915D01*
X163326Y1038812D01*
X163534Y1038714D01*
X163744Y1038621D01*
X163957Y1038533D01*
X164171Y1038450D01*
X164387Y1038372D01*
X164387Y1038371D02*
X164474Y1038331D01*
X164563Y1038294D01*
X164653Y1038260D01*
X164745Y1038230D01*
X164837Y1038204D01*
X164930Y1038181D01*
X165025Y1038162D01*
X165120Y1038147D01*
X165215Y1038136D01*
X165311Y1038129D01*
X165407Y1038125D01*
X165503Y1038126D01*
X165599Y1038130D01*
X165695Y1038138D01*
X165790Y1038150D01*
X165885Y1038165D01*
X165979Y1038185D01*
X166073Y1038208D01*
X166165Y1038235D01*
X166256Y1038265D01*
X166346Y1038299D01*
X166434Y1038337D01*
X166521Y1038378D01*
X166606Y1038423D01*
X166689Y1038471D01*
X166771Y1038523D01*
X166850Y1038577D01*
X166927Y1038635D01*
X167001Y1038696D01*
X167073Y1038759D01*
X167143Y1038826D01*
X167605Y1041578D02*
X167528Y1041795D01*
X167446Y1042010D01*
X167359Y1042222D01*
X167266Y1042433D01*
X167169Y1042641D01*
X167067Y1042847D01*
X166959Y1043050D01*
X166847Y1043251D01*
X166731Y1043449D01*
X166609Y1043644D01*
X166483Y1043836D01*
X166352Y1044025D01*
X166217Y1044211D01*
X166078Y1044394D01*
X165934Y1044573D01*
X165786Y1044749D01*
X165633Y1044921D01*
X165477Y1045089D01*
X165317Y1045254D01*
X167606Y1041579D02*
X167647Y1041492D01*
X167684Y1041403D01*
X167717Y1041313D01*
X167746Y1041221D01*
X167772Y1041129D01*
X167795Y1041035D01*
X167813Y1040941D01*
X167828Y1040846D01*
X167839Y1040751D01*
X167846Y1040655D01*
X167849Y1040559D01*
X167848Y1040463D01*
X167844Y1040367D01*
X167835Y1040271D01*
X167823Y1040175D01*
X167807Y1040081D01*
X167787Y1039987D01*
X167764Y1039893D01*
X167737Y1039801D01*
X167706Y1039710D01*
X167671Y1039620D01*
X167633Y1039532D01*
X167592Y1039446D01*
X167547Y1039361D01*
X167498Y1039278D01*
X167447Y1039196D01*
X167392Y1039118D01*
X167334Y1039041D01*
X167273Y1038967D01*
X167209Y1038895D01*
X167142Y1038826D01*
X163470Y1038832D02*
X162566Y1047096D01*
X168815Y1048741D02*
X168655Y1048906D01*
X168499Y1049074D01*
X168346Y1049246D01*
X168198Y1049422D01*
X168054Y1049601D01*
X167915Y1049784D01*
X167780Y1049970D01*
X167649Y1050159D01*
X167523Y1050351D01*
X167401Y1050546D01*
X167285Y1050744D01*
X167173Y1050945D01*
X167065Y1051148D01*
X166963Y1051354D01*
X166866Y1051562D01*
X166773Y1051773D01*
X166686Y1051986D01*
X166604Y1052200D01*
X166527Y1052417D01*
X166486Y1052504D01*
X166449Y1052593D01*
X166416Y1052683D01*
X166387Y1052775D01*
X166361Y1052867D01*
X166338Y1052961D01*
X166320Y1053055D01*
X166305Y1053150D01*
X166294Y1053245D01*
X166287Y1053341D01*
X166284Y1053437D01*
X166285Y1053533D01*
X166289Y1053629D01*
X166298Y1053725D01*
X166310Y1053821D01*
X166326Y1053915D01*
X166346Y1054009D01*
X166369Y1054103D01*
X166396Y1054195D01*
X166427Y1054286D01*
X166462Y1054375D01*
X166500Y1054464D01*
X166541Y1054550D01*
X166586Y1054635D01*
X166635Y1054718D01*
X166686Y1054800D01*
X166741Y1054878D01*
X166799Y1054955D01*
X166860Y1055029D01*
X166924Y1055101D01*
X166990Y1055170D01*
X167060Y1055237D01*
X167132Y1055301D01*
X167206Y1055361D01*
X167283Y1055419D01*
X167362Y1055473D01*
X167444Y1055525D01*
X167527Y1055573D01*
X167612Y1055618D01*
X167699Y1055659D01*
X167787Y1055697D01*
X167877Y1055731D01*
X167968Y1055761D01*
X168060Y1055788D01*
X168154Y1055811D01*
X168248Y1055831D01*
X168343Y1055846D01*
X168438Y1055858D01*
X168534Y1055866D01*
X168630Y1055870D01*
X168726Y1055871D01*
X168822Y1055867D01*
X168918Y1055860D01*
X169013Y1055849D01*
X169108Y1055834D01*
X169203Y1055815D01*
X169296Y1055792D01*
X169388Y1055766D01*
X169480Y1055736D01*
X169570Y1055702D01*
X169658Y1055665D01*
X169746Y1055625D01*
X169746Y1055624D02*
X169962Y1055546D01*
X170176Y1055463D01*
X170389Y1055375D01*
X170599Y1055282D01*
X170807Y1055184D01*
X171012Y1055081D01*
X171215Y1054973D01*
X171415Y1054860D01*
X171613Y1054743D01*
X171808Y1054621D01*
X171999Y1054494D01*
X172188Y1054363D01*
X172373Y1054227D01*
X172556Y1054087D01*
X172734Y1053942D01*
X172910Y1053794D01*
X173081Y1053641D01*
X173249Y1053484D01*
X173414Y1053323D01*
X168815Y1048741D02*
X168980Y1048580D01*
X169148Y1048423D01*
X169319Y1048270D01*
X169495Y1048122D01*
X169673Y1047977D01*
X169856Y1047837D01*
X170041Y1047701D01*
X170230Y1047570D01*
X170421Y1047443D01*
X170616Y1047321D01*
X170814Y1047204D01*
X171014Y1047091D01*
X171217Y1046983D01*
X171422Y1046880D01*
X171630Y1046782D01*
X171840Y1046689D01*
X172053Y1046601D01*
X172267Y1046518D01*
X172483Y1046440D01*
X172483Y1046439D02*
X172570Y1046399D01*
X172659Y1046362D01*
X172749Y1046328D01*
X172841Y1046298D01*
X172933Y1046272D01*
X173026Y1046249D01*
X173121Y1046230D01*
X173216Y1046215D01*
X173311Y1046204D01*
X173407Y1046197D01*
X173503Y1046193D01*
X173599Y1046194D01*
X173695Y1046198D01*
X173791Y1046206D01*
X173886Y1046218D01*
X173981Y1046233D01*
X174075Y1046253D01*
X174169Y1046276D01*
X174261Y1046303D01*
X174352Y1046333D01*
X174442Y1046367D01*
X174530Y1046405D01*
X174617Y1046446D01*
X174702Y1046491D01*
X174785Y1046539D01*
X174867Y1046591D01*
X174946Y1046645D01*
X175023Y1046703D01*
X175097Y1046764D01*
X175169Y1046827D01*
X175239Y1046894D01*
X175701Y1049646D02*
X175624Y1049863D01*
X175542Y1050078D01*
X175455Y1050290D01*
X175362Y1050501D01*
X175265Y1050709D01*
X175163Y1050915D01*
X175055Y1051118D01*
X174943Y1051319D01*
X174827Y1051517D01*
X174705Y1051712D01*
X174579Y1051904D01*
X174448Y1052093D01*
X174313Y1052279D01*
X174174Y1052462D01*
X174030Y1052641D01*
X173882Y1052817D01*
X173729Y1052989D01*
X173573Y1053157D01*
X173413Y1053322D01*
X175702Y1049647D02*
X175743Y1049560D01*
X175780Y1049471D01*
X175813Y1049381D01*
X175842Y1049289D01*
X175868Y1049197D01*
X175891Y1049103D01*
X175909Y1049009D01*
X175924Y1048914D01*
X175935Y1048819D01*
X175942Y1048723D01*
X175945Y1048627D01*
X175944Y1048531D01*
X175940Y1048435D01*
X175931Y1048339D01*
X175919Y1048243D01*
X175903Y1048149D01*
X175883Y1048055D01*
X175860Y1047961D01*
X175833Y1047869D01*
X175802Y1047778D01*
X175767Y1047688D01*
X175729Y1047600D01*
X175688Y1047514D01*
X175643Y1047429D01*
X175594Y1047346D01*
X175543Y1047264D01*
X175488Y1047186D01*
X175430Y1047109D01*
X175369Y1047035D01*
X175305Y1046963D01*
X175238Y1046894D01*
X171566Y1046900D02*
X170663Y1055164D01*
D14*
X124029Y163781D02*
X152271Y135490D01*
X131032Y114287D02*
X102790Y142579D01*
X116106Y128319D02*
X79764Y92041D01*
X138266Y150440D02*
X181223Y193321D01*
X153951Y170609D02*
X138266Y150440D01*
X158462Y166090D02*
X153951Y170609D01*
X158462Y166090D02*
X138266Y150440D01*
X155288Y169269D01*
X157125Y167429D02*
X138266Y150440D01*
X154370Y170189D01*
X158044Y166509D02*
X138266Y150440D01*
X116106Y128319D02*
X95910Y112669D01*
X100421Y108150D01*
X116106Y128319D01*
X97247Y111330D01*
X99084Y109489D02*
X116106Y128319D01*
X96328Y112250D01*
X100002Y108569D02*
X116106Y128319D01*
D12*
X153047Y172235D02*
X155345Y174526D01*
X155346Y174526D02*
X155425Y174607D01*
X155501Y174691D01*
X155574Y174778D01*
X155644Y174867D01*
X155711Y174959D01*
X155774Y175052D01*
X155834Y175148D01*
X155891Y175246D01*
X155945Y175346D01*
X155994Y175448D01*
X156041Y175551D01*
X156083Y175656D01*
X156122Y175763D01*
X156158Y175871D01*
X156189Y175979D01*
X156217Y176089D01*
X156240Y176200D01*
X156260Y176312D01*
X156276Y176424D01*
X156288Y176536D01*
X156296Y176649D01*
X156300Y176763D01*
X156301Y176876D01*
X156297Y176989D01*
X156289Y177102D01*
X156277Y177215D01*
X156262Y177327D01*
X156242Y177439D01*
X156219Y177550D01*
X156192Y177660D01*
X156161Y177769D01*
X156126Y177876D01*
X156087Y177983D01*
X156045Y178088D01*
X155999Y178192D01*
X155950Y178294D01*
X155897Y178394D01*
X155840Y178492D01*
X155780Y178588D01*
X155717Y178682D01*
X155651Y178774D01*
X155581Y178863D01*
X155508Y178950D01*
X155433Y179035D01*
X155354Y179116D01*
X155273Y179195D01*
X155189Y179271D01*
X155102Y179344D01*
X155013Y179414D01*
X154921Y179481D01*
X154828Y179544D01*
X154732Y179604D01*
X154634Y179661D01*
X154534Y179715D01*
X154432Y179764D01*
X154329Y179811D01*
X154224Y179853D01*
X154117Y179892D01*
X154009Y179928D01*
X153901Y179959D01*
X153791Y179987D01*
X153680Y180010D01*
X153568Y180030D01*
X153456Y180046D01*
X153344Y180058D01*
X153231Y180066D01*
X153117Y180070D01*
X153004Y180071D01*
X152891Y180067D01*
X152778Y180059D01*
X152665Y180047D01*
X152553Y180032D01*
X152441Y180012D01*
X152330Y179989D01*
X152220Y179962D01*
X152111Y179931D01*
X152004Y179896D01*
X151897Y179857D01*
X151792Y179815D01*
X151688Y179769D01*
X151586Y179720D01*
X151486Y179667D01*
X151388Y179610D01*
X151292Y179550D01*
X151198Y179487D01*
X151106Y179421D01*
X151017Y179351D01*
X150930Y179278D01*
X150845Y179203D01*
X150764Y179124D01*
X147558Y183260D02*
X144799Y180511D01*
X147559Y183260D02*
X147631Y183330D01*
X147707Y183396D01*
X147784Y183460D01*
X147865Y183521D01*
X147947Y183579D01*
X148032Y183633D01*
X148119Y183684D01*
X148207Y183732D01*
X148298Y183776D01*
X148390Y183816D01*
X148484Y183853D01*
X148579Y183887D01*
X148675Y183916D01*
X148772Y183942D01*
X148870Y183964D01*
X148969Y183983D01*
X149069Y183997D01*
X149169Y184008D01*
X149270Y184014D01*
X149370Y184017D01*
X149471Y184016D01*
X149572Y184011D01*
X149672Y184002D01*
X149772Y183989D01*
X149871Y183972D01*
X149970Y183952D01*
X150067Y183927D01*
X150164Y183899D01*
X150259Y183867D01*
X150354Y183832D01*
X150446Y183793D01*
X150538Y183750D01*
X150627Y183704D01*
X150715Y183654D01*
X150800Y183601D01*
X150884Y183545D01*
X150965Y183485D01*
X151044Y183423D01*
X151120Y183357D01*
X151194Y183289D01*
X151265Y183217D01*
X151333Y183143D01*
X151399Y183067D01*
X151461Y182988D01*
X151520Y182906D01*
X151576Y182823D01*
X151629Y182737D01*
X151678Y182649D01*
X151724Y182559D01*
X151766Y182468D01*
X151805Y182375D01*
X151840Y182281D01*
X151872Y182185D01*
X151900Y182089D01*
X151924Y181991D01*
X151944Y181892D01*
X151960Y181793D01*
X151973Y181693D01*
X151981Y181593D01*
X151986Y181492D01*
X151987Y181391D01*
X151984Y181291D01*
X151977Y181190D01*
X151966Y181090D01*
X151951Y180991D01*
X151932Y180892D01*
X151910Y180793D01*
X151884Y180696D01*
X151854Y180600D01*
X151820Y180505D01*
X151783Y180412D01*
X151742Y180320D01*
X151697Y180229D01*
X151649Y180141D01*
X151598Y180054D01*
X151543Y179970D01*
X151486Y179887D01*
X151425Y179807D01*
X151360Y179730D01*
X151293Y179655D01*
X151223Y179582D01*
X149384Y177749D01*
X160325Y180404D02*
X160783Y179944D01*
X160325Y180404D02*
X160785Y180862D01*
X161243Y180402D01*
X160783Y179944D01*
X160257Y187668D02*
X160097Y187833D01*
X159941Y188001D01*
X159788Y188173D01*
X159640Y188349D01*
X159496Y188528D01*
X159357Y188711D01*
X159222Y188897D01*
X159091Y189086D01*
X158965Y189278D01*
X158843Y189473D01*
X158727Y189671D01*
X158615Y189872D01*
X158507Y190075D01*
X158405Y190281D01*
X158308Y190489D01*
X158215Y190700D01*
X158128Y190913D01*
X158046Y191127D01*
X157969Y191344D01*
X157928Y191431D01*
X157891Y191520D01*
X157858Y191610D01*
X157829Y191702D01*
X157803Y191794D01*
X157780Y191888D01*
X157762Y191982D01*
X157747Y192077D01*
X157736Y192172D01*
X157729Y192268D01*
X157726Y192364D01*
X157727Y192460D01*
X157731Y192556D01*
X157740Y192652D01*
X157752Y192748D01*
X157768Y192842D01*
X157788Y192936D01*
X157811Y193030D01*
X157838Y193122D01*
X157869Y193213D01*
X157904Y193302D01*
X157942Y193391D01*
X157983Y193477D01*
X158028Y193562D01*
X158077Y193645D01*
X158128Y193727D01*
X158183Y193805D01*
X158241Y193882D01*
X158302Y193956D01*
X158366Y194028D01*
X158432Y194097D01*
X158502Y194164D01*
X158574Y194228D01*
X158648Y194288D01*
X158725Y194346D01*
X158804Y194400D01*
X158886Y194452D01*
X158969Y194500D01*
X159054Y194545D01*
X159141Y194586D01*
X159229Y194624D01*
X159319Y194658D01*
X159410Y194688D01*
X159502Y194715D01*
X159596Y194738D01*
X159690Y194758D01*
X159785Y194773D01*
X159880Y194785D01*
X159976Y194793D01*
X160072Y194797D01*
X160168Y194798D01*
X160264Y194794D01*
X160360Y194787D01*
X160455Y194776D01*
X160550Y194761D01*
X160645Y194742D01*
X160738Y194719D01*
X160830Y194693D01*
X160922Y194663D01*
X161012Y194629D01*
X161100Y194592D01*
X161188Y194552D01*
X161188Y194551D02*
X161404Y194473D01*
X161618Y194390D01*
X161831Y194302D01*
X162041Y194209D01*
X162249Y194111D01*
X162454Y194008D01*
X162657Y193900D01*
X162857Y193787D01*
X163055Y193670D01*
X163250Y193548D01*
X163441Y193421D01*
X163630Y193290D01*
X163815Y193154D01*
X163998Y193014D01*
X164176Y192869D01*
X164352Y192721D01*
X164523Y192568D01*
X164691Y192411D01*
X164856Y192250D01*
X160257Y187668D02*
X160422Y187507D01*
X160590Y187350D01*
X160761Y187197D01*
X160937Y187049D01*
X161115Y186904D01*
X161298Y186764D01*
X161483Y186628D01*
X161672Y186497D01*
X161863Y186370D01*
X162058Y186248D01*
X162256Y186131D01*
X162456Y186018D01*
X162659Y185910D01*
X162864Y185807D01*
X163072Y185709D01*
X163282Y185616D01*
X163495Y185528D01*
X163709Y185445D01*
X163925Y185367D01*
X163925Y185366D02*
X164012Y185326D01*
X164101Y185289D01*
X164191Y185255D01*
X164283Y185225D01*
X164375Y185199D01*
X164468Y185176D01*
X164563Y185157D01*
X164658Y185142D01*
X164753Y185131D01*
X164849Y185124D01*
X164945Y185120D01*
X165041Y185121D01*
X165137Y185125D01*
X165233Y185133D01*
X165328Y185145D01*
X165423Y185160D01*
X165517Y185180D01*
X165611Y185203D01*
X165703Y185230D01*
X165794Y185260D01*
X165884Y185294D01*
X165972Y185332D01*
X166059Y185373D01*
X166144Y185418D01*
X166227Y185466D01*
X166309Y185518D01*
X166388Y185572D01*
X166465Y185630D01*
X166539Y185691D01*
X166611Y185754D01*
X166681Y185821D01*
X167143Y188574D02*
X167066Y188791D01*
X166984Y189006D01*
X166897Y189218D01*
X166804Y189429D01*
X166707Y189637D01*
X166605Y189843D01*
X166497Y190046D01*
X166385Y190247D01*
X166269Y190445D01*
X166147Y190640D01*
X166021Y190832D01*
X165890Y191021D01*
X165755Y191207D01*
X165616Y191390D01*
X165472Y191569D01*
X165324Y191745D01*
X165171Y191917D01*
X165015Y192085D01*
X164855Y192250D01*
X167144Y188574D02*
X167185Y188487D01*
X167222Y188398D01*
X167255Y188308D01*
X167284Y188216D01*
X167310Y188124D01*
X167333Y188030D01*
X167351Y187936D01*
X167366Y187841D01*
X167377Y187746D01*
X167384Y187650D01*
X167387Y187554D01*
X167386Y187458D01*
X167382Y187362D01*
X167373Y187266D01*
X167361Y187170D01*
X167345Y187076D01*
X167325Y186982D01*
X167302Y186888D01*
X167275Y186796D01*
X167244Y186705D01*
X167209Y186615D01*
X167171Y186527D01*
X167130Y186441D01*
X167085Y186356D01*
X167036Y186273D01*
X166985Y186191D01*
X166930Y186113D01*
X166872Y186036D01*
X166811Y185962D01*
X166747Y185890D01*
X166680Y185821D01*
X163008Y185827D02*
X162105Y194091D01*
X168354Y195736D02*
X168194Y195901D01*
X168038Y196069D01*
X167885Y196241D01*
X167737Y196417D01*
X167593Y196596D01*
X167454Y196779D01*
X167319Y196965D01*
X167188Y197154D01*
X167062Y197346D01*
X166940Y197541D01*
X166824Y197739D01*
X166712Y197940D01*
X166604Y198143D01*
X166502Y198349D01*
X166405Y198557D01*
X166312Y198768D01*
X166225Y198981D01*
X166143Y199195D01*
X166066Y199412D01*
X166065Y199412D02*
X166024Y199499D01*
X165987Y199588D01*
X165954Y199678D01*
X165925Y199770D01*
X165899Y199862D01*
X165876Y199956D01*
X165858Y200050D01*
X165843Y200145D01*
X165832Y200240D01*
X165825Y200336D01*
X165822Y200432D01*
X165823Y200528D01*
X165827Y200624D01*
X165836Y200720D01*
X165848Y200816D01*
X165864Y200910D01*
X165884Y201004D01*
X165907Y201098D01*
X165934Y201190D01*
X165965Y201281D01*
X166000Y201370D01*
X166038Y201459D01*
X166079Y201545D01*
X166124Y201630D01*
X166173Y201713D01*
X166224Y201795D01*
X166279Y201873D01*
X166337Y201950D01*
X166398Y202024D01*
X166462Y202096D01*
X166528Y202165D01*
X166598Y202232D01*
X166670Y202296D01*
X166744Y202356D01*
X166821Y202414D01*
X166900Y202468D01*
X166982Y202520D01*
X167065Y202568D01*
X167150Y202613D01*
X167237Y202654D01*
X167325Y202692D01*
X167415Y202726D01*
X167506Y202756D01*
X167598Y202783D01*
X167692Y202806D01*
X167786Y202826D01*
X167881Y202841D01*
X167976Y202853D01*
X168072Y202861D01*
X168168Y202865D01*
X168264Y202866D01*
X168360Y202862D01*
X168456Y202855D01*
X168551Y202844D01*
X168646Y202829D01*
X168741Y202810D01*
X168834Y202787D01*
X168926Y202761D01*
X169018Y202731D01*
X169108Y202697D01*
X169196Y202660D01*
X169284Y202620D01*
X169284Y202619D02*
X169500Y202541D01*
X169714Y202458D01*
X169927Y202370D01*
X170137Y202277D01*
X170345Y202179D01*
X170550Y202076D01*
X170753Y201968D01*
X170953Y201855D01*
X171151Y201738D01*
X171346Y201616D01*
X171537Y201489D01*
X171726Y201358D01*
X171911Y201222D01*
X172094Y201082D01*
X172272Y200937D01*
X172448Y200789D01*
X172619Y200636D01*
X172787Y200479D01*
X172952Y200318D01*
X168353Y195736D02*
X168518Y195575D01*
X168686Y195418D01*
X168857Y195265D01*
X169033Y195117D01*
X169211Y194972D01*
X169394Y194832D01*
X169579Y194696D01*
X169768Y194565D01*
X169959Y194438D01*
X170154Y194316D01*
X170352Y194199D01*
X170552Y194086D01*
X170755Y193978D01*
X170960Y193875D01*
X171168Y193777D01*
X171378Y193684D01*
X171591Y193596D01*
X171805Y193513D01*
X172021Y193435D01*
X172021Y193434D02*
X172108Y193394D01*
X172197Y193357D01*
X172287Y193323D01*
X172379Y193293D01*
X172471Y193267D01*
X172564Y193244D01*
X172659Y193225D01*
X172754Y193210D01*
X172849Y193199D01*
X172945Y193192D01*
X173041Y193188D01*
X173137Y193189D01*
X173233Y193193D01*
X173329Y193201D01*
X173424Y193213D01*
X173519Y193228D01*
X173613Y193248D01*
X173707Y193271D01*
X173799Y193298D01*
X173890Y193328D01*
X173980Y193362D01*
X174068Y193400D01*
X174155Y193441D01*
X174240Y193486D01*
X174323Y193534D01*
X174405Y193586D01*
X174484Y193640D01*
X174561Y193698D01*
X174635Y193759D01*
X174707Y193822D01*
X174777Y193889D01*
X175240Y196642D02*
X175163Y196859D01*
X175081Y197074D01*
X174994Y197286D01*
X174901Y197497D01*
X174804Y197705D01*
X174702Y197911D01*
X174594Y198114D01*
X174482Y198315D01*
X174366Y198513D01*
X174244Y198708D01*
X174118Y198900D01*
X173987Y199089D01*
X173852Y199275D01*
X173713Y199458D01*
X173569Y199637D01*
X173421Y199813D01*
X173268Y199985D01*
X173112Y200153D01*
X172952Y200318D01*
X175240Y196642D02*
X175281Y196555D01*
X175318Y196466D01*
X175351Y196376D01*
X175380Y196284D01*
X175406Y196192D01*
X175429Y196098D01*
X175447Y196004D01*
X175462Y195909D01*
X175473Y195814D01*
X175480Y195718D01*
X175483Y195622D01*
X175482Y195526D01*
X175478Y195430D01*
X175469Y195334D01*
X175457Y195238D01*
X175441Y195144D01*
X175421Y195050D01*
X175398Y194956D01*
X175371Y194864D01*
X175340Y194773D01*
X175305Y194683D01*
X175267Y194595D01*
X175226Y194509D01*
X175181Y194424D01*
X175132Y194341D01*
X175081Y194259D01*
X175026Y194181D01*
X174968Y194104D01*
X174907Y194030D01*
X174843Y193958D01*
X174776Y193889D01*
X171105Y193895D02*
X170201Y202159D01*
D14*
X1139868Y161545D02*
X1168110Y133253D01*
X1146870Y112050D02*
X1118628Y140342D01*
X1131945Y126082D02*
X1095603Y89804D01*
X1154104Y148203D02*
X1197061Y191084D01*
X1169790Y168372D02*
X1154104Y148203D01*
X1169790Y168372D02*
X1174301Y163853D01*
X1154104Y148203D01*
X1171127Y167032D01*
X1172964Y165192D02*
X1154104Y148203D01*
X1170208Y167953D01*
X1173882Y164272D02*
X1154104Y148203D01*
X1131945Y126082D02*
X1111748Y110432D01*
X1116259Y105913D01*
X1131945Y126082D01*
X1113085Y109093D01*
X1114922Y107253D02*
X1131945Y126082D01*
X1112167Y110013D01*
X1115841Y106333D02*
X1131945Y126082D01*
D12*
X1168885Y169998D02*
X1171184Y172289D01*
X1171263Y172370D01*
X1171339Y172454D01*
X1171412Y172541D01*
X1171482Y172630D01*
X1171549Y172722D01*
X1171612Y172815D01*
X1171672Y172911D01*
X1171729Y173009D01*
X1171783Y173109D01*
X1171832Y173211D01*
X1171879Y173314D01*
X1171921Y173419D01*
X1171960Y173526D01*
X1171996Y173634D01*
X1172027Y173742D01*
X1172055Y173852D01*
X1172078Y173963D01*
X1172098Y174075D01*
X1172114Y174187D01*
X1172126Y174299D01*
X1172134Y174412D01*
X1172138Y174526D01*
X1172139Y174639D01*
X1172135Y174752D01*
X1172127Y174865D01*
X1172115Y174978D01*
X1172100Y175090D01*
X1172080Y175202D01*
X1172057Y175313D01*
X1172030Y175423D01*
X1171999Y175532D01*
X1171964Y175639D01*
X1171925Y175746D01*
X1171883Y175851D01*
X1171837Y175955D01*
X1171788Y176057D01*
X1171735Y176157D01*
X1171678Y176255D01*
X1171618Y176351D01*
X1171555Y176445D01*
X1171489Y176537D01*
X1171419Y176626D01*
X1171346Y176713D01*
X1171271Y176798D01*
X1171192Y176879D01*
X1171111Y176958D01*
X1171027Y177034D01*
X1170940Y177107D01*
X1170851Y177177D01*
X1170759Y177244D01*
X1170666Y177307D01*
X1170570Y177367D01*
X1170472Y177424D01*
X1170372Y177478D01*
X1170270Y177527D01*
X1170167Y177574D01*
X1170062Y177616D01*
X1169955Y177655D01*
X1169847Y177691D01*
X1169739Y177722D01*
X1169629Y177750D01*
X1169518Y177773D01*
X1169406Y177793D01*
X1169294Y177809D01*
X1169182Y177821D01*
X1169069Y177829D01*
X1168955Y177833D01*
X1168842Y177834D01*
X1168729Y177830D01*
X1168616Y177822D01*
X1168503Y177810D01*
X1168391Y177795D01*
X1168279Y177775D01*
X1168168Y177752D01*
X1168058Y177725D01*
X1167949Y177694D01*
X1167842Y177659D01*
X1167735Y177620D01*
X1167630Y177578D01*
X1167526Y177532D01*
X1167424Y177483D01*
X1167324Y177430D01*
X1167226Y177373D01*
X1167130Y177313D01*
X1167036Y177250D01*
X1166944Y177184D01*
X1166855Y177114D01*
X1166768Y177041D01*
X1166683Y176966D01*
X1166602Y176887D01*
X1163396Y181023D02*
X1160638Y178274D01*
X1163397Y181023D02*
X1163469Y181093D01*
X1163545Y181159D01*
X1163622Y181223D01*
X1163703Y181284D01*
X1163785Y181342D01*
X1163870Y181396D01*
X1163957Y181447D01*
X1164045Y181495D01*
X1164136Y181539D01*
X1164228Y181579D01*
X1164322Y181616D01*
X1164417Y181650D01*
X1164513Y181679D01*
X1164610Y181705D01*
X1164708Y181727D01*
X1164807Y181746D01*
X1164907Y181760D01*
X1165007Y181771D01*
X1165108Y181777D01*
X1165208Y181780D01*
X1165309Y181779D01*
X1165410Y181774D01*
X1165510Y181765D01*
X1165610Y181752D01*
X1165709Y181735D01*
X1165808Y181715D01*
X1165905Y181690D01*
X1166002Y181662D01*
X1166097Y181630D01*
X1166192Y181595D01*
X1166284Y181556D01*
X1166376Y181513D01*
X1166465Y181467D01*
X1166553Y181417D01*
X1166638Y181364D01*
X1166722Y181308D01*
X1166803Y181248D01*
X1166882Y181186D01*
X1166958Y181120D01*
X1167032Y181052D01*
X1167103Y180980D01*
X1167171Y180906D01*
X1167237Y180830D01*
X1167299Y180751D01*
X1167358Y180669D01*
X1167414Y180586D01*
X1167467Y180500D01*
X1167516Y180412D01*
X1167562Y180322D01*
X1167604Y180231D01*
X1167643Y180138D01*
X1167678Y180044D01*
X1167710Y179948D01*
X1167738Y179852D01*
X1167762Y179754D01*
X1167782Y179655D01*
X1167798Y179556D01*
X1167811Y179456D01*
X1167819Y179356D01*
X1167824Y179255D01*
X1167825Y179154D01*
X1167822Y179054D01*
X1167815Y178953D01*
X1167804Y178853D01*
X1167789Y178754D01*
X1167770Y178655D01*
X1167748Y178556D01*
X1167722Y178459D01*
X1167692Y178363D01*
X1167658Y178268D01*
X1167621Y178175D01*
X1167580Y178083D01*
X1167535Y177992D01*
X1167487Y177904D01*
X1167436Y177817D01*
X1167381Y177733D01*
X1167324Y177650D01*
X1167263Y177570D01*
X1167198Y177493D01*
X1167131Y177418D01*
X1167061Y177345D01*
X1167062Y177345D02*
X1165223Y175512D01*
X1176163Y178167D02*
X1176621Y177707D01*
X1176163Y178167D02*
X1176623Y178625D01*
X1177081Y178166D01*
X1176621Y177707D01*
X1176096Y185431D02*
X1175936Y185596D01*
X1175780Y185764D01*
X1175627Y185936D01*
X1175479Y186112D01*
X1175335Y186291D01*
X1175196Y186474D01*
X1175061Y186660D01*
X1174930Y186849D01*
X1174804Y187041D01*
X1174682Y187236D01*
X1174566Y187434D01*
X1174454Y187635D01*
X1174346Y187838D01*
X1174244Y188044D01*
X1174147Y188252D01*
X1174054Y188463D01*
X1173967Y188676D01*
X1173885Y188890D01*
X1173808Y189107D01*
X1173767Y189194D01*
X1173730Y189283D01*
X1173697Y189373D01*
X1173668Y189465D01*
X1173642Y189557D01*
X1173619Y189651D01*
X1173601Y189745D01*
X1173586Y189840D01*
X1173575Y189935D01*
X1173568Y190031D01*
X1173565Y190127D01*
X1173566Y190223D01*
X1173570Y190319D01*
X1173579Y190415D01*
X1173591Y190511D01*
X1173607Y190605D01*
X1173627Y190699D01*
X1173650Y190793D01*
X1173677Y190885D01*
X1173708Y190976D01*
X1173743Y191065D01*
X1173781Y191154D01*
X1173822Y191240D01*
X1173867Y191325D01*
X1173916Y191408D01*
X1173967Y191490D01*
X1174022Y191568D01*
X1174080Y191645D01*
X1174141Y191719D01*
X1174205Y191791D01*
X1174271Y191860D01*
X1174341Y191927D01*
X1174413Y191991D01*
X1174487Y192051D01*
X1174564Y192109D01*
X1174643Y192163D01*
X1174725Y192215D01*
X1174808Y192263D01*
X1174893Y192308D01*
X1174980Y192349D01*
X1175068Y192387D01*
X1175158Y192421D01*
X1175249Y192451D01*
X1175341Y192478D01*
X1175435Y192501D01*
X1175529Y192521D01*
X1175624Y192536D01*
X1175719Y192548D01*
X1175815Y192556D01*
X1175911Y192560D01*
X1176007Y192561D01*
X1176103Y192557D01*
X1176199Y192550D01*
X1176294Y192539D01*
X1176389Y192524D01*
X1176484Y192505D01*
X1176577Y192482D01*
X1176669Y192456D01*
X1176761Y192426D01*
X1176851Y192392D01*
X1176939Y192355D01*
X1177027Y192315D01*
X1177026Y192314D02*
X1177242Y192236D01*
X1177456Y192153D01*
X1177669Y192065D01*
X1177879Y191972D01*
X1178087Y191874D01*
X1178292Y191771D01*
X1178495Y191663D01*
X1178695Y191550D01*
X1178893Y191433D01*
X1179088Y191311D01*
X1179279Y191184D01*
X1179468Y191053D01*
X1179653Y190917D01*
X1179836Y190777D01*
X1180014Y190632D01*
X1180190Y190484D01*
X1180361Y190331D01*
X1180529Y190174D01*
X1180694Y190013D01*
X1176096Y185431D02*
X1176261Y185270D01*
X1176429Y185113D01*
X1176600Y184960D01*
X1176776Y184812D01*
X1176954Y184667D01*
X1177137Y184527D01*
X1177322Y184391D01*
X1177511Y184260D01*
X1177702Y184133D01*
X1177897Y184011D01*
X1178095Y183894D01*
X1178295Y183781D01*
X1178498Y183673D01*
X1178703Y183570D01*
X1178911Y183472D01*
X1179121Y183379D01*
X1179334Y183291D01*
X1179548Y183208D01*
X1179764Y183130D01*
X1179763Y183129D02*
X1179850Y183089D01*
X1179939Y183052D01*
X1180029Y183018D01*
X1180121Y182988D01*
X1180213Y182962D01*
X1180306Y182939D01*
X1180401Y182920D01*
X1180496Y182905D01*
X1180591Y182894D01*
X1180687Y182887D01*
X1180783Y182883D01*
X1180879Y182884D01*
X1180975Y182888D01*
X1181071Y182896D01*
X1181166Y182908D01*
X1181261Y182923D01*
X1181355Y182943D01*
X1181449Y182966D01*
X1181541Y182993D01*
X1181632Y183023D01*
X1181722Y183057D01*
X1181810Y183095D01*
X1181897Y183136D01*
X1181982Y183181D01*
X1182065Y183229D01*
X1182147Y183281D01*
X1182226Y183335D01*
X1182303Y183393D01*
X1182377Y183454D01*
X1182449Y183517D01*
X1182519Y183584D01*
X1182982Y186337D02*
X1182905Y186554D01*
X1182823Y186769D01*
X1182736Y186981D01*
X1182643Y187192D01*
X1182546Y187400D01*
X1182444Y187606D01*
X1182336Y187809D01*
X1182224Y188010D01*
X1182108Y188208D01*
X1181986Y188403D01*
X1181860Y188595D01*
X1181729Y188784D01*
X1181594Y188970D01*
X1181455Y189153D01*
X1181311Y189332D01*
X1181163Y189508D01*
X1181010Y189680D01*
X1180854Y189848D01*
X1180694Y190013D01*
X1182982Y186337D02*
X1183023Y186250D01*
X1183060Y186161D01*
X1183093Y186071D01*
X1183122Y185979D01*
X1183148Y185887D01*
X1183171Y185793D01*
X1183189Y185699D01*
X1183204Y185604D01*
X1183215Y185509D01*
X1183222Y185413D01*
X1183225Y185317D01*
X1183224Y185221D01*
X1183220Y185125D01*
X1183211Y185029D01*
X1183199Y184933D01*
X1183183Y184839D01*
X1183163Y184745D01*
X1183140Y184651D01*
X1183113Y184559D01*
X1183082Y184468D01*
X1183047Y184378D01*
X1183009Y184290D01*
X1182968Y184204D01*
X1182923Y184119D01*
X1182874Y184036D01*
X1182823Y183954D01*
X1182768Y183876D01*
X1182710Y183799D01*
X1182649Y183725D01*
X1182585Y183653D01*
X1182518Y183584D01*
X1178847Y183590D02*
X1177943Y191854D01*
X1184192Y193499D02*
X1184032Y193664D01*
X1183876Y193832D01*
X1183723Y194004D01*
X1183575Y194180D01*
X1183431Y194359D01*
X1183292Y194542D01*
X1183157Y194728D01*
X1183026Y194917D01*
X1182900Y195109D01*
X1182778Y195304D01*
X1182662Y195502D01*
X1182550Y195703D01*
X1182442Y195906D01*
X1182340Y196112D01*
X1182243Y196320D01*
X1182150Y196531D01*
X1182063Y196744D01*
X1181981Y196958D01*
X1181904Y197175D01*
X1181863Y197262D01*
X1181826Y197351D01*
X1181793Y197441D01*
X1181764Y197533D01*
X1181738Y197625D01*
X1181715Y197719D01*
X1181697Y197813D01*
X1181682Y197908D01*
X1181671Y198003D01*
X1181664Y198099D01*
X1181661Y198195D01*
X1181662Y198291D01*
X1181666Y198387D01*
X1181675Y198483D01*
X1181687Y198579D01*
X1181703Y198673D01*
X1181723Y198767D01*
X1181746Y198861D01*
X1181773Y198953D01*
X1181804Y199044D01*
X1181839Y199133D01*
X1181877Y199222D01*
X1181918Y199308D01*
X1181963Y199393D01*
X1182012Y199476D01*
X1182063Y199558D01*
X1182118Y199636D01*
X1182176Y199713D01*
X1182237Y199787D01*
X1182301Y199859D01*
X1182367Y199928D01*
X1182437Y199995D01*
X1182509Y200059D01*
X1182583Y200119D01*
X1182660Y200177D01*
X1182739Y200231D01*
X1182821Y200283D01*
X1182904Y200331D01*
X1182989Y200376D01*
X1183076Y200417D01*
X1183164Y200455D01*
X1183254Y200489D01*
X1183345Y200519D01*
X1183437Y200546D01*
X1183531Y200569D01*
X1183625Y200589D01*
X1183720Y200604D01*
X1183815Y200616D01*
X1183911Y200624D01*
X1184007Y200628D01*
X1184103Y200629D01*
X1184199Y200625D01*
X1184295Y200618D01*
X1184390Y200607D01*
X1184485Y200592D01*
X1184580Y200573D01*
X1184673Y200550D01*
X1184765Y200524D01*
X1184857Y200494D01*
X1184947Y200460D01*
X1185035Y200423D01*
X1185123Y200383D01*
X1185123Y200382D02*
X1185339Y200304D01*
X1185553Y200221D01*
X1185766Y200133D01*
X1185976Y200040D01*
X1186184Y199942D01*
X1186389Y199839D01*
X1186592Y199731D01*
X1186792Y199618D01*
X1186990Y199501D01*
X1187185Y199379D01*
X1187376Y199252D01*
X1187565Y199121D01*
X1187750Y198985D01*
X1187933Y198845D01*
X1188111Y198700D01*
X1188287Y198552D01*
X1188458Y198399D01*
X1188626Y198242D01*
X1188791Y198081D01*
X1184192Y193499D02*
X1184357Y193338D01*
X1184525Y193181D01*
X1184696Y193028D01*
X1184872Y192880D01*
X1185050Y192735D01*
X1185233Y192595D01*
X1185418Y192459D01*
X1185607Y192328D01*
X1185798Y192201D01*
X1185993Y192079D01*
X1186191Y191962D01*
X1186391Y191849D01*
X1186594Y191741D01*
X1186799Y191638D01*
X1187007Y191540D01*
X1187217Y191447D01*
X1187430Y191359D01*
X1187644Y191276D01*
X1187860Y191198D01*
X1187860Y191197D02*
X1187947Y191157D01*
X1188036Y191120D01*
X1188126Y191086D01*
X1188218Y191056D01*
X1188310Y191030D01*
X1188403Y191007D01*
X1188498Y190988D01*
X1188593Y190973D01*
X1188688Y190962D01*
X1188784Y190955D01*
X1188880Y190951D01*
X1188976Y190952D01*
X1189072Y190956D01*
X1189168Y190964D01*
X1189263Y190976D01*
X1189358Y190991D01*
X1189452Y191011D01*
X1189546Y191034D01*
X1189638Y191061D01*
X1189729Y191091D01*
X1189819Y191125D01*
X1189907Y191163D01*
X1189994Y191204D01*
X1190079Y191249D01*
X1190162Y191297D01*
X1190244Y191349D01*
X1190323Y191403D01*
X1190400Y191461D01*
X1190474Y191522D01*
X1190546Y191585D01*
X1190616Y191652D01*
X1191078Y194405D02*
X1191001Y194622D01*
X1190919Y194837D01*
X1190832Y195049D01*
X1190739Y195260D01*
X1190642Y195468D01*
X1190540Y195674D01*
X1190432Y195877D01*
X1190320Y196078D01*
X1190204Y196276D01*
X1190082Y196471D01*
X1189956Y196663D01*
X1189825Y196852D01*
X1189690Y197038D01*
X1189551Y197221D01*
X1189407Y197400D01*
X1189259Y197576D01*
X1189106Y197748D01*
X1188950Y197916D01*
X1188790Y198081D01*
X1191079Y194405D02*
X1191120Y194318D01*
X1191157Y194229D01*
X1191190Y194139D01*
X1191219Y194047D01*
X1191245Y193955D01*
X1191268Y193861D01*
X1191286Y193767D01*
X1191301Y193672D01*
X1191312Y193577D01*
X1191319Y193481D01*
X1191322Y193385D01*
X1191321Y193289D01*
X1191317Y193193D01*
X1191308Y193097D01*
X1191296Y193001D01*
X1191280Y192907D01*
X1191260Y192813D01*
X1191237Y192719D01*
X1191210Y192627D01*
X1191179Y192536D01*
X1191144Y192446D01*
X1191106Y192358D01*
X1191065Y192272D01*
X1191020Y192187D01*
X1190971Y192104D01*
X1190920Y192022D01*
X1190865Y191944D01*
X1190807Y191867D01*
X1190746Y191793D01*
X1190682Y191721D01*
X1190615Y191652D01*
X1186943Y191659D02*
X1186039Y199922D01*
D14*
X1165130Y987401D02*
X1136888Y1015693D01*
X1115648Y994491D02*
X1143890Y966199D01*
X1128964Y980231D02*
X1092622Y943953D01*
X1151124Y1002352D02*
X1194081Y1045233D01*
X1166810Y1022520D02*
X1151124Y1002352D01*
X1166810Y1022520D02*
X1171320Y1018002D01*
X1151124Y1002352D01*
X1168147Y1021181D01*
X1169983Y1019341D02*
X1151124Y1002352D01*
X1167228Y1022101D01*
X1170902Y1018421D02*
X1151124Y1002352D01*
X1128964Y980231D02*
X1108768Y964581D01*
X1113279Y960062D01*
X1128964Y980231D01*
X1110105Y963241D01*
X1111942Y961401D02*
X1128964Y980231D01*
X1109187Y964161D01*
X1112860Y960481D02*
X1128964Y980231D01*
D12*
X1165905Y1024146D02*
X1168204Y1026437D01*
X1168283Y1026518D01*
X1168359Y1026602D01*
X1168432Y1026689D01*
X1168502Y1026778D01*
X1168569Y1026870D01*
X1168632Y1026963D01*
X1168692Y1027059D01*
X1168749Y1027157D01*
X1168803Y1027257D01*
X1168852Y1027359D01*
X1168899Y1027462D01*
X1168941Y1027567D01*
X1168980Y1027674D01*
X1169016Y1027782D01*
X1169047Y1027890D01*
X1169075Y1028000D01*
X1169098Y1028111D01*
X1169118Y1028223D01*
X1169134Y1028335D01*
X1169146Y1028447D01*
X1169154Y1028560D01*
X1169158Y1028674D01*
X1169159Y1028787D01*
X1169155Y1028900D01*
X1169147Y1029013D01*
X1169135Y1029126D01*
X1169120Y1029238D01*
X1169100Y1029350D01*
X1169077Y1029461D01*
X1169050Y1029571D01*
X1169019Y1029680D01*
X1168984Y1029787D01*
X1168945Y1029894D01*
X1168903Y1029999D01*
X1168857Y1030103D01*
X1168808Y1030205D01*
X1168755Y1030305D01*
X1168698Y1030403D01*
X1168638Y1030499D01*
X1168575Y1030593D01*
X1168509Y1030685D01*
X1168439Y1030774D01*
X1168366Y1030861D01*
X1168291Y1030946D01*
X1168212Y1031027D01*
X1168131Y1031106D01*
X1168047Y1031182D01*
X1167960Y1031255D01*
X1167871Y1031325D01*
X1167779Y1031392D01*
X1167686Y1031455D01*
X1167590Y1031515D01*
X1167492Y1031572D01*
X1167392Y1031626D01*
X1167290Y1031675D01*
X1167187Y1031722D01*
X1167082Y1031764D01*
X1166975Y1031803D01*
X1166867Y1031839D01*
X1166759Y1031870D01*
X1166649Y1031898D01*
X1166538Y1031921D01*
X1166426Y1031941D01*
X1166314Y1031957D01*
X1166202Y1031969D01*
X1166089Y1031977D01*
X1165975Y1031981D01*
X1165862Y1031982D01*
X1165749Y1031978D01*
X1165636Y1031970D01*
X1165523Y1031958D01*
X1165411Y1031943D01*
X1165299Y1031923D01*
X1165188Y1031900D01*
X1165078Y1031873D01*
X1164969Y1031842D01*
X1164862Y1031807D01*
X1164755Y1031768D01*
X1164650Y1031726D01*
X1164546Y1031680D01*
X1164444Y1031631D01*
X1164344Y1031578D01*
X1164246Y1031521D01*
X1164150Y1031461D01*
X1164056Y1031398D01*
X1163964Y1031332D01*
X1163875Y1031262D01*
X1163788Y1031189D01*
X1163703Y1031114D01*
X1163622Y1031035D01*
X1160416Y1035172D02*
X1157657Y1032423D01*
X1160417Y1035172D02*
X1160489Y1035242D01*
X1160565Y1035308D01*
X1160642Y1035372D01*
X1160723Y1035433D01*
X1160805Y1035491D01*
X1160890Y1035545D01*
X1160977Y1035596D01*
X1161065Y1035644D01*
X1161156Y1035688D01*
X1161248Y1035728D01*
X1161342Y1035765D01*
X1161437Y1035799D01*
X1161533Y1035828D01*
X1161630Y1035854D01*
X1161728Y1035876D01*
X1161827Y1035895D01*
X1161927Y1035909D01*
X1162027Y1035920D01*
X1162128Y1035926D01*
X1162228Y1035929D01*
X1162329Y1035928D01*
X1162430Y1035923D01*
X1162530Y1035914D01*
X1162630Y1035901D01*
X1162729Y1035884D01*
X1162828Y1035864D01*
X1162925Y1035839D01*
X1163022Y1035811D01*
X1163117Y1035779D01*
X1163212Y1035744D01*
X1163304Y1035705D01*
X1163396Y1035662D01*
X1163485Y1035616D01*
X1163573Y1035566D01*
X1163658Y1035513D01*
X1163742Y1035457D01*
X1163823Y1035397D01*
X1163902Y1035335D01*
X1163978Y1035269D01*
X1164052Y1035201D01*
X1164123Y1035129D01*
X1164191Y1035055D01*
X1164257Y1034979D01*
X1164319Y1034900D01*
X1164378Y1034818D01*
X1164434Y1034735D01*
X1164487Y1034649D01*
X1164536Y1034561D01*
X1164582Y1034471D01*
X1164624Y1034380D01*
X1164663Y1034287D01*
X1164698Y1034193D01*
X1164730Y1034097D01*
X1164758Y1034001D01*
X1164782Y1033903D01*
X1164802Y1033804D01*
X1164818Y1033705D01*
X1164831Y1033605D01*
X1164839Y1033505D01*
X1164844Y1033404D01*
X1164845Y1033303D01*
X1164842Y1033203D01*
X1164835Y1033102D01*
X1164824Y1033002D01*
X1164809Y1032903D01*
X1164790Y1032804D01*
X1164768Y1032705D01*
X1164742Y1032608D01*
X1164712Y1032512D01*
X1164678Y1032417D01*
X1164641Y1032324D01*
X1164600Y1032232D01*
X1164555Y1032141D01*
X1164507Y1032053D01*
X1164456Y1031966D01*
X1164401Y1031882D01*
X1164344Y1031799D01*
X1164283Y1031719D01*
X1164218Y1031642D01*
X1164151Y1031567D01*
X1164081Y1031494D01*
X1164082Y1031493D02*
X1162242Y1029661D01*
X1173183Y1032316D02*
X1173641Y1031856D01*
X1173183Y1032316D02*
X1173643Y1032774D01*
X1174101Y1032314D01*
X1173641Y1031856D01*
X1173116Y1039580D02*
X1172956Y1039745D01*
X1172800Y1039913D01*
X1172647Y1040085D01*
X1172499Y1040261D01*
X1172355Y1040440D01*
X1172216Y1040623D01*
X1172081Y1040809D01*
X1171950Y1040998D01*
X1171824Y1041190D01*
X1171702Y1041385D01*
X1171586Y1041583D01*
X1171474Y1041784D01*
X1171366Y1041987D01*
X1171264Y1042193D01*
X1171167Y1042401D01*
X1171074Y1042612D01*
X1170987Y1042825D01*
X1170905Y1043039D01*
X1170828Y1043256D01*
X1170827Y1043256D02*
X1170786Y1043343D01*
X1170749Y1043432D01*
X1170716Y1043522D01*
X1170687Y1043614D01*
X1170661Y1043706D01*
X1170638Y1043800D01*
X1170620Y1043894D01*
X1170605Y1043989D01*
X1170594Y1044084D01*
X1170587Y1044180D01*
X1170584Y1044276D01*
X1170585Y1044372D01*
X1170589Y1044468D01*
X1170598Y1044564D01*
X1170610Y1044660D01*
X1170626Y1044754D01*
X1170646Y1044848D01*
X1170669Y1044942D01*
X1170696Y1045034D01*
X1170727Y1045125D01*
X1170762Y1045214D01*
X1170800Y1045303D01*
X1170841Y1045389D01*
X1170886Y1045474D01*
X1170935Y1045557D01*
X1170986Y1045639D01*
X1171041Y1045717D01*
X1171099Y1045794D01*
X1171160Y1045868D01*
X1171224Y1045940D01*
X1171290Y1046009D01*
X1171360Y1046076D01*
X1171432Y1046140D01*
X1171506Y1046200D01*
X1171583Y1046258D01*
X1171662Y1046312D01*
X1171744Y1046364D01*
X1171827Y1046412D01*
X1171912Y1046457D01*
X1171999Y1046498D01*
X1172087Y1046536D01*
X1172177Y1046570D01*
X1172268Y1046600D01*
X1172360Y1046627D01*
X1172454Y1046650D01*
X1172548Y1046670D01*
X1172643Y1046685D01*
X1172738Y1046697D01*
X1172834Y1046705D01*
X1172930Y1046709D01*
X1173026Y1046710D01*
X1173122Y1046706D01*
X1173218Y1046699D01*
X1173313Y1046688D01*
X1173408Y1046673D01*
X1173503Y1046654D01*
X1173596Y1046631D01*
X1173688Y1046605D01*
X1173780Y1046575D01*
X1173870Y1046541D01*
X1173958Y1046504D01*
X1174046Y1046464D01*
X1174046Y1046463D02*
X1174262Y1046385D01*
X1174476Y1046302D01*
X1174689Y1046214D01*
X1174899Y1046121D01*
X1175107Y1046023D01*
X1175312Y1045920D01*
X1175515Y1045812D01*
X1175715Y1045699D01*
X1175913Y1045582D01*
X1176108Y1045460D01*
X1176299Y1045333D01*
X1176488Y1045202D01*
X1176673Y1045066D01*
X1176856Y1044926D01*
X1177034Y1044781D01*
X1177210Y1044633D01*
X1177381Y1044480D01*
X1177549Y1044323D01*
X1177714Y1044162D01*
X1173115Y1039580D02*
X1173280Y1039419D01*
X1173448Y1039262D01*
X1173619Y1039109D01*
X1173795Y1038961D01*
X1173973Y1038816D01*
X1174156Y1038676D01*
X1174341Y1038540D01*
X1174530Y1038409D01*
X1174721Y1038282D01*
X1174916Y1038160D01*
X1175114Y1038043D01*
X1175314Y1037930D01*
X1175517Y1037822D01*
X1175722Y1037719D01*
X1175930Y1037621D01*
X1176140Y1037528D01*
X1176353Y1037440D01*
X1176567Y1037357D01*
X1176783Y1037279D01*
X1176783Y1037278D02*
X1176870Y1037238D01*
X1176959Y1037201D01*
X1177049Y1037167D01*
X1177141Y1037137D01*
X1177233Y1037111D01*
X1177326Y1037088D01*
X1177421Y1037069D01*
X1177516Y1037054D01*
X1177611Y1037043D01*
X1177707Y1037036D01*
X1177803Y1037032D01*
X1177899Y1037033D01*
X1177995Y1037037D01*
X1178091Y1037045D01*
X1178186Y1037057D01*
X1178281Y1037072D01*
X1178375Y1037092D01*
X1178469Y1037115D01*
X1178561Y1037142D01*
X1178652Y1037172D01*
X1178742Y1037206D01*
X1178830Y1037244D01*
X1178917Y1037285D01*
X1179002Y1037330D01*
X1179085Y1037378D01*
X1179167Y1037430D01*
X1179246Y1037484D01*
X1179323Y1037542D01*
X1179397Y1037603D01*
X1179469Y1037666D01*
X1179539Y1037733D01*
X1180002Y1040485D02*
X1179925Y1040702D01*
X1179843Y1040917D01*
X1179756Y1041129D01*
X1179663Y1041340D01*
X1179566Y1041548D01*
X1179464Y1041754D01*
X1179356Y1041957D01*
X1179244Y1042158D01*
X1179128Y1042356D01*
X1179006Y1042551D01*
X1178880Y1042743D01*
X1178749Y1042932D01*
X1178614Y1043118D01*
X1178475Y1043301D01*
X1178331Y1043480D01*
X1178183Y1043656D01*
X1178030Y1043828D01*
X1177874Y1043996D01*
X1177714Y1044161D01*
X1180002Y1040486D02*
X1180043Y1040399D01*
X1180080Y1040310D01*
X1180113Y1040220D01*
X1180142Y1040128D01*
X1180168Y1040036D01*
X1180191Y1039942D01*
X1180209Y1039848D01*
X1180224Y1039753D01*
X1180235Y1039658D01*
X1180242Y1039562D01*
X1180245Y1039466D01*
X1180244Y1039370D01*
X1180240Y1039274D01*
X1180231Y1039178D01*
X1180219Y1039082D01*
X1180203Y1038988D01*
X1180183Y1038894D01*
X1180160Y1038800D01*
X1180133Y1038708D01*
X1180102Y1038617D01*
X1180067Y1038527D01*
X1180029Y1038439D01*
X1179988Y1038353D01*
X1179943Y1038268D01*
X1179894Y1038185D01*
X1179843Y1038103D01*
X1179788Y1038025D01*
X1179730Y1037948D01*
X1179669Y1037874D01*
X1179605Y1037802D01*
X1179538Y1037733D01*
X1175866Y1037739D02*
X1174963Y1046002D01*
X1181212Y1047648D02*
X1181052Y1047813D01*
X1180896Y1047981D01*
X1180743Y1048153D01*
X1180595Y1048329D01*
X1180451Y1048508D01*
X1180312Y1048691D01*
X1180177Y1048877D01*
X1180046Y1049066D01*
X1179920Y1049258D01*
X1179798Y1049453D01*
X1179682Y1049651D01*
X1179570Y1049852D01*
X1179462Y1050055D01*
X1179360Y1050261D01*
X1179263Y1050469D01*
X1179170Y1050680D01*
X1179083Y1050893D01*
X1179001Y1051107D01*
X1178924Y1051324D01*
X1178883Y1051411D01*
X1178846Y1051500D01*
X1178813Y1051590D01*
X1178784Y1051682D01*
X1178758Y1051774D01*
X1178735Y1051868D01*
X1178717Y1051962D01*
X1178702Y1052057D01*
X1178691Y1052152D01*
X1178684Y1052248D01*
X1178681Y1052344D01*
X1178682Y1052440D01*
X1178686Y1052536D01*
X1178695Y1052632D01*
X1178707Y1052728D01*
X1178723Y1052822D01*
X1178743Y1052916D01*
X1178766Y1053010D01*
X1178793Y1053102D01*
X1178824Y1053193D01*
X1178859Y1053282D01*
X1178897Y1053371D01*
X1178938Y1053457D01*
X1178983Y1053542D01*
X1179032Y1053625D01*
X1179083Y1053707D01*
X1179138Y1053785D01*
X1179196Y1053862D01*
X1179257Y1053936D01*
X1179321Y1054008D01*
X1179387Y1054077D01*
X1179457Y1054144D01*
X1179529Y1054208D01*
X1179603Y1054268D01*
X1179680Y1054326D01*
X1179759Y1054380D01*
X1179841Y1054432D01*
X1179924Y1054480D01*
X1180009Y1054525D01*
X1180096Y1054566D01*
X1180184Y1054604D01*
X1180274Y1054638D01*
X1180365Y1054668D01*
X1180457Y1054695D01*
X1180551Y1054718D01*
X1180645Y1054738D01*
X1180740Y1054753D01*
X1180835Y1054765D01*
X1180931Y1054773D01*
X1181027Y1054777D01*
X1181123Y1054778D01*
X1181219Y1054774D01*
X1181315Y1054767D01*
X1181410Y1054756D01*
X1181505Y1054741D01*
X1181600Y1054722D01*
X1181693Y1054699D01*
X1181785Y1054673D01*
X1181877Y1054643D01*
X1181967Y1054609D01*
X1182055Y1054572D01*
X1182143Y1054532D01*
X1182142Y1054531D02*
X1182358Y1054453D01*
X1182572Y1054370D01*
X1182785Y1054282D01*
X1182995Y1054189D01*
X1183203Y1054091D01*
X1183408Y1053988D01*
X1183611Y1053880D01*
X1183811Y1053767D01*
X1184009Y1053650D01*
X1184204Y1053528D01*
X1184395Y1053401D01*
X1184584Y1053270D01*
X1184769Y1053134D01*
X1184952Y1052994D01*
X1185130Y1052849D01*
X1185306Y1052701D01*
X1185477Y1052548D01*
X1185645Y1052391D01*
X1185810Y1052230D01*
X1181212Y1047648D02*
X1181377Y1047487D01*
X1181545Y1047330D01*
X1181716Y1047177D01*
X1181892Y1047029D01*
X1182070Y1046884D01*
X1182253Y1046744D01*
X1182438Y1046608D01*
X1182627Y1046477D01*
X1182818Y1046350D01*
X1183013Y1046228D01*
X1183211Y1046111D01*
X1183411Y1045998D01*
X1183614Y1045890D01*
X1183819Y1045787D01*
X1184027Y1045689D01*
X1184237Y1045596D01*
X1184450Y1045508D01*
X1184664Y1045425D01*
X1184880Y1045347D01*
X1184879Y1045346D02*
X1184966Y1045306D01*
X1185055Y1045269D01*
X1185145Y1045235D01*
X1185237Y1045205D01*
X1185329Y1045179D01*
X1185422Y1045156D01*
X1185517Y1045137D01*
X1185612Y1045122D01*
X1185707Y1045111D01*
X1185803Y1045104D01*
X1185899Y1045100D01*
X1185995Y1045101D01*
X1186091Y1045105D01*
X1186187Y1045113D01*
X1186282Y1045125D01*
X1186377Y1045140D01*
X1186471Y1045160D01*
X1186565Y1045183D01*
X1186657Y1045210D01*
X1186748Y1045240D01*
X1186838Y1045274D01*
X1186926Y1045312D01*
X1187013Y1045353D01*
X1187098Y1045398D01*
X1187181Y1045446D01*
X1187263Y1045498D01*
X1187342Y1045552D01*
X1187419Y1045610D01*
X1187493Y1045671D01*
X1187565Y1045734D01*
X1187635Y1045801D01*
X1188098Y1048553D02*
X1188021Y1048770D01*
X1187939Y1048985D01*
X1187852Y1049197D01*
X1187759Y1049408D01*
X1187662Y1049616D01*
X1187560Y1049822D01*
X1187452Y1050025D01*
X1187340Y1050226D01*
X1187224Y1050424D01*
X1187102Y1050619D01*
X1186976Y1050811D01*
X1186845Y1051000D01*
X1186710Y1051186D01*
X1186571Y1051369D01*
X1186427Y1051548D01*
X1186279Y1051724D01*
X1186126Y1051896D01*
X1185970Y1052064D01*
X1185810Y1052229D01*
X1188098Y1048554D02*
X1188139Y1048467D01*
X1188176Y1048378D01*
X1188209Y1048288D01*
X1188238Y1048196D01*
X1188264Y1048104D01*
X1188287Y1048010D01*
X1188305Y1047916D01*
X1188320Y1047821D01*
X1188331Y1047726D01*
X1188338Y1047630D01*
X1188341Y1047534D01*
X1188340Y1047438D01*
X1188336Y1047342D01*
X1188327Y1047246D01*
X1188315Y1047150D01*
X1188299Y1047056D01*
X1188279Y1046962D01*
X1188256Y1046868D01*
X1188229Y1046776D01*
X1188198Y1046685D01*
X1188163Y1046595D01*
X1188125Y1046507D01*
X1188084Y1046421D01*
X1188039Y1046336D01*
X1187990Y1046253D01*
X1187939Y1046171D01*
X1187884Y1046093D01*
X1187826Y1046016D01*
X1187765Y1045942D01*
X1187701Y1045870D01*
X1187634Y1045801D01*
X1183963Y1045807D02*
X1183059Y1054070D01*
M02*
