G04 EAGLE Gerber RS-274X export*
G75*
%MOMM*%
%FSLAX34Y34*%
%LPD*%
%INBoard Outline*%
%IPPOS*%
%AMOC8*
5,1,8,0,0,1.08239X$1,22.5*%
G01*
%ADD10C,0.000000*%
%ADD11C,0.254000*%


D10*
X57373Y66034D02*
X1218331Y65249D01*
X1218713Y1072728D01*
X57755Y1073513D01*
X57373Y66034D01*
X127098Y977913D02*
X127103Y978281D01*
X127116Y978649D01*
X127139Y979016D01*
X127170Y979383D01*
X127211Y979749D01*
X127260Y980114D01*
X127319Y980477D01*
X127386Y980839D01*
X127462Y981200D01*
X127548Y981558D01*
X127641Y981914D01*
X127744Y982267D01*
X127855Y982618D01*
X127975Y982966D01*
X128103Y983311D01*
X128240Y983653D01*
X128385Y983992D01*
X128538Y984326D01*
X128700Y984657D01*
X128869Y984984D01*
X129047Y985306D01*
X129232Y985625D01*
X129425Y985938D01*
X129626Y986247D01*
X129834Y986550D01*
X130050Y986848D01*
X130273Y987141D01*
X130503Y987429D01*
X130740Y987711D01*
X130984Y987986D01*
X131234Y988256D01*
X131491Y988520D01*
X131755Y988777D01*
X132025Y989027D01*
X132300Y989271D01*
X132582Y989508D01*
X132870Y989738D01*
X133163Y989961D01*
X133461Y990177D01*
X133764Y990385D01*
X134073Y990586D01*
X134386Y990779D01*
X134705Y990964D01*
X135027Y991142D01*
X135354Y991311D01*
X135685Y991473D01*
X136019Y991626D01*
X136358Y991771D01*
X136700Y991908D01*
X137045Y992036D01*
X137393Y992156D01*
X137744Y992267D01*
X138097Y992370D01*
X138453Y992463D01*
X138811Y992549D01*
X139172Y992625D01*
X139534Y992692D01*
X139897Y992751D01*
X140262Y992800D01*
X140628Y992841D01*
X140995Y992872D01*
X141362Y992895D01*
X141730Y992908D01*
X142098Y992913D01*
X142466Y992908D01*
X142834Y992895D01*
X143201Y992872D01*
X143568Y992841D01*
X143934Y992800D01*
X144299Y992751D01*
X144662Y992692D01*
X145024Y992625D01*
X145385Y992549D01*
X145743Y992463D01*
X146099Y992370D01*
X146452Y992267D01*
X146803Y992156D01*
X147151Y992036D01*
X147496Y991908D01*
X147838Y991771D01*
X148177Y991626D01*
X148511Y991473D01*
X148842Y991311D01*
X149169Y991142D01*
X149491Y990964D01*
X149810Y990779D01*
X150123Y990586D01*
X150432Y990385D01*
X150735Y990177D01*
X151033Y989961D01*
X151326Y989738D01*
X151614Y989508D01*
X151896Y989271D01*
X152171Y989027D01*
X152441Y988777D01*
X152705Y988520D01*
X152962Y988256D01*
X153212Y987986D01*
X153456Y987711D01*
X153693Y987429D01*
X153923Y987141D01*
X154146Y986848D01*
X154362Y986550D01*
X154570Y986247D01*
X154771Y985938D01*
X154964Y985625D01*
X155149Y985306D01*
X155327Y984984D01*
X155496Y984657D01*
X155658Y984326D01*
X155811Y983992D01*
X155956Y983653D01*
X156093Y983311D01*
X156221Y982966D01*
X156341Y982618D01*
X156452Y982267D01*
X156555Y981914D01*
X156648Y981558D01*
X156734Y981200D01*
X156810Y980839D01*
X156877Y980477D01*
X156936Y980114D01*
X156985Y979749D01*
X157026Y979383D01*
X157057Y979016D01*
X157080Y978649D01*
X157093Y978281D01*
X157098Y977913D01*
X157093Y977545D01*
X157080Y977177D01*
X157057Y976810D01*
X157026Y976443D01*
X156985Y976077D01*
X156936Y975712D01*
X156877Y975349D01*
X156810Y974987D01*
X156734Y974626D01*
X156648Y974268D01*
X156555Y973912D01*
X156452Y973559D01*
X156341Y973208D01*
X156221Y972860D01*
X156093Y972515D01*
X155956Y972173D01*
X155811Y971834D01*
X155658Y971500D01*
X155496Y971169D01*
X155327Y970842D01*
X155149Y970520D01*
X154964Y970201D01*
X154771Y969888D01*
X154570Y969579D01*
X154362Y969276D01*
X154146Y968978D01*
X153923Y968685D01*
X153693Y968397D01*
X153456Y968115D01*
X153212Y967840D01*
X152962Y967570D01*
X152705Y967306D01*
X152441Y967049D01*
X152171Y966799D01*
X151896Y966555D01*
X151614Y966318D01*
X151326Y966088D01*
X151033Y965865D01*
X150735Y965649D01*
X150432Y965441D01*
X150123Y965240D01*
X149810Y965047D01*
X149491Y964862D01*
X149169Y964684D01*
X148842Y964515D01*
X148511Y964353D01*
X148177Y964200D01*
X147838Y964055D01*
X147496Y963918D01*
X147151Y963790D01*
X146803Y963670D01*
X146452Y963559D01*
X146099Y963456D01*
X145743Y963363D01*
X145385Y963277D01*
X145024Y963201D01*
X144662Y963134D01*
X144299Y963075D01*
X143934Y963026D01*
X143568Y962985D01*
X143201Y962954D01*
X142834Y962931D01*
X142466Y962918D01*
X142098Y962913D01*
X141730Y962918D01*
X141362Y962931D01*
X140995Y962954D01*
X140628Y962985D01*
X140262Y963026D01*
X139897Y963075D01*
X139534Y963134D01*
X139172Y963201D01*
X138811Y963277D01*
X138453Y963363D01*
X138097Y963456D01*
X137744Y963559D01*
X137393Y963670D01*
X137045Y963790D01*
X136700Y963918D01*
X136358Y964055D01*
X136019Y964200D01*
X135685Y964353D01*
X135354Y964515D01*
X135027Y964684D01*
X134705Y964862D01*
X134386Y965047D01*
X134073Y965240D01*
X133764Y965441D01*
X133461Y965649D01*
X133163Y965865D01*
X132870Y966088D01*
X132582Y966318D01*
X132300Y966555D01*
X132025Y966799D01*
X131755Y967049D01*
X131491Y967306D01*
X131234Y967570D01*
X130984Y967840D01*
X130740Y968115D01*
X130503Y968397D01*
X130273Y968685D01*
X130050Y968978D01*
X129834Y969276D01*
X129626Y969579D01*
X129425Y969888D01*
X129232Y970201D01*
X129047Y970520D01*
X128869Y970842D01*
X128700Y971169D01*
X128538Y971500D01*
X128385Y971834D01*
X128240Y972173D01*
X128103Y972515D01*
X127975Y972860D01*
X127855Y973208D01*
X127744Y973559D01*
X127641Y973912D01*
X127548Y974268D01*
X127462Y974626D01*
X127386Y974987D01*
X127319Y975349D01*
X127260Y975712D01*
X127211Y976077D01*
X127170Y976443D01*
X127139Y976810D01*
X127116Y977177D01*
X127103Y977545D01*
X127098Y977913D01*
X126636Y124908D02*
X126641Y125276D01*
X126654Y125644D01*
X126677Y126011D01*
X126708Y126378D01*
X126749Y126744D01*
X126798Y127109D01*
X126857Y127472D01*
X126924Y127834D01*
X127000Y128195D01*
X127086Y128553D01*
X127179Y128909D01*
X127282Y129262D01*
X127393Y129613D01*
X127513Y129961D01*
X127641Y130306D01*
X127778Y130648D01*
X127923Y130987D01*
X128076Y131321D01*
X128238Y131652D01*
X128407Y131979D01*
X128585Y132301D01*
X128770Y132620D01*
X128963Y132933D01*
X129164Y133242D01*
X129372Y133545D01*
X129588Y133843D01*
X129811Y134136D01*
X130041Y134424D01*
X130278Y134706D01*
X130522Y134981D01*
X130772Y135251D01*
X131029Y135515D01*
X131293Y135772D01*
X131563Y136022D01*
X131838Y136266D01*
X132120Y136503D01*
X132408Y136733D01*
X132701Y136956D01*
X132999Y137172D01*
X133302Y137380D01*
X133611Y137581D01*
X133924Y137774D01*
X134243Y137959D01*
X134565Y138137D01*
X134892Y138306D01*
X135223Y138468D01*
X135557Y138621D01*
X135896Y138766D01*
X136238Y138903D01*
X136583Y139031D01*
X136931Y139151D01*
X137282Y139262D01*
X137635Y139365D01*
X137991Y139458D01*
X138349Y139544D01*
X138710Y139620D01*
X139072Y139687D01*
X139435Y139746D01*
X139800Y139795D01*
X140166Y139836D01*
X140533Y139867D01*
X140900Y139890D01*
X141268Y139903D01*
X141636Y139908D01*
X142004Y139903D01*
X142372Y139890D01*
X142739Y139867D01*
X143106Y139836D01*
X143472Y139795D01*
X143837Y139746D01*
X144200Y139687D01*
X144562Y139620D01*
X144923Y139544D01*
X145281Y139458D01*
X145637Y139365D01*
X145990Y139262D01*
X146341Y139151D01*
X146689Y139031D01*
X147034Y138903D01*
X147376Y138766D01*
X147715Y138621D01*
X148049Y138468D01*
X148380Y138306D01*
X148707Y138137D01*
X149029Y137959D01*
X149348Y137774D01*
X149661Y137581D01*
X149970Y137380D01*
X150273Y137172D01*
X150571Y136956D01*
X150864Y136733D01*
X151152Y136503D01*
X151434Y136266D01*
X151709Y136022D01*
X151979Y135772D01*
X152243Y135515D01*
X152500Y135251D01*
X152750Y134981D01*
X152994Y134706D01*
X153231Y134424D01*
X153461Y134136D01*
X153684Y133843D01*
X153900Y133545D01*
X154108Y133242D01*
X154309Y132933D01*
X154502Y132620D01*
X154687Y132301D01*
X154865Y131979D01*
X155034Y131652D01*
X155196Y131321D01*
X155349Y130987D01*
X155494Y130648D01*
X155631Y130306D01*
X155759Y129961D01*
X155879Y129613D01*
X155990Y129262D01*
X156093Y128909D01*
X156186Y128553D01*
X156272Y128195D01*
X156348Y127834D01*
X156415Y127472D01*
X156474Y127109D01*
X156523Y126744D01*
X156564Y126378D01*
X156595Y126011D01*
X156618Y125644D01*
X156631Y125276D01*
X156636Y124908D01*
X156631Y124540D01*
X156618Y124172D01*
X156595Y123805D01*
X156564Y123438D01*
X156523Y123072D01*
X156474Y122707D01*
X156415Y122344D01*
X156348Y121982D01*
X156272Y121621D01*
X156186Y121263D01*
X156093Y120907D01*
X155990Y120554D01*
X155879Y120203D01*
X155759Y119855D01*
X155631Y119510D01*
X155494Y119168D01*
X155349Y118829D01*
X155196Y118495D01*
X155034Y118164D01*
X154865Y117837D01*
X154687Y117515D01*
X154502Y117196D01*
X154309Y116883D01*
X154108Y116574D01*
X153900Y116271D01*
X153684Y115973D01*
X153461Y115680D01*
X153231Y115392D01*
X152994Y115110D01*
X152750Y114835D01*
X152500Y114565D01*
X152243Y114301D01*
X151979Y114044D01*
X151709Y113794D01*
X151434Y113550D01*
X151152Y113313D01*
X150864Y113083D01*
X150571Y112860D01*
X150273Y112644D01*
X149970Y112436D01*
X149661Y112235D01*
X149348Y112042D01*
X149029Y111857D01*
X148707Y111679D01*
X148380Y111510D01*
X148049Y111348D01*
X147715Y111195D01*
X147376Y111050D01*
X147034Y110913D01*
X146689Y110785D01*
X146341Y110665D01*
X145990Y110554D01*
X145637Y110451D01*
X145281Y110358D01*
X144923Y110272D01*
X144562Y110196D01*
X144200Y110129D01*
X143837Y110070D01*
X143472Y110021D01*
X143106Y109980D01*
X142739Y109949D01*
X142372Y109926D01*
X142004Y109913D01*
X141636Y109908D01*
X141268Y109913D01*
X140900Y109926D01*
X140533Y109949D01*
X140166Y109980D01*
X139800Y110021D01*
X139435Y110070D01*
X139072Y110129D01*
X138710Y110196D01*
X138349Y110272D01*
X137991Y110358D01*
X137635Y110451D01*
X137282Y110554D01*
X136931Y110665D01*
X136583Y110785D01*
X136238Y110913D01*
X135896Y111050D01*
X135557Y111195D01*
X135223Y111348D01*
X134892Y111510D01*
X134565Y111679D01*
X134243Y111857D01*
X133924Y112042D01*
X133611Y112235D01*
X133302Y112436D01*
X132999Y112644D01*
X132701Y112860D01*
X132408Y113083D01*
X132120Y113313D01*
X131838Y113550D01*
X131563Y113794D01*
X131293Y114044D01*
X131029Y114301D01*
X130772Y114565D01*
X130522Y114835D01*
X130278Y115110D01*
X130041Y115392D01*
X129811Y115680D01*
X129588Y115973D01*
X129372Y116271D01*
X129164Y116574D01*
X128963Y116883D01*
X128770Y117196D01*
X128585Y117515D01*
X128407Y117837D01*
X128238Y118164D01*
X128076Y118495D01*
X127923Y118829D01*
X127778Y119168D01*
X127641Y119510D01*
X127513Y119855D01*
X127393Y120203D01*
X127282Y120554D01*
X127179Y120907D01*
X127086Y121263D01*
X127000Y121621D01*
X126924Y121982D01*
X126857Y122344D01*
X126798Y122707D01*
X126749Y123072D01*
X126708Y123438D01*
X126677Y123805D01*
X126654Y124172D01*
X126641Y124540D01*
X126636Y124908D01*
X1142475Y122671D02*
X1142480Y123039D01*
X1142493Y123407D01*
X1142516Y123774D01*
X1142547Y124141D01*
X1142588Y124507D01*
X1142637Y124872D01*
X1142696Y125235D01*
X1142763Y125597D01*
X1142839Y125958D01*
X1142925Y126316D01*
X1143018Y126672D01*
X1143121Y127025D01*
X1143232Y127376D01*
X1143352Y127724D01*
X1143480Y128069D01*
X1143617Y128411D01*
X1143762Y128750D01*
X1143915Y129084D01*
X1144077Y129415D01*
X1144246Y129742D01*
X1144424Y130064D01*
X1144609Y130383D01*
X1144802Y130696D01*
X1145003Y131005D01*
X1145211Y131308D01*
X1145427Y131606D01*
X1145650Y131899D01*
X1145880Y132187D01*
X1146117Y132469D01*
X1146361Y132744D01*
X1146611Y133014D01*
X1146868Y133278D01*
X1147132Y133535D01*
X1147402Y133785D01*
X1147677Y134029D01*
X1147959Y134266D01*
X1148247Y134496D01*
X1148540Y134719D01*
X1148838Y134935D01*
X1149141Y135143D01*
X1149450Y135344D01*
X1149763Y135537D01*
X1150082Y135722D01*
X1150404Y135900D01*
X1150731Y136069D01*
X1151062Y136231D01*
X1151396Y136384D01*
X1151735Y136529D01*
X1152077Y136666D01*
X1152422Y136794D01*
X1152770Y136914D01*
X1153121Y137025D01*
X1153474Y137128D01*
X1153830Y137221D01*
X1154188Y137307D01*
X1154549Y137383D01*
X1154911Y137450D01*
X1155274Y137509D01*
X1155639Y137558D01*
X1156005Y137599D01*
X1156372Y137630D01*
X1156739Y137653D01*
X1157107Y137666D01*
X1157475Y137671D01*
X1157843Y137666D01*
X1158211Y137653D01*
X1158578Y137630D01*
X1158945Y137599D01*
X1159311Y137558D01*
X1159676Y137509D01*
X1160039Y137450D01*
X1160401Y137383D01*
X1160762Y137307D01*
X1161120Y137221D01*
X1161476Y137128D01*
X1161829Y137025D01*
X1162180Y136914D01*
X1162528Y136794D01*
X1162873Y136666D01*
X1163215Y136529D01*
X1163554Y136384D01*
X1163888Y136231D01*
X1164219Y136069D01*
X1164546Y135900D01*
X1164868Y135722D01*
X1165187Y135537D01*
X1165500Y135344D01*
X1165809Y135143D01*
X1166112Y134935D01*
X1166410Y134719D01*
X1166703Y134496D01*
X1166991Y134266D01*
X1167273Y134029D01*
X1167548Y133785D01*
X1167818Y133535D01*
X1168082Y133278D01*
X1168339Y133014D01*
X1168589Y132744D01*
X1168833Y132469D01*
X1169070Y132187D01*
X1169300Y131899D01*
X1169523Y131606D01*
X1169739Y131308D01*
X1169947Y131005D01*
X1170148Y130696D01*
X1170341Y130383D01*
X1170526Y130064D01*
X1170704Y129742D01*
X1170873Y129415D01*
X1171035Y129084D01*
X1171188Y128750D01*
X1171333Y128411D01*
X1171470Y128069D01*
X1171598Y127724D01*
X1171718Y127376D01*
X1171829Y127025D01*
X1171932Y126672D01*
X1172025Y126316D01*
X1172111Y125958D01*
X1172187Y125597D01*
X1172254Y125235D01*
X1172313Y124872D01*
X1172362Y124507D01*
X1172403Y124141D01*
X1172434Y123774D01*
X1172457Y123407D01*
X1172470Y123039D01*
X1172475Y122671D01*
X1172470Y122303D01*
X1172457Y121935D01*
X1172434Y121568D01*
X1172403Y121201D01*
X1172362Y120835D01*
X1172313Y120470D01*
X1172254Y120107D01*
X1172187Y119745D01*
X1172111Y119384D01*
X1172025Y119026D01*
X1171932Y118670D01*
X1171829Y118317D01*
X1171718Y117966D01*
X1171598Y117618D01*
X1171470Y117273D01*
X1171333Y116931D01*
X1171188Y116592D01*
X1171035Y116258D01*
X1170873Y115927D01*
X1170704Y115600D01*
X1170526Y115278D01*
X1170341Y114959D01*
X1170148Y114646D01*
X1169947Y114337D01*
X1169739Y114034D01*
X1169523Y113736D01*
X1169300Y113443D01*
X1169070Y113155D01*
X1168833Y112873D01*
X1168589Y112598D01*
X1168339Y112328D01*
X1168082Y112064D01*
X1167818Y111807D01*
X1167548Y111557D01*
X1167273Y111313D01*
X1166991Y111076D01*
X1166703Y110846D01*
X1166410Y110623D01*
X1166112Y110407D01*
X1165809Y110199D01*
X1165500Y109998D01*
X1165187Y109805D01*
X1164868Y109620D01*
X1164546Y109442D01*
X1164219Y109273D01*
X1163888Y109111D01*
X1163554Y108958D01*
X1163215Y108813D01*
X1162873Y108676D01*
X1162528Y108548D01*
X1162180Y108428D01*
X1161829Y108317D01*
X1161476Y108214D01*
X1161120Y108121D01*
X1160762Y108035D01*
X1160401Y107959D01*
X1160039Y107892D01*
X1159676Y107833D01*
X1159311Y107784D01*
X1158945Y107743D01*
X1158578Y107712D01*
X1158211Y107689D01*
X1157843Y107676D01*
X1157475Y107671D01*
X1157107Y107676D01*
X1156739Y107689D01*
X1156372Y107712D01*
X1156005Y107743D01*
X1155639Y107784D01*
X1155274Y107833D01*
X1154911Y107892D01*
X1154549Y107959D01*
X1154188Y108035D01*
X1153830Y108121D01*
X1153474Y108214D01*
X1153121Y108317D01*
X1152770Y108428D01*
X1152422Y108548D01*
X1152077Y108676D01*
X1151735Y108813D01*
X1151396Y108958D01*
X1151062Y109111D01*
X1150731Y109273D01*
X1150404Y109442D01*
X1150082Y109620D01*
X1149763Y109805D01*
X1149450Y109998D01*
X1149141Y110199D01*
X1148838Y110407D01*
X1148540Y110623D01*
X1148247Y110846D01*
X1147959Y111076D01*
X1147677Y111313D01*
X1147402Y111557D01*
X1147132Y111807D01*
X1146868Y112064D01*
X1146611Y112328D01*
X1146361Y112598D01*
X1146117Y112873D01*
X1145880Y113155D01*
X1145650Y113443D01*
X1145427Y113736D01*
X1145211Y114034D01*
X1145003Y114337D01*
X1144802Y114646D01*
X1144609Y114959D01*
X1144424Y115278D01*
X1144246Y115600D01*
X1144077Y115927D01*
X1143915Y116258D01*
X1143762Y116592D01*
X1143617Y116931D01*
X1143480Y117273D01*
X1143352Y117618D01*
X1143232Y117966D01*
X1143121Y118317D01*
X1143018Y118670D01*
X1142925Y119026D01*
X1142839Y119384D01*
X1142763Y119745D01*
X1142696Y120107D01*
X1142637Y120470D01*
X1142588Y120835D01*
X1142547Y121201D01*
X1142516Y121568D01*
X1142493Y121935D01*
X1142480Y122303D01*
X1142475Y122671D01*
X1139494Y976819D02*
X1139499Y977187D01*
X1139512Y977555D01*
X1139535Y977922D01*
X1139566Y978289D01*
X1139607Y978655D01*
X1139656Y979020D01*
X1139715Y979383D01*
X1139782Y979745D01*
X1139858Y980106D01*
X1139944Y980464D01*
X1140037Y980820D01*
X1140140Y981173D01*
X1140251Y981524D01*
X1140371Y981872D01*
X1140499Y982217D01*
X1140636Y982559D01*
X1140781Y982898D01*
X1140934Y983232D01*
X1141096Y983563D01*
X1141265Y983890D01*
X1141443Y984212D01*
X1141628Y984531D01*
X1141821Y984844D01*
X1142022Y985153D01*
X1142230Y985456D01*
X1142446Y985754D01*
X1142669Y986047D01*
X1142899Y986335D01*
X1143136Y986617D01*
X1143380Y986892D01*
X1143630Y987162D01*
X1143887Y987426D01*
X1144151Y987683D01*
X1144421Y987933D01*
X1144696Y988177D01*
X1144978Y988414D01*
X1145266Y988644D01*
X1145559Y988867D01*
X1145857Y989083D01*
X1146160Y989291D01*
X1146469Y989492D01*
X1146782Y989685D01*
X1147101Y989870D01*
X1147423Y990048D01*
X1147750Y990217D01*
X1148081Y990379D01*
X1148415Y990532D01*
X1148754Y990677D01*
X1149096Y990814D01*
X1149441Y990942D01*
X1149789Y991062D01*
X1150140Y991173D01*
X1150493Y991276D01*
X1150849Y991369D01*
X1151207Y991455D01*
X1151568Y991531D01*
X1151930Y991598D01*
X1152293Y991657D01*
X1152658Y991706D01*
X1153024Y991747D01*
X1153391Y991778D01*
X1153758Y991801D01*
X1154126Y991814D01*
X1154494Y991819D01*
X1154862Y991814D01*
X1155230Y991801D01*
X1155597Y991778D01*
X1155964Y991747D01*
X1156330Y991706D01*
X1156695Y991657D01*
X1157058Y991598D01*
X1157420Y991531D01*
X1157781Y991455D01*
X1158139Y991369D01*
X1158495Y991276D01*
X1158848Y991173D01*
X1159199Y991062D01*
X1159547Y990942D01*
X1159892Y990814D01*
X1160234Y990677D01*
X1160573Y990532D01*
X1160907Y990379D01*
X1161238Y990217D01*
X1161565Y990048D01*
X1161887Y989870D01*
X1162206Y989685D01*
X1162519Y989492D01*
X1162828Y989291D01*
X1163131Y989083D01*
X1163429Y988867D01*
X1163722Y988644D01*
X1164010Y988414D01*
X1164292Y988177D01*
X1164567Y987933D01*
X1164837Y987683D01*
X1165101Y987426D01*
X1165358Y987162D01*
X1165608Y986892D01*
X1165852Y986617D01*
X1166089Y986335D01*
X1166319Y986047D01*
X1166542Y985754D01*
X1166758Y985456D01*
X1166966Y985153D01*
X1167167Y984844D01*
X1167360Y984531D01*
X1167545Y984212D01*
X1167723Y983890D01*
X1167892Y983563D01*
X1168054Y983232D01*
X1168207Y982898D01*
X1168352Y982559D01*
X1168489Y982217D01*
X1168617Y981872D01*
X1168737Y981524D01*
X1168848Y981173D01*
X1168951Y980820D01*
X1169044Y980464D01*
X1169130Y980106D01*
X1169206Y979745D01*
X1169273Y979383D01*
X1169332Y979020D01*
X1169381Y978655D01*
X1169422Y978289D01*
X1169453Y977922D01*
X1169476Y977555D01*
X1169489Y977187D01*
X1169494Y976819D01*
X1169489Y976451D01*
X1169476Y976083D01*
X1169453Y975716D01*
X1169422Y975349D01*
X1169381Y974983D01*
X1169332Y974618D01*
X1169273Y974255D01*
X1169206Y973893D01*
X1169130Y973532D01*
X1169044Y973174D01*
X1168951Y972818D01*
X1168848Y972465D01*
X1168737Y972114D01*
X1168617Y971766D01*
X1168489Y971421D01*
X1168352Y971079D01*
X1168207Y970740D01*
X1168054Y970406D01*
X1167892Y970075D01*
X1167723Y969748D01*
X1167545Y969426D01*
X1167360Y969107D01*
X1167167Y968794D01*
X1166966Y968485D01*
X1166758Y968182D01*
X1166542Y967884D01*
X1166319Y967591D01*
X1166089Y967303D01*
X1165852Y967021D01*
X1165608Y966746D01*
X1165358Y966476D01*
X1165101Y966212D01*
X1164837Y965955D01*
X1164567Y965705D01*
X1164292Y965461D01*
X1164010Y965224D01*
X1163722Y964994D01*
X1163429Y964771D01*
X1163131Y964555D01*
X1162828Y964347D01*
X1162519Y964146D01*
X1162206Y963953D01*
X1161887Y963768D01*
X1161565Y963590D01*
X1161238Y963421D01*
X1160907Y963259D01*
X1160573Y963106D01*
X1160234Y962961D01*
X1159892Y962824D01*
X1159547Y962696D01*
X1159199Y962576D01*
X1158848Y962465D01*
X1158495Y962362D01*
X1158139Y962269D01*
X1157781Y962183D01*
X1157420Y962107D01*
X1157058Y962040D01*
X1156695Y961981D01*
X1156330Y961932D01*
X1155964Y961891D01*
X1155597Y961860D01*
X1155230Y961837D01*
X1154862Y961824D01*
X1154494Y961819D01*
X1154126Y961824D01*
X1153758Y961837D01*
X1153391Y961860D01*
X1153024Y961891D01*
X1152658Y961932D01*
X1152293Y961981D01*
X1151930Y962040D01*
X1151568Y962107D01*
X1151207Y962183D01*
X1150849Y962269D01*
X1150493Y962362D01*
X1150140Y962465D01*
X1149789Y962576D01*
X1149441Y962696D01*
X1149096Y962824D01*
X1148754Y962961D01*
X1148415Y963106D01*
X1148081Y963259D01*
X1147750Y963421D01*
X1147423Y963590D01*
X1147101Y963768D01*
X1146782Y963953D01*
X1146469Y964146D01*
X1146160Y964347D01*
X1145857Y964555D01*
X1145559Y964771D01*
X1145266Y964994D01*
X1144978Y965224D01*
X1144696Y965461D01*
X1144421Y965705D01*
X1144151Y965955D01*
X1143887Y966212D01*
X1143630Y966476D01*
X1143380Y966746D01*
X1143136Y967021D01*
X1142899Y967303D01*
X1142669Y967591D01*
X1142446Y967884D01*
X1142230Y968182D01*
X1142022Y968485D01*
X1141821Y968794D01*
X1141628Y969107D01*
X1141443Y969426D01*
X1141265Y969748D01*
X1141096Y970075D01*
X1140934Y970406D01*
X1140781Y970740D01*
X1140636Y971079D01*
X1140499Y971421D01*
X1140371Y971766D01*
X1140251Y972114D01*
X1140140Y972465D01*
X1140037Y972818D01*
X1139944Y973174D01*
X1139858Y973532D01*
X1139782Y973893D01*
X1139715Y974255D01*
X1139656Y974618D01*
X1139607Y974983D01*
X1139566Y975349D01*
X1139535Y975716D01*
X1139512Y976083D01*
X1139499Y976451D01*
X1139494Y976819D01*
D11*
X57373Y66034D02*
X1218331Y65249D01*
X1218713Y1072728D01*
X57755Y1073513D01*
X57373Y66034D01*
X157098Y977377D02*
X157021Y976308D01*
X156869Y975248D01*
X156641Y974201D01*
X156339Y973173D01*
X155965Y972169D01*
X155520Y971194D01*
X155006Y970254D01*
X154427Y969352D01*
X153785Y968495D01*
X153083Y967685D01*
X152325Y966927D01*
X151516Y966226D01*
X150658Y965583D01*
X149757Y965004D01*
X148816Y964491D01*
X147842Y964046D01*
X146838Y963671D01*
X145810Y963369D01*
X144763Y963142D01*
X143702Y962989D01*
X142633Y962913D01*
X141562Y962913D01*
X140493Y962989D01*
X139433Y963142D01*
X138386Y963369D01*
X137358Y963671D01*
X136354Y964046D01*
X135379Y964491D01*
X134439Y965004D01*
X133537Y965583D01*
X132680Y966226D01*
X131870Y966927D01*
X131112Y967685D01*
X130411Y968495D01*
X129769Y969352D01*
X129189Y970254D01*
X128676Y971194D01*
X128231Y972169D01*
X127856Y973173D01*
X127554Y974201D01*
X127327Y975248D01*
X127174Y976308D01*
X127098Y977377D01*
X127098Y978448D01*
X127174Y979517D01*
X127327Y980578D01*
X127554Y981625D01*
X127856Y982653D01*
X128231Y983657D01*
X128676Y984631D01*
X129189Y985572D01*
X129769Y986473D01*
X130411Y987331D01*
X131112Y988140D01*
X131870Y988898D01*
X132680Y989600D01*
X133537Y990242D01*
X134439Y990821D01*
X135379Y991335D01*
X136354Y991780D01*
X137358Y992154D01*
X138386Y992456D01*
X139433Y992684D01*
X140493Y992836D01*
X141562Y992913D01*
X142633Y992913D01*
X143702Y992836D01*
X144763Y992684D01*
X145810Y992456D01*
X146838Y992154D01*
X147842Y991780D01*
X148816Y991335D01*
X149757Y990821D01*
X150658Y990242D01*
X151516Y989600D01*
X152325Y988898D01*
X153083Y988140D01*
X153785Y987331D01*
X154427Y986473D01*
X155006Y985572D01*
X155520Y984631D01*
X155965Y983657D01*
X156339Y982653D01*
X156641Y981625D01*
X156869Y980578D01*
X157021Y979517D01*
X157098Y978448D01*
X157098Y977377D01*
X156636Y124372D02*
X156560Y123303D01*
X156407Y122243D01*
X156179Y121196D01*
X155878Y120168D01*
X155503Y119164D01*
X155058Y118189D01*
X154545Y117249D01*
X153965Y116348D01*
X153323Y115490D01*
X152622Y114680D01*
X151864Y113922D01*
X151054Y113221D01*
X150196Y112579D01*
X149295Y111999D01*
X148355Y111486D01*
X147380Y111041D01*
X146376Y110666D01*
X145348Y110364D01*
X144301Y110137D01*
X143241Y109984D01*
X142172Y109908D01*
X141100Y109908D01*
X140032Y109984D01*
X138971Y110137D01*
X137924Y110364D01*
X136896Y110666D01*
X135892Y111041D01*
X134918Y111486D01*
X133977Y111999D01*
X133076Y112579D01*
X132218Y113221D01*
X131408Y113922D01*
X130651Y114680D01*
X129949Y115490D01*
X129307Y116348D01*
X128728Y117249D01*
X128214Y118189D01*
X127769Y119164D01*
X127395Y120168D01*
X127093Y121196D01*
X126865Y122243D01*
X126713Y123303D01*
X126636Y124372D01*
X126636Y125444D01*
X126713Y126512D01*
X126865Y127573D01*
X127093Y128620D01*
X127395Y129648D01*
X127769Y130652D01*
X128214Y131626D01*
X128728Y132567D01*
X129307Y133468D01*
X129949Y134326D01*
X130651Y135136D01*
X131408Y135893D01*
X132218Y136595D01*
X133076Y137237D01*
X133977Y137816D01*
X134918Y138330D01*
X135892Y138775D01*
X136896Y139149D01*
X137924Y139451D01*
X138971Y139679D01*
X140032Y139831D01*
X141100Y139908D01*
X142172Y139908D01*
X143241Y139831D01*
X144301Y139679D01*
X145348Y139451D01*
X146376Y139149D01*
X147380Y138775D01*
X148355Y138330D01*
X149295Y137816D01*
X150196Y137237D01*
X151054Y136595D01*
X151864Y135893D01*
X152622Y135136D01*
X153323Y134326D01*
X153965Y133468D01*
X154545Y132567D01*
X155058Y131626D01*
X155503Y130652D01*
X155878Y129648D01*
X156179Y128620D01*
X156407Y127573D01*
X156560Y126512D01*
X156636Y125444D01*
X156636Y124372D01*
X1172475Y122135D02*
X1172398Y121067D01*
X1172246Y120006D01*
X1172018Y118959D01*
X1171716Y117931D01*
X1171342Y116927D01*
X1170896Y115952D01*
X1170383Y115012D01*
X1169804Y114111D01*
X1169162Y113253D01*
X1168460Y112443D01*
X1167702Y111686D01*
X1166893Y110984D01*
X1166035Y110342D01*
X1165133Y109763D01*
X1164193Y109249D01*
X1163218Y108804D01*
X1162215Y108430D01*
X1161187Y108128D01*
X1160140Y107900D01*
X1159079Y107747D01*
X1158010Y107671D01*
X1156939Y107671D01*
X1155870Y107747D01*
X1154810Y107900D01*
X1153763Y108128D01*
X1152735Y108430D01*
X1151731Y108804D01*
X1150756Y109249D01*
X1149816Y109763D01*
X1148914Y110342D01*
X1148057Y110984D01*
X1147247Y111686D01*
X1146489Y112443D01*
X1145787Y113253D01*
X1145145Y114111D01*
X1144566Y115012D01*
X1144053Y115952D01*
X1143608Y116927D01*
X1143233Y117931D01*
X1142931Y118959D01*
X1142703Y120006D01*
X1142551Y121067D01*
X1142475Y122135D01*
X1142475Y123207D01*
X1142551Y124275D01*
X1142703Y125336D01*
X1142931Y126383D01*
X1143233Y127411D01*
X1143608Y128415D01*
X1144053Y129390D01*
X1144566Y130330D01*
X1145145Y131231D01*
X1145787Y132089D01*
X1146489Y132899D01*
X1147247Y133656D01*
X1148057Y134358D01*
X1148914Y135000D01*
X1149816Y135579D01*
X1150756Y136093D01*
X1151731Y136538D01*
X1152735Y136912D01*
X1153763Y137214D01*
X1154810Y137442D01*
X1155870Y137595D01*
X1156939Y137671D01*
X1158010Y137671D01*
X1159079Y137595D01*
X1160140Y137442D01*
X1161187Y137214D01*
X1162215Y136912D01*
X1163218Y136538D01*
X1164193Y136093D01*
X1165133Y135579D01*
X1166035Y135000D01*
X1166893Y134358D01*
X1167702Y133656D01*
X1168460Y132899D01*
X1169162Y132089D01*
X1169804Y131231D01*
X1170383Y130330D01*
X1170896Y129390D01*
X1171342Y128415D01*
X1171716Y127411D01*
X1172018Y126383D01*
X1172246Y125336D01*
X1172398Y124275D01*
X1172475Y123207D01*
X1172475Y122135D01*
X1169494Y976284D02*
X1169418Y975215D01*
X1169265Y974154D01*
X1169038Y973108D01*
X1168736Y972079D01*
X1168361Y971076D01*
X1167916Y970101D01*
X1167403Y969161D01*
X1166823Y968259D01*
X1166181Y967401D01*
X1165480Y966592D01*
X1164722Y965834D01*
X1163912Y965132D01*
X1163055Y964490D01*
X1162153Y963911D01*
X1161213Y963398D01*
X1160238Y962952D01*
X1159234Y962578D01*
X1158206Y962276D01*
X1157159Y962048D01*
X1156099Y961896D01*
X1155030Y961819D01*
X1153959Y961819D01*
X1152890Y961896D01*
X1151829Y962048D01*
X1150782Y962276D01*
X1149754Y962578D01*
X1148750Y962952D01*
X1147776Y963398D01*
X1146835Y963911D01*
X1145934Y964490D01*
X1145076Y965132D01*
X1144267Y965834D01*
X1143509Y966592D01*
X1142807Y967401D01*
X1142165Y968259D01*
X1141586Y969161D01*
X1141072Y970101D01*
X1140627Y971076D01*
X1140253Y972079D01*
X1139951Y973108D01*
X1139723Y974154D01*
X1139571Y975215D01*
X1139494Y976284D01*
X1139494Y977355D01*
X1139571Y978424D01*
X1139723Y979484D01*
X1139951Y980531D01*
X1140253Y981559D01*
X1140627Y982563D01*
X1141072Y983538D01*
X1141586Y984478D01*
X1142165Y985380D01*
X1142807Y986238D01*
X1143509Y987047D01*
X1144267Y987805D01*
X1145076Y988507D01*
X1145934Y989149D01*
X1146835Y989728D01*
X1147776Y990241D01*
X1148750Y990687D01*
X1149754Y991061D01*
X1150782Y991363D01*
X1151829Y991591D01*
X1152890Y991743D01*
X1153959Y991819D01*
X1155030Y991819D01*
X1156099Y991743D01*
X1157159Y991591D01*
X1158206Y991363D01*
X1159234Y991061D01*
X1160238Y990687D01*
X1161213Y990241D01*
X1162153Y989728D01*
X1163055Y989149D01*
X1163912Y988507D01*
X1164722Y987805D01*
X1165480Y987047D01*
X1166181Y986238D01*
X1166823Y985380D01*
X1167403Y984478D01*
X1167916Y983538D01*
X1168361Y982563D01*
X1168736Y981559D01*
X1169038Y980531D01*
X1169265Y979484D01*
X1169418Y978424D01*
X1169494Y977355D01*
X1169494Y976284D01*
M02*
