G04 EAGLE Gerber RS-274X export*
G75*
%MOMM*%
%FSLAX34Y34*%
%LPD*%
%INTop Copper*%
%IPPOS*%
%AMOC8*
5,1,8,0,0,1.08239X$1,22.5*%
G01*
%ADD10C,2.959681*%
%ADD11R,12.000000X2.000000*%
%ADD12C,0.152400*%
%ADD13C,0.200000*%
%ADD14C,0.508000*%


D10*
X177492Y942096D03*
X176677Y161862D03*
X1122858Y160147D03*
D11*
X258691Y451093D03*
X258513Y676785D03*
X257462Y625947D03*
X630613Y802028D03*
X258875Y778992D03*
X258300Y727785D03*
X866566Y574733D03*
X865030Y802015D03*
X629063Y546612D03*
X630115Y319749D03*
X257998Y500888D03*
X864456Y320136D03*
X867133Y546677D03*
X259701Y401065D03*
X259634Y354528D03*
X629018Y574347D03*
D12*
X503114Y287897D02*
X339919Y451093D01*
X258691Y451093D01*
X503114Y287897D02*
X617134Y287897D01*
X629692Y300455D02*
X629692Y320172D01*
X629692Y300455D02*
X617134Y287897D01*
X630115Y319749D02*
X629692Y320172D01*
X629692Y323569D01*
X393699Y500888D02*
X257998Y500888D01*
X439423Y546612D02*
X629063Y546612D01*
X439423Y546612D02*
X393699Y500888D01*
X384287Y626898D02*
X258413Y626898D01*
D13*
X257462Y625947D01*
D12*
X436837Y574347D02*
X629018Y574347D01*
X436837Y574347D02*
X384287Y626898D01*
X508427Y830442D02*
X616271Y830442D01*
X629779Y816934D01*
X629779Y802861D01*
X354770Y676785D02*
X258513Y676785D01*
X354770Y676785D02*
X508427Y830442D01*
X629779Y802861D02*
X630613Y802028D01*
X362843Y401065D02*
X259701Y401065D01*
X362843Y401065D02*
X495539Y268370D01*
X863366Y319046D02*
X864456Y320136D01*
X863366Y319046D02*
X863366Y285312D01*
X846423Y268370D01*
X495539Y268370D01*
X379844Y354528D02*
X259634Y354528D01*
X379844Y354528D02*
X487331Y247041D01*
X997573Y247041D01*
X1018039Y267507D01*
X1018039Y525274D01*
X996635Y546677D02*
X867133Y546677D01*
X996635Y546677D02*
X1018039Y525274D01*
X491375Y871118D02*
X399250Y778992D01*
X258875Y778992D01*
X491375Y871118D02*
X990571Y871118D01*
X1014661Y847027D01*
X1014661Y594268D01*
X995127Y574733D02*
X866566Y574733D01*
X995127Y574733D02*
X1014661Y594268D01*
D14*
X865030Y802015D02*
X864802Y802243D01*
D12*
X864802Y832719D01*
X847522Y849998D01*
X499107Y849998D01*
X376894Y727785D02*
X258300Y727785D01*
X376894Y727785D02*
X499107Y849998D01*
M02*
